G04 #@! TF.GenerationSoftware,KiCad,Pcbnew,9.0.5*
G04 #@! TF.CreationDate,2025-11-22T16:47:00-05:00*
G04 #@! TF.ProjectId,esp_now_button_v2,6573705f-6e6f-4775-9f62-7574746f6e5f,rev?*
G04 #@! TF.SameCoordinates,Original*
G04 #@! TF.FileFunction,Legend,Top*
G04 #@! TF.FilePolarity,Positive*
%FSLAX46Y46*%
G04 Gerber Fmt 4.6, Leading zero omitted, Abs format (unit mm)*
G04 Created by KiCad (PCBNEW 9.0.5) date 2025-11-22 16:47:00*
%MOMM*%
%LPD*%
G01*
G04 APERTURE LIST*
G04 Aperture macros list*
%AMRoundRect*
0 Rectangle with rounded corners*
0 $1 Rounding radius*
0 $2 $3 $4 $5 $6 $7 $8 $9 X,Y pos of 4 corners*
0 Add a 4 corners polygon primitive as box body*
4,1,4,$2,$3,$4,$5,$6,$7,$8,$9,$2,$3,0*
0 Add four circle primitives for the rounded corners*
1,1,$1+$1,$2,$3*
1,1,$1+$1,$4,$5*
1,1,$1+$1,$6,$7*
1,1,$1+$1,$8,$9*
0 Add four rect primitives between the rounded corners*
20,1,$1+$1,$2,$3,$4,$5,0*
20,1,$1+$1,$4,$5,$6,$7,0*
20,1,$1+$1,$6,$7,$8,$9,0*
20,1,$1+$1,$8,$9,$2,$3,0*%
%AMFreePoly0*
4,1,9,3.862500,-0.866500,0.737500,-0.866500,0.737500,-0.450000,-0.737500,-0.450000,-0.737500,0.450000,0.737500,0.450000,0.737500,0.866500,3.862500,0.866500,3.862500,-0.866500,3.862500,-0.866500,$1*%
G04 Aperture macros list end*
%ADD10C,0.150000*%
%ADD11C,0.100000*%
%ADD12C,0.120000*%
%ADD13RoundRect,0.250000X0.625000X-0.400000X0.625000X0.400000X-0.625000X0.400000X-0.625000X-0.400000X0*%
%ADD14R,1.800000X1.800000*%
%ADD15C,1.800000*%
%ADD16RoundRect,0.250000X-0.625000X0.400000X-0.625000X-0.400000X0.625000X-0.400000X0.625000X0.400000X0*%
%ADD17R,1.700000X1.700000*%
%ADD18O,1.700000X1.700000*%
%ADD19C,2.000000*%
%ADD20RoundRect,0.250000X-0.925000X0.875000X-0.925000X-0.875000X0.925000X-0.875000X0.925000X0.875000X0*%
%ADD21RoundRect,0.250000X0.475000X-0.337500X0.475000X0.337500X-0.475000X0.337500X-0.475000X-0.337500X0*%
%ADD22R,1.500000X1.000000*%
%ADD23O,3.048000X1.850000*%
%ADD24RoundRect,0.250000X0.925000X-0.875000X0.925000X0.875000X-0.925000X0.875000X-0.925000X-0.875000X0*%
%ADD25R,1.300000X0.900000*%
%ADD26FreePoly0,180.000000*%
%ADD27RoundRect,0.200000X-0.250000X-0.200000X0.250000X-0.200000X0.250000X0.200000X-0.250000X0.200000X0*%
%ADD28R,2.800000X2.800000*%
%ADD29R,2.000000X0.900000*%
%ADD30R,0.900000X2.000000*%
%ADD31R,5.000000X5.000000*%
%ADD32RoundRect,0.250000X-0.600000X-0.750000X0.600000X-0.750000X0.600000X0.750000X-0.600000X0.750000X0*%
%ADD33O,1.700000X2.000000*%
%ADD34R,1.500000X1.050000*%
%ADD35O,1.500000X1.050000*%
G04 APERTURE END LIST*
D10*
X161671048Y-109547866D02*
X162432953Y-109547866D01*
X162052000Y-109928819D02*
X162052000Y-109166914D01*
X171831048Y-109547866D02*
X172592953Y-109547866D01*
X138811048Y-64843866D02*
X139572953Y-64843866D01*
X139192000Y-65224819D02*
X139192000Y-64462914D01*
D11*
X136098728Y-92682782D02*
X136063014Y-92754211D01*
X136063014Y-92754211D02*
X136063014Y-92861353D01*
X136063014Y-92861353D02*
X136098728Y-92968496D01*
X136098728Y-92968496D02*
X136170157Y-93039925D01*
X136170157Y-93039925D02*
X136241585Y-93075639D01*
X136241585Y-93075639D02*
X136384442Y-93111353D01*
X136384442Y-93111353D02*
X136491585Y-93111353D01*
X136491585Y-93111353D02*
X136634442Y-93075639D01*
X136634442Y-93075639D02*
X136705871Y-93039925D01*
X136705871Y-93039925D02*
X136777300Y-92968496D01*
X136777300Y-92968496D02*
X136813014Y-92861353D01*
X136813014Y-92861353D02*
X136813014Y-92789925D01*
X136813014Y-92789925D02*
X136777300Y-92682782D01*
X136777300Y-92682782D02*
X136741585Y-92647068D01*
X136741585Y-92647068D02*
X136491585Y-92647068D01*
X136491585Y-92647068D02*
X136491585Y-92789925D01*
X136813014Y-92325639D02*
X136063014Y-92325639D01*
X136063014Y-92325639D02*
X136813014Y-91897068D01*
X136813014Y-91897068D02*
X136063014Y-91897068D01*
X136813014Y-91539925D02*
X136063014Y-91539925D01*
X136063014Y-91539925D02*
X136063014Y-91361354D01*
X136063014Y-91361354D02*
X136098728Y-91254211D01*
X136098728Y-91254211D02*
X136170157Y-91182782D01*
X136170157Y-91182782D02*
X136241585Y-91147068D01*
X136241585Y-91147068D02*
X136384442Y-91111354D01*
X136384442Y-91111354D02*
X136491585Y-91111354D01*
X136491585Y-91111354D02*
X136634442Y-91147068D01*
X136634442Y-91147068D02*
X136705871Y-91182782D01*
X136705871Y-91182782D02*
X136777300Y-91254211D01*
X136777300Y-91254211D02*
X136813014Y-91361354D01*
X136813014Y-91361354D02*
X136813014Y-91539925D01*
X136743014Y-89697068D02*
X136385871Y-89947068D01*
X136743014Y-90125639D02*
X135993014Y-90125639D01*
X135993014Y-90125639D02*
X135993014Y-89839925D01*
X135993014Y-89839925D02*
X136028728Y-89768496D01*
X136028728Y-89768496D02*
X136064442Y-89732782D01*
X136064442Y-89732782D02*
X136135871Y-89697068D01*
X136135871Y-89697068D02*
X136243014Y-89697068D01*
X136243014Y-89697068D02*
X136314442Y-89732782D01*
X136314442Y-89732782D02*
X136350157Y-89768496D01*
X136350157Y-89768496D02*
X136385871Y-89839925D01*
X136385871Y-89839925D02*
X136385871Y-90125639D01*
X135993014Y-89447068D02*
X136743014Y-88947068D01*
X135993014Y-88947068D02*
X136743014Y-89447068D01*
X135993014Y-87672782D02*
X135993014Y-87244211D01*
X136743014Y-87458496D02*
X135993014Y-87458496D01*
X135993014Y-87065639D02*
X136743014Y-86565639D01*
X135993014Y-86565639D02*
X136743014Y-87065639D01*
D10*
X132969048Y-54429866D02*
X133730953Y-54429866D01*
X133350000Y-54810819D02*
X133350000Y-54048914D01*
X131191048Y-65605866D02*
X131952953Y-65605866D01*
X131572000Y-65986819D02*
X131572000Y-65224914D01*
D11*
X135863014Y-85187068D02*
X135863014Y-84722782D01*
X135863014Y-84722782D02*
X136148728Y-84972782D01*
X136148728Y-84972782D02*
X136148728Y-84865639D01*
X136148728Y-84865639D02*
X136184442Y-84794211D01*
X136184442Y-84794211D02*
X136220157Y-84758496D01*
X136220157Y-84758496D02*
X136291585Y-84722782D01*
X136291585Y-84722782D02*
X136470157Y-84722782D01*
X136470157Y-84722782D02*
X136541585Y-84758496D01*
X136541585Y-84758496D02*
X136577300Y-84794211D01*
X136577300Y-84794211D02*
X136613014Y-84865639D01*
X136613014Y-84865639D02*
X136613014Y-85079925D01*
X136613014Y-85079925D02*
X136577300Y-85151353D01*
X136577300Y-85151353D02*
X136541585Y-85187068D01*
X136541585Y-84401353D02*
X136577300Y-84365639D01*
X136577300Y-84365639D02*
X136613014Y-84401353D01*
X136613014Y-84401353D02*
X136577300Y-84437067D01*
X136577300Y-84437067D02*
X136541585Y-84401353D01*
X136541585Y-84401353D02*
X136613014Y-84401353D01*
X135863014Y-84115639D02*
X135863014Y-83651353D01*
X135863014Y-83651353D02*
X136148728Y-83901353D01*
X136148728Y-83901353D02*
X136148728Y-83794210D01*
X136148728Y-83794210D02*
X136184442Y-83722782D01*
X136184442Y-83722782D02*
X136220157Y-83687067D01*
X136220157Y-83687067D02*
X136291585Y-83651353D01*
X136291585Y-83651353D02*
X136470157Y-83651353D01*
X136470157Y-83651353D02*
X136541585Y-83687067D01*
X136541585Y-83687067D02*
X136577300Y-83722782D01*
X136577300Y-83722782D02*
X136613014Y-83794210D01*
X136613014Y-83794210D02*
X136613014Y-84008496D01*
X136613014Y-84008496D02*
X136577300Y-84079924D01*
X136577300Y-84079924D02*
X136541585Y-84115639D01*
X135863014Y-83437067D02*
X136613014Y-83187067D01*
X136613014Y-83187067D02*
X135863014Y-82937067D01*
D10*
X138811048Y-59255866D02*
X139572953Y-59255866D01*
X139192000Y-59636819D02*
X139192000Y-58874914D01*
X184234819Y-92882857D02*
X183758628Y-93216190D01*
X184234819Y-93454285D02*
X183234819Y-93454285D01*
X183234819Y-93454285D02*
X183234819Y-93073333D01*
X183234819Y-93073333D02*
X183282438Y-92978095D01*
X183282438Y-92978095D02*
X183330057Y-92930476D01*
X183330057Y-92930476D02*
X183425295Y-92882857D01*
X183425295Y-92882857D02*
X183568152Y-92882857D01*
X183568152Y-92882857D02*
X183663390Y-92930476D01*
X183663390Y-92930476D02*
X183711009Y-92978095D01*
X183711009Y-92978095D02*
X183758628Y-93073333D01*
X183758628Y-93073333D02*
X183758628Y-93454285D01*
X184234819Y-91930476D02*
X184234819Y-92501904D01*
X184234819Y-92216190D02*
X183234819Y-92216190D01*
X183234819Y-92216190D02*
X183377676Y-92311428D01*
X183377676Y-92311428D02*
X183472914Y-92406666D01*
X183472914Y-92406666D02*
X183520533Y-92501904D01*
X184234819Y-90978095D02*
X184234819Y-91549523D01*
X184234819Y-91263809D02*
X183234819Y-91263809D01*
X183234819Y-91263809D02*
X183377676Y-91359047D01*
X183377676Y-91359047D02*
X183472914Y-91454285D01*
X183472914Y-91454285D02*
X183520533Y-91549523D01*
X185034819Y-89275713D02*
X185034819Y-88656666D01*
X185034819Y-88656666D02*
X185415771Y-88989999D01*
X185415771Y-88989999D02*
X185415771Y-88847142D01*
X185415771Y-88847142D02*
X185463390Y-88751904D01*
X185463390Y-88751904D02*
X185511009Y-88704285D01*
X185511009Y-88704285D02*
X185606247Y-88656666D01*
X185606247Y-88656666D02*
X185844342Y-88656666D01*
X185844342Y-88656666D02*
X185939580Y-88704285D01*
X185939580Y-88704285D02*
X185987200Y-88751904D01*
X185987200Y-88751904D02*
X186034819Y-88847142D01*
X186034819Y-88847142D02*
X186034819Y-89132856D01*
X186034819Y-89132856D02*
X185987200Y-89228094D01*
X185987200Y-89228094D02*
X185939580Y-89275713D01*
X185034819Y-88323332D02*
X185034819Y-87704285D01*
X185034819Y-87704285D02*
X185415771Y-88037618D01*
X185415771Y-88037618D02*
X185415771Y-87894761D01*
X185415771Y-87894761D02*
X185463390Y-87799523D01*
X185463390Y-87799523D02*
X185511009Y-87751904D01*
X185511009Y-87751904D02*
X185606247Y-87704285D01*
X185606247Y-87704285D02*
X185844342Y-87704285D01*
X185844342Y-87704285D02*
X185939580Y-87751904D01*
X185939580Y-87751904D02*
X185987200Y-87799523D01*
X185987200Y-87799523D02*
X186034819Y-87894761D01*
X186034819Y-87894761D02*
X186034819Y-88180475D01*
X186034819Y-88180475D02*
X185987200Y-88275713D01*
X185987200Y-88275713D02*
X185939580Y-88323332D01*
X185034819Y-87085237D02*
X185034819Y-86989999D01*
X185034819Y-86989999D02*
X185082438Y-86894761D01*
X185082438Y-86894761D02*
X185130057Y-86847142D01*
X185130057Y-86847142D02*
X185225295Y-86799523D01*
X185225295Y-86799523D02*
X185415771Y-86751904D01*
X185415771Y-86751904D02*
X185653866Y-86751904D01*
X185653866Y-86751904D02*
X185844342Y-86799523D01*
X185844342Y-86799523D02*
X185939580Y-86847142D01*
X185939580Y-86847142D02*
X185987200Y-86894761D01*
X185987200Y-86894761D02*
X186034819Y-86989999D01*
X186034819Y-86989999D02*
X186034819Y-87085237D01*
X186034819Y-87085237D02*
X185987200Y-87180475D01*
X185987200Y-87180475D02*
X185939580Y-87228094D01*
X185939580Y-87228094D02*
X185844342Y-87275713D01*
X185844342Y-87275713D02*
X185653866Y-87323332D01*
X185653866Y-87323332D02*
X185415771Y-87323332D01*
X185415771Y-87323332D02*
X185225295Y-87275713D01*
X185225295Y-87275713D02*
X185130057Y-87228094D01*
X185130057Y-87228094D02*
X185082438Y-87180475D01*
X185082438Y-87180475D02*
X185034819Y-87085237D01*
X139771905Y-102444819D02*
X139771905Y-101444819D01*
X139771905Y-101444819D02*
X140010000Y-101444819D01*
X140010000Y-101444819D02*
X140152857Y-101492438D01*
X140152857Y-101492438D02*
X140248095Y-101587676D01*
X140248095Y-101587676D02*
X140295714Y-101682914D01*
X140295714Y-101682914D02*
X140343333Y-101873390D01*
X140343333Y-101873390D02*
X140343333Y-102016247D01*
X140343333Y-102016247D02*
X140295714Y-102206723D01*
X140295714Y-102206723D02*
X140248095Y-102301961D01*
X140248095Y-102301961D02*
X140152857Y-102397200D01*
X140152857Y-102397200D02*
X140010000Y-102444819D01*
X140010000Y-102444819D02*
X139771905Y-102444819D01*
X140724286Y-101540057D02*
X140771905Y-101492438D01*
X140771905Y-101492438D02*
X140867143Y-101444819D01*
X140867143Y-101444819D02*
X141105238Y-101444819D01*
X141105238Y-101444819D02*
X141200476Y-101492438D01*
X141200476Y-101492438D02*
X141248095Y-101540057D01*
X141248095Y-101540057D02*
X141295714Y-101635295D01*
X141295714Y-101635295D02*
X141295714Y-101730533D01*
X141295714Y-101730533D02*
X141248095Y-101873390D01*
X141248095Y-101873390D02*
X140676667Y-102444819D01*
X140676667Y-102444819D02*
X141295714Y-102444819D01*
X138200475Y-96524819D02*
X137724285Y-96524819D01*
X137724285Y-96524819D02*
X137724285Y-95524819D01*
X138533809Y-96001009D02*
X138867142Y-96001009D01*
X139009999Y-96524819D02*
X138533809Y-96524819D01*
X138533809Y-96524819D02*
X138533809Y-95524819D01*
X138533809Y-95524819D02*
X139009999Y-95524819D01*
X139438571Y-96524819D02*
X139438571Y-95524819D01*
X139438571Y-95524819D02*
X139676666Y-95524819D01*
X139676666Y-95524819D02*
X139819523Y-95572438D01*
X139819523Y-95572438D02*
X139914761Y-95667676D01*
X139914761Y-95667676D02*
X139962380Y-95762914D01*
X139962380Y-95762914D02*
X140009999Y-95953390D01*
X140009999Y-95953390D02*
X140009999Y-96096247D01*
X140009999Y-96096247D02*
X139962380Y-96286723D01*
X139962380Y-96286723D02*
X139914761Y-96381961D01*
X139914761Y-96381961D02*
X139819523Y-96477200D01*
X139819523Y-96477200D02*
X139676666Y-96524819D01*
X139676666Y-96524819D02*
X139438571Y-96524819D01*
X140200476Y-96620057D02*
X140962380Y-96620057D01*
X141152857Y-96239104D02*
X141629047Y-96239104D01*
X141057619Y-96524819D02*
X141390952Y-95524819D01*
X141390952Y-95524819D02*
X141724285Y-96524819D01*
X142486190Y-95858152D02*
X142486190Y-96524819D01*
X142057619Y-95858152D02*
X142057619Y-96381961D01*
X142057619Y-96381961D02*
X142105238Y-96477200D01*
X142105238Y-96477200D02*
X142200476Y-96524819D01*
X142200476Y-96524819D02*
X142343333Y-96524819D01*
X142343333Y-96524819D02*
X142438571Y-96477200D01*
X142438571Y-96477200D02*
X142486190Y-96429580D01*
X142867143Y-96524819D02*
X143390952Y-95858152D01*
X142867143Y-95858152D02*
X143390952Y-96524819D01*
X133263333Y-96686819D02*
X132930000Y-96210628D01*
X132691905Y-96686819D02*
X132691905Y-95686819D01*
X132691905Y-95686819D02*
X133072857Y-95686819D01*
X133072857Y-95686819D02*
X133168095Y-95734438D01*
X133168095Y-95734438D02*
X133215714Y-95782057D01*
X133215714Y-95782057D02*
X133263333Y-95877295D01*
X133263333Y-95877295D02*
X133263333Y-96020152D01*
X133263333Y-96020152D02*
X133215714Y-96115390D01*
X133215714Y-96115390D02*
X133168095Y-96163009D01*
X133168095Y-96163009D02*
X133072857Y-96210628D01*
X133072857Y-96210628D02*
X132691905Y-96210628D01*
X133596667Y-95686819D02*
X134215714Y-95686819D01*
X134215714Y-95686819D02*
X133882381Y-96067771D01*
X133882381Y-96067771D02*
X134025238Y-96067771D01*
X134025238Y-96067771D02*
X134120476Y-96115390D01*
X134120476Y-96115390D02*
X134168095Y-96163009D01*
X134168095Y-96163009D02*
X134215714Y-96258247D01*
X134215714Y-96258247D02*
X134215714Y-96496342D01*
X134215714Y-96496342D02*
X134168095Y-96591580D01*
X134168095Y-96591580D02*
X134120476Y-96639200D01*
X134120476Y-96639200D02*
X134025238Y-96686819D01*
X134025238Y-96686819D02*
X133739524Y-96686819D01*
X133739524Y-96686819D02*
X133644286Y-96639200D01*
X133644286Y-96639200D02*
X133596667Y-96591580D01*
X131894819Y-99989047D02*
X131894819Y-100560475D01*
X131894819Y-100274761D02*
X130894819Y-100274761D01*
X130894819Y-100274761D02*
X131037676Y-100369999D01*
X131037676Y-100369999D02*
X131132914Y-100465237D01*
X131132914Y-100465237D02*
X131180533Y-100560475D01*
X131894819Y-99560475D02*
X130894819Y-99560475D01*
X131513866Y-99465237D02*
X131894819Y-99179523D01*
X131228152Y-99179523D02*
X131609104Y-99560475D01*
X122705905Y-61756819D02*
X122705905Y-60756819D01*
X122705905Y-60756819D02*
X122944000Y-60756819D01*
X122944000Y-60756819D02*
X123086857Y-60804438D01*
X123086857Y-60804438D02*
X123182095Y-60899676D01*
X123182095Y-60899676D02*
X123229714Y-60994914D01*
X123229714Y-60994914D02*
X123277333Y-61185390D01*
X123277333Y-61185390D02*
X123277333Y-61328247D01*
X123277333Y-61328247D02*
X123229714Y-61518723D01*
X123229714Y-61518723D02*
X123182095Y-61613961D01*
X123182095Y-61613961D02*
X123086857Y-61709200D01*
X123086857Y-61709200D02*
X122944000Y-61756819D01*
X122944000Y-61756819D02*
X122705905Y-61756819D01*
X124229714Y-61756819D02*
X123658286Y-61756819D01*
X123944000Y-61756819D02*
X123944000Y-60756819D01*
X123944000Y-60756819D02*
X123848762Y-60899676D01*
X123848762Y-60899676D02*
X123753524Y-60994914D01*
X123753524Y-60994914D02*
X123658286Y-61042533D01*
X122801142Y-67676819D02*
X122324952Y-67676819D01*
X122324952Y-67676819D02*
X122324952Y-66676819D01*
X123134476Y-67153009D02*
X123467809Y-67153009D01*
X123610666Y-67676819D02*
X123134476Y-67676819D01*
X123134476Y-67676819D02*
X123134476Y-66676819D01*
X123134476Y-66676819D02*
X123610666Y-66676819D01*
X124039238Y-67676819D02*
X124039238Y-66676819D01*
X124039238Y-66676819D02*
X124277333Y-66676819D01*
X124277333Y-66676819D02*
X124420190Y-66724438D01*
X124420190Y-66724438D02*
X124515428Y-66819676D01*
X124515428Y-66819676D02*
X124563047Y-66914914D01*
X124563047Y-66914914D02*
X124610666Y-67105390D01*
X124610666Y-67105390D02*
X124610666Y-67248247D01*
X124610666Y-67248247D02*
X124563047Y-67438723D01*
X124563047Y-67438723D02*
X124515428Y-67533961D01*
X124515428Y-67533961D02*
X124420190Y-67629200D01*
X124420190Y-67629200D02*
X124277333Y-67676819D01*
X124277333Y-67676819D02*
X124039238Y-67676819D01*
X133524666Y-81496819D02*
X133524666Y-82211104D01*
X133524666Y-82211104D02*
X133477047Y-82353961D01*
X133477047Y-82353961D02*
X133381809Y-82449200D01*
X133381809Y-82449200D02*
X133238952Y-82496819D01*
X133238952Y-82496819D02*
X133143714Y-82496819D01*
X134524666Y-82496819D02*
X133953238Y-82496819D01*
X134238952Y-82496819D02*
X134238952Y-81496819D01*
X134238952Y-81496819D02*
X134143714Y-81639676D01*
X134143714Y-81639676D02*
X134048476Y-81734914D01*
X134048476Y-81734914D02*
X133953238Y-81782533D01*
X132262762Y-94196819D02*
X132262762Y-95006342D01*
X132262762Y-95006342D02*
X132310381Y-95101580D01*
X132310381Y-95101580D02*
X132358000Y-95149200D01*
X132358000Y-95149200D02*
X132453238Y-95196819D01*
X132453238Y-95196819D02*
X132643714Y-95196819D01*
X132643714Y-95196819D02*
X132738952Y-95149200D01*
X132738952Y-95149200D02*
X132786571Y-95101580D01*
X132786571Y-95101580D02*
X132834190Y-95006342D01*
X132834190Y-95006342D02*
X132834190Y-94196819D01*
X133262762Y-94911104D02*
X133738952Y-94911104D01*
X133167524Y-95196819D02*
X133500857Y-94196819D01*
X133500857Y-94196819D02*
X133834190Y-95196819D01*
X134738952Y-95196819D02*
X134405619Y-94720628D01*
X134167524Y-95196819D02*
X134167524Y-94196819D01*
X134167524Y-94196819D02*
X134548476Y-94196819D01*
X134548476Y-94196819D02*
X134643714Y-94244438D01*
X134643714Y-94244438D02*
X134691333Y-94292057D01*
X134691333Y-94292057D02*
X134738952Y-94387295D01*
X134738952Y-94387295D02*
X134738952Y-94530152D01*
X134738952Y-94530152D02*
X134691333Y-94625390D01*
X134691333Y-94625390D02*
X134643714Y-94673009D01*
X134643714Y-94673009D02*
X134548476Y-94720628D01*
X134548476Y-94720628D02*
X134167524Y-94720628D01*
X135024667Y-94196819D02*
X135596095Y-94196819D01*
X135310381Y-95196819D02*
X135310381Y-94196819D01*
X181196905Y-100614819D02*
X181196905Y-99614819D01*
X181196905Y-99614819D02*
X181435000Y-99614819D01*
X181435000Y-99614819D02*
X181577857Y-99662438D01*
X181577857Y-99662438D02*
X181673095Y-99757676D01*
X181673095Y-99757676D02*
X181720714Y-99852914D01*
X181720714Y-99852914D02*
X181768333Y-100043390D01*
X181768333Y-100043390D02*
X181768333Y-100186247D01*
X181768333Y-100186247D02*
X181720714Y-100376723D01*
X181720714Y-100376723D02*
X181673095Y-100471961D01*
X181673095Y-100471961D02*
X181577857Y-100567200D01*
X181577857Y-100567200D02*
X181435000Y-100614819D01*
X181435000Y-100614819D02*
X181196905Y-100614819D01*
X182625476Y-99948152D02*
X182625476Y-100614819D01*
X182387381Y-99567200D02*
X182149286Y-100281485D01*
X182149286Y-100281485D02*
X182768333Y-100281485D01*
X181292142Y-94694819D02*
X180815952Y-94694819D01*
X180815952Y-94694819D02*
X180815952Y-93694819D01*
X181625476Y-94171009D02*
X181958809Y-94171009D01*
X182101666Y-94694819D02*
X181625476Y-94694819D01*
X181625476Y-94694819D02*
X181625476Y-93694819D01*
X181625476Y-93694819D02*
X182101666Y-93694819D01*
X182530238Y-94694819D02*
X182530238Y-93694819D01*
X182530238Y-93694819D02*
X182768333Y-93694819D01*
X182768333Y-93694819D02*
X182911190Y-93742438D01*
X182911190Y-93742438D02*
X183006428Y-93837676D01*
X183006428Y-93837676D02*
X183054047Y-93932914D01*
X183054047Y-93932914D02*
X183101666Y-94123390D01*
X183101666Y-94123390D02*
X183101666Y-94266247D01*
X183101666Y-94266247D02*
X183054047Y-94456723D01*
X183054047Y-94456723D02*
X183006428Y-94551961D01*
X183006428Y-94551961D02*
X182911190Y-94647200D01*
X182911190Y-94647200D02*
X182768333Y-94694819D01*
X182768333Y-94694819D02*
X182530238Y-94694819D01*
X120840667Y-76861200D02*
X120983524Y-76908819D01*
X120983524Y-76908819D02*
X121221619Y-76908819D01*
X121221619Y-76908819D02*
X121316857Y-76861200D01*
X121316857Y-76861200D02*
X121364476Y-76813580D01*
X121364476Y-76813580D02*
X121412095Y-76718342D01*
X121412095Y-76718342D02*
X121412095Y-76623104D01*
X121412095Y-76623104D02*
X121364476Y-76527866D01*
X121364476Y-76527866D02*
X121316857Y-76480247D01*
X121316857Y-76480247D02*
X121221619Y-76432628D01*
X121221619Y-76432628D02*
X121031143Y-76385009D01*
X121031143Y-76385009D02*
X120935905Y-76337390D01*
X120935905Y-76337390D02*
X120888286Y-76289771D01*
X120888286Y-76289771D02*
X120840667Y-76194533D01*
X120840667Y-76194533D02*
X120840667Y-76099295D01*
X120840667Y-76099295D02*
X120888286Y-76004057D01*
X120888286Y-76004057D02*
X120935905Y-75956438D01*
X120935905Y-75956438D02*
X121031143Y-75908819D01*
X121031143Y-75908819D02*
X121269238Y-75908819D01*
X121269238Y-75908819D02*
X121412095Y-75956438D01*
X121745429Y-75908819D02*
X121983524Y-76908819D01*
X121983524Y-76908819D02*
X122174000Y-76194533D01*
X122174000Y-76194533D02*
X122364476Y-76908819D01*
X122364476Y-76908819D02*
X122602572Y-75908819D01*
X122935905Y-76004057D02*
X122983524Y-75956438D01*
X122983524Y-75956438D02*
X123078762Y-75908819D01*
X123078762Y-75908819D02*
X123316857Y-75908819D01*
X123316857Y-75908819D02*
X123412095Y-75956438D01*
X123412095Y-75956438D02*
X123459714Y-76004057D01*
X123459714Y-76004057D02*
X123507333Y-76099295D01*
X123507333Y-76099295D02*
X123507333Y-76194533D01*
X123507333Y-76194533D02*
X123459714Y-76337390D01*
X123459714Y-76337390D02*
X122888286Y-76908819D01*
X122888286Y-76908819D02*
X123507333Y-76908819D01*
X121078762Y-85513104D02*
X121554952Y-85513104D01*
X120983524Y-85798819D02*
X121316857Y-84798819D01*
X121316857Y-84798819D02*
X121650190Y-85798819D01*
X122412095Y-85132152D02*
X122412095Y-85798819D01*
X121983524Y-85132152D02*
X121983524Y-85655961D01*
X121983524Y-85655961D02*
X122031143Y-85751200D01*
X122031143Y-85751200D02*
X122126381Y-85798819D01*
X122126381Y-85798819D02*
X122269238Y-85798819D01*
X122269238Y-85798819D02*
X122364476Y-85751200D01*
X122364476Y-85751200D02*
X122412095Y-85703580D01*
X122793048Y-85798819D02*
X123316857Y-85132152D01*
X122793048Y-85132152D02*
X123316857Y-85798819D01*
X135194819Y-110642857D02*
X134718628Y-110976190D01*
X135194819Y-111214285D02*
X134194819Y-111214285D01*
X134194819Y-111214285D02*
X134194819Y-110833333D01*
X134194819Y-110833333D02*
X134242438Y-110738095D01*
X134242438Y-110738095D02*
X134290057Y-110690476D01*
X134290057Y-110690476D02*
X134385295Y-110642857D01*
X134385295Y-110642857D02*
X134528152Y-110642857D01*
X134528152Y-110642857D02*
X134623390Y-110690476D01*
X134623390Y-110690476D02*
X134671009Y-110738095D01*
X134671009Y-110738095D02*
X134718628Y-110833333D01*
X134718628Y-110833333D02*
X134718628Y-111214285D01*
X135194819Y-109690476D02*
X135194819Y-110261904D01*
X135194819Y-109976190D02*
X134194819Y-109976190D01*
X134194819Y-109976190D02*
X134337676Y-110071428D01*
X134337676Y-110071428D02*
X134432914Y-110166666D01*
X134432914Y-110166666D02*
X134480533Y-110261904D01*
X134290057Y-109309523D02*
X134242438Y-109261904D01*
X134242438Y-109261904D02*
X134194819Y-109166666D01*
X134194819Y-109166666D02*
X134194819Y-108928571D01*
X134194819Y-108928571D02*
X134242438Y-108833333D01*
X134242438Y-108833333D02*
X134290057Y-108785714D01*
X134290057Y-108785714D02*
X134385295Y-108738095D01*
X134385295Y-108738095D02*
X134480533Y-108738095D01*
X134480533Y-108738095D02*
X134623390Y-108785714D01*
X134623390Y-108785714D02*
X135194819Y-109357142D01*
X135194819Y-109357142D02*
X135194819Y-108738095D01*
X136485333Y-64113580D02*
X136437714Y-64161200D01*
X136437714Y-64161200D02*
X136294857Y-64208819D01*
X136294857Y-64208819D02*
X136199619Y-64208819D01*
X136199619Y-64208819D02*
X136056762Y-64161200D01*
X136056762Y-64161200D02*
X135961524Y-64065961D01*
X135961524Y-64065961D02*
X135913905Y-63970723D01*
X135913905Y-63970723D02*
X135866286Y-63780247D01*
X135866286Y-63780247D02*
X135866286Y-63637390D01*
X135866286Y-63637390D02*
X135913905Y-63446914D01*
X135913905Y-63446914D02*
X135961524Y-63351676D01*
X135961524Y-63351676D02*
X136056762Y-63256438D01*
X136056762Y-63256438D02*
X136199619Y-63208819D01*
X136199619Y-63208819D02*
X136294857Y-63208819D01*
X136294857Y-63208819D02*
X136437714Y-63256438D01*
X136437714Y-63256438D02*
X136485333Y-63304057D01*
X137390095Y-63208819D02*
X136913905Y-63208819D01*
X136913905Y-63208819D02*
X136866286Y-63685009D01*
X136866286Y-63685009D02*
X136913905Y-63637390D01*
X136913905Y-63637390D02*
X137009143Y-63589771D01*
X137009143Y-63589771D02*
X137247238Y-63589771D01*
X137247238Y-63589771D02*
X137342476Y-63637390D01*
X137342476Y-63637390D02*
X137390095Y-63685009D01*
X137390095Y-63685009D02*
X137437714Y-63780247D01*
X137437714Y-63780247D02*
X137437714Y-64018342D01*
X137437714Y-64018342D02*
X137390095Y-64113580D01*
X137390095Y-64113580D02*
X137342476Y-64161200D01*
X137342476Y-64161200D02*
X137247238Y-64208819D01*
X137247238Y-64208819D02*
X137009143Y-64208819D01*
X137009143Y-64208819D02*
X136913905Y-64161200D01*
X136913905Y-64161200D02*
X136866286Y-64113580D01*
X135009143Y-72956057D02*
X135056762Y-72908438D01*
X135056762Y-72908438D02*
X135152000Y-72860819D01*
X135152000Y-72860819D02*
X135390095Y-72860819D01*
X135390095Y-72860819D02*
X135485333Y-72908438D01*
X135485333Y-72908438D02*
X135532952Y-72956057D01*
X135532952Y-72956057D02*
X135580571Y-73051295D01*
X135580571Y-73051295D02*
X135580571Y-73146533D01*
X135580571Y-73146533D02*
X135532952Y-73289390D01*
X135532952Y-73289390D02*
X134961524Y-73860819D01*
X134961524Y-73860819D02*
X135580571Y-73860819D01*
X135961524Y-72956057D02*
X136009143Y-72908438D01*
X136009143Y-72908438D02*
X136104381Y-72860819D01*
X136104381Y-72860819D02*
X136342476Y-72860819D01*
X136342476Y-72860819D02*
X136437714Y-72908438D01*
X136437714Y-72908438D02*
X136485333Y-72956057D01*
X136485333Y-72956057D02*
X136532952Y-73051295D01*
X136532952Y-73051295D02*
X136532952Y-73146533D01*
X136532952Y-73146533D02*
X136485333Y-73289390D01*
X136485333Y-73289390D02*
X135913905Y-73860819D01*
X135913905Y-73860819D02*
X136532952Y-73860819D01*
X137390095Y-73194152D02*
X137390095Y-73860819D01*
X136961524Y-73194152D02*
X136961524Y-73717961D01*
X136961524Y-73717961D02*
X137009143Y-73813200D01*
X137009143Y-73813200D02*
X137104381Y-73860819D01*
X137104381Y-73860819D02*
X137247238Y-73860819D01*
X137247238Y-73860819D02*
X137342476Y-73813200D01*
X137342476Y-73813200D02*
X137390095Y-73765580D01*
X138199619Y-73337009D02*
X137866286Y-73337009D01*
X137866286Y-73860819D02*
X137866286Y-72860819D01*
X137866286Y-72860819D02*
X138342476Y-72860819D01*
X187764819Y-72462857D02*
X187288628Y-72796190D01*
X187764819Y-73034285D02*
X186764819Y-73034285D01*
X186764819Y-73034285D02*
X186764819Y-72653333D01*
X186764819Y-72653333D02*
X186812438Y-72558095D01*
X186812438Y-72558095D02*
X186860057Y-72510476D01*
X186860057Y-72510476D02*
X186955295Y-72462857D01*
X186955295Y-72462857D02*
X187098152Y-72462857D01*
X187098152Y-72462857D02*
X187193390Y-72510476D01*
X187193390Y-72510476D02*
X187241009Y-72558095D01*
X187241009Y-72558095D02*
X187288628Y-72653333D01*
X187288628Y-72653333D02*
X187288628Y-73034285D01*
X187764819Y-71510476D02*
X187764819Y-72081904D01*
X187764819Y-71796190D02*
X186764819Y-71796190D01*
X186764819Y-71796190D02*
X186907676Y-71891428D01*
X186907676Y-71891428D02*
X187002914Y-71986666D01*
X187002914Y-71986666D02*
X187050533Y-72081904D01*
X186764819Y-70891428D02*
X186764819Y-70796190D01*
X186764819Y-70796190D02*
X186812438Y-70700952D01*
X186812438Y-70700952D02*
X186860057Y-70653333D01*
X186860057Y-70653333D02*
X186955295Y-70605714D01*
X186955295Y-70605714D02*
X187145771Y-70558095D01*
X187145771Y-70558095D02*
X187383866Y-70558095D01*
X187383866Y-70558095D02*
X187574342Y-70605714D01*
X187574342Y-70605714D02*
X187669580Y-70653333D01*
X187669580Y-70653333D02*
X187717200Y-70700952D01*
X187717200Y-70700952D02*
X187764819Y-70796190D01*
X187764819Y-70796190D02*
X187764819Y-70891428D01*
X187764819Y-70891428D02*
X187717200Y-70986666D01*
X187717200Y-70986666D02*
X187669580Y-71034285D01*
X187669580Y-71034285D02*
X187574342Y-71081904D01*
X187574342Y-71081904D02*
X187383866Y-71129523D01*
X187383866Y-71129523D02*
X187145771Y-71129523D01*
X187145771Y-71129523D02*
X186955295Y-71081904D01*
X186955295Y-71081904D02*
X186860057Y-71034285D01*
X186860057Y-71034285D02*
X186812438Y-70986666D01*
X186812438Y-70986666D02*
X186764819Y-70891428D01*
X183074819Y-70495713D02*
X183074819Y-69876666D01*
X183074819Y-69876666D02*
X183455771Y-70209999D01*
X183455771Y-70209999D02*
X183455771Y-70067142D01*
X183455771Y-70067142D02*
X183503390Y-69971904D01*
X183503390Y-69971904D02*
X183551009Y-69924285D01*
X183551009Y-69924285D02*
X183646247Y-69876666D01*
X183646247Y-69876666D02*
X183884342Y-69876666D01*
X183884342Y-69876666D02*
X183979580Y-69924285D01*
X183979580Y-69924285D02*
X184027200Y-69971904D01*
X184027200Y-69971904D02*
X184074819Y-70067142D01*
X184074819Y-70067142D02*
X184074819Y-70352856D01*
X184074819Y-70352856D02*
X184027200Y-70448094D01*
X184027200Y-70448094D02*
X183979580Y-70495713D01*
X183074819Y-69543332D02*
X183074819Y-68924285D01*
X183074819Y-68924285D02*
X183455771Y-69257618D01*
X183455771Y-69257618D02*
X183455771Y-69114761D01*
X183455771Y-69114761D02*
X183503390Y-69019523D01*
X183503390Y-69019523D02*
X183551009Y-68971904D01*
X183551009Y-68971904D02*
X183646247Y-68924285D01*
X183646247Y-68924285D02*
X183884342Y-68924285D01*
X183884342Y-68924285D02*
X183979580Y-68971904D01*
X183979580Y-68971904D02*
X184027200Y-69019523D01*
X184027200Y-69019523D02*
X184074819Y-69114761D01*
X184074819Y-69114761D02*
X184074819Y-69400475D01*
X184074819Y-69400475D02*
X184027200Y-69495713D01*
X184027200Y-69495713D02*
X183979580Y-69543332D01*
X183074819Y-68305237D02*
X183074819Y-68209999D01*
X183074819Y-68209999D02*
X183122438Y-68114761D01*
X183122438Y-68114761D02*
X183170057Y-68067142D01*
X183170057Y-68067142D02*
X183265295Y-68019523D01*
X183265295Y-68019523D02*
X183455771Y-67971904D01*
X183455771Y-67971904D02*
X183693866Y-67971904D01*
X183693866Y-67971904D02*
X183884342Y-68019523D01*
X183884342Y-68019523D02*
X183979580Y-68067142D01*
X183979580Y-68067142D02*
X184027200Y-68114761D01*
X184027200Y-68114761D02*
X184074819Y-68209999D01*
X184074819Y-68209999D02*
X184074819Y-68305237D01*
X184074819Y-68305237D02*
X184027200Y-68400475D01*
X184027200Y-68400475D02*
X183979580Y-68448094D01*
X183979580Y-68448094D02*
X183884342Y-68495713D01*
X183884342Y-68495713D02*
X183693866Y-68543332D01*
X183693866Y-68543332D02*
X183455771Y-68543332D01*
X183455771Y-68543332D02*
X183265295Y-68495713D01*
X183265295Y-68495713D02*
X183170057Y-68448094D01*
X183170057Y-68448094D02*
X183122438Y-68400475D01*
X183122438Y-68400475D02*
X183074819Y-68305237D01*
X129373333Y-82750819D02*
X129040000Y-82274628D01*
X128801905Y-82750819D02*
X128801905Y-81750819D01*
X128801905Y-81750819D02*
X129182857Y-81750819D01*
X129182857Y-81750819D02*
X129278095Y-81798438D01*
X129278095Y-81798438D02*
X129325714Y-81846057D01*
X129325714Y-81846057D02*
X129373333Y-81941295D01*
X129373333Y-81941295D02*
X129373333Y-82084152D01*
X129373333Y-82084152D02*
X129325714Y-82179390D01*
X129325714Y-82179390D02*
X129278095Y-82227009D01*
X129278095Y-82227009D02*
X129182857Y-82274628D01*
X129182857Y-82274628D02*
X128801905Y-82274628D01*
X129849524Y-82750819D02*
X130040000Y-82750819D01*
X130040000Y-82750819D02*
X130135238Y-82703200D01*
X130135238Y-82703200D02*
X130182857Y-82655580D01*
X130182857Y-82655580D02*
X130278095Y-82512723D01*
X130278095Y-82512723D02*
X130325714Y-82322247D01*
X130325714Y-82322247D02*
X130325714Y-81941295D01*
X130325714Y-81941295D02*
X130278095Y-81846057D01*
X130278095Y-81846057D02*
X130230476Y-81798438D01*
X130230476Y-81798438D02*
X130135238Y-81750819D01*
X130135238Y-81750819D02*
X129944762Y-81750819D01*
X129944762Y-81750819D02*
X129849524Y-81798438D01*
X129849524Y-81798438D02*
X129801905Y-81846057D01*
X129801905Y-81846057D02*
X129754286Y-81941295D01*
X129754286Y-81941295D02*
X129754286Y-82179390D01*
X129754286Y-82179390D02*
X129801905Y-82274628D01*
X129801905Y-82274628D02*
X129849524Y-82322247D01*
X129849524Y-82322247D02*
X129944762Y-82369866D01*
X129944762Y-82369866D02*
X130135238Y-82369866D01*
X130135238Y-82369866D02*
X130230476Y-82322247D01*
X130230476Y-82322247D02*
X130278095Y-82274628D01*
X130278095Y-82274628D02*
X130325714Y-82179390D01*
X131772819Y-85939238D02*
X131772819Y-86510666D01*
X131772819Y-86224952D02*
X130772819Y-86224952D01*
X130772819Y-86224952D02*
X130915676Y-86320190D01*
X130915676Y-86320190D02*
X131010914Y-86415428D01*
X131010914Y-86415428D02*
X131058533Y-86510666D01*
X130772819Y-85320190D02*
X130772819Y-85224952D01*
X130772819Y-85224952D02*
X130820438Y-85129714D01*
X130820438Y-85129714D02*
X130868057Y-85082095D01*
X130868057Y-85082095D02*
X130963295Y-85034476D01*
X130963295Y-85034476D02*
X131153771Y-84986857D01*
X131153771Y-84986857D02*
X131391866Y-84986857D01*
X131391866Y-84986857D02*
X131582342Y-85034476D01*
X131582342Y-85034476D02*
X131677580Y-85082095D01*
X131677580Y-85082095D02*
X131725200Y-85129714D01*
X131725200Y-85129714D02*
X131772819Y-85224952D01*
X131772819Y-85224952D02*
X131772819Y-85320190D01*
X131772819Y-85320190D02*
X131725200Y-85415428D01*
X131725200Y-85415428D02*
X131677580Y-85463047D01*
X131677580Y-85463047D02*
X131582342Y-85510666D01*
X131582342Y-85510666D02*
X131391866Y-85558285D01*
X131391866Y-85558285D02*
X131153771Y-85558285D01*
X131153771Y-85558285D02*
X130963295Y-85510666D01*
X130963295Y-85510666D02*
X130868057Y-85463047D01*
X130868057Y-85463047D02*
X130820438Y-85415428D01*
X130820438Y-85415428D02*
X130772819Y-85320190D01*
X131772819Y-84558285D02*
X130772819Y-84558285D01*
X131391866Y-84463047D02*
X131772819Y-84177333D01*
X131106152Y-84177333D02*
X131487104Y-84558285D01*
X140295333Y-53975080D02*
X140247714Y-54022700D01*
X140247714Y-54022700D02*
X140104857Y-54070319D01*
X140104857Y-54070319D02*
X140009619Y-54070319D01*
X140009619Y-54070319D02*
X139866762Y-54022700D01*
X139866762Y-54022700D02*
X139771524Y-53927461D01*
X139771524Y-53927461D02*
X139723905Y-53832223D01*
X139723905Y-53832223D02*
X139676286Y-53641747D01*
X139676286Y-53641747D02*
X139676286Y-53498890D01*
X139676286Y-53498890D02*
X139723905Y-53308414D01*
X139723905Y-53308414D02*
X139771524Y-53213176D01*
X139771524Y-53213176D02*
X139866762Y-53117938D01*
X139866762Y-53117938D02*
X140009619Y-53070319D01*
X140009619Y-53070319D02*
X140104857Y-53070319D01*
X140104857Y-53070319D02*
X140247714Y-53117938D01*
X140247714Y-53117938D02*
X140295333Y-53165557D01*
X141247714Y-54070319D02*
X140676286Y-54070319D01*
X140962000Y-54070319D02*
X140962000Y-53070319D01*
X140962000Y-53070319D02*
X140866762Y-53213176D01*
X140866762Y-53213176D02*
X140771524Y-53308414D01*
X140771524Y-53308414D02*
X140676286Y-53356033D01*
X142694819Y-57427619D02*
X142694819Y-57999047D01*
X142694819Y-57713333D02*
X141694819Y-57713333D01*
X141694819Y-57713333D02*
X141837676Y-57808571D01*
X141837676Y-57808571D02*
X141932914Y-57903809D01*
X141932914Y-57903809D02*
X141980533Y-57999047D01*
X141694819Y-56808571D02*
X141694819Y-56713333D01*
X141694819Y-56713333D02*
X141742438Y-56618095D01*
X141742438Y-56618095D02*
X141790057Y-56570476D01*
X141790057Y-56570476D02*
X141885295Y-56522857D01*
X141885295Y-56522857D02*
X142075771Y-56475238D01*
X142075771Y-56475238D02*
X142313866Y-56475238D01*
X142313866Y-56475238D02*
X142504342Y-56522857D01*
X142504342Y-56522857D02*
X142599580Y-56570476D01*
X142599580Y-56570476D02*
X142647200Y-56618095D01*
X142647200Y-56618095D02*
X142694819Y-56713333D01*
X142694819Y-56713333D02*
X142694819Y-56808571D01*
X142694819Y-56808571D02*
X142647200Y-56903809D01*
X142647200Y-56903809D02*
X142599580Y-56951428D01*
X142599580Y-56951428D02*
X142504342Y-56999047D01*
X142504342Y-56999047D02*
X142313866Y-57046666D01*
X142313866Y-57046666D02*
X142075771Y-57046666D01*
X142075771Y-57046666D02*
X141885295Y-56999047D01*
X141885295Y-56999047D02*
X141790057Y-56951428D01*
X141790057Y-56951428D02*
X141742438Y-56903809D01*
X141742438Y-56903809D02*
X141694819Y-56808571D01*
X141694819Y-55856190D02*
X141694819Y-55760952D01*
X141694819Y-55760952D02*
X141742438Y-55665714D01*
X141742438Y-55665714D02*
X141790057Y-55618095D01*
X141790057Y-55618095D02*
X141885295Y-55570476D01*
X141885295Y-55570476D02*
X142075771Y-55522857D01*
X142075771Y-55522857D02*
X142313866Y-55522857D01*
X142313866Y-55522857D02*
X142504342Y-55570476D01*
X142504342Y-55570476D02*
X142599580Y-55618095D01*
X142599580Y-55618095D02*
X142647200Y-55665714D01*
X142647200Y-55665714D02*
X142694819Y-55760952D01*
X142694819Y-55760952D02*
X142694819Y-55856190D01*
X142694819Y-55856190D02*
X142647200Y-55951428D01*
X142647200Y-55951428D02*
X142599580Y-55999047D01*
X142599580Y-55999047D02*
X142504342Y-56046666D01*
X142504342Y-56046666D02*
X142313866Y-56094285D01*
X142313866Y-56094285D02*
X142075771Y-56094285D01*
X142075771Y-56094285D02*
X141885295Y-56046666D01*
X141885295Y-56046666D02*
X141790057Y-55999047D01*
X141790057Y-55999047D02*
X141742438Y-55951428D01*
X141742438Y-55951428D02*
X141694819Y-55856190D01*
X142028152Y-55094285D02*
X142694819Y-55094285D01*
X142123390Y-55094285D02*
X142075771Y-55046666D01*
X142075771Y-55046666D02*
X142028152Y-54951428D01*
X142028152Y-54951428D02*
X142028152Y-54808571D01*
X142028152Y-54808571D02*
X142075771Y-54713333D01*
X142075771Y-54713333D02*
X142171009Y-54665714D01*
X142171009Y-54665714D02*
X142694819Y-54665714D01*
X142171009Y-53856190D02*
X142171009Y-54189523D01*
X142694819Y-54189523D02*
X141694819Y-54189523D01*
X141694819Y-54189523D02*
X141694819Y-53713333D01*
X162014819Y-96083333D02*
X162729104Y-96083333D01*
X162729104Y-96083333D02*
X162871961Y-96130952D01*
X162871961Y-96130952D02*
X162967200Y-96226190D01*
X162967200Y-96226190D02*
X163014819Y-96369047D01*
X163014819Y-96369047D02*
X163014819Y-96464285D01*
X163014819Y-95607142D02*
X162014819Y-95607142D01*
X162014819Y-95607142D02*
X162014819Y-95226190D01*
X162014819Y-95226190D02*
X162062438Y-95130952D01*
X162062438Y-95130952D02*
X162110057Y-95083333D01*
X162110057Y-95083333D02*
X162205295Y-95035714D01*
X162205295Y-95035714D02*
X162348152Y-95035714D01*
X162348152Y-95035714D02*
X162443390Y-95083333D01*
X162443390Y-95083333D02*
X162491009Y-95130952D01*
X162491009Y-95130952D02*
X162538628Y-95226190D01*
X162538628Y-95226190D02*
X162538628Y-95607142D01*
X162348152Y-94178571D02*
X163014819Y-94178571D01*
X161967200Y-94416666D02*
X162681485Y-94654761D01*
X162681485Y-94654761D02*
X162681485Y-94035714D01*
X167078819Y-96821428D02*
X166078819Y-96821428D01*
X166459771Y-96821428D02*
X166412152Y-96726190D01*
X166412152Y-96726190D02*
X166412152Y-96535714D01*
X166412152Y-96535714D02*
X166459771Y-96440476D01*
X166459771Y-96440476D02*
X166507390Y-96392857D01*
X166507390Y-96392857D02*
X166602628Y-96345238D01*
X166602628Y-96345238D02*
X166888342Y-96345238D01*
X166888342Y-96345238D02*
X166983580Y-96392857D01*
X166983580Y-96392857D02*
X167031200Y-96440476D01*
X167031200Y-96440476D02*
X167078819Y-96535714D01*
X167078819Y-96535714D02*
X167078819Y-96726190D01*
X167078819Y-96726190D02*
X167031200Y-96821428D01*
X167078819Y-95488095D02*
X166555009Y-95488095D01*
X166555009Y-95488095D02*
X166459771Y-95535714D01*
X166459771Y-95535714D02*
X166412152Y-95630952D01*
X166412152Y-95630952D02*
X166412152Y-95821428D01*
X166412152Y-95821428D02*
X166459771Y-95916666D01*
X167031200Y-95488095D02*
X167078819Y-95583333D01*
X167078819Y-95583333D02*
X167078819Y-95821428D01*
X167078819Y-95821428D02*
X167031200Y-95916666D01*
X167031200Y-95916666D02*
X166935961Y-95964285D01*
X166935961Y-95964285D02*
X166840723Y-95964285D01*
X166840723Y-95964285D02*
X166745485Y-95916666D01*
X166745485Y-95916666D02*
X166697866Y-95821428D01*
X166697866Y-95821428D02*
X166697866Y-95583333D01*
X166697866Y-95583333D02*
X166650247Y-95488095D01*
X166412152Y-95154761D02*
X166412152Y-94773809D01*
X166078819Y-95011904D02*
X166935961Y-95011904D01*
X166935961Y-95011904D02*
X167031200Y-94964285D01*
X167031200Y-94964285D02*
X167078819Y-94869047D01*
X167078819Y-94869047D02*
X167078819Y-94773809D01*
X166697866Y-94440475D02*
X166697866Y-93678571D01*
X129373333Y-75892819D02*
X129040000Y-75416628D01*
X128801905Y-75892819D02*
X128801905Y-74892819D01*
X128801905Y-74892819D02*
X129182857Y-74892819D01*
X129182857Y-74892819D02*
X129278095Y-74940438D01*
X129278095Y-74940438D02*
X129325714Y-74988057D01*
X129325714Y-74988057D02*
X129373333Y-75083295D01*
X129373333Y-75083295D02*
X129373333Y-75226152D01*
X129373333Y-75226152D02*
X129325714Y-75321390D01*
X129325714Y-75321390D02*
X129278095Y-75369009D01*
X129278095Y-75369009D02*
X129182857Y-75416628D01*
X129182857Y-75416628D02*
X128801905Y-75416628D01*
X130230476Y-75226152D02*
X130230476Y-75892819D01*
X129992381Y-74845200D02*
X129754286Y-75559485D01*
X129754286Y-75559485D02*
X130373333Y-75559485D01*
X131772819Y-78827238D02*
X131772819Y-79398666D01*
X131772819Y-79112952D02*
X130772819Y-79112952D01*
X130772819Y-79112952D02*
X130915676Y-79208190D01*
X130915676Y-79208190D02*
X131010914Y-79303428D01*
X131010914Y-79303428D02*
X131058533Y-79398666D01*
X130772819Y-78208190D02*
X130772819Y-78112952D01*
X130772819Y-78112952D02*
X130820438Y-78017714D01*
X130820438Y-78017714D02*
X130868057Y-77970095D01*
X130868057Y-77970095D02*
X130963295Y-77922476D01*
X130963295Y-77922476D02*
X131153771Y-77874857D01*
X131153771Y-77874857D02*
X131391866Y-77874857D01*
X131391866Y-77874857D02*
X131582342Y-77922476D01*
X131582342Y-77922476D02*
X131677580Y-77970095D01*
X131677580Y-77970095D02*
X131725200Y-78017714D01*
X131725200Y-78017714D02*
X131772819Y-78112952D01*
X131772819Y-78112952D02*
X131772819Y-78208190D01*
X131772819Y-78208190D02*
X131725200Y-78303428D01*
X131725200Y-78303428D02*
X131677580Y-78351047D01*
X131677580Y-78351047D02*
X131582342Y-78398666D01*
X131582342Y-78398666D02*
X131391866Y-78446285D01*
X131391866Y-78446285D02*
X131153771Y-78446285D01*
X131153771Y-78446285D02*
X130963295Y-78398666D01*
X130963295Y-78398666D02*
X130868057Y-78351047D01*
X130868057Y-78351047D02*
X130820438Y-78303428D01*
X130820438Y-78303428D02*
X130772819Y-78208190D01*
X131772819Y-77446285D02*
X130772819Y-77446285D01*
X131391866Y-77351047D02*
X131772819Y-77065333D01*
X131106152Y-77065333D02*
X131487104Y-77446285D01*
X138771333Y-88618819D02*
X138438000Y-88142628D01*
X138199905Y-88618819D02*
X138199905Y-87618819D01*
X138199905Y-87618819D02*
X138580857Y-87618819D01*
X138580857Y-87618819D02*
X138676095Y-87666438D01*
X138676095Y-87666438D02*
X138723714Y-87714057D01*
X138723714Y-87714057D02*
X138771333Y-87809295D01*
X138771333Y-87809295D02*
X138771333Y-87952152D01*
X138771333Y-87952152D02*
X138723714Y-88047390D01*
X138723714Y-88047390D02*
X138676095Y-88095009D01*
X138676095Y-88095009D02*
X138580857Y-88142628D01*
X138580857Y-88142628D02*
X138199905Y-88142628D01*
X139628476Y-87618819D02*
X139438000Y-87618819D01*
X139438000Y-87618819D02*
X139342762Y-87666438D01*
X139342762Y-87666438D02*
X139295143Y-87714057D01*
X139295143Y-87714057D02*
X139199905Y-87856914D01*
X139199905Y-87856914D02*
X139152286Y-88047390D01*
X139152286Y-88047390D02*
X139152286Y-88428342D01*
X139152286Y-88428342D02*
X139199905Y-88523580D01*
X139199905Y-88523580D02*
X139247524Y-88571200D01*
X139247524Y-88571200D02*
X139342762Y-88618819D01*
X139342762Y-88618819D02*
X139533238Y-88618819D01*
X139533238Y-88618819D02*
X139628476Y-88571200D01*
X139628476Y-88571200D02*
X139676095Y-88523580D01*
X139676095Y-88523580D02*
X139723714Y-88428342D01*
X139723714Y-88428342D02*
X139723714Y-88190247D01*
X139723714Y-88190247D02*
X139676095Y-88095009D01*
X139676095Y-88095009D02*
X139628476Y-88047390D01*
X139628476Y-88047390D02*
X139533238Y-87999771D01*
X139533238Y-87999771D02*
X139342762Y-87999771D01*
X139342762Y-87999771D02*
X139247524Y-88047390D01*
X139247524Y-88047390D02*
X139199905Y-88095009D01*
X139199905Y-88095009D02*
X139152286Y-88190247D01*
X141212819Y-92045333D02*
X141212819Y-92616761D01*
X141212819Y-92331047D02*
X140212819Y-92331047D01*
X140212819Y-92331047D02*
X140355676Y-92426285D01*
X140355676Y-92426285D02*
X140450914Y-92521523D01*
X140450914Y-92521523D02*
X140498533Y-92616761D01*
X141117580Y-91616761D02*
X141165200Y-91569142D01*
X141165200Y-91569142D02*
X141212819Y-91616761D01*
X141212819Y-91616761D02*
X141165200Y-91664380D01*
X141165200Y-91664380D02*
X141117580Y-91616761D01*
X141117580Y-91616761D02*
X141212819Y-91616761D01*
X140641390Y-90997714D02*
X140593771Y-91092952D01*
X140593771Y-91092952D02*
X140546152Y-91140571D01*
X140546152Y-91140571D02*
X140450914Y-91188190D01*
X140450914Y-91188190D02*
X140403295Y-91188190D01*
X140403295Y-91188190D02*
X140308057Y-91140571D01*
X140308057Y-91140571D02*
X140260438Y-91092952D01*
X140260438Y-91092952D02*
X140212819Y-90997714D01*
X140212819Y-90997714D02*
X140212819Y-90807238D01*
X140212819Y-90807238D02*
X140260438Y-90712000D01*
X140260438Y-90712000D02*
X140308057Y-90664381D01*
X140308057Y-90664381D02*
X140403295Y-90616762D01*
X140403295Y-90616762D02*
X140450914Y-90616762D01*
X140450914Y-90616762D02*
X140546152Y-90664381D01*
X140546152Y-90664381D02*
X140593771Y-90712000D01*
X140593771Y-90712000D02*
X140641390Y-90807238D01*
X140641390Y-90807238D02*
X140641390Y-90997714D01*
X140641390Y-90997714D02*
X140689009Y-91092952D01*
X140689009Y-91092952D02*
X140736628Y-91140571D01*
X140736628Y-91140571D02*
X140831866Y-91188190D01*
X140831866Y-91188190D02*
X141022342Y-91188190D01*
X141022342Y-91188190D02*
X141117580Y-91140571D01*
X141117580Y-91140571D02*
X141165200Y-91092952D01*
X141165200Y-91092952D02*
X141212819Y-90997714D01*
X141212819Y-90997714D02*
X141212819Y-90807238D01*
X141212819Y-90807238D02*
X141165200Y-90712000D01*
X141165200Y-90712000D02*
X141117580Y-90664381D01*
X141117580Y-90664381D02*
X141022342Y-90616762D01*
X141022342Y-90616762D02*
X140831866Y-90616762D01*
X140831866Y-90616762D02*
X140736628Y-90664381D01*
X140736628Y-90664381D02*
X140689009Y-90712000D01*
X140689009Y-90712000D02*
X140641390Y-90807238D01*
X141212819Y-90188190D02*
X140212819Y-90188190D01*
X140831866Y-90092952D02*
X141212819Y-89807238D01*
X140546152Y-89807238D02*
X140927104Y-90188190D01*
X125563333Y-68965580D02*
X125515714Y-69013200D01*
X125515714Y-69013200D02*
X125372857Y-69060819D01*
X125372857Y-69060819D02*
X125277619Y-69060819D01*
X125277619Y-69060819D02*
X125134762Y-69013200D01*
X125134762Y-69013200D02*
X125039524Y-68917961D01*
X125039524Y-68917961D02*
X124991905Y-68822723D01*
X124991905Y-68822723D02*
X124944286Y-68632247D01*
X124944286Y-68632247D02*
X124944286Y-68489390D01*
X124944286Y-68489390D02*
X124991905Y-68298914D01*
X124991905Y-68298914D02*
X125039524Y-68203676D01*
X125039524Y-68203676D02*
X125134762Y-68108438D01*
X125134762Y-68108438D02*
X125277619Y-68060819D01*
X125277619Y-68060819D02*
X125372857Y-68060819D01*
X125372857Y-68060819D02*
X125515714Y-68108438D01*
X125515714Y-68108438D02*
X125563333Y-68156057D01*
X125896667Y-68060819D02*
X126515714Y-68060819D01*
X126515714Y-68060819D02*
X126182381Y-68441771D01*
X126182381Y-68441771D02*
X126325238Y-68441771D01*
X126325238Y-68441771D02*
X126420476Y-68489390D01*
X126420476Y-68489390D02*
X126468095Y-68537009D01*
X126468095Y-68537009D02*
X126515714Y-68632247D01*
X126515714Y-68632247D02*
X126515714Y-68870342D01*
X126515714Y-68870342D02*
X126468095Y-68965580D01*
X126468095Y-68965580D02*
X126420476Y-69013200D01*
X126420476Y-69013200D02*
X126325238Y-69060819D01*
X126325238Y-69060819D02*
X126039524Y-69060819D01*
X126039524Y-69060819D02*
X125944286Y-69013200D01*
X125944286Y-69013200D02*
X125896667Y-68965580D01*
X127864819Y-71741238D02*
X127864819Y-72312666D01*
X127864819Y-72026952D02*
X126864819Y-72026952D01*
X126864819Y-72026952D02*
X127007676Y-72122190D01*
X127007676Y-72122190D02*
X127102914Y-72217428D01*
X127102914Y-72217428D02*
X127150533Y-72312666D01*
X127198152Y-71312666D02*
X127864819Y-71312666D01*
X127293390Y-71312666D02*
X127245771Y-71265047D01*
X127245771Y-71265047D02*
X127198152Y-71169809D01*
X127198152Y-71169809D02*
X127198152Y-71026952D01*
X127198152Y-71026952D02*
X127245771Y-70931714D01*
X127245771Y-70931714D02*
X127341009Y-70884095D01*
X127341009Y-70884095D02*
X127864819Y-70884095D01*
X127341009Y-70074571D02*
X127341009Y-70407904D01*
X127864819Y-70407904D02*
X126864819Y-70407904D01*
X126864819Y-70407904D02*
X126864819Y-69931714D01*
X151496667Y-74019200D02*
X151639524Y-74066819D01*
X151639524Y-74066819D02*
X151877619Y-74066819D01*
X151877619Y-74066819D02*
X151972857Y-74019200D01*
X151972857Y-74019200D02*
X152020476Y-73971580D01*
X152020476Y-73971580D02*
X152068095Y-73876342D01*
X152068095Y-73876342D02*
X152068095Y-73781104D01*
X152068095Y-73781104D02*
X152020476Y-73685866D01*
X152020476Y-73685866D02*
X151972857Y-73638247D01*
X151972857Y-73638247D02*
X151877619Y-73590628D01*
X151877619Y-73590628D02*
X151687143Y-73543009D01*
X151687143Y-73543009D02*
X151591905Y-73495390D01*
X151591905Y-73495390D02*
X151544286Y-73447771D01*
X151544286Y-73447771D02*
X151496667Y-73352533D01*
X151496667Y-73352533D02*
X151496667Y-73257295D01*
X151496667Y-73257295D02*
X151544286Y-73162057D01*
X151544286Y-73162057D02*
X151591905Y-73114438D01*
X151591905Y-73114438D02*
X151687143Y-73066819D01*
X151687143Y-73066819D02*
X151925238Y-73066819D01*
X151925238Y-73066819D02*
X152068095Y-73114438D01*
X152401429Y-73066819D02*
X152639524Y-74066819D01*
X152639524Y-74066819D02*
X152830000Y-73352533D01*
X152830000Y-73352533D02*
X153020476Y-74066819D01*
X153020476Y-74066819D02*
X153258572Y-73066819D01*
X154163333Y-74066819D02*
X153591905Y-74066819D01*
X153877619Y-74066819D02*
X153877619Y-73066819D01*
X153877619Y-73066819D02*
X153782381Y-73209676D01*
X153782381Y-73209676D02*
X153687143Y-73304914D01*
X153687143Y-73304914D02*
X153591905Y-73352533D01*
X151798572Y-88656819D02*
X151798572Y-87990152D01*
X151798572Y-88085390D02*
X151846191Y-88037771D01*
X151846191Y-88037771D02*
X151941429Y-87990152D01*
X151941429Y-87990152D02*
X152084286Y-87990152D01*
X152084286Y-87990152D02*
X152179524Y-88037771D01*
X152179524Y-88037771D02*
X152227143Y-88133009D01*
X152227143Y-88133009D02*
X152227143Y-88656819D01*
X152227143Y-88133009D02*
X152274762Y-88037771D01*
X152274762Y-88037771D02*
X152370000Y-87990152D01*
X152370000Y-87990152D02*
X152512857Y-87990152D01*
X152512857Y-87990152D02*
X152608096Y-88037771D01*
X152608096Y-88037771D02*
X152655715Y-88133009D01*
X152655715Y-88133009D02*
X152655715Y-88656819D01*
X153560476Y-88656819D02*
X153560476Y-88133009D01*
X153560476Y-88133009D02*
X153512857Y-88037771D01*
X153512857Y-88037771D02*
X153417619Y-87990152D01*
X153417619Y-87990152D02*
X153227143Y-87990152D01*
X153227143Y-87990152D02*
X153131905Y-88037771D01*
X153560476Y-88609200D02*
X153465238Y-88656819D01*
X153465238Y-88656819D02*
X153227143Y-88656819D01*
X153227143Y-88656819D02*
X153131905Y-88609200D01*
X153131905Y-88609200D02*
X153084286Y-88513961D01*
X153084286Y-88513961D02*
X153084286Y-88418723D01*
X153084286Y-88418723D02*
X153131905Y-88323485D01*
X153131905Y-88323485D02*
X153227143Y-88275866D01*
X153227143Y-88275866D02*
X153465238Y-88275866D01*
X153465238Y-88275866D02*
X153560476Y-88228247D01*
X154036667Y-88656819D02*
X154036667Y-87990152D01*
X154036667Y-87656819D02*
X153989048Y-87704438D01*
X153989048Y-87704438D02*
X154036667Y-87752057D01*
X154036667Y-87752057D02*
X154084286Y-87704438D01*
X154084286Y-87704438D02*
X154036667Y-87656819D01*
X154036667Y-87656819D02*
X154036667Y-87752057D01*
X154512857Y-87990152D02*
X154512857Y-88656819D01*
X154512857Y-88085390D02*
X154560476Y-88037771D01*
X154560476Y-88037771D02*
X154655714Y-87990152D01*
X154655714Y-87990152D02*
X154798571Y-87990152D01*
X154798571Y-87990152D02*
X154893809Y-88037771D01*
X154893809Y-88037771D02*
X154941428Y-88133009D01*
X154941428Y-88133009D02*
X154941428Y-88656819D01*
X122705905Y-94694819D02*
X122705905Y-93694819D01*
X122705905Y-93694819D02*
X122944000Y-93694819D01*
X122944000Y-93694819D02*
X123086857Y-93742438D01*
X123086857Y-93742438D02*
X123182095Y-93837676D01*
X123182095Y-93837676D02*
X123229714Y-93932914D01*
X123229714Y-93932914D02*
X123277333Y-94123390D01*
X123277333Y-94123390D02*
X123277333Y-94266247D01*
X123277333Y-94266247D02*
X123229714Y-94456723D01*
X123229714Y-94456723D02*
X123182095Y-94551961D01*
X123182095Y-94551961D02*
X123086857Y-94647200D01*
X123086857Y-94647200D02*
X122944000Y-94694819D01*
X122944000Y-94694819D02*
X122705905Y-94694819D01*
X124182095Y-93694819D02*
X123705905Y-93694819D01*
X123705905Y-93694819D02*
X123658286Y-94171009D01*
X123658286Y-94171009D02*
X123705905Y-94123390D01*
X123705905Y-94123390D02*
X123801143Y-94075771D01*
X123801143Y-94075771D02*
X124039238Y-94075771D01*
X124039238Y-94075771D02*
X124134476Y-94123390D01*
X124134476Y-94123390D02*
X124182095Y-94171009D01*
X124182095Y-94171009D02*
X124229714Y-94266247D01*
X124229714Y-94266247D02*
X124229714Y-94504342D01*
X124229714Y-94504342D02*
X124182095Y-94599580D01*
X124182095Y-94599580D02*
X124134476Y-94647200D01*
X124134476Y-94647200D02*
X124039238Y-94694819D01*
X124039238Y-94694819D02*
X123801143Y-94694819D01*
X123801143Y-94694819D02*
X123705905Y-94647200D01*
X123705905Y-94647200D02*
X123658286Y-94599580D01*
X120578666Y-68568819D02*
X120578666Y-69283104D01*
X120578666Y-69283104D02*
X120531047Y-69425961D01*
X120531047Y-69425961D02*
X120435809Y-69521200D01*
X120435809Y-69521200D02*
X120292952Y-69568819D01*
X120292952Y-69568819D02*
X120197714Y-69568819D01*
X121054857Y-69568819D02*
X121054857Y-68568819D01*
X121054857Y-68568819D02*
X121435809Y-68568819D01*
X121435809Y-68568819D02*
X121531047Y-68616438D01*
X121531047Y-68616438D02*
X121578666Y-68664057D01*
X121578666Y-68664057D02*
X121626285Y-68759295D01*
X121626285Y-68759295D02*
X121626285Y-68902152D01*
X121626285Y-68902152D02*
X121578666Y-68997390D01*
X121578666Y-68997390D02*
X121531047Y-69045009D01*
X121531047Y-69045009D02*
X121435809Y-69092628D01*
X121435809Y-69092628D02*
X121054857Y-69092628D01*
X122578666Y-69568819D02*
X122007238Y-69568819D01*
X122292952Y-69568819D02*
X122292952Y-68568819D01*
X122292952Y-68568819D02*
X122197714Y-68711676D01*
X122197714Y-68711676D02*
X122102476Y-68806914D01*
X122102476Y-68806914D02*
X122007238Y-68854533D01*
X123766819Y-72638095D02*
X123290628Y-72971428D01*
X123766819Y-73209523D02*
X122766819Y-73209523D01*
X122766819Y-73209523D02*
X122766819Y-72828571D01*
X122766819Y-72828571D02*
X122814438Y-72733333D01*
X122814438Y-72733333D02*
X122862057Y-72685714D01*
X122862057Y-72685714D02*
X122957295Y-72638095D01*
X122957295Y-72638095D02*
X123100152Y-72638095D01*
X123100152Y-72638095D02*
X123195390Y-72685714D01*
X123195390Y-72685714D02*
X123243009Y-72733333D01*
X123243009Y-72733333D02*
X123290628Y-72828571D01*
X123290628Y-72828571D02*
X123290628Y-73209523D01*
X123719200Y-71828571D02*
X123766819Y-71923809D01*
X123766819Y-71923809D02*
X123766819Y-72114285D01*
X123766819Y-72114285D02*
X123719200Y-72209523D01*
X123719200Y-72209523D02*
X123623961Y-72257142D01*
X123623961Y-72257142D02*
X123243009Y-72257142D01*
X123243009Y-72257142D02*
X123147771Y-72209523D01*
X123147771Y-72209523D02*
X123100152Y-72114285D01*
X123100152Y-72114285D02*
X123100152Y-71923809D01*
X123100152Y-71923809D02*
X123147771Y-71828571D01*
X123147771Y-71828571D02*
X123243009Y-71780952D01*
X123243009Y-71780952D02*
X123338247Y-71780952D01*
X123338247Y-71780952D02*
X123433485Y-72257142D01*
X123719200Y-71399999D02*
X123766819Y-71304761D01*
X123766819Y-71304761D02*
X123766819Y-71114285D01*
X123766819Y-71114285D02*
X123719200Y-71019047D01*
X123719200Y-71019047D02*
X123623961Y-70971428D01*
X123623961Y-70971428D02*
X123576342Y-70971428D01*
X123576342Y-70971428D02*
X123481104Y-71019047D01*
X123481104Y-71019047D02*
X123433485Y-71114285D01*
X123433485Y-71114285D02*
X123433485Y-71257142D01*
X123433485Y-71257142D02*
X123385866Y-71352380D01*
X123385866Y-71352380D02*
X123290628Y-71399999D01*
X123290628Y-71399999D02*
X123243009Y-71399999D01*
X123243009Y-71399999D02*
X123147771Y-71352380D01*
X123147771Y-71352380D02*
X123100152Y-71257142D01*
X123100152Y-71257142D02*
X123100152Y-71114285D01*
X123100152Y-71114285D02*
X123147771Y-71019047D01*
X123719200Y-70161904D02*
X123766819Y-70257142D01*
X123766819Y-70257142D02*
X123766819Y-70447618D01*
X123766819Y-70447618D02*
X123719200Y-70542856D01*
X123719200Y-70542856D02*
X123623961Y-70590475D01*
X123623961Y-70590475D02*
X123243009Y-70590475D01*
X123243009Y-70590475D02*
X123147771Y-70542856D01*
X123147771Y-70542856D02*
X123100152Y-70447618D01*
X123100152Y-70447618D02*
X123100152Y-70257142D01*
X123100152Y-70257142D02*
X123147771Y-70161904D01*
X123147771Y-70161904D02*
X123243009Y-70114285D01*
X123243009Y-70114285D02*
X123338247Y-70114285D01*
X123338247Y-70114285D02*
X123433485Y-70590475D01*
X123100152Y-69828570D02*
X123100152Y-69447618D01*
X122766819Y-69685713D02*
X123623961Y-69685713D01*
X123623961Y-69685713D02*
X123719200Y-69638094D01*
X123719200Y-69638094D02*
X123766819Y-69542856D01*
X123766819Y-69542856D02*
X123766819Y-69447618D01*
X138009333Y-52200580D02*
X137961714Y-52248200D01*
X137961714Y-52248200D02*
X137818857Y-52295819D01*
X137818857Y-52295819D02*
X137723619Y-52295819D01*
X137723619Y-52295819D02*
X137580762Y-52248200D01*
X137580762Y-52248200D02*
X137485524Y-52152961D01*
X137485524Y-52152961D02*
X137437905Y-52057723D01*
X137437905Y-52057723D02*
X137390286Y-51867247D01*
X137390286Y-51867247D02*
X137390286Y-51724390D01*
X137390286Y-51724390D02*
X137437905Y-51533914D01*
X137437905Y-51533914D02*
X137485524Y-51438676D01*
X137485524Y-51438676D02*
X137580762Y-51343438D01*
X137580762Y-51343438D02*
X137723619Y-51295819D01*
X137723619Y-51295819D02*
X137818857Y-51295819D01*
X137818857Y-51295819D02*
X137961714Y-51343438D01*
X137961714Y-51343438D02*
X138009333Y-51391057D01*
X138390286Y-51391057D02*
X138437905Y-51343438D01*
X138437905Y-51343438D02*
X138533143Y-51295819D01*
X138533143Y-51295819D02*
X138771238Y-51295819D01*
X138771238Y-51295819D02*
X138866476Y-51343438D01*
X138866476Y-51343438D02*
X138914095Y-51391057D01*
X138914095Y-51391057D02*
X138961714Y-51486295D01*
X138961714Y-51486295D02*
X138961714Y-51581533D01*
X138961714Y-51581533D02*
X138914095Y-51724390D01*
X138914095Y-51724390D02*
X138342667Y-52295819D01*
X138342667Y-52295819D02*
X138961714Y-52295819D01*
X135009143Y-60789057D02*
X135056762Y-60741438D01*
X135056762Y-60741438D02*
X135152000Y-60693819D01*
X135152000Y-60693819D02*
X135390095Y-60693819D01*
X135390095Y-60693819D02*
X135485333Y-60741438D01*
X135485333Y-60741438D02*
X135532952Y-60789057D01*
X135532952Y-60789057D02*
X135580571Y-60884295D01*
X135580571Y-60884295D02*
X135580571Y-60979533D01*
X135580571Y-60979533D02*
X135532952Y-61122390D01*
X135532952Y-61122390D02*
X134961524Y-61693819D01*
X134961524Y-61693819D02*
X135580571Y-61693819D01*
X135961524Y-60789057D02*
X136009143Y-60741438D01*
X136009143Y-60741438D02*
X136104381Y-60693819D01*
X136104381Y-60693819D02*
X136342476Y-60693819D01*
X136342476Y-60693819D02*
X136437714Y-60741438D01*
X136437714Y-60741438D02*
X136485333Y-60789057D01*
X136485333Y-60789057D02*
X136532952Y-60884295D01*
X136532952Y-60884295D02*
X136532952Y-60979533D01*
X136532952Y-60979533D02*
X136485333Y-61122390D01*
X136485333Y-61122390D02*
X135913905Y-61693819D01*
X135913905Y-61693819D02*
X136532952Y-61693819D01*
X137390095Y-61027152D02*
X137390095Y-61693819D01*
X136961524Y-61027152D02*
X136961524Y-61550961D01*
X136961524Y-61550961D02*
X137009143Y-61646200D01*
X137009143Y-61646200D02*
X137104381Y-61693819D01*
X137104381Y-61693819D02*
X137247238Y-61693819D01*
X137247238Y-61693819D02*
X137342476Y-61646200D01*
X137342476Y-61646200D02*
X137390095Y-61598580D01*
X138199619Y-61170009D02*
X137866286Y-61170009D01*
X137866286Y-61693819D02*
X137866286Y-60693819D01*
X137866286Y-60693819D02*
X138342476Y-60693819D01*
X133691333Y-75892819D02*
X133358000Y-75416628D01*
X133119905Y-75892819D02*
X133119905Y-74892819D01*
X133119905Y-74892819D02*
X133500857Y-74892819D01*
X133500857Y-74892819D02*
X133596095Y-74940438D01*
X133596095Y-74940438D02*
X133643714Y-74988057D01*
X133643714Y-74988057D02*
X133691333Y-75083295D01*
X133691333Y-75083295D02*
X133691333Y-75226152D01*
X133691333Y-75226152D02*
X133643714Y-75321390D01*
X133643714Y-75321390D02*
X133596095Y-75369009D01*
X133596095Y-75369009D02*
X133500857Y-75416628D01*
X133500857Y-75416628D02*
X133119905Y-75416628D01*
X134596095Y-74892819D02*
X134119905Y-74892819D01*
X134119905Y-74892819D02*
X134072286Y-75369009D01*
X134072286Y-75369009D02*
X134119905Y-75321390D01*
X134119905Y-75321390D02*
X134215143Y-75273771D01*
X134215143Y-75273771D02*
X134453238Y-75273771D01*
X134453238Y-75273771D02*
X134548476Y-75321390D01*
X134548476Y-75321390D02*
X134596095Y-75369009D01*
X134596095Y-75369009D02*
X134643714Y-75464247D01*
X134643714Y-75464247D02*
X134643714Y-75702342D01*
X134643714Y-75702342D02*
X134596095Y-75797580D01*
X134596095Y-75797580D02*
X134548476Y-75845200D01*
X134548476Y-75845200D02*
X134453238Y-75892819D01*
X134453238Y-75892819D02*
X134215143Y-75892819D01*
X134215143Y-75892819D02*
X134119905Y-75845200D01*
X134119905Y-75845200D02*
X134072286Y-75797580D01*
X135132819Y-79771713D02*
X135132819Y-79152666D01*
X135132819Y-79152666D02*
X135513771Y-79485999D01*
X135513771Y-79485999D02*
X135513771Y-79343142D01*
X135513771Y-79343142D02*
X135561390Y-79247904D01*
X135561390Y-79247904D02*
X135609009Y-79200285D01*
X135609009Y-79200285D02*
X135704247Y-79152666D01*
X135704247Y-79152666D02*
X135942342Y-79152666D01*
X135942342Y-79152666D02*
X136037580Y-79200285D01*
X136037580Y-79200285D02*
X136085200Y-79247904D01*
X136085200Y-79247904D02*
X136132819Y-79343142D01*
X136132819Y-79343142D02*
X136132819Y-79628856D01*
X136132819Y-79628856D02*
X136085200Y-79724094D01*
X136085200Y-79724094D02*
X136037580Y-79771713D01*
X135132819Y-78819332D02*
X135132819Y-78200285D01*
X135132819Y-78200285D02*
X135513771Y-78533618D01*
X135513771Y-78533618D02*
X135513771Y-78390761D01*
X135513771Y-78390761D02*
X135561390Y-78295523D01*
X135561390Y-78295523D02*
X135609009Y-78247904D01*
X135609009Y-78247904D02*
X135704247Y-78200285D01*
X135704247Y-78200285D02*
X135942342Y-78200285D01*
X135942342Y-78200285D02*
X136037580Y-78247904D01*
X136037580Y-78247904D02*
X136085200Y-78295523D01*
X136085200Y-78295523D02*
X136132819Y-78390761D01*
X136132819Y-78390761D02*
X136132819Y-78676475D01*
X136132819Y-78676475D02*
X136085200Y-78771713D01*
X136085200Y-78771713D02*
X136037580Y-78819332D01*
X135132819Y-77581237D02*
X135132819Y-77485999D01*
X135132819Y-77485999D02*
X135180438Y-77390761D01*
X135180438Y-77390761D02*
X135228057Y-77343142D01*
X135228057Y-77343142D02*
X135323295Y-77295523D01*
X135323295Y-77295523D02*
X135513771Y-77247904D01*
X135513771Y-77247904D02*
X135751866Y-77247904D01*
X135751866Y-77247904D02*
X135942342Y-77295523D01*
X135942342Y-77295523D02*
X136037580Y-77343142D01*
X136037580Y-77343142D02*
X136085200Y-77390761D01*
X136085200Y-77390761D02*
X136132819Y-77485999D01*
X136132819Y-77485999D02*
X136132819Y-77581237D01*
X136132819Y-77581237D02*
X136085200Y-77676475D01*
X136085200Y-77676475D02*
X136037580Y-77724094D01*
X136037580Y-77724094D02*
X135942342Y-77771713D01*
X135942342Y-77771713D02*
X135751866Y-77819332D01*
X135751866Y-77819332D02*
X135513771Y-77819332D01*
X135513771Y-77819332D02*
X135323295Y-77771713D01*
X135323295Y-77771713D02*
X135228057Y-77724094D01*
X135228057Y-77724094D02*
X135180438Y-77676475D01*
X135180438Y-77676475D02*
X135132819Y-77581237D01*
X138771333Y-82242819D02*
X138438000Y-81766628D01*
X138199905Y-82242819D02*
X138199905Y-81242819D01*
X138199905Y-81242819D02*
X138580857Y-81242819D01*
X138580857Y-81242819D02*
X138676095Y-81290438D01*
X138676095Y-81290438D02*
X138723714Y-81338057D01*
X138723714Y-81338057D02*
X138771333Y-81433295D01*
X138771333Y-81433295D02*
X138771333Y-81576152D01*
X138771333Y-81576152D02*
X138723714Y-81671390D01*
X138723714Y-81671390D02*
X138676095Y-81719009D01*
X138676095Y-81719009D02*
X138580857Y-81766628D01*
X138580857Y-81766628D02*
X138199905Y-81766628D01*
X139104667Y-81242819D02*
X139771333Y-81242819D01*
X139771333Y-81242819D02*
X139342762Y-82242819D01*
X141212819Y-84955047D02*
X141212819Y-85526475D01*
X141212819Y-85240761D02*
X140212819Y-85240761D01*
X140212819Y-85240761D02*
X140355676Y-85335999D01*
X140355676Y-85335999D02*
X140450914Y-85431237D01*
X140450914Y-85431237D02*
X140498533Y-85526475D01*
X141212819Y-84526475D02*
X140212819Y-84526475D01*
X140831866Y-84431237D02*
X141212819Y-84145523D01*
X140546152Y-84145523D02*
X140927104Y-84526475D01*
X133058819Y-57403904D02*
X133868342Y-57403904D01*
X133868342Y-57403904D02*
X133963580Y-57356285D01*
X133963580Y-57356285D02*
X134011200Y-57308666D01*
X134011200Y-57308666D02*
X134058819Y-57213428D01*
X134058819Y-57213428D02*
X134058819Y-57022952D01*
X134058819Y-57022952D02*
X134011200Y-56927714D01*
X134011200Y-56927714D02*
X133963580Y-56880095D01*
X133963580Y-56880095D02*
X133868342Y-56832476D01*
X133868342Y-56832476D02*
X133058819Y-56832476D01*
X133154057Y-56403904D02*
X133106438Y-56356285D01*
X133106438Y-56356285D02*
X133058819Y-56261047D01*
X133058819Y-56261047D02*
X133058819Y-56022952D01*
X133058819Y-56022952D02*
X133106438Y-55927714D01*
X133106438Y-55927714D02*
X133154057Y-55880095D01*
X133154057Y-55880095D02*
X133249295Y-55832476D01*
X133249295Y-55832476D02*
X133344533Y-55832476D01*
X133344533Y-55832476D02*
X133487390Y-55880095D01*
X133487390Y-55880095D02*
X134058819Y-56451523D01*
X134058819Y-56451523D02*
X134058819Y-55832476D01*
X128746571Y-53794819D02*
X128746571Y-52794819D01*
X128746571Y-53271009D02*
X129317999Y-53271009D01*
X129317999Y-53794819D02*
X129317999Y-52794819D01*
X129651333Y-52794819D02*
X130222761Y-52794819D01*
X129937047Y-53794819D02*
X129937047Y-52794819D01*
X130460857Y-52794819D02*
X131127523Y-52794819D01*
X131127523Y-52794819D02*
X130698952Y-53794819D01*
X131413238Y-52794819D02*
X132032285Y-52794819D01*
X132032285Y-52794819D02*
X131698952Y-53175771D01*
X131698952Y-53175771D02*
X131841809Y-53175771D01*
X131841809Y-53175771D02*
X131937047Y-53223390D01*
X131937047Y-53223390D02*
X131984666Y-53271009D01*
X131984666Y-53271009D02*
X132032285Y-53366247D01*
X132032285Y-53366247D02*
X132032285Y-53604342D01*
X132032285Y-53604342D02*
X131984666Y-53699580D01*
X131984666Y-53699580D02*
X131937047Y-53747200D01*
X131937047Y-53747200D02*
X131841809Y-53794819D01*
X131841809Y-53794819D02*
X131556095Y-53794819D01*
X131556095Y-53794819D02*
X131460857Y-53747200D01*
X131460857Y-53747200D02*
X131413238Y-53699580D01*
X132365619Y-52794819D02*
X132984666Y-52794819D01*
X132984666Y-52794819D02*
X132651333Y-53175771D01*
X132651333Y-53175771D02*
X132794190Y-53175771D01*
X132794190Y-53175771D02*
X132889428Y-53223390D01*
X132889428Y-53223390D02*
X132937047Y-53271009D01*
X132937047Y-53271009D02*
X132984666Y-53366247D01*
X132984666Y-53366247D02*
X132984666Y-53604342D01*
X132984666Y-53604342D02*
X132937047Y-53699580D01*
X132937047Y-53699580D02*
X132889428Y-53747200D01*
X132889428Y-53747200D02*
X132794190Y-53794819D01*
X132794190Y-53794819D02*
X132508476Y-53794819D01*
X132508476Y-53794819D02*
X132413238Y-53747200D01*
X132413238Y-53747200D02*
X132365619Y-53699580D01*
X133318000Y-52794819D02*
X133937047Y-52794819D01*
X133937047Y-52794819D02*
X133603714Y-53175771D01*
X133603714Y-53175771D02*
X133746571Y-53175771D01*
X133746571Y-53175771D02*
X133841809Y-53223390D01*
X133841809Y-53223390D02*
X133889428Y-53271009D01*
X133889428Y-53271009D02*
X133937047Y-53366247D01*
X133937047Y-53366247D02*
X133937047Y-53604342D01*
X133937047Y-53604342D02*
X133889428Y-53699580D01*
X133889428Y-53699580D02*
X133841809Y-53747200D01*
X133841809Y-53747200D02*
X133746571Y-53794819D01*
X133746571Y-53794819D02*
X133460857Y-53794819D01*
X133460857Y-53794819D02*
X133365619Y-53747200D01*
X133365619Y-53747200D02*
X133318000Y-53699580D01*
X162246819Y-99893333D02*
X162961104Y-99893333D01*
X162961104Y-99893333D02*
X163103961Y-99940952D01*
X163103961Y-99940952D02*
X163199200Y-100036190D01*
X163199200Y-100036190D02*
X163246819Y-100179047D01*
X163246819Y-100179047D02*
X163246819Y-100274285D01*
X163246819Y-99417142D02*
X162246819Y-99417142D01*
X162246819Y-99417142D02*
X162246819Y-99036190D01*
X162246819Y-99036190D02*
X162294438Y-98940952D01*
X162294438Y-98940952D02*
X162342057Y-98893333D01*
X162342057Y-98893333D02*
X162437295Y-98845714D01*
X162437295Y-98845714D02*
X162580152Y-98845714D01*
X162580152Y-98845714D02*
X162675390Y-98893333D01*
X162675390Y-98893333D02*
X162723009Y-98940952D01*
X162723009Y-98940952D02*
X162770628Y-99036190D01*
X162770628Y-99036190D02*
X162770628Y-99417142D01*
X162246819Y-98512380D02*
X162246819Y-97893333D01*
X162246819Y-97893333D02*
X162627771Y-98226666D01*
X162627771Y-98226666D02*
X162627771Y-98083809D01*
X162627771Y-98083809D02*
X162675390Y-97988571D01*
X162675390Y-97988571D02*
X162723009Y-97940952D01*
X162723009Y-97940952D02*
X162818247Y-97893333D01*
X162818247Y-97893333D02*
X163056342Y-97893333D01*
X163056342Y-97893333D02*
X163151580Y-97940952D01*
X163151580Y-97940952D02*
X163199200Y-97988571D01*
X163199200Y-97988571D02*
X163246819Y-98083809D01*
X163246819Y-98083809D02*
X163246819Y-98369523D01*
X163246819Y-98369523D02*
X163199200Y-98464761D01*
X163199200Y-98464761D02*
X163151580Y-98512380D01*
X166946819Y-100631428D02*
X165946819Y-100631428D01*
X166327771Y-100631428D02*
X166280152Y-100536190D01*
X166280152Y-100536190D02*
X166280152Y-100345714D01*
X166280152Y-100345714D02*
X166327771Y-100250476D01*
X166327771Y-100250476D02*
X166375390Y-100202857D01*
X166375390Y-100202857D02*
X166470628Y-100155238D01*
X166470628Y-100155238D02*
X166756342Y-100155238D01*
X166756342Y-100155238D02*
X166851580Y-100202857D01*
X166851580Y-100202857D02*
X166899200Y-100250476D01*
X166899200Y-100250476D02*
X166946819Y-100345714D01*
X166946819Y-100345714D02*
X166946819Y-100536190D01*
X166946819Y-100536190D02*
X166899200Y-100631428D01*
X166946819Y-99298095D02*
X166423009Y-99298095D01*
X166423009Y-99298095D02*
X166327771Y-99345714D01*
X166327771Y-99345714D02*
X166280152Y-99440952D01*
X166280152Y-99440952D02*
X166280152Y-99631428D01*
X166280152Y-99631428D02*
X166327771Y-99726666D01*
X166899200Y-99298095D02*
X166946819Y-99393333D01*
X166946819Y-99393333D02*
X166946819Y-99631428D01*
X166946819Y-99631428D02*
X166899200Y-99726666D01*
X166899200Y-99726666D02*
X166803961Y-99774285D01*
X166803961Y-99774285D02*
X166708723Y-99774285D01*
X166708723Y-99774285D02*
X166613485Y-99726666D01*
X166613485Y-99726666D02*
X166565866Y-99631428D01*
X166565866Y-99631428D02*
X166565866Y-99393333D01*
X166565866Y-99393333D02*
X166518247Y-99298095D01*
X166280152Y-98964761D02*
X166280152Y-98583809D01*
X165946819Y-98821904D02*
X166803961Y-98821904D01*
X166803961Y-98821904D02*
X166899200Y-98774285D01*
X166899200Y-98774285D02*
X166946819Y-98679047D01*
X166946819Y-98679047D02*
X166946819Y-98583809D01*
X166565866Y-98250475D02*
X166565866Y-97488571D01*
X166946819Y-97869523D02*
X166184914Y-97869523D01*
X132274761Y-107900057D02*
X132179523Y-107852438D01*
X132179523Y-107852438D02*
X132084285Y-107757200D01*
X132084285Y-107757200D02*
X131941428Y-107614342D01*
X131941428Y-107614342D02*
X131846190Y-107566723D01*
X131846190Y-107566723D02*
X131750952Y-107566723D01*
X131798571Y-107804819D02*
X131703333Y-107757200D01*
X131703333Y-107757200D02*
X131608095Y-107661961D01*
X131608095Y-107661961D02*
X131560476Y-107471485D01*
X131560476Y-107471485D02*
X131560476Y-107138152D01*
X131560476Y-107138152D02*
X131608095Y-106947676D01*
X131608095Y-106947676D02*
X131703333Y-106852438D01*
X131703333Y-106852438D02*
X131798571Y-106804819D01*
X131798571Y-106804819D02*
X131989047Y-106804819D01*
X131989047Y-106804819D02*
X132084285Y-106852438D01*
X132084285Y-106852438D02*
X132179523Y-106947676D01*
X132179523Y-106947676D02*
X132227142Y-107138152D01*
X132227142Y-107138152D02*
X132227142Y-107471485D01*
X132227142Y-107471485D02*
X132179523Y-107661961D01*
X132179523Y-107661961D02*
X132084285Y-107757200D01*
X132084285Y-107757200D02*
X131989047Y-107804819D01*
X131989047Y-107804819D02*
X131798571Y-107804819D01*
X133179523Y-107804819D02*
X132608095Y-107804819D01*
X132893809Y-107804819D02*
X132893809Y-106804819D01*
X132893809Y-106804819D02*
X132798571Y-106947676D01*
X132798571Y-106947676D02*
X132703333Y-107042914D01*
X132703333Y-107042914D02*
X132608095Y-107090533D01*
X162642319Y-103636404D02*
X163451842Y-103636404D01*
X163451842Y-103636404D02*
X163547080Y-103588785D01*
X163547080Y-103588785D02*
X163594700Y-103541166D01*
X163594700Y-103541166D02*
X163642319Y-103445928D01*
X163642319Y-103445928D02*
X163642319Y-103255452D01*
X163642319Y-103255452D02*
X163594700Y-103160214D01*
X163594700Y-103160214D02*
X163547080Y-103112595D01*
X163547080Y-103112595D02*
X163451842Y-103064976D01*
X163451842Y-103064976D02*
X162642319Y-103064976D01*
X162642319Y-102684023D02*
X162642319Y-102064976D01*
X162642319Y-102064976D02*
X163023271Y-102398309D01*
X163023271Y-102398309D02*
X163023271Y-102255452D01*
X163023271Y-102255452D02*
X163070890Y-102160214D01*
X163070890Y-102160214D02*
X163118509Y-102112595D01*
X163118509Y-102112595D02*
X163213747Y-102064976D01*
X163213747Y-102064976D02*
X163451842Y-102064976D01*
X163451842Y-102064976D02*
X163547080Y-102112595D01*
X163547080Y-102112595D02*
X163594700Y-102160214D01*
X163594700Y-102160214D02*
X163642319Y-102255452D01*
X163642319Y-102255452D02*
X163642319Y-102541166D01*
X163642319Y-102541166D02*
X163594700Y-102636404D01*
X163594700Y-102636404D02*
X163547080Y-102684023D01*
X149060819Y-110417809D02*
X149060819Y-109846381D01*
X150060819Y-110132095D02*
X149060819Y-110132095D01*
X150060819Y-109513047D02*
X149060819Y-109513047D01*
X149060819Y-109513047D02*
X149060819Y-109132095D01*
X149060819Y-109132095D02*
X149108438Y-109036857D01*
X149108438Y-109036857D02*
X149156057Y-108989238D01*
X149156057Y-108989238D02*
X149251295Y-108941619D01*
X149251295Y-108941619D02*
X149394152Y-108941619D01*
X149394152Y-108941619D02*
X149489390Y-108989238D01*
X149489390Y-108989238D02*
X149537009Y-109036857D01*
X149537009Y-109036857D02*
X149584628Y-109132095D01*
X149584628Y-109132095D02*
X149584628Y-109513047D01*
X149394152Y-108084476D02*
X150060819Y-108084476D01*
X149013200Y-108322571D02*
X149727485Y-108560666D01*
X149727485Y-108560666D02*
X149727485Y-107941619D01*
X149060819Y-107370190D02*
X149060819Y-107274952D01*
X149060819Y-107274952D02*
X149108438Y-107179714D01*
X149108438Y-107179714D02*
X149156057Y-107132095D01*
X149156057Y-107132095D02*
X149251295Y-107084476D01*
X149251295Y-107084476D02*
X149441771Y-107036857D01*
X149441771Y-107036857D02*
X149679866Y-107036857D01*
X149679866Y-107036857D02*
X149870342Y-107084476D01*
X149870342Y-107084476D02*
X149965580Y-107132095D01*
X149965580Y-107132095D02*
X150013200Y-107179714D01*
X150013200Y-107179714D02*
X150060819Y-107274952D01*
X150060819Y-107274952D02*
X150060819Y-107370190D01*
X150060819Y-107370190D02*
X150013200Y-107465428D01*
X150013200Y-107465428D02*
X149965580Y-107513047D01*
X149965580Y-107513047D02*
X149870342Y-107560666D01*
X149870342Y-107560666D02*
X149679866Y-107608285D01*
X149679866Y-107608285D02*
X149441771Y-107608285D01*
X149441771Y-107608285D02*
X149251295Y-107560666D01*
X149251295Y-107560666D02*
X149156057Y-107513047D01*
X149156057Y-107513047D02*
X149108438Y-107465428D01*
X149108438Y-107465428D02*
X149060819Y-107370190D01*
X149060819Y-106132095D02*
X149060819Y-106608285D01*
X149060819Y-106608285D02*
X149537009Y-106655904D01*
X149537009Y-106655904D02*
X149489390Y-106608285D01*
X149489390Y-106608285D02*
X149441771Y-106513047D01*
X149441771Y-106513047D02*
X149441771Y-106274952D01*
X149441771Y-106274952D02*
X149489390Y-106179714D01*
X149489390Y-106179714D02*
X149537009Y-106132095D01*
X149537009Y-106132095D02*
X149632247Y-106084476D01*
X149632247Y-106084476D02*
X149870342Y-106084476D01*
X149870342Y-106084476D02*
X149965580Y-106132095D01*
X149965580Y-106132095D02*
X150013200Y-106179714D01*
X150013200Y-106179714D02*
X150060819Y-106274952D01*
X150060819Y-106274952D02*
X150060819Y-106513047D01*
X150060819Y-106513047D02*
X150013200Y-106608285D01*
X150013200Y-106608285D02*
X149965580Y-106655904D01*
X149060819Y-105227333D02*
X149060819Y-105417809D01*
X149060819Y-105417809D02*
X149108438Y-105513047D01*
X149108438Y-105513047D02*
X149156057Y-105560666D01*
X149156057Y-105560666D02*
X149298914Y-105655904D01*
X149298914Y-105655904D02*
X149489390Y-105703523D01*
X149489390Y-105703523D02*
X149870342Y-105703523D01*
X149870342Y-105703523D02*
X149965580Y-105655904D01*
X149965580Y-105655904D02*
X150013200Y-105608285D01*
X150013200Y-105608285D02*
X150060819Y-105513047D01*
X150060819Y-105513047D02*
X150060819Y-105322571D01*
X150060819Y-105322571D02*
X150013200Y-105227333D01*
X150013200Y-105227333D02*
X149965580Y-105179714D01*
X149965580Y-105179714D02*
X149870342Y-105132095D01*
X149870342Y-105132095D02*
X149632247Y-105132095D01*
X149632247Y-105132095D02*
X149537009Y-105179714D01*
X149537009Y-105179714D02*
X149489390Y-105227333D01*
X149489390Y-105227333D02*
X149441771Y-105322571D01*
X149441771Y-105322571D02*
X149441771Y-105513047D01*
X149441771Y-105513047D02*
X149489390Y-105608285D01*
X149489390Y-105608285D02*
X149537009Y-105655904D01*
X149537009Y-105655904D02*
X149632247Y-105703523D01*
X149679866Y-104703523D02*
X149679866Y-103941619D01*
X150060819Y-103465428D02*
X149394152Y-103465428D01*
X149489390Y-103465428D02*
X149441771Y-103417809D01*
X149441771Y-103417809D02*
X149394152Y-103322571D01*
X149394152Y-103322571D02*
X149394152Y-103179714D01*
X149394152Y-103179714D02*
X149441771Y-103084476D01*
X149441771Y-103084476D02*
X149537009Y-103036857D01*
X149537009Y-103036857D02*
X150060819Y-103036857D01*
X149537009Y-103036857D02*
X149441771Y-102989238D01*
X149441771Y-102989238D02*
X149394152Y-102894000D01*
X149394152Y-102894000D02*
X149394152Y-102751143D01*
X149394152Y-102751143D02*
X149441771Y-102655904D01*
X149441771Y-102655904D02*
X149537009Y-102608285D01*
X149537009Y-102608285D02*
X150060819Y-102608285D01*
X150060819Y-101989238D02*
X150013200Y-102084476D01*
X150013200Y-102084476D02*
X149965580Y-102132095D01*
X149965580Y-102132095D02*
X149870342Y-102179714D01*
X149870342Y-102179714D02*
X149584628Y-102179714D01*
X149584628Y-102179714D02*
X149489390Y-102132095D01*
X149489390Y-102132095D02*
X149441771Y-102084476D01*
X149441771Y-102084476D02*
X149394152Y-101989238D01*
X149394152Y-101989238D02*
X149394152Y-101846381D01*
X149394152Y-101846381D02*
X149441771Y-101751143D01*
X149441771Y-101751143D02*
X149489390Y-101703524D01*
X149489390Y-101703524D02*
X149584628Y-101655905D01*
X149584628Y-101655905D02*
X149870342Y-101655905D01*
X149870342Y-101655905D02*
X149965580Y-101703524D01*
X149965580Y-101703524D02*
X150013200Y-101751143D01*
X150013200Y-101751143D02*
X150060819Y-101846381D01*
X150060819Y-101846381D02*
X150060819Y-101989238D01*
X150060819Y-100798762D02*
X149060819Y-100798762D01*
X150013200Y-100798762D02*
X150060819Y-100894000D01*
X150060819Y-100894000D02*
X150060819Y-101084476D01*
X150060819Y-101084476D02*
X150013200Y-101179714D01*
X150013200Y-101179714D02*
X149965580Y-101227333D01*
X149965580Y-101227333D02*
X149870342Y-101274952D01*
X149870342Y-101274952D02*
X149584628Y-101274952D01*
X149584628Y-101274952D02*
X149489390Y-101227333D01*
X149489390Y-101227333D02*
X149441771Y-101179714D01*
X149441771Y-101179714D02*
X149394152Y-101084476D01*
X149394152Y-101084476D02*
X149394152Y-100894000D01*
X149394152Y-100894000D02*
X149441771Y-100798762D01*
X149394152Y-99894000D02*
X150060819Y-99894000D01*
X149394152Y-100322571D02*
X149917961Y-100322571D01*
X149917961Y-100322571D02*
X150013200Y-100274952D01*
X150013200Y-100274952D02*
X150060819Y-100179714D01*
X150060819Y-100179714D02*
X150060819Y-100036857D01*
X150060819Y-100036857D02*
X150013200Y-99941619D01*
X150013200Y-99941619D02*
X149965580Y-99894000D01*
X150060819Y-99274952D02*
X150013200Y-99370190D01*
X150013200Y-99370190D02*
X149917961Y-99417809D01*
X149917961Y-99417809D02*
X149060819Y-99417809D01*
X150013200Y-98513047D02*
X150060819Y-98608285D01*
X150060819Y-98608285D02*
X150060819Y-98798761D01*
X150060819Y-98798761D02*
X150013200Y-98893999D01*
X150013200Y-98893999D02*
X149917961Y-98941618D01*
X149917961Y-98941618D02*
X149537009Y-98941618D01*
X149537009Y-98941618D02*
X149441771Y-98893999D01*
X149441771Y-98893999D02*
X149394152Y-98798761D01*
X149394152Y-98798761D02*
X149394152Y-98608285D01*
X149394152Y-98608285D02*
X149441771Y-98513047D01*
X149441771Y-98513047D02*
X149537009Y-98465428D01*
X149537009Y-98465428D02*
X149632247Y-98465428D01*
X149632247Y-98465428D02*
X149727485Y-98941618D01*
X160461366Y-112855451D02*
X160461366Y-112093547D01*
X145261366Y-112955451D02*
X145261366Y-112193547D01*
X145642319Y-112574499D02*
X144880414Y-112574499D01*
X156218509Y-95322118D02*
X156266128Y-95179261D01*
X156266128Y-95179261D02*
X156313747Y-95131642D01*
X156313747Y-95131642D02*
X156408985Y-95084023D01*
X156408985Y-95084023D02*
X156551842Y-95084023D01*
X156551842Y-95084023D02*
X156647080Y-95131642D01*
X156647080Y-95131642D02*
X156694700Y-95179261D01*
X156694700Y-95179261D02*
X156742319Y-95274499D01*
X156742319Y-95274499D02*
X156742319Y-95655451D01*
X156742319Y-95655451D02*
X155742319Y-95655451D01*
X155742319Y-95655451D02*
X155742319Y-95322118D01*
X155742319Y-95322118D02*
X155789938Y-95226880D01*
X155789938Y-95226880D02*
X155837557Y-95179261D01*
X155837557Y-95179261D02*
X155932795Y-95131642D01*
X155932795Y-95131642D02*
X156028033Y-95131642D01*
X156028033Y-95131642D02*
X156123271Y-95179261D01*
X156123271Y-95179261D02*
X156170890Y-95226880D01*
X156170890Y-95226880D02*
X156218509Y-95322118D01*
X156218509Y-95322118D02*
X156218509Y-95655451D01*
X156361366Y-94655451D02*
X156361366Y-93893547D01*
X152418509Y-110417358D02*
X152466128Y-110274501D01*
X152466128Y-110274501D02*
X152513747Y-110226882D01*
X152513747Y-110226882D02*
X152608985Y-110179263D01*
X152608985Y-110179263D02*
X152751842Y-110179263D01*
X152751842Y-110179263D02*
X152847080Y-110226882D01*
X152847080Y-110226882D02*
X152894700Y-110274501D01*
X152894700Y-110274501D02*
X152942319Y-110369739D01*
X152942319Y-110369739D02*
X152942319Y-110750691D01*
X152942319Y-110750691D02*
X151942319Y-110750691D01*
X151942319Y-110750691D02*
X151942319Y-110417358D01*
X151942319Y-110417358D02*
X151989938Y-110322120D01*
X151989938Y-110322120D02*
X152037557Y-110274501D01*
X152037557Y-110274501D02*
X152132795Y-110226882D01*
X152132795Y-110226882D02*
X152228033Y-110226882D01*
X152228033Y-110226882D02*
X152323271Y-110274501D01*
X152323271Y-110274501D02*
X152370890Y-110322120D01*
X152370890Y-110322120D02*
X152418509Y-110417358D01*
X152418509Y-110417358D02*
X152418509Y-110750691D01*
X152942319Y-109322120D02*
X152418509Y-109322120D01*
X152418509Y-109322120D02*
X152323271Y-109369739D01*
X152323271Y-109369739D02*
X152275652Y-109464977D01*
X152275652Y-109464977D02*
X152275652Y-109655453D01*
X152275652Y-109655453D02*
X152323271Y-109750691D01*
X152894700Y-109322120D02*
X152942319Y-109417358D01*
X152942319Y-109417358D02*
X152942319Y-109655453D01*
X152942319Y-109655453D02*
X152894700Y-109750691D01*
X152894700Y-109750691D02*
X152799461Y-109798310D01*
X152799461Y-109798310D02*
X152704223Y-109798310D01*
X152704223Y-109798310D02*
X152608985Y-109750691D01*
X152608985Y-109750691D02*
X152561366Y-109655453D01*
X152561366Y-109655453D02*
X152561366Y-109417358D01*
X152561366Y-109417358D02*
X152513747Y-109322120D01*
X152275652Y-108988786D02*
X152275652Y-108607834D01*
X151942319Y-108845929D02*
X152799461Y-108845929D01*
X152799461Y-108845929D02*
X152894700Y-108798310D01*
X152894700Y-108798310D02*
X152942319Y-108703072D01*
X152942319Y-108703072D02*
X152942319Y-108607834D01*
X152275652Y-108417357D02*
X152275652Y-108036405D01*
X151942319Y-108274500D02*
X152799461Y-108274500D01*
X152799461Y-108274500D02*
X152894700Y-108226881D01*
X152894700Y-108226881D02*
X152942319Y-108131643D01*
X152942319Y-108131643D02*
X152942319Y-108036405D01*
X152894700Y-107322119D02*
X152942319Y-107417357D01*
X152942319Y-107417357D02*
X152942319Y-107607833D01*
X152942319Y-107607833D02*
X152894700Y-107703071D01*
X152894700Y-107703071D02*
X152799461Y-107750690D01*
X152799461Y-107750690D02*
X152418509Y-107750690D01*
X152418509Y-107750690D02*
X152323271Y-107703071D01*
X152323271Y-107703071D02*
X152275652Y-107607833D01*
X152275652Y-107607833D02*
X152275652Y-107417357D01*
X152275652Y-107417357D02*
X152323271Y-107322119D01*
X152323271Y-107322119D02*
X152418509Y-107274500D01*
X152418509Y-107274500D02*
X152513747Y-107274500D01*
X152513747Y-107274500D02*
X152608985Y-107750690D01*
X152942319Y-106845928D02*
X152275652Y-106845928D01*
X152466128Y-106845928D02*
X152370890Y-106798309D01*
X152370890Y-106798309D02*
X152323271Y-106750690D01*
X152323271Y-106750690D02*
X152275652Y-106655452D01*
X152275652Y-106655452D02*
X152275652Y-106560214D01*
X152275652Y-106322118D02*
X152942319Y-106084023D01*
X152275652Y-105845928D02*
X152942319Y-106084023D01*
X152942319Y-106084023D02*
X153180414Y-106179261D01*
X153180414Y-106179261D02*
X153228033Y-106226880D01*
X153228033Y-106226880D02*
X153275652Y-106322118D01*
X152847080Y-104131642D02*
X152894700Y-104179261D01*
X152894700Y-104179261D02*
X152942319Y-104322118D01*
X152942319Y-104322118D02*
X152942319Y-104417356D01*
X152942319Y-104417356D02*
X152894700Y-104560213D01*
X152894700Y-104560213D02*
X152799461Y-104655451D01*
X152799461Y-104655451D02*
X152704223Y-104703070D01*
X152704223Y-104703070D02*
X152513747Y-104750689D01*
X152513747Y-104750689D02*
X152370890Y-104750689D01*
X152370890Y-104750689D02*
X152180414Y-104703070D01*
X152180414Y-104703070D02*
X152085176Y-104655451D01*
X152085176Y-104655451D02*
X151989938Y-104560213D01*
X151989938Y-104560213D02*
X151942319Y-104417356D01*
X151942319Y-104417356D02*
X151942319Y-104322118D01*
X151942319Y-104322118D02*
X151989938Y-104179261D01*
X151989938Y-104179261D02*
X152037557Y-104131642D01*
X152942319Y-103703070D02*
X151942319Y-103703070D01*
X152942319Y-103274499D02*
X152418509Y-103274499D01*
X152418509Y-103274499D02*
X152323271Y-103322118D01*
X152323271Y-103322118D02*
X152275652Y-103417356D01*
X152275652Y-103417356D02*
X152275652Y-103560213D01*
X152275652Y-103560213D02*
X152323271Y-103655451D01*
X152323271Y-103655451D02*
X152370890Y-103703070D01*
X152942319Y-102369737D02*
X152418509Y-102369737D01*
X152418509Y-102369737D02*
X152323271Y-102417356D01*
X152323271Y-102417356D02*
X152275652Y-102512594D01*
X152275652Y-102512594D02*
X152275652Y-102703070D01*
X152275652Y-102703070D02*
X152323271Y-102798308D01*
X152894700Y-102369737D02*
X152942319Y-102464975D01*
X152942319Y-102464975D02*
X152942319Y-102703070D01*
X152942319Y-102703070D02*
X152894700Y-102798308D01*
X152894700Y-102798308D02*
X152799461Y-102845927D01*
X152799461Y-102845927D02*
X152704223Y-102845927D01*
X152704223Y-102845927D02*
X152608985Y-102798308D01*
X152608985Y-102798308D02*
X152561366Y-102703070D01*
X152561366Y-102703070D02*
X152561366Y-102464975D01*
X152561366Y-102464975D02*
X152513747Y-102369737D01*
X152942319Y-101893546D02*
X152275652Y-101893546D01*
X152466128Y-101893546D02*
X152370890Y-101845927D01*
X152370890Y-101845927D02*
X152323271Y-101798308D01*
X152323271Y-101798308D02*
X152275652Y-101703070D01*
X152275652Y-101703070D02*
X152275652Y-101607832D01*
X152275652Y-100845927D02*
X153085176Y-100845927D01*
X153085176Y-100845927D02*
X153180414Y-100893546D01*
X153180414Y-100893546D02*
X153228033Y-100941165D01*
X153228033Y-100941165D02*
X153275652Y-101036403D01*
X153275652Y-101036403D02*
X153275652Y-101179260D01*
X153275652Y-101179260D02*
X153228033Y-101274498D01*
X152894700Y-100845927D02*
X152942319Y-100941165D01*
X152942319Y-100941165D02*
X152942319Y-101131641D01*
X152942319Y-101131641D02*
X152894700Y-101226879D01*
X152894700Y-101226879D02*
X152847080Y-101274498D01*
X152847080Y-101274498D02*
X152751842Y-101322117D01*
X152751842Y-101322117D02*
X152466128Y-101322117D01*
X152466128Y-101322117D02*
X152370890Y-101274498D01*
X152370890Y-101274498D02*
X152323271Y-101226879D01*
X152323271Y-101226879D02*
X152275652Y-101131641D01*
X152275652Y-101131641D02*
X152275652Y-100941165D01*
X152275652Y-100941165D02*
X152323271Y-100845927D01*
X152894700Y-99988784D02*
X152942319Y-100084022D01*
X152942319Y-100084022D02*
X152942319Y-100274498D01*
X152942319Y-100274498D02*
X152894700Y-100369736D01*
X152894700Y-100369736D02*
X152799461Y-100417355D01*
X152799461Y-100417355D02*
X152418509Y-100417355D01*
X152418509Y-100417355D02*
X152323271Y-100369736D01*
X152323271Y-100369736D02*
X152275652Y-100274498D01*
X152275652Y-100274498D02*
X152275652Y-100084022D01*
X152275652Y-100084022D02*
X152323271Y-99988784D01*
X152323271Y-99988784D02*
X152418509Y-99941165D01*
X152418509Y-99941165D02*
X152513747Y-99941165D01*
X152513747Y-99941165D02*
X152608985Y-100417355D01*
X152942319Y-99512593D02*
X152275652Y-99512593D01*
X152466128Y-99512593D02*
X152370890Y-99464974D01*
X152370890Y-99464974D02*
X152323271Y-99417355D01*
X152323271Y-99417355D02*
X152275652Y-99322117D01*
X152275652Y-99322117D02*
X152275652Y-99226879D01*
X152942319Y-97607831D02*
X152942319Y-98179259D01*
X152942319Y-97893545D02*
X151942319Y-97893545D01*
X151942319Y-97893545D02*
X152085176Y-97988783D01*
X152085176Y-97988783D02*
X152180414Y-98084021D01*
X152180414Y-98084021D02*
X152228033Y-98179259D01*
X152656604Y-97226878D02*
X152656604Y-96750688D01*
X152942319Y-97322116D02*
X151942319Y-96988783D01*
X151942319Y-96988783D02*
X152942319Y-96655450D01*
X144642319Y-97026880D02*
X144642319Y-96836404D01*
X144642319Y-96836404D02*
X144689938Y-96741166D01*
X144689938Y-96741166D02*
X144785176Y-96645928D01*
X144785176Y-96645928D02*
X144975652Y-96598309D01*
X144975652Y-96598309D02*
X145308985Y-96598309D01*
X145308985Y-96598309D02*
X145499461Y-96645928D01*
X145499461Y-96645928D02*
X145594700Y-96741166D01*
X145594700Y-96741166D02*
X145642319Y-96836404D01*
X145642319Y-96836404D02*
X145642319Y-97026880D01*
X145642319Y-97026880D02*
X145594700Y-97122118D01*
X145594700Y-97122118D02*
X145499461Y-97217356D01*
X145499461Y-97217356D02*
X145308985Y-97264975D01*
X145308985Y-97264975D02*
X144975652Y-97264975D01*
X144975652Y-97264975D02*
X144785176Y-97217356D01*
X144785176Y-97217356D02*
X144689938Y-97122118D01*
X144689938Y-97122118D02*
X144642319Y-97026880D01*
X144975652Y-95741166D02*
X145642319Y-95741166D01*
X144975652Y-96169737D02*
X145499461Y-96169737D01*
X145499461Y-96169737D02*
X145594700Y-96122118D01*
X145594700Y-96122118D02*
X145642319Y-96026880D01*
X145642319Y-96026880D02*
X145642319Y-95884023D01*
X145642319Y-95884023D02*
X145594700Y-95788785D01*
X145594700Y-95788785D02*
X145547080Y-95741166D01*
X144975652Y-95407832D02*
X144975652Y-95026880D01*
X144642319Y-95264975D02*
X145499461Y-95264975D01*
X145499461Y-95264975D02*
X145594700Y-95217356D01*
X145594700Y-95217356D02*
X145642319Y-95122118D01*
X145642319Y-95122118D02*
X145642319Y-95026880D01*
X145261366Y-94693546D02*
X145261366Y-93931642D01*
X145642319Y-94312594D02*
X144880414Y-94312594D01*
X159242319Y-97026880D02*
X159242319Y-96836404D01*
X159242319Y-96836404D02*
X159289938Y-96741166D01*
X159289938Y-96741166D02*
X159385176Y-96645928D01*
X159385176Y-96645928D02*
X159575652Y-96598309D01*
X159575652Y-96598309D02*
X159908985Y-96598309D01*
X159908985Y-96598309D02*
X160099461Y-96645928D01*
X160099461Y-96645928D02*
X160194700Y-96741166D01*
X160194700Y-96741166D02*
X160242319Y-96836404D01*
X160242319Y-96836404D02*
X160242319Y-97026880D01*
X160242319Y-97026880D02*
X160194700Y-97122118D01*
X160194700Y-97122118D02*
X160099461Y-97217356D01*
X160099461Y-97217356D02*
X159908985Y-97264975D01*
X159908985Y-97264975D02*
X159575652Y-97264975D01*
X159575652Y-97264975D02*
X159385176Y-97217356D01*
X159385176Y-97217356D02*
X159289938Y-97122118D01*
X159289938Y-97122118D02*
X159242319Y-97026880D01*
X159575652Y-95741166D02*
X160242319Y-95741166D01*
X159575652Y-96169737D02*
X160099461Y-96169737D01*
X160099461Y-96169737D02*
X160194700Y-96122118D01*
X160194700Y-96122118D02*
X160242319Y-96026880D01*
X160242319Y-96026880D02*
X160242319Y-95884023D01*
X160242319Y-95884023D02*
X160194700Y-95788785D01*
X160194700Y-95788785D02*
X160147080Y-95741166D01*
X159575652Y-95407832D02*
X159575652Y-95026880D01*
X159242319Y-95264975D02*
X160099461Y-95264975D01*
X160099461Y-95264975D02*
X160194700Y-95217356D01*
X160194700Y-95217356D02*
X160242319Y-95122118D01*
X160242319Y-95122118D02*
X160242319Y-95026880D01*
X159861366Y-94693546D02*
X159861366Y-93931642D01*
X151425595Y-114329319D02*
X151425595Y-115138842D01*
X151425595Y-115138842D02*
X151473214Y-115234080D01*
X151473214Y-115234080D02*
X151520833Y-115281700D01*
X151520833Y-115281700D02*
X151616071Y-115329319D01*
X151616071Y-115329319D02*
X151806547Y-115329319D01*
X151806547Y-115329319D02*
X151901785Y-115281700D01*
X151901785Y-115281700D02*
X151949404Y-115234080D01*
X151949404Y-115234080D02*
X151997023Y-115138842D01*
X151997023Y-115138842D02*
X151997023Y-114329319D01*
X152425595Y-115281700D02*
X152568452Y-115329319D01*
X152568452Y-115329319D02*
X152806547Y-115329319D01*
X152806547Y-115329319D02*
X152901785Y-115281700D01*
X152901785Y-115281700D02*
X152949404Y-115234080D01*
X152949404Y-115234080D02*
X152997023Y-115138842D01*
X152997023Y-115138842D02*
X152997023Y-115043604D01*
X152997023Y-115043604D02*
X152949404Y-114948366D01*
X152949404Y-114948366D02*
X152901785Y-114900747D01*
X152901785Y-114900747D02*
X152806547Y-114853128D01*
X152806547Y-114853128D02*
X152616071Y-114805509D01*
X152616071Y-114805509D02*
X152520833Y-114757890D01*
X152520833Y-114757890D02*
X152473214Y-114710271D01*
X152473214Y-114710271D02*
X152425595Y-114615033D01*
X152425595Y-114615033D02*
X152425595Y-114519795D01*
X152425595Y-114519795D02*
X152473214Y-114424557D01*
X152473214Y-114424557D02*
X152520833Y-114376938D01*
X152520833Y-114376938D02*
X152616071Y-114329319D01*
X152616071Y-114329319D02*
X152854166Y-114329319D01*
X152854166Y-114329319D02*
X152997023Y-114376938D01*
X153758928Y-114805509D02*
X153901785Y-114853128D01*
X153901785Y-114853128D02*
X153949404Y-114900747D01*
X153949404Y-114900747D02*
X153997023Y-114995985D01*
X153997023Y-114995985D02*
X153997023Y-115138842D01*
X153997023Y-115138842D02*
X153949404Y-115234080D01*
X153949404Y-115234080D02*
X153901785Y-115281700D01*
X153901785Y-115281700D02*
X153806547Y-115329319D01*
X153806547Y-115329319D02*
X153425595Y-115329319D01*
X153425595Y-115329319D02*
X153425595Y-114329319D01*
X153425595Y-114329319D02*
X153758928Y-114329319D01*
X153758928Y-114329319D02*
X153854166Y-114376938D01*
X153854166Y-114376938D02*
X153901785Y-114424557D01*
X153901785Y-114424557D02*
X153949404Y-114519795D01*
X153949404Y-114519795D02*
X153949404Y-114615033D01*
X153949404Y-114615033D02*
X153901785Y-114710271D01*
X153901785Y-114710271D02*
X153854166Y-114757890D01*
X153854166Y-114757890D02*
X153758928Y-114805509D01*
X153758928Y-114805509D02*
X153425595Y-114805509D01*
X148618509Y-95322118D02*
X148666128Y-95179261D01*
X148666128Y-95179261D02*
X148713747Y-95131642D01*
X148713747Y-95131642D02*
X148808985Y-95084023D01*
X148808985Y-95084023D02*
X148951842Y-95084023D01*
X148951842Y-95084023D02*
X149047080Y-95131642D01*
X149047080Y-95131642D02*
X149094700Y-95179261D01*
X149094700Y-95179261D02*
X149142319Y-95274499D01*
X149142319Y-95274499D02*
X149142319Y-95655451D01*
X149142319Y-95655451D02*
X148142319Y-95655451D01*
X148142319Y-95655451D02*
X148142319Y-95322118D01*
X148142319Y-95322118D02*
X148189938Y-95226880D01*
X148189938Y-95226880D02*
X148237557Y-95179261D01*
X148237557Y-95179261D02*
X148332795Y-95131642D01*
X148332795Y-95131642D02*
X148428033Y-95131642D01*
X148428033Y-95131642D02*
X148523271Y-95179261D01*
X148523271Y-95179261D02*
X148570890Y-95226880D01*
X148570890Y-95226880D02*
X148618509Y-95322118D01*
X148618509Y-95322118D02*
X148618509Y-95655451D01*
X148761366Y-94655451D02*
X148761366Y-93893547D01*
X149142319Y-94274499D02*
X148380414Y-94274499D01*
X156789938Y-115436404D02*
X156742319Y-115531642D01*
X156742319Y-115531642D02*
X156742319Y-115674499D01*
X156742319Y-115674499D02*
X156789938Y-115817356D01*
X156789938Y-115817356D02*
X156885176Y-115912594D01*
X156885176Y-115912594D02*
X156980414Y-115960213D01*
X156980414Y-115960213D02*
X157170890Y-116007832D01*
X157170890Y-116007832D02*
X157313747Y-116007832D01*
X157313747Y-116007832D02*
X157504223Y-115960213D01*
X157504223Y-115960213D02*
X157599461Y-115912594D01*
X157599461Y-115912594D02*
X157694700Y-115817356D01*
X157694700Y-115817356D02*
X157742319Y-115674499D01*
X157742319Y-115674499D02*
X157742319Y-115579261D01*
X157742319Y-115579261D02*
X157694700Y-115436404D01*
X157694700Y-115436404D02*
X157647080Y-115388785D01*
X157647080Y-115388785D02*
X157313747Y-115388785D01*
X157313747Y-115388785D02*
X157313747Y-115579261D01*
X157742319Y-114960213D02*
X156742319Y-114960213D01*
X156742319Y-114960213D02*
X157742319Y-114388785D01*
X157742319Y-114388785D02*
X156742319Y-114388785D01*
X157742319Y-113912594D02*
X156742319Y-113912594D01*
X156742319Y-113912594D02*
X156742319Y-113674499D01*
X156742319Y-113674499D02*
X156789938Y-113531642D01*
X156789938Y-113531642D02*
X156885176Y-113436404D01*
X156885176Y-113436404D02*
X156980414Y-113388785D01*
X156980414Y-113388785D02*
X157170890Y-113341166D01*
X157170890Y-113341166D02*
X157313747Y-113341166D01*
X157313747Y-113341166D02*
X157504223Y-113388785D01*
X157504223Y-113388785D02*
X157599461Y-113436404D01*
X157599461Y-113436404D02*
X157694700Y-113531642D01*
X157694700Y-113531642D02*
X157742319Y-113674499D01*
X157742319Y-113674499D02*
X157742319Y-113912594D01*
X147142319Y-114917357D02*
X147142319Y-115393547D01*
X147142319Y-115393547D02*
X147618509Y-115441166D01*
X147618509Y-115441166D02*
X147570890Y-115393547D01*
X147570890Y-115393547D02*
X147523271Y-115298309D01*
X147523271Y-115298309D02*
X147523271Y-115060214D01*
X147523271Y-115060214D02*
X147570890Y-114964976D01*
X147570890Y-114964976D02*
X147618509Y-114917357D01*
X147618509Y-114917357D02*
X147713747Y-114869738D01*
X147713747Y-114869738D02*
X147951842Y-114869738D01*
X147951842Y-114869738D02*
X148047080Y-114917357D01*
X148047080Y-114917357D02*
X148094700Y-114964976D01*
X148094700Y-114964976D02*
X148142319Y-115060214D01*
X148142319Y-115060214D02*
X148142319Y-115298309D01*
X148142319Y-115298309D02*
X148094700Y-115393547D01*
X148094700Y-115393547D02*
X148047080Y-115441166D01*
X147475652Y-114536404D02*
X148142319Y-114298309D01*
X148142319Y-114298309D02*
X147475652Y-114060214D01*
X129119333Y-68552819D02*
X128786000Y-68076628D01*
X128547905Y-68552819D02*
X128547905Y-67552819D01*
X128547905Y-67552819D02*
X128928857Y-67552819D01*
X128928857Y-67552819D02*
X129024095Y-67600438D01*
X129024095Y-67600438D02*
X129071714Y-67648057D01*
X129071714Y-67648057D02*
X129119333Y-67743295D01*
X129119333Y-67743295D02*
X129119333Y-67886152D01*
X129119333Y-67886152D02*
X129071714Y-67981390D01*
X129071714Y-67981390D02*
X129024095Y-68029009D01*
X129024095Y-68029009D02*
X128928857Y-68076628D01*
X128928857Y-68076628D02*
X128547905Y-68076628D01*
X129500286Y-67648057D02*
X129547905Y-67600438D01*
X129547905Y-67600438D02*
X129643143Y-67552819D01*
X129643143Y-67552819D02*
X129881238Y-67552819D01*
X129881238Y-67552819D02*
X129976476Y-67600438D01*
X129976476Y-67600438D02*
X130024095Y-67648057D01*
X130024095Y-67648057D02*
X130071714Y-67743295D01*
X130071714Y-67743295D02*
X130071714Y-67838533D01*
X130071714Y-67838533D02*
X130024095Y-67981390D01*
X130024095Y-67981390D02*
X129452667Y-68552819D01*
X129452667Y-68552819D02*
X130071714Y-68552819D01*
X131772819Y-71487238D02*
X131772819Y-72058666D01*
X131772819Y-71772952D02*
X130772819Y-71772952D01*
X130772819Y-71772952D02*
X130915676Y-71868190D01*
X130915676Y-71868190D02*
X131010914Y-71963428D01*
X131010914Y-71963428D02*
X131058533Y-72058666D01*
X130772819Y-70868190D02*
X130772819Y-70772952D01*
X130772819Y-70772952D02*
X130820438Y-70677714D01*
X130820438Y-70677714D02*
X130868057Y-70630095D01*
X130868057Y-70630095D02*
X130963295Y-70582476D01*
X130963295Y-70582476D02*
X131153771Y-70534857D01*
X131153771Y-70534857D02*
X131391866Y-70534857D01*
X131391866Y-70534857D02*
X131582342Y-70582476D01*
X131582342Y-70582476D02*
X131677580Y-70630095D01*
X131677580Y-70630095D02*
X131725200Y-70677714D01*
X131725200Y-70677714D02*
X131772819Y-70772952D01*
X131772819Y-70772952D02*
X131772819Y-70868190D01*
X131772819Y-70868190D02*
X131725200Y-70963428D01*
X131725200Y-70963428D02*
X131677580Y-71011047D01*
X131677580Y-71011047D02*
X131582342Y-71058666D01*
X131582342Y-71058666D02*
X131391866Y-71106285D01*
X131391866Y-71106285D02*
X131153771Y-71106285D01*
X131153771Y-71106285D02*
X130963295Y-71058666D01*
X130963295Y-71058666D02*
X130868057Y-71011047D01*
X130868057Y-71011047D02*
X130820438Y-70963428D01*
X130820438Y-70963428D02*
X130772819Y-70868190D01*
X131772819Y-70106285D02*
X130772819Y-70106285D01*
X131391866Y-70011047D02*
X131772819Y-69725333D01*
X131106152Y-69725333D02*
X131487104Y-70106285D01*
X141244819Y-70067904D02*
X142054342Y-70067904D01*
X142054342Y-70067904D02*
X142149580Y-70020285D01*
X142149580Y-70020285D02*
X142197200Y-69972666D01*
X142197200Y-69972666D02*
X142244819Y-69877428D01*
X142244819Y-69877428D02*
X142244819Y-69686952D01*
X142244819Y-69686952D02*
X142197200Y-69591714D01*
X142197200Y-69591714D02*
X142149580Y-69544095D01*
X142149580Y-69544095D02*
X142054342Y-69496476D01*
X142054342Y-69496476D02*
X141244819Y-69496476D01*
X142244819Y-68496476D02*
X142244819Y-69067904D01*
X142244819Y-68782190D02*
X141244819Y-68782190D01*
X141244819Y-68782190D02*
X141387676Y-68877428D01*
X141387676Y-68877428D02*
X141482914Y-68972666D01*
X141482914Y-68972666D02*
X141530533Y-69067904D01*
X145376191Y-72307009D02*
X145709524Y-72307009D01*
X145852381Y-72830819D02*
X145376191Y-72830819D01*
X145376191Y-72830819D02*
X145376191Y-71830819D01*
X145376191Y-71830819D02*
X145852381Y-71830819D01*
X146233334Y-72783200D02*
X146376191Y-72830819D01*
X146376191Y-72830819D02*
X146614286Y-72830819D01*
X146614286Y-72830819D02*
X146709524Y-72783200D01*
X146709524Y-72783200D02*
X146757143Y-72735580D01*
X146757143Y-72735580D02*
X146804762Y-72640342D01*
X146804762Y-72640342D02*
X146804762Y-72545104D01*
X146804762Y-72545104D02*
X146757143Y-72449866D01*
X146757143Y-72449866D02*
X146709524Y-72402247D01*
X146709524Y-72402247D02*
X146614286Y-72354628D01*
X146614286Y-72354628D02*
X146423810Y-72307009D01*
X146423810Y-72307009D02*
X146328572Y-72259390D01*
X146328572Y-72259390D02*
X146280953Y-72211771D01*
X146280953Y-72211771D02*
X146233334Y-72116533D01*
X146233334Y-72116533D02*
X146233334Y-72021295D01*
X146233334Y-72021295D02*
X146280953Y-71926057D01*
X146280953Y-71926057D02*
X146328572Y-71878438D01*
X146328572Y-71878438D02*
X146423810Y-71830819D01*
X146423810Y-71830819D02*
X146661905Y-71830819D01*
X146661905Y-71830819D02*
X146804762Y-71878438D01*
X147233334Y-72830819D02*
X147233334Y-71830819D01*
X147233334Y-71830819D02*
X147614286Y-71830819D01*
X147614286Y-71830819D02*
X147709524Y-71878438D01*
X147709524Y-71878438D02*
X147757143Y-71926057D01*
X147757143Y-71926057D02*
X147804762Y-72021295D01*
X147804762Y-72021295D02*
X147804762Y-72164152D01*
X147804762Y-72164152D02*
X147757143Y-72259390D01*
X147757143Y-72259390D02*
X147709524Y-72307009D01*
X147709524Y-72307009D02*
X147614286Y-72354628D01*
X147614286Y-72354628D02*
X147233334Y-72354628D01*
X148138096Y-71830819D02*
X148757143Y-71830819D01*
X148757143Y-71830819D02*
X148423810Y-72211771D01*
X148423810Y-72211771D02*
X148566667Y-72211771D01*
X148566667Y-72211771D02*
X148661905Y-72259390D01*
X148661905Y-72259390D02*
X148709524Y-72307009D01*
X148709524Y-72307009D02*
X148757143Y-72402247D01*
X148757143Y-72402247D02*
X148757143Y-72640342D01*
X148757143Y-72640342D02*
X148709524Y-72735580D01*
X148709524Y-72735580D02*
X148661905Y-72783200D01*
X148661905Y-72783200D02*
X148566667Y-72830819D01*
X148566667Y-72830819D02*
X148280953Y-72830819D01*
X148280953Y-72830819D02*
X148185715Y-72783200D01*
X148185715Y-72783200D02*
X148138096Y-72735580D01*
X149138096Y-71926057D02*
X149185715Y-71878438D01*
X149185715Y-71878438D02*
X149280953Y-71830819D01*
X149280953Y-71830819D02*
X149519048Y-71830819D01*
X149519048Y-71830819D02*
X149614286Y-71878438D01*
X149614286Y-71878438D02*
X149661905Y-71926057D01*
X149661905Y-71926057D02*
X149709524Y-72021295D01*
X149709524Y-72021295D02*
X149709524Y-72116533D01*
X149709524Y-72116533D02*
X149661905Y-72259390D01*
X149661905Y-72259390D02*
X149090477Y-72830819D01*
X149090477Y-72830819D02*
X149709524Y-72830819D01*
X150138096Y-72449866D02*
X150900001Y-72449866D01*
X151280953Y-71830819D02*
X151519048Y-72830819D01*
X151519048Y-72830819D02*
X151709524Y-72116533D01*
X151709524Y-72116533D02*
X151900000Y-72830819D01*
X151900000Y-72830819D02*
X152138096Y-71830819D01*
X153090476Y-72830819D02*
X152757143Y-72354628D01*
X152519048Y-72830819D02*
X152519048Y-71830819D01*
X152519048Y-71830819D02*
X152900000Y-71830819D01*
X152900000Y-71830819D02*
X152995238Y-71878438D01*
X152995238Y-71878438D02*
X153042857Y-71926057D01*
X153042857Y-71926057D02*
X153090476Y-72021295D01*
X153090476Y-72021295D02*
X153090476Y-72164152D01*
X153090476Y-72164152D02*
X153042857Y-72259390D01*
X153042857Y-72259390D02*
X152995238Y-72307009D01*
X152995238Y-72307009D02*
X152900000Y-72354628D01*
X152900000Y-72354628D02*
X152519048Y-72354628D01*
X153709524Y-71830819D02*
X153900000Y-71830819D01*
X153900000Y-71830819D02*
X153995238Y-71878438D01*
X153995238Y-71878438D02*
X154090476Y-71973676D01*
X154090476Y-71973676D02*
X154138095Y-72164152D01*
X154138095Y-72164152D02*
X154138095Y-72497485D01*
X154138095Y-72497485D02*
X154090476Y-72687961D01*
X154090476Y-72687961D02*
X153995238Y-72783200D01*
X153995238Y-72783200D02*
X153900000Y-72830819D01*
X153900000Y-72830819D02*
X153709524Y-72830819D01*
X153709524Y-72830819D02*
X153614286Y-72783200D01*
X153614286Y-72783200D02*
X153519048Y-72687961D01*
X153519048Y-72687961D02*
X153471429Y-72497485D01*
X153471429Y-72497485D02*
X153471429Y-72164152D01*
X153471429Y-72164152D02*
X153519048Y-71973676D01*
X153519048Y-71973676D02*
X153614286Y-71878438D01*
X153614286Y-71878438D02*
X153709524Y-71830819D01*
X154757143Y-71830819D02*
X154947619Y-71830819D01*
X154947619Y-71830819D02*
X155042857Y-71878438D01*
X155042857Y-71878438D02*
X155138095Y-71973676D01*
X155138095Y-71973676D02*
X155185714Y-72164152D01*
X155185714Y-72164152D02*
X155185714Y-72497485D01*
X155185714Y-72497485D02*
X155138095Y-72687961D01*
X155138095Y-72687961D02*
X155042857Y-72783200D01*
X155042857Y-72783200D02*
X154947619Y-72830819D01*
X154947619Y-72830819D02*
X154757143Y-72830819D01*
X154757143Y-72830819D02*
X154661905Y-72783200D01*
X154661905Y-72783200D02*
X154566667Y-72687961D01*
X154566667Y-72687961D02*
X154519048Y-72497485D01*
X154519048Y-72497485D02*
X154519048Y-72164152D01*
X154519048Y-72164152D02*
X154566667Y-71973676D01*
X154566667Y-71973676D02*
X154661905Y-71878438D01*
X154661905Y-71878438D02*
X154757143Y-71830819D01*
X155614286Y-72830819D02*
X155614286Y-71830819D01*
X155614286Y-71830819D02*
X155947619Y-72545104D01*
X155947619Y-72545104D02*
X156280952Y-71830819D01*
X156280952Y-71830819D02*
X156280952Y-72830819D01*
X156757143Y-72449866D02*
X157519048Y-72449866D01*
X157900000Y-71830819D02*
X158519047Y-71830819D01*
X158519047Y-71830819D02*
X158185714Y-72211771D01*
X158185714Y-72211771D02*
X158328571Y-72211771D01*
X158328571Y-72211771D02*
X158423809Y-72259390D01*
X158423809Y-72259390D02*
X158471428Y-72307009D01*
X158471428Y-72307009D02*
X158519047Y-72402247D01*
X158519047Y-72402247D02*
X158519047Y-72640342D01*
X158519047Y-72640342D02*
X158471428Y-72735580D01*
X158471428Y-72735580D02*
X158423809Y-72783200D01*
X158423809Y-72783200D02*
X158328571Y-72830819D01*
X158328571Y-72830819D02*
X158042857Y-72830819D01*
X158042857Y-72830819D02*
X157947619Y-72783200D01*
X157947619Y-72783200D02*
X157900000Y-72735580D01*
X158900000Y-71926057D02*
X158947619Y-71878438D01*
X158947619Y-71878438D02*
X159042857Y-71830819D01*
X159042857Y-71830819D02*
X159280952Y-71830819D01*
X159280952Y-71830819D02*
X159376190Y-71878438D01*
X159376190Y-71878438D02*
X159423809Y-71926057D01*
X159423809Y-71926057D02*
X159471428Y-72021295D01*
X159471428Y-72021295D02*
X159471428Y-72116533D01*
X159471428Y-72116533D02*
X159423809Y-72259390D01*
X159423809Y-72259390D02*
X158852381Y-72830819D01*
X158852381Y-72830819D02*
X159471428Y-72830819D01*
X128706666Y-89067819D02*
X128706666Y-89782104D01*
X128706666Y-89782104D02*
X128659047Y-89924961D01*
X128659047Y-89924961D02*
X128563809Y-90020200D01*
X128563809Y-90020200D02*
X128420952Y-90067819D01*
X128420952Y-90067819D02*
X128325714Y-90067819D01*
X129182857Y-90067819D02*
X129182857Y-89067819D01*
X129182857Y-89067819D02*
X129563809Y-89067819D01*
X129563809Y-89067819D02*
X129659047Y-89115438D01*
X129659047Y-89115438D02*
X129706666Y-89163057D01*
X129706666Y-89163057D02*
X129754285Y-89258295D01*
X129754285Y-89258295D02*
X129754285Y-89401152D01*
X129754285Y-89401152D02*
X129706666Y-89496390D01*
X129706666Y-89496390D02*
X129659047Y-89544009D01*
X129659047Y-89544009D02*
X129563809Y-89591628D01*
X129563809Y-89591628D02*
X129182857Y-89591628D01*
X130135238Y-89163057D02*
X130182857Y-89115438D01*
X130182857Y-89115438D02*
X130278095Y-89067819D01*
X130278095Y-89067819D02*
X130516190Y-89067819D01*
X130516190Y-89067819D02*
X130611428Y-89115438D01*
X130611428Y-89115438D02*
X130659047Y-89163057D01*
X130659047Y-89163057D02*
X130706666Y-89258295D01*
X130706666Y-89258295D02*
X130706666Y-89353533D01*
X130706666Y-89353533D02*
X130659047Y-89496390D01*
X130659047Y-89496390D02*
X130087619Y-90067819D01*
X130087619Y-90067819D02*
X130706666Y-90067819D01*
X128063809Y-97267819D02*
X128063809Y-96267819D01*
X128063809Y-96267819D02*
X128444761Y-96267819D01*
X128444761Y-96267819D02*
X128539999Y-96315438D01*
X128539999Y-96315438D02*
X128587618Y-96363057D01*
X128587618Y-96363057D02*
X128635237Y-96458295D01*
X128635237Y-96458295D02*
X128635237Y-96601152D01*
X128635237Y-96601152D02*
X128587618Y-96696390D01*
X128587618Y-96696390D02*
X128539999Y-96744009D01*
X128539999Y-96744009D02*
X128444761Y-96791628D01*
X128444761Y-96791628D02*
X128063809Y-96791628D01*
X129063809Y-97267819D02*
X129063809Y-96601152D01*
X129063809Y-96791628D02*
X129111428Y-96696390D01*
X129111428Y-96696390D02*
X129159047Y-96648771D01*
X129159047Y-96648771D02*
X129254285Y-96601152D01*
X129254285Y-96601152D02*
X129349523Y-96601152D01*
X129825714Y-97267819D02*
X129730476Y-97220200D01*
X129730476Y-97220200D02*
X129682857Y-97172580D01*
X129682857Y-97172580D02*
X129635238Y-97077342D01*
X129635238Y-97077342D02*
X129635238Y-96791628D01*
X129635238Y-96791628D02*
X129682857Y-96696390D01*
X129682857Y-96696390D02*
X129730476Y-96648771D01*
X129730476Y-96648771D02*
X129825714Y-96601152D01*
X129825714Y-96601152D02*
X129968571Y-96601152D01*
X129968571Y-96601152D02*
X130063809Y-96648771D01*
X130063809Y-96648771D02*
X130111428Y-96696390D01*
X130111428Y-96696390D02*
X130159047Y-96791628D01*
X130159047Y-96791628D02*
X130159047Y-97077342D01*
X130159047Y-97077342D02*
X130111428Y-97172580D01*
X130111428Y-97172580D02*
X130063809Y-97220200D01*
X130063809Y-97220200D02*
X129968571Y-97267819D01*
X129968571Y-97267819D02*
X129825714Y-97267819D01*
X131016190Y-96601152D02*
X131016190Y-97410676D01*
X131016190Y-97410676D02*
X130968571Y-97505914D01*
X130968571Y-97505914D02*
X130920952Y-97553533D01*
X130920952Y-97553533D02*
X130825714Y-97601152D01*
X130825714Y-97601152D02*
X130682857Y-97601152D01*
X130682857Y-97601152D02*
X130587619Y-97553533D01*
X131016190Y-97220200D02*
X130920952Y-97267819D01*
X130920952Y-97267819D02*
X130730476Y-97267819D01*
X130730476Y-97267819D02*
X130635238Y-97220200D01*
X130635238Y-97220200D02*
X130587619Y-97172580D01*
X130587619Y-97172580D02*
X130540000Y-97077342D01*
X130540000Y-97077342D02*
X130540000Y-96791628D01*
X130540000Y-96791628D02*
X130587619Y-96696390D01*
X130587619Y-96696390D02*
X130635238Y-96648771D01*
X130635238Y-96648771D02*
X130730476Y-96601152D01*
X130730476Y-96601152D02*
X130920952Y-96601152D01*
X130920952Y-96601152D02*
X131016190Y-96648771D01*
X136373333Y-96626819D02*
X136040000Y-96150628D01*
X135801905Y-96626819D02*
X135801905Y-95626819D01*
X135801905Y-95626819D02*
X136182857Y-95626819D01*
X136182857Y-95626819D02*
X136278095Y-95674438D01*
X136278095Y-95674438D02*
X136325714Y-95722057D01*
X136325714Y-95722057D02*
X136373333Y-95817295D01*
X136373333Y-95817295D02*
X136373333Y-95960152D01*
X136373333Y-95960152D02*
X136325714Y-96055390D01*
X136325714Y-96055390D02*
X136278095Y-96103009D01*
X136278095Y-96103009D02*
X136182857Y-96150628D01*
X136182857Y-96150628D02*
X135801905Y-96150628D01*
X136944762Y-96055390D02*
X136849524Y-96007771D01*
X136849524Y-96007771D02*
X136801905Y-95960152D01*
X136801905Y-95960152D02*
X136754286Y-95864914D01*
X136754286Y-95864914D02*
X136754286Y-95817295D01*
X136754286Y-95817295D02*
X136801905Y-95722057D01*
X136801905Y-95722057D02*
X136849524Y-95674438D01*
X136849524Y-95674438D02*
X136944762Y-95626819D01*
X136944762Y-95626819D02*
X137135238Y-95626819D01*
X137135238Y-95626819D02*
X137230476Y-95674438D01*
X137230476Y-95674438D02*
X137278095Y-95722057D01*
X137278095Y-95722057D02*
X137325714Y-95817295D01*
X137325714Y-95817295D02*
X137325714Y-95864914D01*
X137325714Y-95864914D02*
X137278095Y-95960152D01*
X137278095Y-95960152D02*
X137230476Y-96007771D01*
X137230476Y-96007771D02*
X137135238Y-96055390D01*
X137135238Y-96055390D02*
X136944762Y-96055390D01*
X136944762Y-96055390D02*
X136849524Y-96103009D01*
X136849524Y-96103009D02*
X136801905Y-96150628D01*
X136801905Y-96150628D02*
X136754286Y-96245866D01*
X136754286Y-96245866D02*
X136754286Y-96436342D01*
X136754286Y-96436342D02*
X136801905Y-96531580D01*
X136801905Y-96531580D02*
X136849524Y-96579200D01*
X136849524Y-96579200D02*
X136944762Y-96626819D01*
X136944762Y-96626819D02*
X137135238Y-96626819D01*
X137135238Y-96626819D02*
X137230476Y-96579200D01*
X137230476Y-96579200D02*
X137278095Y-96531580D01*
X137278095Y-96531580D02*
X137325714Y-96436342D01*
X137325714Y-96436342D02*
X137325714Y-96245866D01*
X137325714Y-96245866D02*
X137278095Y-96150628D01*
X137278095Y-96150628D02*
X137230476Y-96103009D01*
X137230476Y-96103009D02*
X137135238Y-96055390D01*
X138292484Y-104045713D02*
X138292484Y-103426666D01*
X138292484Y-103426666D02*
X138673436Y-103759999D01*
X138673436Y-103759999D02*
X138673436Y-103617142D01*
X138673436Y-103617142D02*
X138721055Y-103521904D01*
X138721055Y-103521904D02*
X138768674Y-103474285D01*
X138768674Y-103474285D02*
X138863912Y-103426666D01*
X138863912Y-103426666D02*
X139102007Y-103426666D01*
X139102007Y-103426666D02*
X139197245Y-103474285D01*
X139197245Y-103474285D02*
X139244865Y-103521904D01*
X139244865Y-103521904D02*
X139292484Y-103617142D01*
X139292484Y-103617142D02*
X139292484Y-103902856D01*
X139292484Y-103902856D02*
X139244865Y-103998094D01*
X139244865Y-103998094D02*
X139197245Y-104045713D01*
X138292484Y-103093332D02*
X138292484Y-102474285D01*
X138292484Y-102474285D02*
X138673436Y-102807618D01*
X138673436Y-102807618D02*
X138673436Y-102664761D01*
X138673436Y-102664761D02*
X138721055Y-102569523D01*
X138721055Y-102569523D02*
X138768674Y-102521904D01*
X138768674Y-102521904D02*
X138863912Y-102474285D01*
X138863912Y-102474285D02*
X139102007Y-102474285D01*
X139102007Y-102474285D02*
X139197245Y-102521904D01*
X139197245Y-102521904D02*
X139244865Y-102569523D01*
X139244865Y-102569523D02*
X139292484Y-102664761D01*
X139292484Y-102664761D02*
X139292484Y-102950475D01*
X139292484Y-102950475D02*
X139244865Y-103045713D01*
X139244865Y-103045713D02*
X139197245Y-103093332D01*
X138292484Y-101855237D02*
X138292484Y-101759999D01*
X138292484Y-101759999D02*
X138340103Y-101664761D01*
X138340103Y-101664761D02*
X138387722Y-101617142D01*
X138387722Y-101617142D02*
X138482960Y-101569523D01*
X138482960Y-101569523D02*
X138673436Y-101521904D01*
X138673436Y-101521904D02*
X138911531Y-101521904D01*
X138911531Y-101521904D02*
X139102007Y-101569523D01*
X139102007Y-101569523D02*
X139197245Y-101617142D01*
X139197245Y-101617142D02*
X139244865Y-101664761D01*
X139244865Y-101664761D02*
X139292484Y-101759999D01*
X139292484Y-101759999D02*
X139292484Y-101855237D01*
X139292484Y-101855237D02*
X139244865Y-101950475D01*
X139244865Y-101950475D02*
X139197245Y-101998094D01*
X139197245Y-101998094D02*
X139102007Y-102045713D01*
X139102007Y-102045713D02*
X138911531Y-102093332D01*
X138911531Y-102093332D02*
X138673436Y-102093332D01*
X138673436Y-102093332D02*
X138482960Y-102045713D01*
X138482960Y-102045713D02*
X138387722Y-101998094D01*
X138387722Y-101998094D02*
X138340103Y-101950475D01*
X138340103Y-101950475D02*
X138292484Y-101855237D01*
X166778666Y-106128819D02*
X166778666Y-106843104D01*
X166778666Y-106843104D02*
X166731047Y-106985961D01*
X166731047Y-106985961D02*
X166635809Y-107081200D01*
X166635809Y-107081200D02*
X166492952Y-107128819D01*
X166492952Y-107128819D02*
X166397714Y-107128819D01*
X167207238Y-106224057D02*
X167254857Y-106176438D01*
X167254857Y-106176438D02*
X167350095Y-106128819D01*
X167350095Y-106128819D02*
X167588190Y-106128819D01*
X167588190Y-106128819D02*
X167683428Y-106176438D01*
X167683428Y-106176438D02*
X167731047Y-106224057D01*
X167731047Y-106224057D02*
X167778666Y-106319295D01*
X167778666Y-106319295D02*
X167778666Y-106414533D01*
X167778666Y-106414533D02*
X167731047Y-106557390D01*
X167731047Y-106557390D02*
X167159619Y-107128819D01*
X167159619Y-107128819D02*
X167778666Y-107128819D01*
X164677333Y-105177842D02*
X164820190Y-105225461D01*
X164820190Y-105225461D02*
X164867809Y-105273080D01*
X164867809Y-105273080D02*
X164915428Y-105368318D01*
X164915428Y-105368318D02*
X164915428Y-105511175D01*
X164915428Y-105511175D02*
X164867809Y-105606413D01*
X164867809Y-105606413D02*
X164820190Y-105654033D01*
X164820190Y-105654033D02*
X164724952Y-105701652D01*
X164724952Y-105701652D02*
X164344000Y-105701652D01*
X164344000Y-105701652D02*
X164344000Y-104701652D01*
X164344000Y-104701652D02*
X164677333Y-104701652D01*
X164677333Y-104701652D02*
X164772571Y-104749271D01*
X164772571Y-104749271D02*
X164820190Y-104796890D01*
X164820190Y-104796890D02*
X164867809Y-104892128D01*
X164867809Y-104892128D02*
X164867809Y-104987366D01*
X164867809Y-104987366D02*
X164820190Y-105082604D01*
X164820190Y-105082604D02*
X164772571Y-105130223D01*
X164772571Y-105130223D02*
X164677333Y-105177842D01*
X164677333Y-105177842D02*
X164344000Y-105177842D01*
X165772571Y-105701652D02*
X165772571Y-105177842D01*
X165772571Y-105177842D02*
X165724952Y-105082604D01*
X165724952Y-105082604D02*
X165629714Y-105034985D01*
X165629714Y-105034985D02*
X165439238Y-105034985D01*
X165439238Y-105034985D02*
X165344000Y-105082604D01*
X165772571Y-105654033D02*
X165677333Y-105701652D01*
X165677333Y-105701652D02*
X165439238Y-105701652D01*
X165439238Y-105701652D02*
X165344000Y-105654033D01*
X165344000Y-105654033D02*
X165296381Y-105558794D01*
X165296381Y-105558794D02*
X165296381Y-105463556D01*
X165296381Y-105463556D02*
X165344000Y-105368318D01*
X165344000Y-105368318D02*
X165439238Y-105320699D01*
X165439238Y-105320699D02*
X165677333Y-105320699D01*
X165677333Y-105320699D02*
X165772571Y-105273080D01*
X166105905Y-105034985D02*
X166486857Y-105034985D01*
X166248762Y-104701652D02*
X166248762Y-105558794D01*
X166248762Y-105558794D02*
X166296381Y-105654033D01*
X166296381Y-105654033D02*
X166391619Y-105701652D01*
X166391619Y-105701652D02*
X166486857Y-105701652D01*
X181196905Y-67676819D02*
X181196905Y-66676819D01*
X181196905Y-66676819D02*
X181435000Y-66676819D01*
X181435000Y-66676819D02*
X181577857Y-66724438D01*
X181577857Y-66724438D02*
X181673095Y-66819676D01*
X181673095Y-66819676D02*
X181720714Y-66914914D01*
X181720714Y-66914914D02*
X181768333Y-67105390D01*
X181768333Y-67105390D02*
X181768333Y-67248247D01*
X181768333Y-67248247D02*
X181720714Y-67438723D01*
X181720714Y-67438723D02*
X181673095Y-67533961D01*
X181673095Y-67533961D02*
X181577857Y-67629200D01*
X181577857Y-67629200D02*
X181435000Y-67676819D01*
X181435000Y-67676819D02*
X181196905Y-67676819D01*
X182101667Y-66676819D02*
X182720714Y-66676819D01*
X182720714Y-66676819D02*
X182387381Y-67057771D01*
X182387381Y-67057771D02*
X182530238Y-67057771D01*
X182530238Y-67057771D02*
X182625476Y-67105390D01*
X182625476Y-67105390D02*
X182673095Y-67153009D01*
X182673095Y-67153009D02*
X182720714Y-67248247D01*
X182720714Y-67248247D02*
X182720714Y-67486342D01*
X182720714Y-67486342D02*
X182673095Y-67581580D01*
X182673095Y-67581580D02*
X182625476Y-67629200D01*
X182625476Y-67629200D02*
X182530238Y-67676819D01*
X182530238Y-67676819D02*
X182244524Y-67676819D01*
X182244524Y-67676819D02*
X182149286Y-67629200D01*
X182149286Y-67629200D02*
X182101667Y-67581580D01*
X181292142Y-61756819D02*
X180815952Y-61756819D01*
X180815952Y-61756819D02*
X180815952Y-60756819D01*
X181625476Y-61233009D02*
X181958809Y-61233009D01*
X182101666Y-61756819D02*
X181625476Y-61756819D01*
X181625476Y-61756819D02*
X181625476Y-60756819D01*
X181625476Y-60756819D02*
X182101666Y-60756819D01*
X182530238Y-61756819D02*
X182530238Y-60756819D01*
X182530238Y-60756819D02*
X182768333Y-60756819D01*
X182768333Y-60756819D02*
X182911190Y-60804438D01*
X182911190Y-60804438D02*
X183006428Y-60899676D01*
X183006428Y-60899676D02*
X183054047Y-60994914D01*
X183054047Y-60994914D02*
X183101666Y-61185390D01*
X183101666Y-61185390D02*
X183101666Y-61328247D01*
X183101666Y-61328247D02*
X183054047Y-61518723D01*
X183054047Y-61518723D02*
X183006428Y-61613961D01*
X183006428Y-61613961D02*
X182911190Y-61709200D01*
X182911190Y-61709200D02*
X182768333Y-61756819D01*
X182768333Y-61756819D02*
X182530238Y-61756819D01*
X139284819Y-105206666D02*
X138808628Y-105539999D01*
X139284819Y-105778094D02*
X138284819Y-105778094D01*
X138284819Y-105778094D02*
X138284819Y-105397142D01*
X138284819Y-105397142D02*
X138332438Y-105301904D01*
X138332438Y-105301904D02*
X138380057Y-105254285D01*
X138380057Y-105254285D02*
X138475295Y-105206666D01*
X138475295Y-105206666D02*
X138618152Y-105206666D01*
X138618152Y-105206666D02*
X138713390Y-105254285D01*
X138713390Y-105254285D02*
X138761009Y-105301904D01*
X138761009Y-105301904D02*
X138808628Y-105397142D01*
X138808628Y-105397142D02*
X138808628Y-105778094D01*
X139284819Y-104254285D02*
X139284819Y-104825713D01*
X139284819Y-104539999D02*
X138284819Y-104539999D01*
X138284819Y-104539999D02*
X138427676Y-104635237D01*
X138427676Y-104635237D02*
X138522914Y-104730475D01*
X138522914Y-104730475D02*
X138570533Y-104825713D01*
X134384819Y-106035713D02*
X134384819Y-105416666D01*
X134384819Y-105416666D02*
X134765771Y-105749999D01*
X134765771Y-105749999D02*
X134765771Y-105607142D01*
X134765771Y-105607142D02*
X134813390Y-105511904D01*
X134813390Y-105511904D02*
X134861009Y-105464285D01*
X134861009Y-105464285D02*
X134956247Y-105416666D01*
X134956247Y-105416666D02*
X135194342Y-105416666D01*
X135194342Y-105416666D02*
X135289580Y-105464285D01*
X135289580Y-105464285D02*
X135337200Y-105511904D01*
X135337200Y-105511904D02*
X135384819Y-105607142D01*
X135384819Y-105607142D02*
X135384819Y-105892856D01*
X135384819Y-105892856D02*
X135337200Y-105988094D01*
X135337200Y-105988094D02*
X135289580Y-106035713D01*
X134384819Y-105083332D02*
X134384819Y-104464285D01*
X134384819Y-104464285D02*
X134765771Y-104797618D01*
X134765771Y-104797618D02*
X134765771Y-104654761D01*
X134765771Y-104654761D02*
X134813390Y-104559523D01*
X134813390Y-104559523D02*
X134861009Y-104511904D01*
X134861009Y-104511904D02*
X134956247Y-104464285D01*
X134956247Y-104464285D02*
X135194342Y-104464285D01*
X135194342Y-104464285D02*
X135289580Y-104511904D01*
X135289580Y-104511904D02*
X135337200Y-104559523D01*
X135337200Y-104559523D02*
X135384819Y-104654761D01*
X135384819Y-104654761D02*
X135384819Y-104940475D01*
X135384819Y-104940475D02*
X135337200Y-105035713D01*
X135337200Y-105035713D02*
X135289580Y-105083332D01*
X134384819Y-103845237D02*
X134384819Y-103749999D01*
X134384819Y-103749999D02*
X134432438Y-103654761D01*
X134432438Y-103654761D02*
X134480057Y-103607142D01*
X134480057Y-103607142D02*
X134575295Y-103559523D01*
X134575295Y-103559523D02*
X134765771Y-103511904D01*
X134765771Y-103511904D02*
X135003866Y-103511904D01*
X135003866Y-103511904D02*
X135194342Y-103559523D01*
X135194342Y-103559523D02*
X135289580Y-103607142D01*
X135289580Y-103607142D02*
X135337200Y-103654761D01*
X135337200Y-103654761D02*
X135384819Y-103749999D01*
X135384819Y-103749999D02*
X135384819Y-103845237D01*
X135384819Y-103845237D02*
X135337200Y-103940475D01*
X135337200Y-103940475D02*
X135289580Y-103988094D01*
X135289580Y-103988094D02*
X135194342Y-104035713D01*
X135194342Y-104035713D02*
X135003866Y-104083332D01*
X135003866Y-104083332D02*
X134765771Y-104083332D01*
X134765771Y-104083332D02*
X134575295Y-104035713D01*
X134575295Y-104035713D02*
X134480057Y-103988094D01*
X134480057Y-103988094D02*
X134432438Y-103940475D01*
X134432438Y-103940475D02*
X134384819Y-103845237D01*
D12*
G04 #@! TO.C,R11*
X184690000Y-92967064D02*
X184690000Y-91512936D01*
X186510000Y-92967064D02*
X186510000Y-91512936D01*
G04 #@! TO.C,D2*
X142070000Y-97950000D02*
X142070000Y-97794000D01*
X142070000Y-100266000D02*
X142070000Y-100110000D01*
X138837665Y-97951392D02*
G75*
G02*
X142070000Y-97794484I1672335J-1078608D01*
G01*
X139468870Y-97950163D02*
G75*
G02*
X141550961Y-97950000I1041130J-1079837D01*
G01*
X141550961Y-100110000D02*
G75*
G02*
X139468870Y-100109837I-1040961J1080000D01*
G01*
X142070000Y-100265516D02*
G75*
G02*
X138837665Y-100108608I-1560000J1235516D01*
G01*
G04 #@! TO.C,R3*
X132520000Y-98552936D02*
X132520000Y-100007064D01*
X134340000Y-98552936D02*
X134340000Y-100007064D01*
G04 #@! TO.C,D1*
X121884000Y-63026000D02*
X121884000Y-63182000D01*
X121884000Y-65342000D02*
X121884000Y-65498000D01*
X121884000Y-63026484D02*
G75*
G02*
X125116335Y-63183392I1560000J-1235516D01*
G01*
X122403039Y-63182000D02*
G75*
G02*
X124485130Y-63182163I1040961J-1080000D01*
G01*
X124485130Y-65341837D02*
G75*
G02*
X122403039Y-65342000I-1041130J1079837D01*
G01*
X125116335Y-65340608D02*
G75*
G02*
X121884000Y-65497516I-1672335J1078608D01*
G01*
G04 #@! TO.C,J1*
X132528000Y-83262000D02*
X133858000Y-83262000D01*
X132528000Y-84592000D02*
X132528000Y-83262000D01*
X132528000Y-85862000D02*
X132528000Y-93542000D01*
X132528000Y-85862000D02*
X135188000Y-85862000D01*
X132528000Y-93542000D02*
X135188000Y-93542000D01*
X135188000Y-85862000D02*
X135188000Y-93542000D01*
G04 #@! TO.C,D4*
X183495000Y-96120000D02*
X183495000Y-95964000D01*
X183495000Y-98436000D02*
X183495000Y-98280000D01*
X180262665Y-96121392D02*
G75*
G02*
X183495000Y-95964484I1672335J-1078608D01*
G01*
X180893870Y-96120163D02*
G75*
G02*
X182975961Y-96120000I1041130J-1079837D01*
G01*
X182975961Y-98280000D02*
G75*
G02*
X180893870Y-98279837I-1040961J1080000D01*
G01*
X183495000Y-98435516D02*
G75*
G02*
X180262665Y-98278608I-1560000J1235516D01*
G01*
G04 #@! TO.C,SW2*
X118674000Y-80022000D02*
X118674000Y-81522000D01*
X119924000Y-84022000D02*
X124424000Y-84022000D01*
X124424000Y-77522000D02*
X119924000Y-77522000D01*
X125674000Y-81522000D02*
X125674000Y-80022000D01*
G04 #@! TO.C,R12*
X135660000Y-110727064D02*
X135660000Y-109272936D01*
X137480000Y-110727064D02*
X137480000Y-109272936D01*
G04 #@! TO.C,C5*
X134942000Y-64645000D02*
X134942000Y-71580000D01*
X138362000Y-64645000D02*
X134942000Y-64645000D01*
X138362000Y-71580000D02*
X138362000Y-64645000D01*
G04 #@! TO.C,R10*
X184530000Y-68482936D02*
X184530000Y-69937064D01*
X186350000Y-68482936D02*
X186350000Y-69937064D01*
G04 #@! TO.C,R9*
X128630000Y-86071064D02*
X128630000Y-84616936D01*
X130450000Y-86071064D02*
X130450000Y-84616936D01*
G04 #@! TO.C,C1*
X139727000Y-56395252D02*
X139727000Y-55872748D01*
X141197000Y-56395252D02*
X141197000Y-55872748D01*
G04 #@! TO.C,JP4*
X163592000Y-93850000D02*
X165592000Y-93850000D01*
X163592000Y-96650000D02*
X163592000Y-93850000D01*
X165592000Y-93850000D02*
X165592000Y-96650000D01*
X165592000Y-96650000D02*
X163592000Y-96650000D01*
G04 #@! TO.C,R4*
X128630000Y-79213064D02*
X128630000Y-77758936D01*
X130450000Y-79213064D02*
X130450000Y-77758936D01*
G04 #@! TO.C,R6*
X138028000Y-91939064D02*
X138028000Y-90484936D01*
X139848000Y-91939064D02*
X139848000Y-90484936D01*
G04 #@! TO.C,C3*
X124995000Y-71407252D02*
X124995000Y-70884748D01*
X126465000Y-71407252D02*
X126465000Y-70884748D01*
G04 #@! TO.C,SW1*
X146850000Y-74622000D02*
X159150000Y-74622000D01*
X146850000Y-77342000D02*
X146850000Y-74622000D01*
X146850000Y-82342000D02*
X146850000Y-79202000D01*
X146850000Y-86922000D02*
X146850000Y-84202000D01*
X159150000Y-74622000D02*
X159150000Y-77342000D01*
X159150000Y-79202000D02*
X159150000Y-82342000D01*
X159150000Y-84202000D02*
X159150000Y-86922000D01*
X159150000Y-86922000D02*
X146850000Y-86922000D01*
X157679050Y-80812000D02*
G75*
G02*
X148520950Y-80812000I-4579050J0D01*
G01*
X148520950Y-80812000D02*
G75*
G02*
X157679050Y-80812000I4579050J0D01*
G01*
G04 #@! TO.C,D5*
X121884000Y-95964000D02*
X121884000Y-96120000D01*
X121884000Y-98280000D02*
X121884000Y-98436000D01*
X121884000Y-95964484D02*
G75*
G02*
X125115437Y-96120000I1560000J-1235516D01*
G01*
X122403039Y-96120000D02*
G75*
G02*
X124484961Y-96120000I1040961J-1080000D01*
G01*
X124484961Y-98280000D02*
G75*
G02*
X122403039Y-98280000I-1040961J1080000D01*
G01*
X125115437Y-98280000D02*
G75*
G02*
X121884000Y-98435516I-1671437J1080000D01*
G01*
G04 #@! TO.C,JP1*
X120412000Y-70000000D02*
X122412000Y-70000000D01*
X120412000Y-72800000D02*
X120412000Y-70000000D01*
X122412000Y-70000000D02*
X122412000Y-72800000D01*
X122412000Y-72800000D02*
X120412000Y-72800000D01*
G04 #@! TO.C,C2*
X134942000Y-53388000D02*
X134942000Y-60323000D01*
X134942000Y-60323000D02*
X138362000Y-60323000D01*
X138362000Y-60323000D02*
X138362000Y-53388000D01*
G04 #@! TO.C,R5*
X132948000Y-79213064D02*
X132948000Y-77758936D01*
X134768000Y-79213064D02*
X134768000Y-77758936D01*
G04 #@! TO.C,R7*
X138028000Y-85563064D02*
X138028000Y-84108936D01*
X139848000Y-85563064D02*
X139848000Y-84108936D01*
G04 #@! TO.C,U2*
X128642000Y-54282000D02*
X131362000Y-54282000D01*
X128642000Y-55592000D02*
X128642000Y-54282000D01*
X128642000Y-59002000D02*
X128642000Y-57692000D01*
X131362000Y-54282000D02*
X131362000Y-54512000D01*
X131362000Y-59002000D02*
X128642000Y-59002000D01*
X131362000Y-59002000D02*
X131362000Y-58772000D01*
X132502000Y-58772000D02*
X131362000Y-58772000D01*
G04 #@! TO.C,JP3*
X163592000Y-97660000D02*
X165592000Y-97660000D01*
X163592000Y-100460000D02*
X163592000Y-97660000D01*
X165592000Y-97660000D02*
X165592000Y-100460000D01*
X165592000Y-100460000D02*
X163592000Y-100460000D01*
G04 #@! TO.C,Q1*
X130570000Y-102780000D02*
X130570000Y-106380000D01*
X130570000Y-106380000D02*
X134170000Y-106380000D01*
X134170000Y-102780000D02*
X130570000Y-102780000D01*
X134170000Y-106380000D02*
X134170000Y-102780000D01*
D10*
G04 #@! TO.C,U3*
X143587500Y-88074500D02*
X146087500Y-88074500D01*
X143587500Y-90174500D02*
X143587500Y-88074500D01*
X143587500Y-116474500D02*
X143587500Y-90174500D01*
X146087500Y-88074500D02*
X146087500Y-90374500D01*
X146087500Y-90374500D02*
X158987500Y-90374500D01*
X150787500Y-113574500D02*
X154587500Y-113574500D01*
X150787500Y-116074500D02*
X150787500Y-113574500D01*
X154587500Y-113574500D02*
X154587500Y-116074500D01*
X154587500Y-116074500D02*
X150887500Y-116074500D01*
X158987500Y-88074500D02*
X159287500Y-88074500D01*
X158987500Y-90174500D02*
X158987500Y-88074500D01*
X158987500Y-90374500D02*
X158987500Y-90074500D01*
X159287500Y-88074500D02*
X161387500Y-88074500D01*
X161387500Y-88074500D02*
X161387500Y-116474500D01*
X161387500Y-116474500D02*
X143587500Y-116474500D01*
D12*
G04 #@! TO.C,R2*
X128376000Y-71873064D02*
X128376000Y-70418936D01*
X130196000Y-71873064D02*
X130196000Y-70418936D01*
G04 #@! TO.C,U1*
X143280000Y-45011000D02*
X143280000Y-51431000D01*
X143280000Y-45011000D02*
X161520000Y-45011000D01*
X143280000Y-51431000D02*
X142900000Y-51431000D01*
X143280000Y-69976000D02*
X143280000Y-70756000D01*
X143280000Y-70756000D02*
X144280000Y-70756000D01*
X161520000Y-45011000D02*
X161520000Y-51431000D01*
X161520000Y-69976000D02*
X161520000Y-70756000D01*
X161520000Y-70756000D02*
X160520000Y-70756000D01*
G04 #@! TO.C,JP2*
X128210000Y-90613000D02*
X129540000Y-90613000D01*
X128210000Y-91943000D02*
X128210000Y-90613000D01*
X128210000Y-93213000D02*
X128210000Y-95813000D01*
X128210000Y-93213000D02*
X130870000Y-93213000D01*
X128210000Y-95813000D02*
X130870000Y-95813000D01*
X130870000Y-93213000D02*
X130870000Y-95813000D01*
G04 #@! TO.C,R8*
X135630000Y-98492936D02*
X135630000Y-99947064D01*
X137450000Y-98492936D02*
X137450000Y-99947064D01*
G04 #@! TO.C,J2*
X162952000Y-109584000D02*
X162952000Y-112084000D01*
X162952000Y-112084000D02*
X165452000Y-112084000D01*
X163252000Y-107764000D02*
X163252000Y-111784000D01*
X163252000Y-109474000D02*
X163752000Y-109474000D01*
X163252000Y-110284000D02*
X164252000Y-110284000D01*
X163252000Y-111784000D02*
X170972000Y-111784000D01*
X163752000Y-108264000D02*
X170472000Y-108264000D01*
X163752000Y-109474000D02*
X163752000Y-108264000D01*
X164252000Y-110284000D02*
X164252000Y-111784000D01*
X169972000Y-110284000D02*
X169972000Y-111784000D01*
X170472000Y-108264000D02*
X170472000Y-109474000D01*
X170472000Y-109474000D02*
X170972000Y-109474000D01*
X170972000Y-107764000D02*
X163252000Y-107764000D01*
X170972000Y-110284000D02*
X169972000Y-110284000D01*
X170972000Y-111784000D02*
X170972000Y-107764000D01*
G04 #@! TO.C,D3*
X183495000Y-63182000D02*
X183495000Y-63026000D01*
X183495000Y-65498000D02*
X183495000Y-65342000D01*
X180262665Y-63183392D02*
G75*
G02*
X183495000Y-63026484I1672335J-1078608D01*
G01*
X180893870Y-63182163D02*
G75*
G02*
X182975961Y-63182000I1041130J-1079837D01*
G01*
X182975961Y-65342000D02*
G75*
G02*
X180893870Y-65341837I-1040961J1080000D01*
G01*
X183495000Y-65497516D02*
G75*
G02*
X180262665Y-65340608I-1560000J1235516D01*
G01*
G04 #@! TO.C,U4*
X129722000Y-60684000D02*
X129722000Y-64284000D01*
X129733522Y-60645522D02*
G75*
G02*
X134172001Y-62484000I1838478J-1838478D01*
G01*
X134172000Y-62484000D02*
G75*
G02*
X129733522Y-64322478I-2600000J0D01*
G01*
G04 #@! TO.C,R1*
X135610000Y-104022936D02*
X135610000Y-105477064D01*
X137430000Y-104022936D02*
X137430000Y-105477064D01*
G04 #@! TD*
%LPC*%
D13*
G04 #@! TO.C,R11*
X185600000Y-93790000D03*
X185600000Y-90690000D03*
G04 #@! TD*
D14*
G04 #@! TO.C,D2*
X141780000Y-99030000D03*
D15*
X139240000Y-99030000D03*
G04 #@! TD*
D16*
G04 #@! TO.C,R3*
X133430000Y-97730000D03*
X133430000Y-100830000D03*
G04 #@! TD*
D14*
G04 #@! TO.C,D1*
X122174000Y-64262000D03*
D15*
X124714000Y-64262000D03*
G04 #@! TD*
D17*
G04 #@! TO.C,J1*
X133858000Y-84592000D03*
D18*
X133858000Y-87132000D03*
X133858000Y-89672000D03*
X133858000Y-92212000D03*
G04 #@! TD*
D14*
G04 #@! TO.C,D4*
X183205000Y-97200000D03*
D15*
X180665000Y-97200000D03*
G04 #@! TD*
D19*
G04 #@! TO.C,SW2*
X118924000Y-78522000D03*
X125424000Y-78522000D03*
X118924000Y-83022000D03*
X125424000Y-83022000D03*
G04 #@! TD*
D13*
G04 #@! TO.C,R12*
X136570000Y-111550000D03*
X136570000Y-108450000D03*
G04 #@! TD*
D20*
G04 #@! TO.C,C5*
X136652000Y-66030000D03*
X136652000Y-71130000D03*
G04 #@! TD*
D16*
G04 #@! TO.C,R10*
X185440000Y-67660000D03*
X185440000Y-70760000D03*
G04 #@! TD*
D13*
G04 #@! TO.C,R9*
X129540000Y-86894000D03*
X129540000Y-83794000D03*
G04 #@! TD*
D21*
G04 #@! TO.C,C1*
X140462000Y-57171500D03*
X140462000Y-55096500D03*
G04 #@! TD*
D22*
G04 #@! TO.C,JP4*
X164592000Y-94600000D03*
X164592000Y-95900000D03*
G04 #@! TD*
D13*
G04 #@! TO.C,R4*
X129540000Y-80036000D03*
X129540000Y-76936000D03*
G04 #@! TD*
G04 #@! TO.C,R6*
X138938000Y-92762000D03*
X138938000Y-89662000D03*
G04 #@! TD*
D21*
G04 #@! TO.C,C3*
X125730000Y-72183500D03*
X125730000Y-70108500D03*
G04 #@! TD*
D23*
G04 #@! TO.C,SW1*
X146750000Y-78272000D03*
X159250000Y-78272000D03*
X146750000Y-83272000D03*
X159250000Y-83272000D03*
G04 #@! TD*
D14*
G04 #@! TO.C,D5*
X122174000Y-97200000D03*
D15*
X124714000Y-97200000D03*
G04 #@! TD*
D22*
G04 #@! TO.C,JP1*
X121412000Y-72050000D03*
X121412000Y-70750000D03*
G04 #@! TD*
D24*
G04 #@! TO.C,C2*
X136652000Y-58938000D03*
X136652000Y-53838000D03*
G04 #@! TD*
D13*
G04 #@! TO.C,R5*
X133858000Y-80036000D03*
X133858000Y-76936000D03*
G04 #@! TD*
G04 #@! TO.C,R7*
X138938000Y-86386000D03*
X138938000Y-83286000D03*
G04 #@! TD*
D25*
G04 #@! TO.C,U2*
X131952000Y-58142000D03*
D26*
X131864500Y-56642000D03*
D25*
X131952000Y-55142000D03*
G04 #@! TD*
D22*
G04 #@! TO.C,JP3*
X164592000Y-99710000D03*
X164592000Y-98410000D03*
G04 #@! TD*
D27*
G04 #@! TO.C,Q1*
X131370000Y-103630000D03*
X131370000Y-105530000D03*
X133370000Y-104580000D03*
G04 #@! TD*
D28*
G04 #@! TO.C,U3*
X145287500Y-114774500D03*
X159487500Y-114774500D03*
X145287500Y-91874500D03*
X159787500Y-91874500D03*
X148787500Y-91874500D03*
X156387500Y-91874500D03*
G04 #@! TD*
D13*
G04 #@! TO.C,R2*
X129286000Y-72696000D03*
X129286000Y-69596000D03*
G04 #@! TD*
D29*
G04 #@! TO.C,U1*
X143900000Y-52621000D03*
X143900000Y-53891000D03*
X143900000Y-55161000D03*
X143900000Y-56431000D03*
X143900000Y-57701000D03*
X143900000Y-58971000D03*
X143900000Y-60241000D03*
X143900000Y-61511000D03*
X143900000Y-62781000D03*
X143900000Y-64051000D03*
X143900000Y-65321000D03*
X143900000Y-66591000D03*
X143900000Y-67861000D03*
X143900000Y-69131000D03*
D30*
X146685000Y-70131000D03*
X147955000Y-70131000D03*
X149225000Y-70131000D03*
X150495000Y-70131000D03*
X151765000Y-70131000D03*
X153035000Y-70131000D03*
X154305000Y-70131000D03*
X155575000Y-70131000D03*
X156845000Y-70131000D03*
X158115000Y-70131000D03*
D29*
X160900000Y-69131000D03*
X160900000Y-67861000D03*
X160900000Y-66591000D03*
X160900000Y-65321000D03*
X160900000Y-64051000D03*
X160900000Y-62781000D03*
X160900000Y-61511000D03*
X160900000Y-60241000D03*
X160900000Y-58971000D03*
X160900000Y-57701000D03*
X160900000Y-56431000D03*
X160900000Y-55161000D03*
X160900000Y-53891000D03*
X160900000Y-52621000D03*
D31*
X151400000Y-60121000D03*
G04 #@! TD*
D17*
G04 #@! TO.C,JP2*
X129540000Y-91943000D03*
D18*
X129540000Y-94483000D03*
G04 #@! TD*
D16*
G04 #@! TO.C,R8*
X136540000Y-97670000D03*
X136540000Y-100770000D03*
G04 #@! TD*
D32*
G04 #@! TO.C,J2*
X165862000Y-109474000D03*
D33*
X168362000Y-109474000D03*
G04 #@! TD*
D14*
G04 #@! TO.C,D3*
X183205000Y-64262000D03*
D15*
X180665000Y-64262000D03*
G04 #@! TD*
D34*
G04 #@! TO.C,U4*
X131572000Y-61214000D03*
D35*
X131572000Y-62484000D03*
X131572000Y-63754000D03*
G04 #@! TD*
D16*
G04 #@! TO.C,R1*
X136520000Y-103200000D03*
X136520000Y-106300000D03*
G04 #@! TD*
%LPD*%
M02*
