%TF.GenerationSoftware,KiCad,Pcbnew,9.0.5*%
%TF.CreationDate,2025-11-22T16:47:00-05:00*%
%TF.ProjectId,esp_now_button_v2,6573705f-6e6f-4775-9f62-7574746f6e5f,rev?*%
%TF.SameCoordinates,Original*%
%TF.FileFunction,Drillmap*%
%TF.FilePolarity,Positive*%
%FSLAX45Y45*%
G04 Gerber Fmt 4.5, Leading zero omitted, Abs format (unit mm)*
G04 Created by KiCad (PCBNEW 9.0.5) date 2025-11-22 16:47:00*
%MOMM*%
%LPD*%
G01*
G04 APERTURE LIST*
%ADD10C,0.100000*%
%ADD11C,0.200000*%
%ADD12C,0.110000*%
%ADD13C,0.130000*%
%ADD14C,0.154000*%
G04 APERTURE END LIST*
D10*
X17545000Y-8804000D02*
G75*
G02*
X17145000Y-8804000I-200000J0D01*
G01*
X17145000Y-8804000D02*
G75*
G02*
X17545000Y-8804000I200000J0D01*
G01*
X17545000Y-6601000D02*
G75*
G02*
X17145000Y-6601000I-200000J0D01*
G01*
X17145000Y-6601000D02*
G75*
G02*
X17545000Y-6601000I200000J0D01*
G01*
X12860000Y-10287000D02*
G75*
G02*
X12540000Y-10287000I-160000J0D01*
G01*
X12540000Y-10287000D02*
G75*
G02*
X12860000Y-10287000I160000J0D01*
G01*
X18975400Y-8077200D02*
G75*
G02*
X11555400Y-8077200I-3710000J0D01*
G01*
X11555400Y-8077200D02*
G75*
G02*
X18975400Y-8077200I3710000J0D01*
G01*
X17983200Y-10287000D02*
G75*
G02*
X17663200Y-10287000I-160000J0D01*
G01*
X17663200Y-10287000D02*
G75*
G02*
X17983200Y-10287000I160000J0D01*
G01*
X17152600Y-5054600D02*
G75*
G02*
X16832600Y-5054600I-160000J0D01*
G01*
X16832600Y-5054600D02*
G75*
G02*
X17152600Y-5054600I160000J0D01*
G01*
X13698200Y-5054600D02*
G75*
G02*
X13378200Y-5054600I-160000J0D01*
G01*
X13378200Y-5054600D02*
G75*
G02*
X13698200Y-5054600I160000J0D01*
G01*
D11*
D10*
X12705400Y-7117400D02*
X12745400Y-7157400D01*
X12745400Y-7117400D02*
X12705400Y-7157400D01*
X12718100Y-7536500D02*
X12758100Y-7576500D01*
X12758100Y-7536500D02*
X12718100Y-7576500D01*
X13335000Y-9608000D02*
X13375000Y-9648000D01*
X13375000Y-9608000D02*
X13335000Y-9648000D01*
X13645200Y-7981000D02*
X13685200Y-8021000D01*
X13685200Y-7981000D02*
X13645200Y-8021000D01*
X13645200Y-8561000D02*
X13685200Y-8601000D01*
X13685200Y-8561000D02*
X13645200Y-8601000D01*
X13657000Y-9588000D02*
X13697000Y-9628000D01*
X13697000Y-9588000D02*
X13657000Y-9628000D01*
X13721400Y-7498400D02*
X13761400Y-7538400D01*
X13761400Y-7498400D02*
X13721400Y-7538400D01*
X13941250Y-6584000D02*
X13981250Y-6624000D01*
X13981250Y-6584000D02*
X13941250Y-6624000D01*
X14153200Y-6965000D02*
X14193200Y-7005000D01*
X14193200Y-6965000D02*
X14153200Y-7005000D01*
X14407200Y-8870000D02*
X14447200Y-8910000D01*
X14447200Y-8870000D02*
X14407200Y-8910000D01*
X14585000Y-6457000D02*
X14625000Y-6497000D01*
X14625000Y-6457000D02*
X14585000Y-6497000D01*
X14762800Y-7219000D02*
X14802800Y-7259000D01*
X14802800Y-7219000D02*
X14762800Y-7259000D01*
X14762800Y-7498400D02*
X14802800Y-7538400D01*
X14802800Y-7498400D02*
X14762800Y-7538400D01*
X15829600Y-6330000D02*
X15869600Y-6370000D01*
X15869600Y-6330000D02*
X15829600Y-6370000D01*
X16337600Y-6888800D02*
X16377600Y-6928800D01*
X16377600Y-6888800D02*
X16337600Y-6928800D01*
X16464600Y-6507800D02*
X16504600Y-6547800D01*
X16504600Y-6507800D02*
X16464600Y-6547800D01*
X13194700Y-6121400D02*
G75*
G02*
X13119700Y-6121400I-37500J0D01*
G01*
X13119700Y-6121400D02*
G75*
G02*
X13194700Y-6121400I37500J0D01*
G01*
X13194700Y-6248400D02*
G75*
G02*
X13119700Y-6248400I-37500J0D01*
G01*
X13119700Y-6248400D02*
G75*
G02*
X13194700Y-6248400I37500J0D01*
G01*
X13194700Y-6375400D02*
G75*
G02*
X13119700Y-6375400I-37500J0D01*
G01*
X13119700Y-6375400D02*
G75*
G02*
X13194700Y-6375400I37500J0D01*
G01*
X12217400Y-6381200D02*
X12217400Y-6471200D01*
X12172400Y-6426200D02*
X12262400Y-6426200D01*
X12217400Y-9675000D02*
X12217400Y-9765000D01*
X12172400Y-9720000D02*
X12262400Y-9720000D01*
X12471400Y-6381200D02*
X12471400Y-6471200D01*
X12426400Y-6426200D02*
X12516400Y-6426200D01*
X12471400Y-9675000D02*
X12471400Y-9765000D01*
X12426400Y-9720000D02*
X12516400Y-9720000D01*
X13924000Y-9858000D02*
X13924000Y-9948000D01*
X13879000Y-9903000D02*
X13969000Y-9903000D01*
X14178000Y-9858000D02*
X14178000Y-9948000D01*
X14133000Y-9903000D02*
X14223000Y-9903000D01*
X18066500Y-6381200D02*
X18066500Y-6471200D01*
X18021500Y-6426200D02*
X18111500Y-6426200D01*
X18066500Y-9675000D02*
X18066500Y-9765000D01*
X18021500Y-9720000D02*
X18111500Y-9720000D01*
X18320500Y-6381200D02*
X18320500Y-6471200D01*
X18275500Y-6426200D02*
X18365500Y-6426200D01*
X18320500Y-9675000D02*
X18320500Y-9765000D01*
X18275500Y-9720000D02*
X18365500Y-9720000D01*
X12989356Y-9229656D02*
X12989356Y-9158944D01*
X12918644Y-9158944D01*
X12918644Y-9229656D01*
X12989356Y-9229656D01*
X12989356Y-9483656D02*
X12989356Y-9412944D01*
X12918644Y-9412944D01*
X12918644Y-9483656D01*
X12989356Y-9483656D01*
X13421156Y-8494556D02*
X13421156Y-8423844D01*
X13350444Y-8423844D01*
X13350444Y-8494556D01*
X13421156Y-8494556D01*
X13421156Y-8748556D02*
X13421156Y-8677844D01*
X13350444Y-8677844D01*
X13350444Y-8748556D01*
X13421156Y-8748556D01*
X13421156Y-9002556D02*
X13421156Y-8931844D01*
X13350444Y-8931844D01*
X13350444Y-9002556D01*
X13421156Y-9002556D01*
X13421156Y-9256556D02*
X13421156Y-9185844D01*
X13350444Y-9185844D01*
X13350444Y-9256556D01*
X13421156Y-9256556D01*
X16621556Y-10982756D02*
X16621556Y-10912044D01*
X16550844Y-10912044D01*
X16550844Y-10982756D01*
X16621556Y-10982756D01*
X16871556Y-10982756D02*
X16871556Y-10912044D01*
X16800844Y-10912044D01*
X16800844Y-10982756D01*
X16871556Y-10982756D01*
D12*
X11892400Y-7907200D02*
X11947400Y-7852200D01*
X11892400Y-7797200D01*
X11837400Y-7852200D01*
X11892400Y-7907200D01*
X11892400Y-8357200D02*
X11947400Y-8302200D01*
X11892400Y-8247200D01*
X11837400Y-8302200D01*
X11892400Y-8357200D01*
X12542400Y-7907200D02*
X12597400Y-7852200D01*
X12542400Y-7797200D01*
X12487400Y-7852200D01*
X12542400Y-7907200D01*
X12542400Y-8357200D02*
X12597400Y-8302200D01*
X12542400Y-8247200D01*
X12487400Y-8302200D01*
X12542400Y-8357200D01*
D13*
X14610000Y-7762200D02*
X14740000Y-7892200D01*
X14740000Y-7762200D02*
X14610000Y-7892200D01*
X14740000Y-7827200D02*
G75*
G02*
X14610000Y-7827200I-65000J0D01*
G01*
X14610000Y-7827200D02*
G75*
G02*
X14740000Y-7827200I65000J0D01*
G01*
X14610000Y-8262200D02*
X14740000Y-8392200D01*
X14740000Y-8262200D02*
X14610000Y-8392200D01*
X14740000Y-8327200D02*
G75*
G02*
X14610000Y-8327200I-65000J0D01*
G01*
X14610000Y-8327200D02*
G75*
G02*
X14740000Y-8327200I65000J0D01*
G01*
X15860000Y-7762200D02*
X15990000Y-7892200D01*
X15990000Y-7762200D02*
X15860000Y-7892200D01*
X15990000Y-7827200D02*
G75*
G02*
X15860000Y-7827200I-65000J0D01*
G01*
X15860000Y-7827200D02*
G75*
G02*
X15990000Y-7827200I65000J0D01*
G01*
X15860000Y-8262200D02*
X15990000Y-8392200D01*
X15990000Y-8262200D02*
X15860000Y-8392200D01*
X15990000Y-8327200D02*
G75*
G02*
X15860000Y-8327200I-65000J0D01*
G01*
X15860000Y-8327200D02*
G75*
G02*
X15990000Y-8327200I65000J0D01*
G01*
D14*
X14451750Y-9110450D02*
X14605750Y-9264450D01*
X14605750Y-9110450D02*
X14451750Y-9264450D01*
X14528750Y-9110450D02*
X14528750Y-9264450D01*
X14451750Y-9187450D02*
X14605750Y-9187450D01*
X14451750Y-11400450D02*
X14605750Y-11554450D01*
X14605750Y-11400450D02*
X14451750Y-11554450D01*
X14528750Y-11400450D02*
X14528750Y-11554450D01*
X14451750Y-11477450D02*
X14605750Y-11477450D01*
X14801750Y-9110450D02*
X14955750Y-9264450D01*
X14955750Y-9110450D02*
X14801750Y-9264450D01*
X14878750Y-9110450D02*
X14878750Y-9264450D01*
X14801750Y-9187450D02*
X14955750Y-9187450D01*
X15561750Y-9110450D02*
X15715750Y-9264450D01*
X15715750Y-9110450D02*
X15561750Y-9264450D01*
X15638750Y-9110450D02*
X15638750Y-9264450D01*
X15561750Y-9187450D02*
X15715750Y-9187450D01*
X15871750Y-11400450D02*
X16025750Y-11554450D01*
X16025750Y-11400450D02*
X15871750Y-11554450D01*
X15948750Y-11400450D02*
X15948750Y-11554450D01*
X15871750Y-11477450D02*
X16025750Y-11477450D01*
X15901750Y-9110450D02*
X16055750Y-9264450D01*
X16055750Y-9110450D02*
X15901750Y-9264450D01*
X15978750Y-9110450D02*
X15978750Y-9264450D01*
X15901750Y-9187450D02*
X16055750Y-9187450D01*
D11*
X11811177Y-12103684D02*
X11811177Y-11903684D01*
X11811177Y-11903684D02*
X11858796Y-11903684D01*
X11858796Y-11903684D02*
X11887367Y-11913208D01*
X11887367Y-11913208D02*
X11906415Y-11932255D01*
X11906415Y-11932255D02*
X11915939Y-11951303D01*
X11915939Y-11951303D02*
X11925462Y-11989398D01*
X11925462Y-11989398D02*
X11925462Y-12017969D01*
X11925462Y-12017969D02*
X11915939Y-12056065D01*
X11915939Y-12056065D02*
X11906415Y-12075112D01*
X11906415Y-12075112D02*
X11887367Y-12094160D01*
X11887367Y-12094160D02*
X11858796Y-12103684D01*
X11858796Y-12103684D02*
X11811177Y-12103684D01*
X12011177Y-12103684D02*
X12011177Y-11970350D01*
X12011177Y-12008446D02*
X12020701Y-11989398D01*
X12020701Y-11989398D02*
X12030224Y-11979874D01*
X12030224Y-11979874D02*
X12049272Y-11970350D01*
X12049272Y-11970350D02*
X12068320Y-11970350D01*
X12134986Y-12103684D02*
X12134986Y-11970350D01*
X12134986Y-11903684D02*
X12125462Y-11913208D01*
X12125462Y-11913208D02*
X12134986Y-11922731D01*
X12134986Y-11922731D02*
X12144510Y-11913208D01*
X12144510Y-11913208D02*
X12134986Y-11903684D01*
X12134986Y-11903684D02*
X12134986Y-11922731D01*
X12258796Y-12103684D02*
X12239748Y-12094160D01*
X12239748Y-12094160D02*
X12230224Y-12075112D01*
X12230224Y-12075112D02*
X12230224Y-11903684D01*
X12363558Y-12103684D02*
X12344510Y-12094160D01*
X12344510Y-12094160D02*
X12334986Y-12075112D01*
X12334986Y-12075112D02*
X12334986Y-11903684D01*
X12592129Y-12103684D02*
X12592129Y-11903684D01*
X12592129Y-11903684D02*
X12658796Y-12046541D01*
X12658796Y-12046541D02*
X12725462Y-11903684D01*
X12725462Y-11903684D02*
X12725462Y-12103684D01*
X12906415Y-12103684D02*
X12906415Y-11998922D01*
X12906415Y-11998922D02*
X12896891Y-11979874D01*
X12896891Y-11979874D02*
X12877843Y-11970350D01*
X12877843Y-11970350D02*
X12839748Y-11970350D01*
X12839748Y-11970350D02*
X12820701Y-11979874D01*
X12906415Y-12094160D02*
X12887367Y-12103684D01*
X12887367Y-12103684D02*
X12839748Y-12103684D01*
X12839748Y-12103684D02*
X12820701Y-12094160D01*
X12820701Y-12094160D02*
X12811177Y-12075112D01*
X12811177Y-12075112D02*
X12811177Y-12056065D01*
X12811177Y-12056065D02*
X12820701Y-12037017D01*
X12820701Y-12037017D02*
X12839748Y-12027493D01*
X12839748Y-12027493D02*
X12887367Y-12027493D01*
X12887367Y-12027493D02*
X12906415Y-12017969D01*
X13001653Y-11970350D02*
X13001653Y-12170350D01*
X13001653Y-11979874D02*
X13020701Y-11970350D01*
X13020701Y-11970350D02*
X13058796Y-11970350D01*
X13058796Y-11970350D02*
X13077843Y-11979874D01*
X13077843Y-11979874D02*
X13087367Y-11989398D01*
X13087367Y-11989398D02*
X13096891Y-12008446D01*
X13096891Y-12008446D02*
X13096891Y-12065588D01*
X13096891Y-12065588D02*
X13087367Y-12084636D01*
X13087367Y-12084636D02*
X13077843Y-12094160D01*
X13077843Y-12094160D02*
X13058796Y-12103684D01*
X13058796Y-12103684D02*
X13020701Y-12103684D01*
X13020701Y-12103684D02*
X13001653Y-12094160D01*
X13182605Y-12084636D02*
X13192129Y-12094160D01*
X13192129Y-12094160D02*
X13182605Y-12103684D01*
X13182605Y-12103684D02*
X13173082Y-12094160D01*
X13173082Y-12094160D02*
X13182605Y-12084636D01*
X13182605Y-12084636D02*
X13182605Y-12103684D01*
X13182605Y-11979874D02*
X13192129Y-11989398D01*
X13192129Y-11989398D02*
X13182605Y-11998922D01*
X13182605Y-11998922D02*
X13173082Y-11989398D01*
X13173082Y-11989398D02*
X13182605Y-11979874D01*
X13182605Y-11979874D02*
X13182605Y-11998922D01*
D10*
X11510400Y-12412200D02*
X11550400Y-12452200D01*
X11550400Y-12412200D02*
X11510400Y-12452200D01*
D11*
X11849272Y-12323684D02*
X11868320Y-12323684D01*
X11868320Y-12323684D02*
X11887367Y-12333208D01*
X11887367Y-12333208D02*
X11896891Y-12342731D01*
X11896891Y-12342731D02*
X11906415Y-12361779D01*
X11906415Y-12361779D02*
X11915939Y-12399874D01*
X11915939Y-12399874D02*
X11915939Y-12447493D01*
X11915939Y-12447493D02*
X11906415Y-12485588D01*
X11906415Y-12485588D02*
X11896891Y-12504636D01*
X11896891Y-12504636D02*
X11887367Y-12514160D01*
X11887367Y-12514160D02*
X11868320Y-12523684D01*
X11868320Y-12523684D02*
X11849272Y-12523684D01*
X11849272Y-12523684D02*
X11830224Y-12514160D01*
X11830224Y-12514160D02*
X11820701Y-12504636D01*
X11820701Y-12504636D02*
X11811177Y-12485588D01*
X11811177Y-12485588D02*
X11801653Y-12447493D01*
X11801653Y-12447493D02*
X11801653Y-12399874D01*
X11801653Y-12399874D02*
X11811177Y-12361779D01*
X11811177Y-12361779D02*
X11820701Y-12342731D01*
X11820701Y-12342731D02*
X11830224Y-12333208D01*
X11830224Y-12333208D02*
X11849272Y-12323684D01*
X12001653Y-12504636D02*
X12011177Y-12514160D01*
X12011177Y-12514160D02*
X12001653Y-12523684D01*
X12001653Y-12523684D02*
X11992129Y-12514160D01*
X11992129Y-12514160D02*
X12001653Y-12504636D01*
X12001653Y-12504636D02*
X12001653Y-12523684D01*
X12182605Y-12390350D02*
X12182605Y-12523684D01*
X12134986Y-12314160D02*
X12087367Y-12457017D01*
X12087367Y-12457017D02*
X12211177Y-12457017D01*
X12325462Y-12323684D02*
X12344510Y-12323684D01*
X12344510Y-12323684D02*
X12363558Y-12333208D01*
X12363558Y-12333208D02*
X12373082Y-12342731D01*
X12373082Y-12342731D02*
X12382605Y-12361779D01*
X12382605Y-12361779D02*
X12392129Y-12399874D01*
X12392129Y-12399874D02*
X12392129Y-12447493D01*
X12392129Y-12447493D02*
X12382605Y-12485588D01*
X12382605Y-12485588D02*
X12373082Y-12504636D01*
X12373082Y-12504636D02*
X12363558Y-12514160D01*
X12363558Y-12514160D02*
X12344510Y-12523684D01*
X12344510Y-12523684D02*
X12325462Y-12523684D01*
X12325462Y-12523684D02*
X12306415Y-12514160D01*
X12306415Y-12514160D02*
X12296891Y-12504636D01*
X12296891Y-12504636D02*
X12287367Y-12485588D01*
X12287367Y-12485588D02*
X12277843Y-12447493D01*
X12277843Y-12447493D02*
X12277843Y-12399874D01*
X12277843Y-12399874D02*
X12287367Y-12361779D01*
X12287367Y-12361779D02*
X12296891Y-12342731D01*
X12296891Y-12342731D02*
X12306415Y-12333208D01*
X12306415Y-12333208D02*
X12325462Y-12323684D01*
X12515939Y-12323684D02*
X12534986Y-12323684D01*
X12534986Y-12323684D02*
X12554034Y-12333208D01*
X12554034Y-12333208D02*
X12563558Y-12342731D01*
X12563558Y-12342731D02*
X12573082Y-12361779D01*
X12573082Y-12361779D02*
X12582605Y-12399874D01*
X12582605Y-12399874D02*
X12582605Y-12447493D01*
X12582605Y-12447493D02*
X12573082Y-12485588D01*
X12573082Y-12485588D02*
X12563558Y-12504636D01*
X12563558Y-12504636D02*
X12554034Y-12514160D01*
X12554034Y-12514160D02*
X12534986Y-12523684D01*
X12534986Y-12523684D02*
X12515939Y-12523684D01*
X12515939Y-12523684D02*
X12496891Y-12514160D01*
X12496891Y-12514160D02*
X12487367Y-12504636D01*
X12487367Y-12504636D02*
X12477843Y-12485588D01*
X12477843Y-12485588D02*
X12468320Y-12447493D01*
X12468320Y-12447493D02*
X12468320Y-12399874D01*
X12468320Y-12399874D02*
X12477843Y-12361779D01*
X12477843Y-12361779D02*
X12487367Y-12342731D01*
X12487367Y-12342731D02*
X12496891Y-12333208D01*
X12496891Y-12333208D02*
X12515939Y-12323684D01*
X12668320Y-12523684D02*
X12668320Y-12390350D01*
X12668320Y-12409398D02*
X12677843Y-12399874D01*
X12677843Y-12399874D02*
X12696891Y-12390350D01*
X12696891Y-12390350D02*
X12725463Y-12390350D01*
X12725463Y-12390350D02*
X12744510Y-12399874D01*
X12744510Y-12399874D02*
X12754034Y-12418922D01*
X12754034Y-12418922D02*
X12754034Y-12523684D01*
X12754034Y-12418922D02*
X12763558Y-12399874D01*
X12763558Y-12399874D02*
X12782605Y-12390350D01*
X12782605Y-12390350D02*
X12811177Y-12390350D01*
X12811177Y-12390350D02*
X12830224Y-12399874D01*
X12830224Y-12399874D02*
X12839748Y-12418922D01*
X12839748Y-12418922D02*
X12839748Y-12523684D01*
X12934986Y-12523684D02*
X12934986Y-12390350D01*
X12934986Y-12409398D02*
X12944510Y-12399874D01*
X12944510Y-12399874D02*
X12963558Y-12390350D01*
X12963558Y-12390350D02*
X12992129Y-12390350D01*
X12992129Y-12390350D02*
X13011177Y-12399874D01*
X13011177Y-12399874D02*
X13020701Y-12418922D01*
X13020701Y-12418922D02*
X13020701Y-12523684D01*
X13020701Y-12418922D02*
X13030224Y-12399874D01*
X13030224Y-12399874D02*
X13049272Y-12390350D01*
X13049272Y-12390350D02*
X13077843Y-12390350D01*
X13077843Y-12390350D02*
X13096891Y-12399874D01*
X13096891Y-12399874D02*
X13106415Y-12418922D01*
X13106415Y-12418922D02*
X13106415Y-12523684D01*
X13496891Y-12314160D02*
X13325463Y-12571303D01*
X13754034Y-12323684D02*
X13773082Y-12323684D01*
X13773082Y-12323684D02*
X13792129Y-12333208D01*
X13792129Y-12333208D02*
X13801653Y-12342731D01*
X13801653Y-12342731D02*
X13811177Y-12361779D01*
X13811177Y-12361779D02*
X13820701Y-12399874D01*
X13820701Y-12399874D02*
X13820701Y-12447493D01*
X13820701Y-12447493D02*
X13811177Y-12485588D01*
X13811177Y-12485588D02*
X13801653Y-12504636D01*
X13801653Y-12504636D02*
X13792129Y-12514160D01*
X13792129Y-12514160D02*
X13773082Y-12523684D01*
X13773082Y-12523684D02*
X13754034Y-12523684D01*
X13754034Y-12523684D02*
X13734986Y-12514160D01*
X13734986Y-12514160D02*
X13725463Y-12504636D01*
X13725463Y-12504636D02*
X13715939Y-12485588D01*
X13715939Y-12485588D02*
X13706415Y-12447493D01*
X13706415Y-12447493D02*
X13706415Y-12399874D01*
X13706415Y-12399874D02*
X13715939Y-12361779D01*
X13715939Y-12361779D02*
X13725463Y-12342731D01*
X13725463Y-12342731D02*
X13734986Y-12333208D01*
X13734986Y-12333208D02*
X13754034Y-12323684D01*
X13906415Y-12504636D02*
X13915939Y-12514160D01*
X13915939Y-12514160D02*
X13906415Y-12523684D01*
X13906415Y-12523684D02*
X13896891Y-12514160D01*
X13896891Y-12514160D02*
X13906415Y-12504636D01*
X13906415Y-12504636D02*
X13906415Y-12523684D01*
X14039748Y-12323684D02*
X14058796Y-12323684D01*
X14058796Y-12323684D02*
X14077844Y-12333208D01*
X14077844Y-12333208D02*
X14087367Y-12342731D01*
X14087367Y-12342731D02*
X14096891Y-12361779D01*
X14096891Y-12361779D02*
X14106415Y-12399874D01*
X14106415Y-12399874D02*
X14106415Y-12447493D01*
X14106415Y-12447493D02*
X14096891Y-12485588D01*
X14096891Y-12485588D02*
X14087367Y-12504636D01*
X14087367Y-12504636D02*
X14077844Y-12514160D01*
X14077844Y-12514160D02*
X14058796Y-12523684D01*
X14058796Y-12523684D02*
X14039748Y-12523684D01*
X14039748Y-12523684D02*
X14020701Y-12514160D01*
X14020701Y-12514160D02*
X14011177Y-12504636D01*
X14011177Y-12504636D02*
X14001653Y-12485588D01*
X14001653Y-12485588D02*
X13992129Y-12447493D01*
X13992129Y-12447493D02*
X13992129Y-12399874D01*
X13992129Y-12399874D02*
X14001653Y-12361779D01*
X14001653Y-12361779D02*
X14011177Y-12342731D01*
X14011177Y-12342731D02*
X14020701Y-12333208D01*
X14020701Y-12333208D02*
X14039748Y-12323684D01*
X14296891Y-12523684D02*
X14182606Y-12523684D01*
X14239748Y-12523684D02*
X14239748Y-12323684D01*
X14239748Y-12323684D02*
X14220701Y-12352255D01*
X14220701Y-12352255D02*
X14201653Y-12371303D01*
X14201653Y-12371303D02*
X14182606Y-12380827D01*
X14477844Y-12323684D02*
X14382606Y-12323684D01*
X14382606Y-12323684D02*
X14373082Y-12418922D01*
X14373082Y-12418922D02*
X14382606Y-12409398D01*
X14382606Y-12409398D02*
X14401653Y-12399874D01*
X14401653Y-12399874D02*
X14449272Y-12399874D01*
X14449272Y-12399874D02*
X14468320Y-12409398D01*
X14468320Y-12409398D02*
X14477844Y-12418922D01*
X14477844Y-12418922D02*
X14487367Y-12437969D01*
X14487367Y-12437969D02*
X14487367Y-12485588D01*
X14487367Y-12485588D02*
X14477844Y-12504636D01*
X14477844Y-12504636D02*
X14468320Y-12514160D01*
X14468320Y-12514160D02*
X14449272Y-12523684D01*
X14449272Y-12523684D02*
X14401653Y-12523684D01*
X14401653Y-12523684D02*
X14382606Y-12514160D01*
X14382606Y-12514160D02*
X14373082Y-12504636D01*
X14554034Y-12323684D02*
X14687367Y-12323684D01*
X14687367Y-12323684D02*
X14601653Y-12523684D01*
X14754034Y-12323684D02*
X14754034Y-12361779D01*
X14830225Y-12323684D02*
X14830225Y-12361779D01*
X15125463Y-12599874D02*
X15115939Y-12590350D01*
X15115939Y-12590350D02*
X15096891Y-12561779D01*
X15096891Y-12561779D02*
X15087368Y-12542731D01*
X15087368Y-12542731D02*
X15077844Y-12514160D01*
X15077844Y-12514160D02*
X15068320Y-12466541D01*
X15068320Y-12466541D02*
X15068320Y-12428446D01*
X15068320Y-12428446D02*
X15077844Y-12380827D01*
X15077844Y-12380827D02*
X15087368Y-12352255D01*
X15087368Y-12352255D02*
X15096891Y-12333208D01*
X15096891Y-12333208D02*
X15115939Y-12304636D01*
X15115939Y-12304636D02*
X15125463Y-12295112D01*
X15306415Y-12523684D02*
X15192129Y-12523684D01*
X15249272Y-12523684D02*
X15249272Y-12323684D01*
X15249272Y-12323684D02*
X15230225Y-12352255D01*
X15230225Y-12352255D02*
X15211177Y-12371303D01*
X15211177Y-12371303D02*
X15192129Y-12380827D01*
X15477844Y-12323684D02*
X15439748Y-12323684D01*
X15439748Y-12323684D02*
X15420701Y-12333208D01*
X15420701Y-12333208D02*
X15411177Y-12342731D01*
X15411177Y-12342731D02*
X15392129Y-12371303D01*
X15392129Y-12371303D02*
X15382606Y-12409398D01*
X15382606Y-12409398D02*
X15382606Y-12485588D01*
X15382606Y-12485588D02*
X15392129Y-12504636D01*
X15392129Y-12504636D02*
X15401653Y-12514160D01*
X15401653Y-12514160D02*
X15420701Y-12523684D01*
X15420701Y-12523684D02*
X15458796Y-12523684D01*
X15458796Y-12523684D02*
X15477844Y-12514160D01*
X15477844Y-12514160D02*
X15487368Y-12504636D01*
X15487368Y-12504636D02*
X15496891Y-12485588D01*
X15496891Y-12485588D02*
X15496891Y-12437969D01*
X15496891Y-12437969D02*
X15487368Y-12418922D01*
X15487368Y-12418922D02*
X15477844Y-12409398D01*
X15477844Y-12409398D02*
X15458796Y-12399874D01*
X15458796Y-12399874D02*
X15420701Y-12399874D01*
X15420701Y-12399874D02*
X15401653Y-12409398D01*
X15401653Y-12409398D02*
X15392129Y-12418922D01*
X15392129Y-12418922D02*
X15382606Y-12437969D01*
X15734987Y-12523684D02*
X15734987Y-12323684D01*
X15820701Y-12523684D02*
X15820701Y-12418922D01*
X15820701Y-12418922D02*
X15811177Y-12399874D01*
X15811177Y-12399874D02*
X15792130Y-12390350D01*
X15792130Y-12390350D02*
X15763558Y-12390350D01*
X15763558Y-12390350D02*
X15744510Y-12399874D01*
X15744510Y-12399874D02*
X15734987Y-12409398D01*
X15944510Y-12523684D02*
X15925463Y-12514160D01*
X15925463Y-12514160D02*
X15915939Y-12504636D01*
X15915939Y-12504636D02*
X15906415Y-12485588D01*
X15906415Y-12485588D02*
X15906415Y-12428446D01*
X15906415Y-12428446D02*
X15915939Y-12409398D01*
X15915939Y-12409398D02*
X15925463Y-12399874D01*
X15925463Y-12399874D02*
X15944510Y-12390350D01*
X15944510Y-12390350D02*
X15973082Y-12390350D01*
X15973082Y-12390350D02*
X15992130Y-12399874D01*
X15992130Y-12399874D02*
X16001653Y-12409398D01*
X16001653Y-12409398D02*
X16011177Y-12428446D01*
X16011177Y-12428446D02*
X16011177Y-12485588D01*
X16011177Y-12485588D02*
X16001653Y-12504636D01*
X16001653Y-12504636D02*
X15992130Y-12514160D01*
X15992130Y-12514160D02*
X15973082Y-12523684D01*
X15973082Y-12523684D02*
X15944510Y-12523684D01*
X16125463Y-12523684D02*
X16106415Y-12514160D01*
X16106415Y-12514160D02*
X16096891Y-12495112D01*
X16096891Y-12495112D02*
X16096891Y-12323684D01*
X16277844Y-12514160D02*
X16258796Y-12523684D01*
X16258796Y-12523684D02*
X16220701Y-12523684D01*
X16220701Y-12523684D02*
X16201653Y-12514160D01*
X16201653Y-12514160D02*
X16192130Y-12495112D01*
X16192130Y-12495112D02*
X16192130Y-12418922D01*
X16192130Y-12418922D02*
X16201653Y-12399874D01*
X16201653Y-12399874D02*
X16220701Y-12390350D01*
X16220701Y-12390350D02*
X16258796Y-12390350D01*
X16258796Y-12390350D02*
X16277844Y-12399874D01*
X16277844Y-12399874D02*
X16287368Y-12418922D01*
X16287368Y-12418922D02*
X16287368Y-12437969D01*
X16287368Y-12437969D02*
X16192130Y-12457017D01*
X16363558Y-12514160D02*
X16382606Y-12523684D01*
X16382606Y-12523684D02*
X16420701Y-12523684D01*
X16420701Y-12523684D02*
X16439749Y-12514160D01*
X16439749Y-12514160D02*
X16449272Y-12495112D01*
X16449272Y-12495112D02*
X16449272Y-12485588D01*
X16449272Y-12485588D02*
X16439749Y-12466541D01*
X16439749Y-12466541D02*
X16420701Y-12457017D01*
X16420701Y-12457017D02*
X16392130Y-12457017D01*
X16392130Y-12457017D02*
X16373082Y-12447493D01*
X16373082Y-12447493D02*
X16363558Y-12428446D01*
X16363558Y-12428446D02*
X16363558Y-12418922D01*
X16363558Y-12418922D02*
X16373082Y-12399874D01*
X16373082Y-12399874D02*
X16392130Y-12390350D01*
X16392130Y-12390350D02*
X16420701Y-12390350D01*
X16420701Y-12390350D02*
X16439749Y-12399874D01*
X16515939Y-12599874D02*
X16525463Y-12590350D01*
X16525463Y-12590350D02*
X16544511Y-12561779D01*
X16544511Y-12561779D02*
X16554034Y-12542731D01*
X16554034Y-12542731D02*
X16563558Y-12514160D01*
X16563558Y-12514160D02*
X16573082Y-12466541D01*
X16573082Y-12466541D02*
X16573082Y-12428446D01*
X16573082Y-12428446D02*
X16563558Y-12380827D01*
X16563558Y-12380827D02*
X16554034Y-12352255D01*
X16554034Y-12352255D02*
X16544511Y-12333208D01*
X16544511Y-12333208D02*
X16525463Y-12304636D01*
X16525463Y-12304636D02*
X16515939Y-12295112D01*
D10*
X11550400Y-12696200D02*
G75*
G02*
X11475400Y-12696200I-37500J0D01*
G01*
X11475400Y-12696200D02*
G75*
G02*
X11550400Y-12696200I37500J0D01*
G01*
D11*
X11849272Y-12587684D02*
X11868320Y-12587684D01*
X11868320Y-12587684D02*
X11887367Y-12597208D01*
X11887367Y-12597208D02*
X11896891Y-12606731D01*
X11896891Y-12606731D02*
X11906415Y-12625779D01*
X11906415Y-12625779D02*
X11915939Y-12663874D01*
X11915939Y-12663874D02*
X11915939Y-12711493D01*
X11915939Y-12711493D02*
X11906415Y-12749588D01*
X11906415Y-12749588D02*
X11896891Y-12768636D01*
X11896891Y-12768636D02*
X11887367Y-12778160D01*
X11887367Y-12778160D02*
X11868320Y-12787684D01*
X11868320Y-12787684D02*
X11849272Y-12787684D01*
X11849272Y-12787684D02*
X11830224Y-12778160D01*
X11830224Y-12778160D02*
X11820701Y-12768636D01*
X11820701Y-12768636D02*
X11811177Y-12749588D01*
X11811177Y-12749588D02*
X11801653Y-12711493D01*
X11801653Y-12711493D02*
X11801653Y-12663874D01*
X11801653Y-12663874D02*
X11811177Y-12625779D01*
X11811177Y-12625779D02*
X11820701Y-12606731D01*
X11820701Y-12606731D02*
X11830224Y-12597208D01*
X11830224Y-12597208D02*
X11849272Y-12587684D01*
X12001653Y-12768636D02*
X12011177Y-12778160D01*
X12011177Y-12778160D02*
X12001653Y-12787684D01*
X12001653Y-12787684D02*
X11992129Y-12778160D01*
X11992129Y-12778160D02*
X12001653Y-12768636D01*
X12001653Y-12768636D02*
X12001653Y-12787684D01*
X12077843Y-12587684D02*
X12211177Y-12587684D01*
X12211177Y-12587684D02*
X12125462Y-12787684D01*
X12382605Y-12587684D02*
X12287367Y-12587684D01*
X12287367Y-12587684D02*
X12277843Y-12682922D01*
X12277843Y-12682922D02*
X12287367Y-12673398D01*
X12287367Y-12673398D02*
X12306415Y-12663874D01*
X12306415Y-12663874D02*
X12354034Y-12663874D01*
X12354034Y-12663874D02*
X12373082Y-12673398D01*
X12373082Y-12673398D02*
X12382605Y-12682922D01*
X12382605Y-12682922D02*
X12392129Y-12701969D01*
X12392129Y-12701969D02*
X12392129Y-12749588D01*
X12392129Y-12749588D02*
X12382605Y-12768636D01*
X12382605Y-12768636D02*
X12373082Y-12778160D01*
X12373082Y-12778160D02*
X12354034Y-12787684D01*
X12354034Y-12787684D02*
X12306415Y-12787684D01*
X12306415Y-12787684D02*
X12287367Y-12778160D01*
X12287367Y-12778160D02*
X12277843Y-12768636D01*
X12515939Y-12587684D02*
X12534986Y-12587684D01*
X12534986Y-12587684D02*
X12554034Y-12597208D01*
X12554034Y-12597208D02*
X12563558Y-12606731D01*
X12563558Y-12606731D02*
X12573082Y-12625779D01*
X12573082Y-12625779D02*
X12582605Y-12663874D01*
X12582605Y-12663874D02*
X12582605Y-12711493D01*
X12582605Y-12711493D02*
X12573082Y-12749588D01*
X12573082Y-12749588D02*
X12563558Y-12768636D01*
X12563558Y-12768636D02*
X12554034Y-12778160D01*
X12554034Y-12778160D02*
X12534986Y-12787684D01*
X12534986Y-12787684D02*
X12515939Y-12787684D01*
X12515939Y-12787684D02*
X12496891Y-12778160D01*
X12496891Y-12778160D02*
X12487367Y-12768636D01*
X12487367Y-12768636D02*
X12477843Y-12749588D01*
X12477843Y-12749588D02*
X12468320Y-12711493D01*
X12468320Y-12711493D02*
X12468320Y-12663874D01*
X12468320Y-12663874D02*
X12477843Y-12625779D01*
X12477843Y-12625779D02*
X12487367Y-12606731D01*
X12487367Y-12606731D02*
X12496891Y-12597208D01*
X12496891Y-12597208D02*
X12515939Y-12587684D01*
X12668320Y-12787684D02*
X12668320Y-12654350D01*
X12668320Y-12673398D02*
X12677843Y-12663874D01*
X12677843Y-12663874D02*
X12696891Y-12654350D01*
X12696891Y-12654350D02*
X12725463Y-12654350D01*
X12725463Y-12654350D02*
X12744510Y-12663874D01*
X12744510Y-12663874D02*
X12754034Y-12682922D01*
X12754034Y-12682922D02*
X12754034Y-12787684D01*
X12754034Y-12682922D02*
X12763558Y-12663874D01*
X12763558Y-12663874D02*
X12782605Y-12654350D01*
X12782605Y-12654350D02*
X12811177Y-12654350D01*
X12811177Y-12654350D02*
X12830224Y-12663874D01*
X12830224Y-12663874D02*
X12839748Y-12682922D01*
X12839748Y-12682922D02*
X12839748Y-12787684D01*
X12934986Y-12787684D02*
X12934986Y-12654350D01*
X12934986Y-12673398D02*
X12944510Y-12663874D01*
X12944510Y-12663874D02*
X12963558Y-12654350D01*
X12963558Y-12654350D02*
X12992129Y-12654350D01*
X12992129Y-12654350D02*
X13011177Y-12663874D01*
X13011177Y-12663874D02*
X13020701Y-12682922D01*
X13020701Y-12682922D02*
X13020701Y-12787684D01*
X13020701Y-12682922D02*
X13030224Y-12663874D01*
X13030224Y-12663874D02*
X13049272Y-12654350D01*
X13049272Y-12654350D02*
X13077843Y-12654350D01*
X13077843Y-12654350D02*
X13096891Y-12663874D01*
X13096891Y-12663874D02*
X13106415Y-12682922D01*
X13106415Y-12682922D02*
X13106415Y-12787684D01*
X13496891Y-12578160D02*
X13325463Y-12835303D01*
X13754034Y-12587684D02*
X13773082Y-12587684D01*
X13773082Y-12587684D02*
X13792129Y-12597208D01*
X13792129Y-12597208D02*
X13801653Y-12606731D01*
X13801653Y-12606731D02*
X13811177Y-12625779D01*
X13811177Y-12625779D02*
X13820701Y-12663874D01*
X13820701Y-12663874D02*
X13820701Y-12711493D01*
X13820701Y-12711493D02*
X13811177Y-12749588D01*
X13811177Y-12749588D02*
X13801653Y-12768636D01*
X13801653Y-12768636D02*
X13792129Y-12778160D01*
X13792129Y-12778160D02*
X13773082Y-12787684D01*
X13773082Y-12787684D02*
X13754034Y-12787684D01*
X13754034Y-12787684D02*
X13734986Y-12778160D01*
X13734986Y-12778160D02*
X13725463Y-12768636D01*
X13725463Y-12768636D02*
X13715939Y-12749588D01*
X13715939Y-12749588D02*
X13706415Y-12711493D01*
X13706415Y-12711493D02*
X13706415Y-12663874D01*
X13706415Y-12663874D02*
X13715939Y-12625779D01*
X13715939Y-12625779D02*
X13725463Y-12606731D01*
X13725463Y-12606731D02*
X13734986Y-12597208D01*
X13734986Y-12597208D02*
X13754034Y-12587684D01*
X13906415Y-12768636D02*
X13915939Y-12778160D01*
X13915939Y-12778160D02*
X13906415Y-12787684D01*
X13906415Y-12787684D02*
X13896891Y-12778160D01*
X13896891Y-12778160D02*
X13906415Y-12768636D01*
X13906415Y-12768636D02*
X13906415Y-12787684D01*
X14039748Y-12587684D02*
X14058796Y-12587684D01*
X14058796Y-12587684D02*
X14077844Y-12597208D01*
X14077844Y-12597208D02*
X14087367Y-12606731D01*
X14087367Y-12606731D02*
X14096891Y-12625779D01*
X14096891Y-12625779D02*
X14106415Y-12663874D01*
X14106415Y-12663874D02*
X14106415Y-12711493D01*
X14106415Y-12711493D02*
X14096891Y-12749588D01*
X14096891Y-12749588D02*
X14087367Y-12768636D01*
X14087367Y-12768636D02*
X14077844Y-12778160D01*
X14077844Y-12778160D02*
X14058796Y-12787684D01*
X14058796Y-12787684D02*
X14039748Y-12787684D01*
X14039748Y-12787684D02*
X14020701Y-12778160D01*
X14020701Y-12778160D02*
X14011177Y-12768636D01*
X14011177Y-12768636D02*
X14001653Y-12749588D01*
X14001653Y-12749588D02*
X13992129Y-12711493D01*
X13992129Y-12711493D02*
X13992129Y-12663874D01*
X13992129Y-12663874D02*
X14001653Y-12625779D01*
X14001653Y-12625779D02*
X14011177Y-12606731D01*
X14011177Y-12606731D02*
X14020701Y-12597208D01*
X14020701Y-12597208D02*
X14039748Y-12587684D01*
X14182606Y-12606731D02*
X14192129Y-12597208D01*
X14192129Y-12597208D02*
X14211177Y-12587684D01*
X14211177Y-12587684D02*
X14258796Y-12587684D01*
X14258796Y-12587684D02*
X14277844Y-12597208D01*
X14277844Y-12597208D02*
X14287367Y-12606731D01*
X14287367Y-12606731D02*
X14296891Y-12625779D01*
X14296891Y-12625779D02*
X14296891Y-12644827D01*
X14296891Y-12644827D02*
X14287367Y-12673398D01*
X14287367Y-12673398D02*
X14173082Y-12787684D01*
X14173082Y-12787684D02*
X14296891Y-12787684D01*
X14392129Y-12787684D02*
X14430225Y-12787684D01*
X14430225Y-12787684D02*
X14449272Y-12778160D01*
X14449272Y-12778160D02*
X14458796Y-12768636D01*
X14458796Y-12768636D02*
X14477844Y-12740065D01*
X14477844Y-12740065D02*
X14487367Y-12701969D01*
X14487367Y-12701969D02*
X14487367Y-12625779D01*
X14487367Y-12625779D02*
X14477844Y-12606731D01*
X14477844Y-12606731D02*
X14468320Y-12597208D01*
X14468320Y-12597208D02*
X14449272Y-12587684D01*
X14449272Y-12587684D02*
X14411177Y-12587684D01*
X14411177Y-12587684D02*
X14392129Y-12597208D01*
X14392129Y-12597208D02*
X14382606Y-12606731D01*
X14382606Y-12606731D02*
X14373082Y-12625779D01*
X14373082Y-12625779D02*
X14373082Y-12673398D01*
X14373082Y-12673398D02*
X14382606Y-12692446D01*
X14382606Y-12692446D02*
X14392129Y-12701969D01*
X14392129Y-12701969D02*
X14411177Y-12711493D01*
X14411177Y-12711493D02*
X14449272Y-12711493D01*
X14449272Y-12711493D02*
X14468320Y-12701969D01*
X14468320Y-12701969D02*
X14477844Y-12692446D01*
X14477844Y-12692446D02*
X14487367Y-12673398D01*
X14668320Y-12587684D02*
X14573082Y-12587684D01*
X14573082Y-12587684D02*
X14563558Y-12682922D01*
X14563558Y-12682922D02*
X14573082Y-12673398D01*
X14573082Y-12673398D02*
X14592129Y-12663874D01*
X14592129Y-12663874D02*
X14639748Y-12663874D01*
X14639748Y-12663874D02*
X14658796Y-12673398D01*
X14658796Y-12673398D02*
X14668320Y-12682922D01*
X14668320Y-12682922D02*
X14677844Y-12701969D01*
X14677844Y-12701969D02*
X14677844Y-12749588D01*
X14677844Y-12749588D02*
X14668320Y-12768636D01*
X14668320Y-12768636D02*
X14658796Y-12778160D01*
X14658796Y-12778160D02*
X14639748Y-12787684D01*
X14639748Y-12787684D02*
X14592129Y-12787684D01*
X14592129Y-12787684D02*
X14573082Y-12778160D01*
X14573082Y-12778160D02*
X14563558Y-12768636D01*
X14754034Y-12587684D02*
X14754034Y-12625779D01*
X14830225Y-12587684D02*
X14830225Y-12625779D01*
X15125463Y-12863874D02*
X15115939Y-12854350D01*
X15115939Y-12854350D02*
X15096891Y-12825779D01*
X15096891Y-12825779D02*
X15087368Y-12806731D01*
X15087368Y-12806731D02*
X15077844Y-12778160D01*
X15077844Y-12778160D02*
X15068320Y-12730541D01*
X15068320Y-12730541D02*
X15068320Y-12692446D01*
X15068320Y-12692446D02*
X15077844Y-12644827D01*
X15077844Y-12644827D02*
X15087368Y-12616255D01*
X15087368Y-12616255D02*
X15096891Y-12597208D01*
X15096891Y-12597208D02*
X15115939Y-12568636D01*
X15115939Y-12568636D02*
X15125463Y-12559112D01*
X15182606Y-12587684D02*
X15306415Y-12587684D01*
X15306415Y-12587684D02*
X15239748Y-12663874D01*
X15239748Y-12663874D02*
X15268320Y-12663874D01*
X15268320Y-12663874D02*
X15287368Y-12673398D01*
X15287368Y-12673398D02*
X15296891Y-12682922D01*
X15296891Y-12682922D02*
X15306415Y-12701969D01*
X15306415Y-12701969D02*
X15306415Y-12749588D01*
X15306415Y-12749588D02*
X15296891Y-12768636D01*
X15296891Y-12768636D02*
X15287368Y-12778160D01*
X15287368Y-12778160D02*
X15268320Y-12787684D01*
X15268320Y-12787684D02*
X15211177Y-12787684D01*
X15211177Y-12787684D02*
X15192129Y-12778160D01*
X15192129Y-12778160D02*
X15182606Y-12768636D01*
X15544510Y-12787684D02*
X15544510Y-12587684D01*
X15630225Y-12787684D02*
X15630225Y-12682922D01*
X15630225Y-12682922D02*
X15620701Y-12663874D01*
X15620701Y-12663874D02*
X15601653Y-12654350D01*
X15601653Y-12654350D02*
X15573082Y-12654350D01*
X15573082Y-12654350D02*
X15554034Y-12663874D01*
X15554034Y-12663874D02*
X15544510Y-12673398D01*
X15754034Y-12787684D02*
X15734987Y-12778160D01*
X15734987Y-12778160D02*
X15725463Y-12768636D01*
X15725463Y-12768636D02*
X15715939Y-12749588D01*
X15715939Y-12749588D02*
X15715939Y-12692446D01*
X15715939Y-12692446D02*
X15725463Y-12673398D01*
X15725463Y-12673398D02*
X15734987Y-12663874D01*
X15734987Y-12663874D02*
X15754034Y-12654350D01*
X15754034Y-12654350D02*
X15782606Y-12654350D01*
X15782606Y-12654350D02*
X15801653Y-12663874D01*
X15801653Y-12663874D02*
X15811177Y-12673398D01*
X15811177Y-12673398D02*
X15820701Y-12692446D01*
X15820701Y-12692446D02*
X15820701Y-12749588D01*
X15820701Y-12749588D02*
X15811177Y-12768636D01*
X15811177Y-12768636D02*
X15801653Y-12778160D01*
X15801653Y-12778160D02*
X15782606Y-12787684D01*
X15782606Y-12787684D02*
X15754034Y-12787684D01*
X15934987Y-12787684D02*
X15915939Y-12778160D01*
X15915939Y-12778160D02*
X15906415Y-12759112D01*
X15906415Y-12759112D02*
X15906415Y-12587684D01*
X16087368Y-12778160D02*
X16068320Y-12787684D01*
X16068320Y-12787684D02*
X16030225Y-12787684D01*
X16030225Y-12787684D02*
X16011177Y-12778160D01*
X16011177Y-12778160D02*
X16001653Y-12759112D01*
X16001653Y-12759112D02*
X16001653Y-12682922D01*
X16001653Y-12682922D02*
X16011177Y-12663874D01*
X16011177Y-12663874D02*
X16030225Y-12654350D01*
X16030225Y-12654350D02*
X16068320Y-12654350D01*
X16068320Y-12654350D02*
X16087368Y-12663874D01*
X16087368Y-12663874D02*
X16096891Y-12682922D01*
X16096891Y-12682922D02*
X16096891Y-12701969D01*
X16096891Y-12701969D02*
X16001653Y-12721017D01*
X16173082Y-12778160D02*
X16192130Y-12787684D01*
X16192130Y-12787684D02*
X16230225Y-12787684D01*
X16230225Y-12787684D02*
X16249272Y-12778160D01*
X16249272Y-12778160D02*
X16258796Y-12759112D01*
X16258796Y-12759112D02*
X16258796Y-12749588D01*
X16258796Y-12749588D02*
X16249272Y-12730541D01*
X16249272Y-12730541D02*
X16230225Y-12721017D01*
X16230225Y-12721017D02*
X16201653Y-12721017D01*
X16201653Y-12721017D02*
X16182606Y-12711493D01*
X16182606Y-12711493D02*
X16173082Y-12692446D01*
X16173082Y-12692446D02*
X16173082Y-12682922D01*
X16173082Y-12682922D02*
X16182606Y-12663874D01*
X16182606Y-12663874D02*
X16201653Y-12654350D01*
X16201653Y-12654350D02*
X16230225Y-12654350D01*
X16230225Y-12654350D02*
X16249272Y-12663874D01*
X16325463Y-12863874D02*
X16334987Y-12854350D01*
X16334987Y-12854350D02*
X16354034Y-12825779D01*
X16354034Y-12825779D02*
X16363558Y-12806731D01*
X16363558Y-12806731D02*
X16373082Y-12778160D01*
X16373082Y-12778160D02*
X16382606Y-12730541D01*
X16382606Y-12730541D02*
X16382606Y-12692446D01*
X16382606Y-12692446D02*
X16373082Y-12644827D01*
X16373082Y-12644827D02*
X16363558Y-12616255D01*
X16363558Y-12616255D02*
X16354034Y-12597208D01*
X16354034Y-12597208D02*
X16334987Y-12568636D01*
X16334987Y-12568636D02*
X16325463Y-12559112D01*
D10*
X11505400Y-12915200D02*
X11505400Y-13005200D01*
X11460400Y-12960200D02*
X11550400Y-12960200D01*
D11*
X11849272Y-12851684D02*
X11868320Y-12851684D01*
X11868320Y-12851684D02*
X11887367Y-12861208D01*
X11887367Y-12861208D02*
X11896891Y-12870731D01*
X11896891Y-12870731D02*
X11906415Y-12889779D01*
X11906415Y-12889779D02*
X11915939Y-12927874D01*
X11915939Y-12927874D02*
X11915939Y-12975493D01*
X11915939Y-12975493D02*
X11906415Y-13013588D01*
X11906415Y-13013588D02*
X11896891Y-13032636D01*
X11896891Y-13032636D02*
X11887367Y-13042160D01*
X11887367Y-13042160D02*
X11868320Y-13051684D01*
X11868320Y-13051684D02*
X11849272Y-13051684D01*
X11849272Y-13051684D02*
X11830224Y-13042160D01*
X11830224Y-13042160D02*
X11820701Y-13032636D01*
X11820701Y-13032636D02*
X11811177Y-13013588D01*
X11811177Y-13013588D02*
X11801653Y-12975493D01*
X11801653Y-12975493D02*
X11801653Y-12927874D01*
X11801653Y-12927874D02*
X11811177Y-12889779D01*
X11811177Y-12889779D02*
X11820701Y-12870731D01*
X11820701Y-12870731D02*
X11830224Y-12861208D01*
X11830224Y-12861208D02*
X11849272Y-12851684D01*
X12001653Y-13032636D02*
X12011177Y-13042160D01*
X12011177Y-13042160D02*
X12001653Y-13051684D01*
X12001653Y-13051684D02*
X11992129Y-13042160D01*
X11992129Y-13042160D02*
X12001653Y-13032636D01*
X12001653Y-13032636D02*
X12001653Y-13051684D01*
X12106415Y-13051684D02*
X12144510Y-13051684D01*
X12144510Y-13051684D02*
X12163558Y-13042160D01*
X12163558Y-13042160D02*
X12173082Y-13032636D01*
X12173082Y-13032636D02*
X12192129Y-13004065D01*
X12192129Y-13004065D02*
X12201653Y-12965969D01*
X12201653Y-12965969D02*
X12201653Y-12889779D01*
X12201653Y-12889779D02*
X12192129Y-12870731D01*
X12192129Y-12870731D02*
X12182605Y-12861208D01*
X12182605Y-12861208D02*
X12163558Y-12851684D01*
X12163558Y-12851684D02*
X12125462Y-12851684D01*
X12125462Y-12851684D02*
X12106415Y-12861208D01*
X12106415Y-12861208D02*
X12096891Y-12870731D01*
X12096891Y-12870731D02*
X12087367Y-12889779D01*
X12087367Y-12889779D02*
X12087367Y-12937398D01*
X12087367Y-12937398D02*
X12096891Y-12956446D01*
X12096891Y-12956446D02*
X12106415Y-12965969D01*
X12106415Y-12965969D02*
X12125462Y-12975493D01*
X12125462Y-12975493D02*
X12163558Y-12975493D01*
X12163558Y-12975493D02*
X12182605Y-12965969D01*
X12182605Y-12965969D02*
X12192129Y-12956446D01*
X12192129Y-12956446D02*
X12201653Y-12937398D01*
X12325462Y-12851684D02*
X12344510Y-12851684D01*
X12344510Y-12851684D02*
X12363558Y-12861208D01*
X12363558Y-12861208D02*
X12373082Y-12870731D01*
X12373082Y-12870731D02*
X12382605Y-12889779D01*
X12382605Y-12889779D02*
X12392129Y-12927874D01*
X12392129Y-12927874D02*
X12392129Y-12975493D01*
X12392129Y-12975493D02*
X12382605Y-13013588D01*
X12382605Y-13013588D02*
X12373082Y-13032636D01*
X12373082Y-13032636D02*
X12363558Y-13042160D01*
X12363558Y-13042160D02*
X12344510Y-13051684D01*
X12344510Y-13051684D02*
X12325462Y-13051684D01*
X12325462Y-13051684D02*
X12306415Y-13042160D01*
X12306415Y-13042160D02*
X12296891Y-13032636D01*
X12296891Y-13032636D02*
X12287367Y-13013588D01*
X12287367Y-13013588D02*
X12277843Y-12975493D01*
X12277843Y-12975493D02*
X12277843Y-12927874D01*
X12277843Y-12927874D02*
X12287367Y-12889779D01*
X12287367Y-12889779D02*
X12296891Y-12870731D01*
X12296891Y-12870731D02*
X12306415Y-12861208D01*
X12306415Y-12861208D02*
X12325462Y-12851684D01*
X12515939Y-12851684D02*
X12534986Y-12851684D01*
X12534986Y-12851684D02*
X12554034Y-12861208D01*
X12554034Y-12861208D02*
X12563558Y-12870731D01*
X12563558Y-12870731D02*
X12573082Y-12889779D01*
X12573082Y-12889779D02*
X12582605Y-12927874D01*
X12582605Y-12927874D02*
X12582605Y-12975493D01*
X12582605Y-12975493D02*
X12573082Y-13013588D01*
X12573082Y-13013588D02*
X12563558Y-13032636D01*
X12563558Y-13032636D02*
X12554034Y-13042160D01*
X12554034Y-13042160D02*
X12534986Y-13051684D01*
X12534986Y-13051684D02*
X12515939Y-13051684D01*
X12515939Y-13051684D02*
X12496891Y-13042160D01*
X12496891Y-13042160D02*
X12487367Y-13032636D01*
X12487367Y-13032636D02*
X12477843Y-13013588D01*
X12477843Y-13013588D02*
X12468320Y-12975493D01*
X12468320Y-12975493D02*
X12468320Y-12927874D01*
X12468320Y-12927874D02*
X12477843Y-12889779D01*
X12477843Y-12889779D02*
X12487367Y-12870731D01*
X12487367Y-12870731D02*
X12496891Y-12861208D01*
X12496891Y-12861208D02*
X12515939Y-12851684D01*
X12668320Y-13051684D02*
X12668320Y-12918350D01*
X12668320Y-12937398D02*
X12677843Y-12927874D01*
X12677843Y-12927874D02*
X12696891Y-12918350D01*
X12696891Y-12918350D02*
X12725463Y-12918350D01*
X12725463Y-12918350D02*
X12744510Y-12927874D01*
X12744510Y-12927874D02*
X12754034Y-12946922D01*
X12754034Y-12946922D02*
X12754034Y-13051684D01*
X12754034Y-12946922D02*
X12763558Y-12927874D01*
X12763558Y-12927874D02*
X12782605Y-12918350D01*
X12782605Y-12918350D02*
X12811177Y-12918350D01*
X12811177Y-12918350D02*
X12830224Y-12927874D01*
X12830224Y-12927874D02*
X12839748Y-12946922D01*
X12839748Y-12946922D02*
X12839748Y-13051684D01*
X12934986Y-13051684D02*
X12934986Y-12918350D01*
X12934986Y-12937398D02*
X12944510Y-12927874D01*
X12944510Y-12927874D02*
X12963558Y-12918350D01*
X12963558Y-12918350D02*
X12992129Y-12918350D01*
X12992129Y-12918350D02*
X13011177Y-12927874D01*
X13011177Y-12927874D02*
X13020701Y-12946922D01*
X13020701Y-12946922D02*
X13020701Y-13051684D01*
X13020701Y-12946922D02*
X13030224Y-12927874D01*
X13030224Y-12927874D02*
X13049272Y-12918350D01*
X13049272Y-12918350D02*
X13077843Y-12918350D01*
X13077843Y-12918350D02*
X13096891Y-12927874D01*
X13096891Y-12927874D02*
X13106415Y-12946922D01*
X13106415Y-12946922D02*
X13106415Y-13051684D01*
X13496891Y-12842160D02*
X13325463Y-13099303D01*
X13754034Y-12851684D02*
X13773082Y-12851684D01*
X13773082Y-12851684D02*
X13792129Y-12861208D01*
X13792129Y-12861208D02*
X13801653Y-12870731D01*
X13801653Y-12870731D02*
X13811177Y-12889779D01*
X13811177Y-12889779D02*
X13820701Y-12927874D01*
X13820701Y-12927874D02*
X13820701Y-12975493D01*
X13820701Y-12975493D02*
X13811177Y-13013588D01*
X13811177Y-13013588D02*
X13801653Y-13032636D01*
X13801653Y-13032636D02*
X13792129Y-13042160D01*
X13792129Y-13042160D02*
X13773082Y-13051684D01*
X13773082Y-13051684D02*
X13754034Y-13051684D01*
X13754034Y-13051684D02*
X13734986Y-13042160D01*
X13734986Y-13042160D02*
X13725463Y-13032636D01*
X13725463Y-13032636D02*
X13715939Y-13013588D01*
X13715939Y-13013588D02*
X13706415Y-12975493D01*
X13706415Y-12975493D02*
X13706415Y-12927874D01*
X13706415Y-12927874D02*
X13715939Y-12889779D01*
X13715939Y-12889779D02*
X13725463Y-12870731D01*
X13725463Y-12870731D02*
X13734986Y-12861208D01*
X13734986Y-12861208D02*
X13754034Y-12851684D01*
X13906415Y-13032636D02*
X13915939Y-13042160D01*
X13915939Y-13042160D02*
X13906415Y-13051684D01*
X13906415Y-13051684D02*
X13896891Y-13042160D01*
X13896891Y-13042160D02*
X13906415Y-13032636D01*
X13906415Y-13032636D02*
X13906415Y-13051684D01*
X14039748Y-12851684D02*
X14058796Y-12851684D01*
X14058796Y-12851684D02*
X14077844Y-12861208D01*
X14077844Y-12861208D02*
X14087367Y-12870731D01*
X14087367Y-12870731D02*
X14096891Y-12889779D01*
X14096891Y-12889779D02*
X14106415Y-12927874D01*
X14106415Y-12927874D02*
X14106415Y-12975493D01*
X14106415Y-12975493D02*
X14096891Y-13013588D01*
X14096891Y-13013588D02*
X14087367Y-13032636D01*
X14087367Y-13032636D02*
X14077844Y-13042160D01*
X14077844Y-13042160D02*
X14058796Y-13051684D01*
X14058796Y-13051684D02*
X14039748Y-13051684D01*
X14039748Y-13051684D02*
X14020701Y-13042160D01*
X14020701Y-13042160D02*
X14011177Y-13032636D01*
X14011177Y-13032636D02*
X14001653Y-13013588D01*
X14001653Y-13013588D02*
X13992129Y-12975493D01*
X13992129Y-12975493D02*
X13992129Y-12927874D01*
X13992129Y-12927874D02*
X14001653Y-12889779D01*
X14001653Y-12889779D02*
X14011177Y-12870731D01*
X14011177Y-12870731D02*
X14020701Y-12861208D01*
X14020701Y-12861208D02*
X14039748Y-12851684D01*
X14173082Y-12851684D02*
X14296891Y-12851684D01*
X14296891Y-12851684D02*
X14230225Y-12927874D01*
X14230225Y-12927874D02*
X14258796Y-12927874D01*
X14258796Y-12927874D02*
X14277844Y-12937398D01*
X14277844Y-12937398D02*
X14287367Y-12946922D01*
X14287367Y-12946922D02*
X14296891Y-12965969D01*
X14296891Y-12965969D02*
X14296891Y-13013588D01*
X14296891Y-13013588D02*
X14287367Y-13032636D01*
X14287367Y-13032636D02*
X14277844Y-13042160D01*
X14277844Y-13042160D02*
X14258796Y-13051684D01*
X14258796Y-13051684D02*
X14201653Y-13051684D01*
X14201653Y-13051684D02*
X14182606Y-13042160D01*
X14182606Y-13042160D02*
X14173082Y-13032636D01*
X14477844Y-12851684D02*
X14382606Y-12851684D01*
X14382606Y-12851684D02*
X14373082Y-12946922D01*
X14373082Y-12946922D02*
X14382606Y-12937398D01*
X14382606Y-12937398D02*
X14401653Y-12927874D01*
X14401653Y-12927874D02*
X14449272Y-12927874D01*
X14449272Y-12927874D02*
X14468320Y-12937398D01*
X14468320Y-12937398D02*
X14477844Y-12946922D01*
X14477844Y-12946922D02*
X14487367Y-12965969D01*
X14487367Y-12965969D02*
X14487367Y-13013588D01*
X14487367Y-13013588D02*
X14477844Y-13032636D01*
X14477844Y-13032636D02*
X14468320Y-13042160D01*
X14468320Y-13042160D02*
X14449272Y-13051684D01*
X14449272Y-13051684D02*
X14401653Y-13051684D01*
X14401653Y-13051684D02*
X14382606Y-13042160D01*
X14382606Y-13042160D02*
X14373082Y-13032636D01*
X14658796Y-12918350D02*
X14658796Y-13051684D01*
X14611177Y-12842160D02*
X14563558Y-12985017D01*
X14563558Y-12985017D02*
X14687367Y-12985017D01*
X14754034Y-12851684D02*
X14754034Y-12889779D01*
X14830225Y-12851684D02*
X14830225Y-12889779D01*
X15125463Y-13127874D02*
X15115939Y-13118350D01*
X15115939Y-13118350D02*
X15096891Y-13089779D01*
X15096891Y-13089779D02*
X15087368Y-13070731D01*
X15087368Y-13070731D02*
X15077844Y-13042160D01*
X15077844Y-13042160D02*
X15068320Y-12994541D01*
X15068320Y-12994541D02*
X15068320Y-12956446D01*
X15068320Y-12956446D02*
X15077844Y-12908827D01*
X15077844Y-12908827D02*
X15087368Y-12880255D01*
X15087368Y-12880255D02*
X15096891Y-12861208D01*
X15096891Y-12861208D02*
X15115939Y-12832636D01*
X15115939Y-12832636D02*
X15125463Y-12823112D01*
X15306415Y-13051684D02*
X15192129Y-13051684D01*
X15249272Y-13051684D02*
X15249272Y-12851684D01*
X15249272Y-12851684D02*
X15230225Y-12880255D01*
X15230225Y-12880255D02*
X15211177Y-12899303D01*
X15211177Y-12899303D02*
X15192129Y-12908827D01*
X15430225Y-12851684D02*
X15449272Y-12851684D01*
X15449272Y-12851684D02*
X15468320Y-12861208D01*
X15468320Y-12861208D02*
X15477844Y-12870731D01*
X15477844Y-12870731D02*
X15487368Y-12889779D01*
X15487368Y-12889779D02*
X15496891Y-12927874D01*
X15496891Y-12927874D02*
X15496891Y-12975493D01*
X15496891Y-12975493D02*
X15487368Y-13013588D01*
X15487368Y-13013588D02*
X15477844Y-13032636D01*
X15477844Y-13032636D02*
X15468320Y-13042160D01*
X15468320Y-13042160D02*
X15449272Y-13051684D01*
X15449272Y-13051684D02*
X15430225Y-13051684D01*
X15430225Y-13051684D02*
X15411177Y-13042160D01*
X15411177Y-13042160D02*
X15401653Y-13032636D01*
X15401653Y-13032636D02*
X15392129Y-13013588D01*
X15392129Y-13013588D02*
X15382606Y-12975493D01*
X15382606Y-12975493D02*
X15382606Y-12927874D01*
X15382606Y-12927874D02*
X15392129Y-12889779D01*
X15392129Y-12889779D02*
X15401653Y-12870731D01*
X15401653Y-12870731D02*
X15411177Y-12861208D01*
X15411177Y-12861208D02*
X15430225Y-12851684D01*
X15734987Y-13051684D02*
X15734987Y-12851684D01*
X15820701Y-13051684D02*
X15820701Y-12946922D01*
X15820701Y-12946922D02*
X15811177Y-12927874D01*
X15811177Y-12927874D02*
X15792130Y-12918350D01*
X15792130Y-12918350D02*
X15763558Y-12918350D01*
X15763558Y-12918350D02*
X15744510Y-12927874D01*
X15744510Y-12927874D02*
X15734987Y-12937398D01*
X15944510Y-13051684D02*
X15925463Y-13042160D01*
X15925463Y-13042160D02*
X15915939Y-13032636D01*
X15915939Y-13032636D02*
X15906415Y-13013588D01*
X15906415Y-13013588D02*
X15906415Y-12956446D01*
X15906415Y-12956446D02*
X15915939Y-12937398D01*
X15915939Y-12937398D02*
X15925463Y-12927874D01*
X15925463Y-12927874D02*
X15944510Y-12918350D01*
X15944510Y-12918350D02*
X15973082Y-12918350D01*
X15973082Y-12918350D02*
X15992130Y-12927874D01*
X15992130Y-12927874D02*
X16001653Y-12937398D01*
X16001653Y-12937398D02*
X16011177Y-12956446D01*
X16011177Y-12956446D02*
X16011177Y-13013588D01*
X16011177Y-13013588D02*
X16001653Y-13032636D01*
X16001653Y-13032636D02*
X15992130Y-13042160D01*
X15992130Y-13042160D02*
X15973082Y-13051684D01*
X15973082Y-13051684D02*
X15944510Y-13051684D01*
X16125463Y-13051684D02*
X16106415Y-13042160D01*
X16106415Y-13042160D02*
X16096891Y-13023112D01*
X16096891Y-13023112D02*
X16096891Y-12851684D01*
X16277844Y-13042160D02*
X16258796Y-13051684D01*
X16258796Y-13051684D02*
X16220701Y-13051684D01*
X16220701Y-13051684D02*
X16201653Y-13042160D01*
X16201653Y-13042160D02*
X16192130Y-13023112D01*
X16192130Y-13023112D02*
X16192130Y-12946922D01*
X16192130Y-12946922D02*
X16201653Y-12927874D01*
X16201653Y-12927874D02*
X16220701Y-12918350D01*
X16220701Y-12918350D02*
X16258796Y-12918350D01*
X16258796Y-12918350D02*
X16277844Y-12927874D01*
X16277844Y-12927874D02*
X16287368Y-12946922D01*
X16287368Y-12946922D02*
X16287368Y-12965969D01*
X16287368Y-12965969D02*
X16192130Y-12985017D01*
X16363558Y-13042160D02*
X16382606Y-13051684D01*
X16382606Y-13051684D02*
X16420701Y-13051684D01*
X16420701Y-13051684D02*
X16439749Y-13042160D01*
X16439749Y-13042160D02*
X16449272Y-13023112D01*
X16449272Y-13023112D02*
X16449272Y-13013588D01*
X16449272Y-13013588D02*
X16439749Y-12994541D01*
X16439749Y-12994541D02*
X16420701Y-12985017D01*
X16420701Y-12985017D02*
X16392130Y-12985017D01*
X16392130Y-12985017D02*
X16373082Y-12975493D01*
X16373082Y-12975493D02*
X16363558Y-12956446D01*
X16363558Y-12956446D02*
X16363558Y-12946922D01*
X16363558Y-12946922D02*
X16373082Y-12927874D01*
X16373082Y-12927874D02*
X16392130Y-12918350D01*
X16392130Y-12918350D02*
X16420701Y-12918350D01*
X16420701Y-12918350D02*
X16439749Y-12927874D01*
X16515939Y-13127874D02*
X16525463Y-13118350D01*
X16525463Y-13118350D02*
X16544511Y-13089779D01*
X16544511Y-13089779D02*
X16554034Y-13070731D01*
X16554034Y-13070731D02*
X16563558Y-13042160D01*
X16563558Y-13042160D02*
X16573082Y-12994541D01*
X16573082Y-12994541D02*
X16573082Y-12956446D01*
X16573082Y-12956446D02*
X16563558Y-12908827D01*
X16563558Y-12908827D02*
X16554034Y-12880255D01*
X16554034Y-12880255D02*
X16544511Y-12861208D01*
X16544511Y-12861208D02*
X16525463Y-12832636D01*
X16525463Y-12832636D02*
X16515939Y-12823112D01*
D10*
X11535756Y-13259556D02*
X11535756Y-13188844D01*
X11465044Y-13188844D01*
X11465044Y-13259556D01*
X11535756Y-13259556D01*
D11*
X11915939Y-13315684D02*
X11801653Y-13315684D01*
X11858796Y-13315684D02*
X11858796Y-13115684D01*
X11858796Y-13115684D02*
X11839748Y-13144255D01*
X11839748Y-13144255D02*
X11820701Y-13163303D01*
X11820701Y-13163303D02*
X11801653Y-13172827D01*
X12001653Y-13296636D02*
X12011177Y-13306160D01*
X12011177Y-13306160D02*
X12001653Y-13315684D01*
X12001653Y-13315684D02*
X11992129Y-13306160D01*
X11992129Y-13306160D02*
X12001653Y-13296636D01*
X12001653Y-13296636D02*
X12001653Y-13315684D01*
X12134986Y-13115684D02*
X12154034Y-13115684D01*
X12154034Y-13115684D02*
X12173082Y-13125208D01*
X12173082Y-13125208D02*
X12182605Y-13134731D01*
X12182605Y-13134731D02*
X12192129Y-13153779D01*
X12192129Y-13153779D02*
X12201653Y-13191874D01*
X12201653Y-13191874D02*
X12201653Y-13239493D01*
X12201653Y-13239493D02*
X12192129Y-13277588D01*
X12192129Y-13277588D02*
X12182605Y-13296636D01*
X12182605Y-13296636D02*
X12173082Y-13306160D01*
X12173082Y-13306160D02*
X12154034Y-13315684D01*
X12154034Y-13315684D02*
X12134986Y-13315684D01*
X12134986Y-13315684D02*
X12115939Y-13306160D01*
X12115939Y-13306160D02*
X12106415Y-13296636D01*
X12106415Y-13296636D02*
X12096891Y-13277588D01*
X12096891Y-13277588D02*
X12087367Y-13239493D01*
X12087367Y-13239493D02*
X12087367Y-13191874D01*
X12087367Y-13191874D02*
X12096891Y-13153779D01*
X12096891Y-13153779D02*
X12106415Y-13134731D01*
X12106415Y-13134731D02*
X12115939Y-13125208D01*
X12115939Y-13125208D02*
X12134986Y-13115684D01*
X12325462Y-13115684D02*
X12344510Y-13115684D01*
X12344510Y-13115684D02*
X12363558Y-13125208D01*
X12363558Y-13125208D02*
X12373082Y-13134731D01*
X12373082Y-13134731D02*
X12382605Y-13153779D01*
X12382605Y-13153779D02*
X12392129Y-13191874D01*
X12392129Y-13191874D02*
X12392129Y-13239493D01*
X12392129Y-13239493D02*
X12382605Y-13277588D01*
X12382605Y-13277588D02*
X12373082Y-13296636D01*
X12373082Y-13296636D02*
X12363558Y-13306160D01*
X12363558Y-13306160D02*
X12344510Y-13315684D01*
X12344510Y-13315684D02*
X12325462Y-13315684D01*
X12325462Y-13315684D02*
X12306415Y-13306160D01*
X12306415Y-13306160D02*
X12296891Y-13296636D01*
X12296891Y-13296636D02*
X12287367Y-13277588D01*
X12287367Y-13277588D02*
X12277843Y-13239493D01*
X12277843Y-13239493D02*
X12277843Y-13191874D01*
X12277843Y-13191874D02*
X12287367Y-13153779D01*
X12287367Y-13153779D02*
X12296891Y-13134731D01*
X12296891Y-13134731D02*
X12306415Y-13125208D01*
X12306415Y-13125208D02*
X12325462Y-13115684D01*
X12515939Y-13115684D02*
X12534986Y-13115684D01*
X12534986Y-13115684D02*
X12554034Y-13125208D01*
X12554034Y-13125208D02*
X12563558Y-13134731D01*
X12563558Y-13134731D02*
X12573082Y-13153779D01*
X12573082Y-13153779D02*
X12582605Y-13191874D01*
X12582605Y-13191874D02*
X12582605Y-13239493D01*
X12582605Y-13239493D02*
X12573082Y-13277588D01*
X12573082Y-13277588D02*
X12563558Y-13296636D01*
X12563558Y-13296636D02*
X12554034Y-13306160D01*
X12554034Y-13306160D02*
X12534986Y-13315684D01*
X12534986Y-13315684D02*
X12515939Y-13315684D01*
X12515939Y-13315684D02*
X12496891Y-13306160D01*
X12496891Y-13306160D02*
X12487367Y-13296636D01*
X12487367Y-13296636D02*
X12477843Y-13277588D01*
X12477843Y-13277588D02*
X12468320Y-13239493D01*
X12468320Y-13239493D02*
X12468320Y-13191874D01*
X12468320Y-13191874D02*
X12477843Y-13153779D01*
X12477843Y-13153779D02*
X12487367Y-13134731D01*
X12487367Y-13134731D02*
X12496891Y-13125208D01*
X12496891Y-13125208D02*
X12515939Y-13115684D01*
X12668320Y-13315684D02*
X12668320Y-13182350D01*
X12668320Y-13201398D02*
X12677843Y-13191874D01*
X12677843Y-13191874D02*
X12696891Y-13182350D01*
X12696891Y-13182350D02*
X12725463Y-13182350D01*
X12725463Y-13182350D02*
X12744510Y-13191874D01*
X12744510Y-13191874D02*
X12754034Y-13210922D01*
X12754034Y-13210922D02*
X12754034Y-13315684D01*
X12754034Y-13210922D02*
X12763558Y-13191874D01*
X12763558Y-13191874D02*
X12782605Y-13182350D01*
X12782605Y-13182350D02*
X12811177Y-13182350D01*
X12811177Y-13182350D02*
X12830224Y-13191874D01*
X12830224Y-13191874D02*
X12839748Y-13210922D01*
X12839748Y-13210922D02*
X12839748Y-13315684D01*
X12934986Y-13315684D02*
X12934986Y-13182350D01*
X12934986Y-13201398D02*
X12944510Y-13191874D01*
X12944510Y-13191874D02*
X12963558Y-13182350D01*
X12963558Y-13182350D02*
X12992129Y-13182350D01*
X12992129Y-13182350D02*
X13011177Y-13191874D01*
X13011177Y-13191874D02*
X13020701Y-13210922D01*
X13020701Y-13210922D02*
X13020701Y-13315684D01*
X13020701Y-13210922D02*
X13030224Y-13191874D01*
X13030224Y-13191874D02*
X13049272Y-13182350D01*
X13049272Y-13182350D02*
X13077843Y-13182350D01*
X13077843Y-13182350D02*
X13096891Y-13191874D01*
X13096891Y-13191874D02*
X13106415Y-13210922D01*
X13106415Y-13210922D02*
X13106415Y-13315684D01*
X13496891Y-13106160D02*
X13325463Y-13363303D01*
X13754034Y-13115684D02*
X13773082Y-13115684D01*
X13773082Y-13115684D02*
X13792129Y-13125208D01*
X13792129Y-13125208D02*
X13801653Y-13134731D01*
X13801653Y-13134731D02*
X13811177Y-13153779D01*
X13811177Y-13153779D02*
X13820701Y-13191874D01*
X13820701Y-13191874D02*
X13820701Y-13239493D01*
X13820701Y-13239493D02*
X13811177Y-13277588D01*
X13811177Y-13277588D02*
X13801653Y-13296636D01*
X13801653Y-13296636D02*
X13792129Y-13306160D01*
X13792129Y-13306160D02*
X13773082Y-13315684D01*
X13773082Y-13315684D02*
X13754034Y-13315684D01*
X13754034Y-13315684D02*
X13734986Y-13306160D01*
X13734986Y-13306160D02*
X13725463Y-13296636D01*
X13725463Y-13296636D02*
X13715939Y-13277588D01*
X13715939Y-13277588D02*
X13706415Y-13239493D01*
X13706415Y-13239493D02*
X13706415Y-13191874D01*
X13706415Y-13191874D02*
X13715939Y-13153779D01*
X13715939Y-13153779D02*
X13725463Y-13134731D01*
X13725463Y-13134731D02*
X13734986Y-13125208D01*
X13734986Y-13125208D02*
X13754034Y-13115684D01*
X13906415Y-13296636D02*
X13915939Y-13306160D01*
X13915939Y-13306160D02*
X13906415Y-13315684D01*
X13906415Y-13315684D02*
X13896891Y-13306160D01*
X13896891Y-13306160D02*
X13906415Y-13296636D01*
X13906415Y-13296636D02*
X13906415Y-13315684D01*
X14039748Y-13115684D02*
X14058796Y-13115684D01*
X14058796Y-13115684D02*
X14077844Y-13125208D01*
X14077844Y-13125208D02*
X14087367Y-13134731D01*
X14087367Y-13134731D02*
X14096891Y-13153779D01*
X14096891Y-13153779D02*
X14106415Y-13191874D01*
X14106415Y-13191874D02*
X14106415Y-13239493D01*
X14106415Y-13239493D02*
X14096891Y-13277588D01*
X14096891Y-13277588D02*
X14087367Y-13296636D01*
X14087367Y-13296636D02*
X14077844Y-13306160D01*
X14077844Y-13306160D02*
X14058796Y-13315684D01*
X14058796Y-13315684D02*
X14039748Y-13315684D01*
X14039748Y-13315684D02*
X14020701Y-13306160D01*
X14020701Y-13306160D02*
X14011177Y-13296636D01*
X14011177Y-13296636D02*
X14001653Y-13277588D01*
X14001653Y-13277588D02*
X13992129Y-13239493D01*
X13992129Y-13239493D02*
X13992129Y-13191874D01*
X13992129Y-13191874D02*
X14001653Y-13153779D01*
X14001653Y-13153779D02*
X14011177Y-13134731D01*
X14011177Y-13134731D02*
X14020701Y-13125208D01*
X14020701Y-13125208D02*
X14039748Y-13115684D01*
X14173082Y-13115684D02*
X14296891Y-13115684D01*
X14296891Y-13115684D02*
X14230225Y-13191874D01*
X14230225Y-13191874D02*
X14258796Y-13191874D01*
X14258796Y-13191874D02*
X14277844Y-13201398D01*
X14277844Y-13201398D02*
X14287367Y-13210922D01*
X14287367Y-13210922D02*
X14296891Y-13229969D01*
X14296891Y-13229969D02*
X14296891Y-13277588D01*
X14296891Y-13277588D02*
X14287367Y-13296636D01*
X14287367Y-13296636D02*
X14277844Y-13306160D01*
X14277844Y-13306160D02*
X14258796Y-13315684D01*
X14258796Y-13315684D02*
X14201653Y-13315684D01*
X14201653Y-13315684D02*
X14182606Y-13306160D01*
X14182606Y-13306160D02*
X14173082Y-13296636D01*
X14392129Y-13315684D02*
X14430225Y-13315684D01*
X14430225Y-13315684D02*
X14449272Y-13306160D01*
X14449272Y-13306160D02*
X14458796Y-13296636D01*
X14458796Y-13296636D02*
X14477844Y-13268065D01*
X14477844Y-13268065D02*
X14487367Y-13229969D01*
X14487367Y-13229969D02*
X14487367Y-13153779D01*
X14487367Y-13153779D02*
X14477844Y-13134731D01*
X14477844Y-13134731D02*
X14468320Y-13125208D01*
X14468320Y-13125208D02*
X14449272Y-13115684D01*
X14449272Y-13115684D02*
X14411177Y-13115684D01*
X14411177Y-13115684D02*
X14392129Y-13125208D01*
X14392129Y-13125208D02*
X14382606Y-13134731D01*
X14382606Y-13134731D02*
X14373082Y-13153779D01*
X14373082Y-13153779D02*
X14373082Y-13201398D01*
X14373082Y-13201398D02*
X14382606Y-13220446D01*
X14382606Y-13220446D02*
X14392129Y-13229969D01*
X14392129Y-13229969D02*
X14411177Y-13239493D01*
X14411177Y-13239493D02*
X14449272Y-13239493D01*
X14449272Y-13239493D02*
X14468320Y-13229969D01*
X14468320Y-13229969D02*
X14477844Y-13220446D01*
X14477844Y-13220446D02*
X14487367Y-13201398D01*
X14658796Y-13182350D02*
X14658796Y-13315684D01*
X14611177Y-13106160D02*
X14563558Y-13249017D01*
X14563558Y-13249017D02*
X14687367Y-13249017D01*
X14754034Y-13115684D02*
X14754034Y-13153779D01*
X14830225Y-13115684D02*
X14830225Y-13153779D01*
X15125463Y-13391874D02*
X15115939Y-13382350D01*
X15115939Y-13382350D02*
X15096891Y-13353779D01*
X15096891Y-13353779D02*
X15087368Y-13334731D01*
X15087368Y-13334731D02*
X15077844Y-13306160D01*
X15077844Y-13306160D02*
X15068320Y-13258541D01*
X15068320Y-13258541D02*
X15068320Y-13220446D01*
X15068320Y-13220446D02*
X15077844Y-13172827D01*
X15077844Y-13172827D02*
X15087368Y-13144255D01*
X15087368Y-13144255D02*
X15096891Y-13125208D01*
X15096891Y-13125208D02*
X15115939Y-13096636D01*
X15115939Y-13096636D02*
X15125463Y-13087112D01*
X15230225Y-13201398D02*
X15211177Y-13191874D01*
X15211177Y-13191874D02*
X15201653Y-13182350D01*
X15201653Y-13182350D02*
X15192129Y-13163303D01*
X15192129Y-13163303D02*
X15192129Y-13153779D01*
X15192129Y-13153779D02*
X15201653Y-13134731D01*
X15201653Y-13134731D02*
X15211177Y-13125208D01*
X15211177Y-13125208D02*
X15230225Y-13115684D01*
X15230225Y-13115684D02*
X15268320Y-13115684D01*
X15268320Y-13115684D02*
X15287368Y-13125208D01*
X15287368Y-13125208D02*
X15296891Y-13134731D01*
X15296891Y-13134731D02*
X15306415Y-13153779D01*
X15306415Y-13153779D02*
X15306415Y-13163303D01*
X15306415Y-13163303D02*
X15296891Y-13182350D01*
X15296891Y-13182350D02*
X15287368Y-13191874D01*
X15287368Y-13191874D02*
X15268320Y-13201398D01*
X15268320Y-13201398D02*
X15230225Y-13201398D01*
X15230225Y-13201398D02*
X15211177Y-13210922D01*
X15211177Y-13210922D02*
X15201653Y-13220446D01*
X15201653Y-13220446D02*
X15192129Y-13239493D01*
X15192129Y-13239493D02*
X15192129Y-13277588D01*
X15192129Y-13277588D02*
X15201653Y-13296636D01*
X15201653Y-13296636D02*
X15211177Y-13306160D01*
X15211177Y-13306160D02*
X15230225Y-13315684D01*
X15230225Y-13315684D02*
X15268320Y-13315684D01*
X15268320Y-13315684D02*
X15287368Y-13306160D01*
X15287368Y-13306160D02*
X15296891Y-13296636D01*
X15296891Y-13296636D02*
X15306415Y-13277588D01*
X15306415Y-13277588D02*
X15306415Y-13239493D01*
X15306415Y-13239493D02*
X15296891Y-13220446D01*
X15296891Y-13220446D02*
X15287368Y-13210922D01*
X15287368Y-13210922D02*
X15268320Y-13201398D01*
X15544510Y-13315684D02*
X15544510Y-13115684D01*
X15630225Y-13315684D02*
X15630225Y-13210922D01*
X15630225Y-13210922D02*
X15620701Y-13191874D01*
X15620701Y-13191874D02*
X15601653Y-13182350D01*
X15601653Y-13182350D02*
X15573082Y-13182350D01*
X15573082Y-13182350D02*
X15554034Y-13191874D01*
X15554034Y-13191874D02*
X15544510Y-13201398D01*
X15754034Y-13315684D02*
X15734987Y-13306160D01*
X15734987Y-13306160D02*
X15725463Y-13296636D01*
X15725463Y-13296636D02*
X15715939Y-13277588D01*
X15715939Y-13277588D02*
X15715939Y-13220446D01*
X15715939Y-13220446D02*
X15725463Y-13201398D01*
X15725463Y-13201398D02*
X15734987Y-13191874D01*
X15734987Y-13191874D02*
X15754034Y-13182350D01*
X15754034Y-13182350D02*
X15782606Y-13182350D01*
X15782606Y-13182350D02*
X15801653Y-13191874D01*
X15801653Y-13191874D02*
X15811177Y-13201398D01*
X15811177Y-13201398D02*
X15820701Y-13220446D01*
X15820701Y-13220446D02*
X15820701Y-13277588D01*
X15820701Y-13277588D02*
X15811177Y-13296636D01*
X15811177Y-13296636D02*
X15801653Y-13306160D01*
X15801653Y-13306160D02*
X15782606Y-13315684D01*
X15782606Y-13315684D02*
X15754034Y-13315684D01*
X15934987Y-13315684D02*
X15915939Y-13306160D01*
X15915939Y-13306160D02*
X15906415Y-13287112D01*
X15906415Y-13287112D02*
X15906415Y-13115684D01*
X16087368Y-13306160D02*
X16068320Y-13315684D01*
X16068320Y-13315684D02*
X16030225Y-13315684D01*
X16030225Y-13315684D02*
X16011177Y-13306160D01*
X16011177Y-13306160D02*
X16001653Y-13287112D01*
X16001653Y-13287112D02*
X16001653Y-13210922D01*
X16001653Y-13210922D02*
X16011177Y-13191874D01*
X16011177Y-13191874D02*
X16030225Y-13182350D01*
X16030225Y-13182350D02*
X16068320Y-13182350D01*
X16068320Y-13182350D02*
X16087368Y-13191874D01*
X16087368Y-13191874D02*
X16096891Y-13210922D01*
X16096891Y-13210922D02*
X16096891Y-13229969D01*
X16096891Y-13229969D02*
X16001653Y-13249017D01*
X16173082Y-13306160D02*
X16192130Y-13315684D01*
X16192130Y-13315684D02*
X16230225Y-13315684D01*
X16230225Y-13315684D02*
X16249272Y-13306160D01*
X16249272Y-13306160D02*
X16258796Y-13287112D01*
X16258796Y-13287112D02*
X16258796Y-13277588D01*
X16258796Y-13277588D02*
X16249272Y-13258541D01*
X16249272Y-13258541D02*
X16230225Y-13249017D01*
X16230225Y-13249017D02*
X16201653Y-13249017D01*
X16201653Y-13249017D02*
X16182606Y-13239493D01*
X16182606Y-13239493D02*
X16173082Y-13220446D01*
X16173082Y-13220446D02*
X16173082Y-13210922D01*
X16173082Y-13210922D02*
X16182606Y-13191874D01*
X16182606Y-13191874D02*
X16201653Y-13182350D01*
X16201653Y-13182350D02*
X16230225Y-13182350D01*
X16230225Y-13182350D02*
X16249272Y-13191874D01*
X16325463Y-13391874D02*
X16334987Y-13382350D01*
X16334987Y-13382350D02*
X16354034Y-13353779D01*
X16354034Y-13353779D02*
X16363558Y-13334731D01*
X16363558Y-13334731D02*
X16373082Y-13306160D01*
X16373082Y-13306160D02*
X16382606Y-13258541D01*
X16382606Y-13258541D02*
X16382606Y-13220446D01*
X16382606Y-13220446D02*
X16373082Y-13172827D01*
X16373082Y-13172827D02*
X16363558Y-13144255D01*
X16363558Y-13144255D02*
X16354034Y-13125208D01*
X16354034Y-13125208D02*
X16334987Y-13096636D01*
X16334987Y-13096636D02*
X16325463Y-13087112D01*
D12*
X11495400Y-13543200D02*
X11550400Y-13488200D01*
X11495400Y-13433200D01*
X11440400Y-13488200D01*
X11495400Y-13543200D01*
D11*
X11915939Y-13579684D02*
X11801653Y-13579684D01*
X11858796Y-13579684D02*
X11858796Y-13379684D01*
X11858796Y-13379684D02*
X11839748Y-13408255D01*
X11839748Y-13408255D02*
X11820701Y-13427303D01*
X11820701Y-13427303D02*
X11801653Y-13436827D01*
X12001653Y-13560636D02*
X12011177Y-13570160D01*
X12011177Y-13570160D02*
X12001653Y-13579684D01*
X12001653Y-13579684D02*
X11992129Y-13570160D01*
X11992129Y-13570160D02*
X12001653Y-13560636D01*
X12001653Y-13560636D02*
X12001653Y-13579684D01*
X12201653Y-13579684D02*
X12087367Y-13579684D01*
X12144510Y-13579684D02*
X12144510Y-13379684D01*
X12144510Y-13379684D02*
X12125462Y-13408255D01*
X12125462Y-13408255D02*
X12106415Y-13427303D01*
X12106415Y-13427303D02*
X12087367Y-13436827D01*
X12325462Y-13379684D02*
X12344510Y-13379684D01*
X12344510Y-13379684D02*
X12363558Y-13389208D01*
X12363558Y-13389208D02*
X12373082Y-13398731D01*
X12373082Y-13398731D02*
X12382605Y-13417779D01*
X12382605Y-13417779D02*
X12392129Y-13455874D01*
X12392129Y-13455874D02*
X12392129Y-13503493D01*
X12392129Y-13503493D02*
X12382605Y-13541588D01*
X12382605Y-13541588D02*
X12373082Y-13560636D01*
X12373082Y-13560636D02*
X12363558Y-13570160D01*
X12363558Y-13570160D02*
X12344510Y-13579684D01*
X12344510Y-13579684D02*
X12325462Y-13579684D01*
X12325462Y-13579684D02*
X12306415Y-13570160D01*
X12306415Y-13570160D02*
X12296891Y-13560636D01*
X12296891Y-13560636D02*
X12287367Y-13541588D01*
X12287367Y-13541588D02*
X12277843Y-13503493D01*
X12277843Y-13503493D02*
X12277843Y-13455874D01*
X12277843Y-13455874D02*
X12287367Y-13417779D01*
X12287367Y-13417779D02*
X12296891Y-13398731D01*
X12296891Y-13398731D02*
X12306415Y-13389208D01*
X12306415Y-13389208D02*
X12325462Y-13379684D01*
X12515939Y-13379684D02*
X12534986Y-13379684D01*
X12534986Y-13379684D02*
X12554034Y-13389208D01*
X12554034Y-13389208D02*
X12563558Y-13398731D01*
X12563558Y-13398731D02*
X12573082Y-13417779D01*
X12573082Y-13417779D02*
X12582605Y-13455874D01*
X12582605Y-13455874D02*
X12582605Y-13503493D01*
X12582605Y-13503493D02*
X12573082Y-13541588D01*
X12573082Y-13541588D02*
X12563558Y-13560636D01*
X12563558Y-13560636D02*
X12554034Y-13570160D01*
X12554034Y-13570160D02*
X12534986Y-13579684D01*
X12534986Y-13579684D02*
X12515939Y-13579684D01*
X12515939Y-13579684D02*
X12496891Y-13570160D01*
X12496891Y-13570160D02*
X12487367Y-13560636D01*
X12487367Y-13560636D02*
X12477843Y-13541588D01*
X12477843Y-13541588D02*
X12468320Y-13503493D01*
X12468320Y-13503493D02*
X12468320Y-13455874D01*
X12468320Y-13455874D02*
X12477843Y-13417779D01*
X12477843Y-13417779D02*
X12487367Y-13398731D01*
X12487367Y-13398731D02*
X12496891Y-13389208D01*
X12496891Y-13389208D02*
X12515939Y-13379684D01*
X12668320Y-13579684D02*
X12668320Y-13446350D01*
X12668320Y-13465398D02*
X12677843Y-13455874D01*
X12677843Y-13455874D02*
X12696891Y-13446350D01*
X12696891Y-13446350D02*
X12725463Y-13446350D01*
X12725463Y-13446350D02*
X12744510Y-13455874D01*
X12744510Y-13455874D02*
X12754034Y-13474922D01*
X12754034Y-13474922D02*
X12754034Y-13579684D01*
X12754034Y-13474922D02*
X12763558Y-13455874D01*
X12763558Y-13455874D02*
X12782605Y-13446350D01*
X12782605Y-13446350D02*
X12811177Y-13446350D01*
X12811177Y-13446350D02*
X12830224Y-13455874D01*
X12830224Y-13455874D02*
X12839748Y-13474922D01*
X12839748Y-13474922D02*
X12839748Y-13579684D01*
X12934986Y-13579684D02*
X12934986Y-13446350D01*
X12934986Y-13465398D02*
X12944510Y-13455874D01*
X12944510Y-13455874D02*
X12963558Y-13446350D01*
X12963558Y-13446350D02*
X12992129Y-13446350D01*
X12992129Y-13446350D02*
X13011177Y-13455874D01*
X13011177Y-13455874D02*
X13020701Y-13474922D01*
X13020701Y-13474922D02*
X13020701Y-13579684D01*
X13020701Y-13474922D02*
X13030224Y-13455874D01*
X13030224Y-13455874D02*
X13049272Y-13446350D01*
X13049272Y-13446350D02*
X13077843Y-13446350D01*
X13077843Y-13446350D02*
X13096891Y-13455874D01*
X13096891Y-13455874D02*
X13106415Y-13474922D01*
X13106415Y-13474922D02*
X13106415Y-13579684D01*
X13496891Y-13370160D02*
X13325463Y-13627303D01*
X13754034Y-13379684D02*
X13773082Y-13379684D01*
X13773082Y-13379684D02*
X13792129Y-13389208D01*
X13792129Y-13389208D02*
X13801653Y-13398731D01*
X13801653Y-13398731D02*
X13811177Y-13417779D01*
X13811177Y-13417779D02*
X13820701Y-13455874D01*
X13820701Y-13455874D02*
X13820701Y-13503493D01*
X13820701Y-13503493D02*
X13811177Y-13541588D01*
X13811177Y-13541588D02*
X13801653Y-13560636D01*
X13801653Y-13560636D02*
X13792129Y-13570160D01*
X13792129Y-13570160D02*
X13773082Y-13579684D01*
X13773082Y-13579684D02*
X13754034Y-13579684D01*
X13754034Y-13579684D02*
X13734986Y-13570160D01*
X13734986Y-13570160D02*
X13725463Y-13560636D01*
X13725463Y-13560636D02*
X13715939Y-13541588D01*
X13715939Y-13541588D02*
X13706415Y-13503493D01*
X13706415Y-13503493D02*
X13706415Y-13455874D01*
X13706415Y-13455874D02*
X13715939Y-13417779D01*
X13715939Y-13417779D02*
X13725463Y-13398731D01*
X13725463Y-13398731D02*
X13734986Y-13389208D01*
X13734986Y-13389208D02*
X13754034Y-13379684D01*
X13906415Y-13560636D02*
X13915939Y-13570160D01*
X13915939Y-13570160D02*
X13906415Y-13579684D01*
X13906415Y-13579684D02*
X13896891Y-13570160D01*
X13896891Y-13570160D02*
X13906415Y-13560636D01*
X13906415Y-13560636D02*
X13906415Y-13579684D01*
X14039748Y-13379684D02*
X14058796Y-13379684D01*
X14058796Y-13379684D02*
X14077844Y-13389208D01*
X14077844Y-13389208D02*
X14087367Y-13398731D01*
X14087367Y-13398731D02*
X14096891Y-13417779D01*
X14096891Y-13417779D02*
X14106415Y-13455874D01*
X14106415Y-13455874D02*
X14106415Y-13503493D01*
X14106415Y-13503493D02*
X14096891Y-13541588D01*
X14096891Y-13541588D02*
X14087367Y-13560636D01*
X14087367Y-13560636D02*
X14077844Y-13570160D01*
X14077844Y-13570160D02*
X14058796Y-13579684D01*
X14058796Y-13579684D02*
X14039748Y-13579684D01*
X14039748Y-13579684D02*
X14020701Y-13570160D01*
X14020701Y-13570160D02*
X14011177Y-13560636D01*
X14011177Y-13560636D02*
X14001653Y-13541588D01*
X14001653Y-13541588D02*
X13992129Y-13503493D01*
X13992129Y-13503493D02*
X13992129Y-13455874D01*
X13992129Y-13455874D02*
X14001653Y-13417779D01*
X14001653Y-13417779D02*
X14011177Y-13398731D01*
X14011177Y-13398731D02*
X14020701Y-13389208D01*
X14020701Y-13389208D02*
X14039748Y-13379684D01*
X14277844Y-13446350D02*
X14277844Y-13579684D01*
X14230225Y-13370160D02*
X14182606Y-13513017D01*
X14182606Y-13513017D02*
X14306415Y-13513017D01*
X14363558Y-13379684D02*
X14487367Y-13379684D01*
X14487367Y-13379684D02*
X14420701Y-13455874D01*
X14420701Y-13455874D02*
X14449272Y-13455874D01*
X14449272Y-13455874D02*
X14468320Y-13465398D01*
X14468320Y-13465398D02*
X14477844Y-13474922D01*
X14477844Y-13474922D02*
X14487367Y-13493969D01*
X14487367Y-13493969D02*
X14487367Y-13541588D01*
X14487367Y-13541588D02*
X14477844Y-13560636D01*
X14477844Y-13560636D02*
X14468320Y-13570160D01*
X14468320Y-13570160D02*
X14449272Y-13579684D01*
X14449272Y-13579684D02*
X14392129Y-13579684D01*
X14392129Y-13579684D02*
X14373082Y-13570160D01*
X14373082Y-13570160D02*
X14363558Y-13560636D01*
X14554034Y-13379684D02*
X14677844Y-13379684D01*
X14677844Y-13379684D02*
X14611177Y-13455874D01*
X14611177Y-13455874D02*
X14639748Y-13455874D01*
X14639748Y-13455874D02*
X14658796Y-13465398D01*
X14658796Y-13465398D02*
X14668320Y-13474922D01*
X14668320Y-13474922D02*
X14677844Y-13493969D01*
X14677844Y-13493969D02*
X14677844Y-13541588D01*
X14677844Y-13541588D02*
X14668320Y-13560636D01*
X14668320Y-13560636D02*
X14658796Y-13570160D01*
X14658796Y-13570160D02*
X14639748Y-13579684D01*
X14639748Y-13579684D02*
X14582606Y-13579684D01*
X14582606Y-13579684D02*
X14563558Y-13570160D01*
X14563558Y-13570160D02*
X14554034Y-13560636D01*
X14754034Y-13379684D02*
X14754034Y-13417779D01*
X14830225Y-13379684D02*
X14830225Y-13417779D01*
X15125463Y-13655874D02*
X15115939Y-13646350D01*
X15115939Y-13646350D02*
X15096891Y-13617779D01*
X15096891Y-13617779D02*
X15087368Y-13598731D01*
X15087368Y-13598731D02*
X15077844Y-13570160D01*
X15077844Y-13570160D02*
X15068320Y-13522541D01*
X15068320Y-13522541D02*
X15068320Y-13484446D01*
X15068320Y-13484446D02*
X15077844Y-13436827D01*
X15077844Y-13436827D02*
X15087368Y-13408255D01*
X15087368Y-13408255D02*
X15096891Y-13389208D01*
X15096891Y-13389208D02*
X15115939Y-13360636D01*
X15115939Y-13360636D02*
X15125463Y-13351112D01*
X15287368Y-13446350D02*
X15287368Y-13579684D01*
X15239748Y-13370160D02*
X15192129Y-13513017D01*
X15192129Y-13513017D02*
X15315939Y-13513017D01*
X15544510Y-13579684D02*
X15544510Y-13379684D01*
X15630225Y-13579684D02*
X15630225Y-13474922D01*
X15630225Y-13474922D02*
X15620701Y-13455874D01*
X15620701Y-13455874D02*
X15601653Y-13446350D01*
X15601653Y-13446350D02*
X15573082Y-13446350D01*
X15573082Y-13446350D02*
X15554034Y-13455874D01*
X15554034Y-13455874D02*
X15544510Y-13465398D01*
X15754034Y-13579684D02*
X15734987Y-13570160D01*
X15734987Y-13570160D02*
X15725463Y-13560636D01*
X15725463Y-13560636D02*
X15715939Y-13541588D01*
X15715939Y-13541588D02*
X15715939Y-13484446D01*
X15715939Y-13484446D02*
X15725463Y-13465398D01*
X15725463Y-13465398D02*
X15734987Y-13455874D01*
X15734987Y-13455874D02*
X15754034Y-13446350D01*
X15754034Y-13446350D02*
X15782606Y-13446350D01*
X15782606Y-13446350D02*
X15801653Y-13455874D01*
X15801653Y-13455874D02*
X15811177Y-13465398D01*
X15811177Y-13465398D02*
X15820701Y-13484446D01*
X15820701Y-13484446D02*
X15820701Y-13541588D01*
X15820701Y-13541588D02*
X15811177Y-13560636D01*
X15811177Y-13560636D02*
X15801653Y-13570160D01*
X15801653Y-13570160D02*
X15782606Y-13579684D01*
X15782606Y-13579684D02*
X15754034Y-13579684D01*
X15934987Y-13579684D02*
X15915939Y-13570160D01*
X15915939Y-13570160D02*
X15906415Y-13551112D01*
X15906415Y-13551112D02*
X15906415Y-13379684D01*
X16087368Y-13570160D02*
X16068320Y-13579684D01*
X16068320Y-13579684D02*
X16030225Y-13579684D01*
X16030225Y-13579684D02*
X16011177Y-13570160D01*
X16011177Y-13570160D02*
X16001653Y-13551112D01*
X16001653Y-13551112D02*
X16001653Y-13474922D01*
X16001653Y-13474922D02*
X16011177Y-13455874D01*
X16011177Y-13455874D02*
X16030225Y-13446350D01*
X16030225Y-13446350D02*
X16068320Y-13446350D01*
X16068320Y-13446350D02*
X16087368Y-13455874D01*
X16087368Y-13455874D02*
X16096891Y-13474922D01*
X16096891Y-13474922D02*
X16096891Y-13493969D01*
X16096891Y-13493969D02*
X16001653Y-13513017D01*
X16173082Y-13570160D02*
X16192130Y-13579684D01*
X16192130Y-13579684D02*
X16230225Y-13579684D01*
X16230225Y-13579684D02*
X16249272Y-13570160D01*
X16249272Y-13570160D02*
X16258796Y-13551112D01*
X16258796Y-13551112D02*
X16258796Y-13541588D01*
X16258796Y-13541588D02*
X16249272Y-13522541D01*
X16249272Y-13522541D02*
X16230225Y-13513017D01*
X16230225Y-13513017D02*
X16201653Y-13513017D01*
X16201653Y-13513017D02*
X16182606Y-13503493D01*
X16182606Y-13503493D02*
X16173082Y-13484446D01*
X16173082Y-13484446D02*
X16173082Y-13474922D01*
X16173082Y-13474922D02*
X16182606Y-13455874D01*
X16182606Y-13455874D02*
X16201653Y-13446350D01*
X16201653Y-13446350D02*
X16230225Y-13446350D01*
X16230225Y-13446350D02*
X16249272Y-13455874D01*
X16325463Y-13655874D02*
X16334987Y-13646350D01*
X16334987Y-13646350D02*
X16354034Y-13617779D01*
X16354034Y-13617779D02*
X16363558Y-13598731D01*
X16363558Y-13598731D02*
X16373082Y-13570160D01*
X16373082Y-13570160D02*
X16382606Y-13522541D01*
X16382606Y-13522541D02*
X16382606Y-13484446D01*
X16382606Y-13484446D02*
X16373082Y-13436827D01*
X16373082Y-13436827D02*
X16363558Y-13408255D01*
X16363558Y-13408255D02*
X16354034Y-13389208D01*
X16354034Y-13389208D02*
X16334987Y-13360636D01*
X16334987Y-13360636D02*
X16325463Y-13351112D01*
D13*
X11420400Y-13687200D02*
X11550400Y-13817200D01*
X11550400Y-13687200D02*
X11420400Y-13817200D01*
X11550400Y-13752200D02*
G75*
G02*
X11420400Y-13752200I-65000J0D01*
G01*
X11420400Y-13752200D02*
G75*
G02*
X11550400Y-13752200I65000J0D01*
G01*
D11*
X11915939Y-13843684D02*
X11801653Y-13843684D01*
X11858796Y-13843684D02*
X11858796Y-13643684D01*
X11858796Y-13643684D02*
X11839748Y-13672255D01*
X11839748Y-13672255D02*
X11820701Y-13691303D01*
X11820701Y-13691303D02*
X11801653Y-13700827D01*
X12001653Y-13824636D02*
X12011177Y-13834160D01*
X12011177Y-13834160D02*
X12001653Y-13843684D01*
X12001653Y-13843684D02*
X11992129Y-13834160D01*
X11992129Y-13834160D02*
X12001653Y-13824636D01*
X12001653Y-13824636D02*
X12001653Y-13843684D01*
X12077843Y-13643684D02*
X12201653Y-13643684D01*
X12201653Y-13643684D02*
X12134986Y-13719874D01*
X12134986Y-13719874D02*
X12163558Y-13719874D01*
X12163558Y-13719874D02*
X12182605Y-13729398D01*
X12182605Y-13729398D02*
X12192129Y-13738922D01*
X12192129Y-13738922D02*
X12201653Y-13757969D01*
X12201653Y-13757969D02*
X12201653Y-13805588D01*
X12201653Y-13805588D02*
X12192129Y-13824636D01*
X12192129Y-13824636D02*
X12182605Y-13834160D01*
X12182605Y-13834160D02*
X12163558Y-13843684D01*
X12163558Y-13843684D02*
X12106415Y-13843684D01*
X12106415Y-13843684D02*
X12087367Y-13834160D01*
X12087367Y-13834160D02*
X12077843Y-13824636D01*
X12325462Y-13643684D02*
X12344510Y-13643684D01*
X12344510Y-13643684D02*
X12363558Y-13653208D01*
X12363558Y-13653208D02*
X12373082Y-13662731D01*
X12373082Y-13662731D02*
X12382605Y-13681779D01*
X12382605Y-13681779D02*
X12392129Y-13719874D01*
X12392129Y-13719874D02*
X12392129Y-13767493D01*
X12392129Y-13767493D02*
X12382605Y-13805588D01*
X12382605Y-13805588D02*
X12373082Y-13824636D01*
X12373082Y-13824636D02*
X12363558Y-13834160D01*
X12363558Y-13834160D02*
X12344510Y-13843684D01*
X12344510Y-13843684D02*
X12325462Y-13843684D01*
X12325462Y-13843684D02*
X12306415Y-13834160D01*
X12306415Y-13834160D02*
X12296891Y-13824636D01*
X12296891Y-13824636D02*
X12287367Y-13805588D01*
X12287367Y-13805588D02*
X12277843Y-13767493D01*
X12277843Y-13767493D02*
X12277843Y-13719874D01*
X12277843Y-13719874D02*
X12287367Y-13681779D01*
X12287367Y-13681779D02*
X12296891Y-13662731D01*
X12296891Y-13662731D02*
X12306415Y-13653208D01*
X12306415Y-13653208D02*
X12325462Y-13643684D01*
X12515939Y-13643684D02*
X12534986Y-13643684D01*
X12534986Y-13643684D02*
X12554034Y-13653208D01*
X12554034Y-13653208D02*
X12563558Y-13662731D01*
X12563558Y-13662731D02*
X12573082Y-13681779D01*
X12573082Y-13681779D02*
X12582605Y-13719874D01*
X12582605Y-13719874D02*
X12582605Y-13767493D01*
X12582605Y-13767493D02*
X12573082Y-13805588D01*
X12573082Y-13805588D02*
X12563558Y-13824636D01*
X12563558Y-13824636D02*
X12554034Y-13834160D01*
X12554034Y-13834160D02*
X12534986Y-13843684D01*
X12534986Y-13843684D02*
X12515939Y-13843684D01*
X12515939Y-13843684D02*
X12496891Y-13834160D01*
X12496891Y-13834160D02*
X12487367Y-13824636D01*
X12487367Y-13824636D02*
X12477843Y-13805588D01*
X12477843Y-13805588D02*
X12468320Y-13767493D01*
X12468320Y-13767493D02*
X12468320Y-13719874D01*
X12468320Y-13719874D02*
X12477843Y-13681779D01*
X12477843Y-13681779D02*
X12487367Y-13662731D01*
X12487367Y-13662731D02*
X12496891Y-13653208D01*
X12496891Y-13653208D02*
X12515939Y-13643684D01*
X12668320Y-13843684D02*
X12668320Y-13710350D01*
X12668320Y-13729398D02*
X12677843Y-13719874D01*
X12677843Y-13719874D02*
X12696891Y-13710350D01*
X12696891Y-13710350D02*
X12725463Y-13710350D01*
X12725463Y-13710350D02*
X12744510Y-13719874D01*
X12744510Y-13719874D02*
X12754034Y-13738922D01*
X12754034Y-13738922D02*
X12754034Y-13843684D01*
X12754034Y-13738922D02*
X12763558Y-13719874D01*
X12763558Y-13719874D02*
X12782605Y-13710350D01*
X12782605Y-13710350D02*
X12811177Y-13710350D01*
X12811177Y-13710350D02*
X12830224Y-13719874D01*
X12830224Y-13719874D02*
X12839748Y-13738922D01*
X12839748Y-13738922D02*
X12839748Y-13843684D01*
X12934986Y-13843684D02*
X12934986Y-13710350D01*
X12934986Y-13729398D02*
X12944510Y-13719874D01*
X12944510Y-13719874D02*
X12963558Y-13710350D01*
X12963558Y-13710350D02*
X12992129Y-13710350D01*
X12992129Y-13710350D02*
X13011177Y-13719874D01*
X13011177Y-13719874D02*
X13020701Y-13738922D01*
X13020701Y-13738922D02*
X13020701Y-13843684D01*
X13020701Y-13738922D02*
X13030224Y-13719874D01*
X13030224Y-13719874D02*
X13049272Y-13710350D01*
X13049272Y-13710350D02*
X13077843Y-13710350D01*
X13077843Y-13710350D02*
X13096891Y-13719874D01*
X13096891Y-13719874D02*
X13106415Y-13738922D01*
X13106415Y-13738922D02*
X13106415Y-13843684D01*
X13496891Y-13634160D02*
X13325463Y-13891303D01*
X13754034Y-13643684D02*
X13773082Y-13643684D01*
X13773082Y-13643684D02*
X13792129Y-13653208D01*
X13792129Y-13653208D02*
X13801653Y-13662731D01*
X13801653Y-13662731D02*
X13811177Y-13681779D01*
X13811177Y-13681779D02*
X13820701Y-13719874D01*
X13820701Y-13719874D02*
X13820701Y-13767493D01*
X13820701Y-13767493D02*
X13811177Y-13805588D01*
X13811177Y-13805588D02*
X13801653Y-13824636D01*
X13801653Y-13824636D02*
X13792129Y-13834160D01*
X13792129Y-13834160D02*
X13773082Y-13843684D01*
X13773082Y-13843684D02*
X13754034Y-13843684D01*
X13754034Y-13843684D02*
X13734986Y-13834160D01*
X13734986Y-13834160D02*
X13725463Y-13824636D01*
X13725463Y-13824636D02*
X13715939Y-13805588D01*
X13715939Y-13805588D02*
X13706415Y-13767493D01*
X13706415Y-13767493D02*
X13706415Y-13719874D01*
X13706415Y-13719874D02*
X13715939Y-13681779D01*
X13715939Y-13681779D02*
X13725463Y-13662731D01*
X13725463Y-13662731D02*
X13734986Y-13653208D01*
X13734986Y-13653208D02*
X13754034Y-13643684D01*
X13906415Y-13824636D02*
X13915939Y-13834160D01*
X13915939Y-13834160D02*
X13906415Y-13843684D01*
X13906415Y-13843684D02*
X13896891Y-13834160D01*
X13896891Y-13834160D02*
X13906415Y-13824636D01*
X13906415Y-13824636D02*
X13906415Y-13843684D01*
X14039748Y-13643684D02*
X14058796Y-13643684D01*
X14058796Y-13643684D02*
X14077844Y-13653208D01*
X14077844Y-13653208D02*
X14087367Y-13662731D01*
X14087367Y-13662731D02*
X14096891Y-13681779D01*
X14096891Y-13681779D02*
X14106415Y-13719874D01*
X14106415Y-13719874D02*
X14106415Y-13767493D01*
X14106415Y-13767493D02*
X14096891Y-13805588D01*
X14096891Y-13805588D02*
X14087367Y-13824636D01*
X14087367Y-13824636D02*
X14077844Y-13834160D01*
X14077844Y-13834160D02*
X14058796Y-13843684D01*
X14058796Y-13843684D02*
X14039748Y-13843684D01*
X14039748Y-13843684D02*
X14020701Y-13834160D01*
X14020701Y-13834160D02*
X14011177Y-13824636D01*
X14011177Y-13824636D02*
X14001653Y-13805588D01*
X14001653Y-13805588D02*
X13992129Y-13767493D01*
X13992129Y-13767493D02*
X13992129Y-13719874D01*
X13992129Y-13719874D02*
X14001653Y-13681779D01*
X14001653Y-13681779D02*
X14011177Y-13662731D01*
X14011177Y-13662731D02*
X14020701Y-13653208D01*
X14020701Y-13653208D02*
X14039748Y-13643684D01*
X14287367Y-13643684D02*
X14192129Y-13643684D01*
X14192129Y-13643684D02*
X14182606Y-13738922D01*
X14182606Y-13738922D02*
X14192129Y-13729398D01*
X14192129Y-13729398D02*
X14211177Y-13719874D01*
X14211177Y-13719874D02*
X14258796Y-13719874D01*
X14258796Y-13719874D02*
X14277844Y-13729398D01*
X14277844Y-13729398D02*
X14287367Y-13738922D01*
X14287367Y-13738922D02*
X14296891Y-13757969D01*
X14296891Y-13757969D02*
X14296891Y-13805588D01*
X14296891Y-13805588D02*
X14287367Y-13824636D01*
X14287367Y-13824636D02*
X14277844Y-13834160D01*
X14277844Y-13834160D02*
X14258796Y-13843684D01*
X14258796Y-13843684D02*
X14211177Y-13843684D01*
X14211177Y-13843684D02*
X14192129Y-13834160D01*
X14192129Y-13834160D02*
X14182606Y-13824636D01*
X14487367Y-13843684D02*
X14373082Y-13843684D01*
X14430225Y-13843684D02*
X14430225Y-13643684D01*
X14430225Y-13643684D02*
X14411177Y-13672255D01*
X14411177Y-13672255D02*
X14392129Y-13691303D01*
X14392129Y-13691303D02*
X14373082Y-13700827D01*
X14563558Y-13662731D02*
X14573082Y-13653208D01*
X14573082Y-13653208D02*
X14592129Y-13643684D01*
X14592129Y-13643684D02*
X14639748Y-13643684D01*
X14639748Y-13643684D02*
X14658796Y-13653208D01*
X14658796Y-13653208D02*
X14668320Y-13662731D01*
X14668320Y-13662731D02*
X14677844Y-13681779D01*
X14677844Y-13681779D02*
X14677844Y-13700827D01*
X14677844Y-13700827D02*
X14668320Y-13729398D01*
X14668320Y-13729398D02*
X14554034Y-13843684D01*
X14554034Y-13843684D02*
X14677844Y-13843684D01*
X14754034Y-13643684D02*
X14754034Y-13681779D01*
X14830225Y-13643684D02*
X14830225Y-13681779D01*
X15125463Y-13919874D02*
X15115939Y-13910350D01*
X15115939Y-13910350D02*
X15096891Y-13881779D01*
X15096891Y-13881779D02*
X15087368Y-13862731D01*
X15087368Y-13862731D02*
X15077844Y-13834160D01*
X15077844Y-13834160D02*
X15068320Y-13786541D01*
X15068320Y-13786541D02*
X15068320Y-13748446D01*
X15068320Y-13748446D02*
X15077844Y-13700827D01*
X15077844Y-13700827D02*
X15087368Y-13672255D01*
X15087368Y-13672255D02*
X15096891Y-13653208D01*
X15096891Y-13653208D02*
X15115939Y-13624636D01*
X15115939Y-13624636D02*
X15125463Y-13615112D01*
X15287368Y-13710350D02*
X15287368Y-13843684D01*
X15239748Y-13634160D02*
X15192129Y-13777017D01*
X15192129Y-13777017D02*
X15315939Y-13777017D01*
X15544510Y-13843684D02*
X15544510Y-13643684D01*
X15630225Y-13843684D02*
X15630225Y-13738922D01*
X15630225Y-13738922D02*
X15620701Y-13719874D01*
X15620701Y-13719874D02*
X15601653Y-13710350D01*
X15601653Y-13710350D02*
X15573082Y-13710350D01*
X15573082Y-13710350D02*
X15554034Y-13719874D01*
X15554034Y-13719874D02*
X15544510Y-13729398D01*
X15754034Y-13843684D02*
X15734987Y-13834160D01*
X15734987Y-13834160D02*
X15725463Y-13824636D01*
X15725463Y-13824636D02*
X15715939Y-13805588D01*
X15715939Y-13805588D02*
X15715939Y-13748446D01*
X15715939Y-13748446D02*
X15725463Y-13729398D01*
X15725463Y-13729398D02*
X15734987Y-13719874D01*
X15734987Y-13719874D02*
X15754034Y-13710350D01*
X15754034Y-13710350D02*
X15782606Y-13710350D01*
X15782606Y-13710350D02*
X15801653Y-13719874D01*
X15801653Y-13719874D02*
X15811177Y-13729398D01*
X15811177Y-13729398D02*
X15820701Y-13748446D01*
X15820701Y-13748446D02*
X15820701Y-13805588D01*
X15820701Y-13805588D02*
X15811177Y-13824636D01*
X15811177Y-13824636D02*
X15801653Y-13834160D01*
X15801653Y-13834160D02*
X15782606Y-13843684D01*
X15782606Y-13843684D02*
X15754034Y-13843684D01*
X15934987Y-13843684D02*
X15915939Y-13834160D01*
X15915939Y-13834160D02*
X15906415Y-13815112D01*
X15906415Y-13815112D02*
X15906415Y-13643684D01*
X16087368Y-13834160D02*
X16068320Y-13843684D01*
X16068320Y-13843684D02*
X16030225Y-13843684D01*
X16030225Y-13843684D02*
X16011177Y-13834160D01*
X16011177Y-13834160D02*
X16001653Y-13815112D01*
X16001653Y-13815112D02*
X16001653Y-13738922D01*
X16001653Y-13738922D02*
X16011177Y-13719874D01*
X16011177Y-13719874D02*
X16030225Y-13710350D01*
X16030225Y-13710350D02*
X16068320Y-13710350D01*
X16068320Y-13710350D02*
X16087368Y-13719874D01*
X16087368Y-13719874D02*
X16096891Y-13738922D01*
X16096891Y-13738922D02*
X16096891Y-13757969D01*
X16096891Y-13757969D02*
X16001653Y-13777017D01*
X16173082Y-13834160D02*
X16192130Y-13843684D01*
X16192130Y-13843684D02*
X16230225Y-13843684D01*
X16230225Y-13843684D02*
X16249272Y-13834160D01*
X16249272Y-13834160D02*
X16258796Y-13815112D01*
X16258796Y-13815112D02*
X16258796Y-13805588D01*
X16258796Y-13805588D02*
X16249272Y-13786541D01*
X16249272Y-13786541D02*
X16230225Y-13777017D01*
X16230225Y-13777017D02*
X16201653Y-13777017D01*
X16201653Y-13777017D02*
X16182606Y-13767493D01*
X16182606Y-13767493D02*
X16173082Y-13748446D01*
X16173082Y-13748446D02*
X16173082Y-13738922D01*
X16173082Y-13738922D02*
X16182606Y-13719874D01*
X16182606Y-13719874D02*
X16201653Y-13710350D01*
X16201653Y-13710350D02*
X16230225Y-13710350D01*
X16230225Y-13710350D02*
X16249272Y-13719874D01*
X16325463Y-13919874D02*
X16334987Y-13910350D01*
X16334987Y-13910350D02*
X16354034Y-13881779D01*
X16354034Y-13881779D02*
X16363558Y-13862731D01*
X16363558Y-13862731D02*
X16373082Y-13834160D01*
X16373082Y-13834160D02*
X16382606Y-13786541D01*
X16382606Y-13786541D02*
X16382606Y-13748446D01*
X16382606Y-13748446D02*
X16373082Y-13700827D01*
X16373082Y-13700827D02*
X16363558Y-13672255D01*
X16363558Y-13672255D02*
X16354034Y-13653208D01*
X16354034Y-13653208D02*
X16334987Y-13624636D01*
X16334987Y-13624636D02*
X16325463Y-13615112D01*
D14*
X11396400Y-13939200D02*
X11550400Y-14093200D01*
X11550400Y-13939200D02*
X11396400Y-14093200D01*
X11473400Y-13939200D02*
X11473400Y-14093200D01*
X11396400Y-14016200D02*
X11550400Y-14016200D01*
D11*
X11915939Y-14107684D02*
X11801653Y-14107684D01*
X11858796Y-14107684D02*
X11858796Y-13907684D01*
X11858796Y-13907684D02*
X11839748Y-13936255D01*
X11839748Y-13936255D02*
X11820701Y-13955303D01*
X11820701Y-13955303D02*
X11801653Y-13964827D01*
X12001653Y-14088636D02*
X12011177Y-14098160D01*
X12011177Y-14098160D02*
X12001653Y-14107684D01*
X12001653Y-14107684D02*
X11992129Y-14098160D01*
X11992129Y-14098160D02*
X12001653Y-14088636D01*
X12001653Y-14088636D02*
X12001653Y-14107684D01*
X12192129Y-13907684D02*
X12096891Y-13907684D01*
X12096891Y-13907684D02*
X12087367Y-14002922D01*
X12087367Y-14002922D02*
X12096891Y-13993398D01*
X12096891Y-13993398D02*
X12115939Y-13983874D01*
X12115939Y-13983874D02*
X12163558Y-13983874D01*
X12163558Y-13983874D02*
X12182605Y-13993398D01*
X12182605Y-13993398D02*
X12192129Y-14002922D01*
X12192129Y-14002922D02*
X12201653Y-14021969D01*
X12201653Y-14021969D02*
X12201653Y-14069588D01*
X12201653Y-14069588D02*
X12192129Y-14088636D01*
X12192129Y-14088636D02*
X12182605Y-14098160D01*
X12182605Y-14098160D02*
X12163558Y-14107684D01*
X12163558Y-14107684D02*
X12115939Y-14107684D01*
X12115939Y-14107684D02*
X12096891Y-14098160D01*
X12096891Y-14098160D02*
X12087367Y-14088636D01*
X12373082Y-13974350D02*
X12373082Y-14107684D01*
X12325462Y-13898160D02*
X12277843Y-14041017D01*
X12277843Y-14041017D02*
X12401653Y-14041017D01*
X12515939Y-13907684D02*
X12534986Y-13907684D01*
X12534986Y-13907684D02*
X12554034Y-13917208D01*
X12554034Y-13917208D02*
X12563558Y-13926731D01*
X12563558Y-13926731D02*
X12573082Y-13945779D01*
X12573082Y-13945779D02*
X12582605Y-13983874D01*
X12582605Y-13983874D02*
X12582605Y-14031493D01*
X12582605Y-14031493D02*
X12573082Y-14069588D01*
X12573082Y-14069588D02*
X12563558Y-14088636D01*
X12563558Y-14088636D02*
X12554034Y-14098160D01*
X12554034Y-14098160D02*
X12534986Y-14107684D01*
X12534986Y-14107684D02*
X12515939Y-14107684D01*
X12515939Y-14107684D02*
X12496891Y-14098160D01*
X12496891Y-14098160D02*
X12487367Y-14088636D01*
X12487367Y-14088636D02*
X12477843Y-14069588D01*
X12477843Y-14069588D02*
X12468320Y-14031493D01*
X12468320Y-14031493D02*
X12468320Y-13983874D01*
X12468320Y-13983874D02*
X12477843Y-13945779D01*
X12477843Y-13945779D02*
X12487367Y-13926731D01*
X12487367Y-13926731D02*
X12496891Y-13917208D01*
X12496891Y-13917208D02*
X12515939Y-13907684D01*
X12668320Y-14107684D02*
X12668320Y-13974350D01*
X12668320Y-13993398D02*
X12677843Y-13983874D01*
X12677843Y-13983874D02*
X12696891Y-13974350D01*
X12696891Y-13974350D02*
X12725463Y-13974350D01*
X12725463Y-13974350D02*
X12744510Y-13983874D01*
X12744510Y-13983874D02*
X12754034Y-14002922D01*
X12754034Y-14002922D02*
X12754034Y-14107684D01*
X12754034Y-14002922D02*
X12763558Y-13983874D01*
X12763558Y-13983874D02*
X12782605Y-13974350D01*
X12782605Y-13974350D02*
X12811177Y-13974350D01*
X12811177Y-13974350D02*
X12830224Y-13983874D01*
X12830224Y-13983874D02*
X12839748Y-14002922D01*
X12839748Y-14002922D02*
X12839748Y-14107684D01*
X12934986Y-14107684D02*
X12934986Y-13974350D01*
X12934986Y-13993398D02*
X12944510Y-13983874D01*
X12944510Y-13983874D02*
X12963558Y-13974350D01*
X12963558Y-13974350D02*
X12992129Y-13974350D01*
X12992129Y-13974350D02*
X13011177Y-13983874D01*
X13011177Y-13983874D02*
X13020701Y-14002922D01*
X13020701Y-14002922D02*
X13020701Y-14107684D01*
X13020701Y-14002922D02*
X13030224Y-13983874D01*
X13030224Y-13983874D02*
X13049272Y-13974350D01*
X13049272Y-13974350D02*
X13077843Y-13974350D01*
X13077843Y-13974350D02*
X13096891Y-13983874D01*
X13096891Y-13983874D02*
X13106415Y-14002922D01*
X13106415Y-14002922D02*
X13106415Y-14107684D01*
X13496891Y-13898160D02*
X13325463Y-14155303D01*
X13754034Y-13907684D02*
X13773082Y-13907684D01*
X13773082Y-13907684D02*
X13792129Y-13917208D01*
X13792129Y-13917208D02*
X13801653Y-13926731D01*
X13801653Y-13926731D02*
X13811177Y-13945779D01*
X13811177Y-13945779D02*
X13820701Y-13983874D01*
X13820701Y-13983874D02*
X13820701Y-14031493D01*
X13820701Y-14031493D02*
X13811177Y-14069588D01*
X13811177Y-14069588D02*
X13801653Y-14088636D01*
X13801653Y-14088636D02*
X13792129Y-14098160D01*
X13792129Y-14098160D02*
X13773082Y-14107684D01*
X13773082Y-14107684D02*
X13754034Y-14107684D01*
X13754034Y-14107684D02*
X13734986Y-14098160D01*
X13734986Y-14098160D02*
X13725463Y-14088636D01*
X13725463Y-14088636D02*
X13715939Y-14069588D01*
X13715939Y-14069588D02*
X13706415Y-14031493D01*
X13706415Y-14031493D02*
X13706415Y-13983874D01*
X13706415Y-13983874D02*
X13715939Y-13945779D01*
X13715939Y-13945779D02*
X13725463Y-13926731D01*
X13725463Y-13926731D02*
X13734986Y-13917208D01*
X13734986Y-13917208D02*
X13754034Y-13907684D01*
X13906415Y-14088636D02*
X13915939Y-14098160D01*
X13915939Y-14098160D02*
X13906415Y-14107684D01*
X13906415Y-14107684D02*
X13896891Y-14098160D01*
X13896891Y-14098160D02*
X13906415Y-14088636D01*
X13906415Y-14088636D02*
X13906415Y-14107684D01*
X14039748Y-13907684D02*
X14058796Y-13907684D01*
X14058796Y-13907684D02*
X14077844Y-13917208D01*
X14077844Y-13917208D02*
X14087367Y-13926731D01*
X14087367Y-13926731D02*
X14096891Y-13945779D01*
X14096891Y-13945779D02*
X14106415Y-13983874D01*
X14106415Y-13983874D02*
X14106415Y-14031493D01*
X14106415Y-14031493D02*
X14096891Y-14069588D01*
X14096891Y-14069588D02*
X14087367Y-14088636D01*
X14087367Y-14088636D02*
X14077844Y-14098160D01*
X14077844Y-14098160D02*
X14058796Y-14107684D01*
X14058796Y-14107684D02*
X14039748Y-14107684D01*
X14039748Y-14107684D02*
X14020701Y-14098160D01*
X14020701Y-14098160D02*
X14011177Y-14088636D01*
X14011177Y-14088636D02*
X14001653Y-14069588D01*
X14001653Y-14069588D02*
X13992129Y-14031493D01*
X13992129Y-14031493D02*
X13992129Y-13983874D01*
X13992129Y-13983874D02*
X14001653Y-13945779D01*
X14001653Y-13945779D02*
X14011177Y-13926731D01*
X14011177Y-13926731D02*
X14020701Y-13917208D01*
X14020701Y-13917208D02*
X14039748Y-13907684D01*
X14277844Y-13907684D02*
X14239748Y-13907684D01*
X14239748Y-13907684D02*
X14220701Y-13917208D01*
X14220701Y-13917208D02*
X14211177Y-13926731D01*
X14211177Y-13926731D02*
X14192129Y-13955303D01*
X14192129Y-13955303D02*
X14182606Y-13993398D01*
X14182606Y-13993398D02*
X14182606Y-14069588D01*
X14182606Y-14069588D02*
X14192129Y-14088636D01*
X14192129Y-14088636D02*
X14201653Y-14098160D01*
X14201653Y-14098160D02*
X14220701Y-14107684D01*
X14220701Y-14107684D02*
X14258796Y-14107684D01*
X14258796Y-14107684D02*
X14277844Y-14098160D01*
X14277844Y-14098160D02*
X14287367Y-14088636D01*
X14287367Y-14088636D02*
X14296891Y-14069588D01*
X14296891Y-14069588D02*
X14296891Y-14021969D01*
X14296891Y-14021969D02*
X14287367Y-14002922D01*
X14287367Y-14002922D02*
X14277844Y-13993398D01*
X14277844Y-13993398D02*
X14258796Y-13983874D01*
X14258796Y-13983874D02*
X14220701Y-13983874D01*
X14220701Y-13983874D02*
X14201653Y-13993398D01*
X14201653Y-13993398D02*
X14192129Y-14002922D01*
X14192129Y-14002922D02*
X14182606Y-14021969D01*
X14420701Y-13907684D02*
X14439748Y-13907684D01*
X14439748Y-13907684D02*
X14458796Y-13917208D01*
X14458796Y-13917208D02*
X14468320Y-13926731D01*
X14468320Y-13926731D02*
X14477844Y-13945779D01*
X14477844Y-13945779D02*
X14487367Y-13983874D01*
X14487367Y-13983874D02*
X14487367Y-14031493D01*
X14487367Y-14031493D02*
X14477844Y-14069588D01*
X14477844Y-14069588D02*
X14468320Y-14088636D01*
X14468320Y-14088636D02*
X14458796Y-14098160D01*
X14458796Y-14098160D02*
X14439748Y-14107684D01*
X14439748Y-14107684D02*
X14420701Y-14107684D01*
X14420701Y-14107684D02*
X14401653Y-14098160D01*
X14401653Y-14098160D02*
X14392129Y-14088636D01*
X14392129Y-14088636D02*
X14382606Y-14069588D01*
X14382606Y-14069588D02*
X14373082Y-14031493D01*
X14373082Y-14031493D02*
X14373082Y-13983874D01*
X14373082Y-13983874D02*
X14382606Y-13945779D01*
X14382606Y-13945779D02*
X14392129Y-13926731D01*
X14392129Y-13926731D02*
X14401653Y-13917208D01*
X14401653Y-13917208D02*
X14420701Y-13907684D01*
X14658796Y-13907684D02*
X14620701Y-13907684D01*
X14620701Y-13907684D02*
X14601653Y-13917208D01*
X14601653Y-13917208D02*
X14592129Y-13926731D01*
X14592129Y-13926731D02*
X14573082Y-13955303D01*
X14573082Y-13955303D02*
X14563558Y-13993398D01*
X14563558Y-13993398D02*
X14563558Y-14069588D01*
X14563558Y-14069588D02*
X14573082Y-14088636D01*
X14573082Y-14088636D02*
X14582606Y-14098160D01*
X14582606Y-14098160D02*
X14601653Y-14107684D01*
X14601653Y-14107684D02*
X14639748Y-14107684D01*
X14639748Y-14107684D02*
X14658796Y-14098160D01*
X14658796Y-14098160D02*
X14668320Y-14088636D01*
X14668320Y-14088636D02*
X14677844Y-14069588D01*
X14677844Y-14069588D02*
X14677844Y-14021969D01*
X14677844Y-14021969D02*
X14668320Y-14002922D01*
X14668320Y-14002922D02*
X14658796Y-13993398D01*
X14658796Y-13993398D02*
X14639748Y-13983874D01*
X14639748Y-13983874D02*
X14601653Y-13983874D01*
X14601653Y-13983874D02*
X14582606Y-13993398D01*
X14582606Y-13993398D02*
X14573082Y-14002922D01*
X14573082Y-14002922D02*
X14563558Y-14021969D01*
X14754034Y-13907684D02*
X14754034Y-13945779D01*
X14830225Y-13907684D02*
X14830225Y-13945779D01*
X15125463Y-14183874D02*
X15115939Y-14174350D01*
X15115939Y-14174350D02*
X15096891Y-14145779D01*
X15096891Y-14145779D02*
X15087368Y-14126731D01*
X15087368Y-14126731D02*
X15077844Y-14098160D01*
X15077844Y-14098160D02*
X15068320Y-14050541D01*
X15068320Y-14050541D02*
X15068320Y-14012446D01*
X15068320Y-14012446D02*
X15077844Y-13964827D01*
X15077844Y-13964827D02*
X15087368Y-13936255D01*
X15087368Y-13936255D02*
X15096891Y-13917208D01*
X15096891Y-13917208D02*
X15115939Y-13888636D01*
X15115939Y-13888636D02*
X15125463Y-13879112D01*
X15287368Y-13907684D02*
X15249272Y-13907684D01*
X15249272Y-13907684D02*
X15230225Y-13917208D01*
X15230225Y-13917208D02*
X15220701Y-13926731D01*
X15220701Y-13926731D02*
X15201653Y-13955303D01*
X15201653Y-13955303D02*
X15192129Y-13993398D01*
X15192129Y-13993398D02*
X15192129Y-14069588D01*
X15192129Y-14069588D02*
X15201653Y-14088636D01*
X15201653Y-14088636D02*
X15211177Y-14098160D01*
X15211177Y-14098160D02*
X15230225Y-14107684D01*
X15230225Y-14107684D02*
X15268320Y-14107684D01*
X15268320Y-14107684D02*
X15287368Y-14098160D01*
X15287368Y-14098160D02*
X15296891Y-14088636D01*
X15296891Y-14088636D02*
X15306415Y-14069588D01*
X15306415Y-14069588D02*
X15306415Y-14021969D01*
X15306415Y-14021969D02*
X15296891Y-14002922D01*
X15296891Y-14002922D02*
X15287368Y-13993398D01*
X15287368Y-13993398D02*
X15268320Y-13983874D01*
X15268320Y-13983874D02*
X15230225Y-13983874D01*
X15230225Y-13983874D02*
X15211177Y-13993398D01*
X15211177Y-13993398D02*
X15201653Y-14002922D01*
X15201653Y-14002922D02*
X15192129Y-14021969D01*
X15544510Y-14107684D02*
X15544510Y-13907684D01*
X15630225Y-14107684D02*
X15630225Y-14002922D01*
X15630225Y-14002922D02*
X15620701Y-13983874D01*
X15620701Y-13983874D02*
X15601653Y-13974350D01*
X15601653Y-13974350D02*
X15573082Y-13974350D01*
X15573082Y-13974350D02*
X15554034Y-13983874D01*
X15554034Y-13983874D02*
X15544510Y-13993398D01*
X15754034Y-14107684D02*
X15734987Y-14098160D01*
X15734987Y-14098160D02*
X15725463Y-14088636D01*
X15725463Y-14088636D02*
X15715939Y-14069588D01*
X15715939Y-14069588D02*
X15715939Y-14012446D01*
X15715939Y-14012446D02*
X15725463Y-13993398D01*
X15725463Y-13993398D02*
X15734987Y-13983874D01*
X15734987Y-13983874D02*
X15754034Y-13974350D01*
X15754034Y-13974350D02*
X15782606Y-13974350D01*
X15782606Y-13974350D02*
X15801653Y-13983874D01*
X15801653Y-13983874D02*
X15811177Y-13993398D01*
X15811177Y-13993398D02*
X15820701Y-14012446D01*
X15820701Y-14012446D02*
X15820701Y-14069588D01*
X15820701Y-14069588D02*
X15811177Y-14088636D01*
X15811177Y-14088636D02*
X15801653Y-14098160D01*
X15801653Y-14098160D02*
X15782606Y-14107684D01*
X15782606Y-14107684D02*
X15754034Y-14107684D01*
X15934987Y-14107684D02*
X15915939Y-14098160D01*
X15915939Y-14098160D02*
X15906415Y-14079112D01*
X15906415Y-14079112D02*
X15906415Y-13907684D01*
X16087368Y-14098160D02*
X16068320Y-14107684D01*
X16068320Y-14107684D02*
X16030225Y-14107684D01*
X16030225Y-14107684D02*
X16011177Y-14098160D01*
X16011177Y-14098160D02*
X16001653Y-14079112D01*
X16001653Y-14079112D02*
X16001653Y-14002922D01*
X16001653Y-14002922D02*
X16011177Y-13983874D01*
X16011177Y-13983874D02*
X16030225Y-13974350D01*
X16030225Y-13974350D02*
X16068320Y-13974350D01*
X16068320Y-13974350D02*
X16087368Y-13983874D01*
X16087368Y-13983874D02*
X16096891Y-14002922D01*
X16096891Y-14002922D02*
X16096891Y-14021969D01*
X16096891Y-14021969D02*
X16001653Y-14041017D01*
X16173082Y-14098160D02*
X16192130Y-14107684D01*
X16192130Y-14107684D02*
X16230225Y-14107684D01*
X16230225Y-14107684D02*
X16249272Y-14098160D01*
X16249272Y-14098160D02*
X16258796Y-14079112D01*
X16258796Y-14079112D02*
X16258796Y-14069588D01*
X16258796Y-14069588D02*
X16249272Y-14050541D01*
X16249272Y-14050541D02*
X16230225Y-14041017D01*
X16230225Y-14041017D02*
X16201653Y-14041017D01*
X16201653Y-14041017D02*
X16182606Y-14031493D01*
X16182606Y-14031493D02*
X16173082Y-14012446D01*
X16173082Y-14012446D02*
X16173082Y-14002922D01*
X16173082Y-14002922D02*
X16182606Y-13983874D01*
X16182606Y-13983874D02*
X16201653Y-13974350D01*
X16201653Y-13974350D02*
X16230225Y-13974350D01*
X16230225Y-13974350D02*
X16249272Y-13983874D01*
X16325463Y-14183874D02*
X16334987Y-14174350D01*
X16334987Y-14174350D02*
X16354034Y-14145779D01*
X16354034Y-14145779D02*
X16363558Y-14126731D01*
X16363558Y-14126731D02*
X16373082Y-14098160D01*
X16373082Y-14098160D02*
X16382606Y-14050541D01*
X16382606Y-14050541D02*
X16382606Y-14012446D01*
X16382606Y-14012446D02*
X16373082Y-13964827D01*
X16373082Y-13964827D02*
X16363558Y-13936255D01*
X16363558Y-13936255D02*
X16354034Y-13917208D01*
X16354034Y-13917208D02*
X16334987Y-13888636D01*
X16334987Y-13888636D02*
X16325463Y-13879112D01*
M02*
