G04 #@! TF.GenerationSoftware,KiCad,Pcbnew,9.0.5*
G04 #@! TF.CreationDate,2025-11-22T16:47:00-05:00*
G04 #@! TF.ProjectId,esp_now_button_v2,6573705f-6e6f-4775-9f62-7574746f6e5f,rev?*
G04 #@! TF.SameCoordinates,Original*
G04 #@! TF.FileFunction,Legend,Bot*
G04 #@! TF.FilePolarity,Positive*
%FSLAX46Y46*%
G04 Gerber Fmt 4.6, Leading zero omitted, Abs format (unit mm)*
G04 Created by KiCad (PCBNEW 9.0.5) date 2025-11-22 16:47:00*
%MOMM*%
%LPD*%
G01*
G04 APERTURE LIST*
G04 Aperture macros list*
%AMRoundRect*
0 Rectangle with rounded corners*
0 $1 Rounding radius*
0 $2 $3 $4 $5 $6 $7 $8 $9 X,Y pos of 4 corners*
0 Add a 4 corners polygon primitive as box body*
4,1,4,$2,$3,$4,$5,$6,$7,$8,$9,$2,$3,0*
0 Add four circle primitives for the rounded corners*
1,1,$1+$1,$2,$3*
1,1,$1+$1,$4,$5*
1,1,$1+$1,$6,$7*
1,1,$1+$1,$8,$9*
0 Add four rect primitives between the rounded corners*
20,1,$1+$1,$2,$3,$4,$5,0*
20,1,$1+$1,$4,$5,$6,$7,0*
20,1,$1+$1,$6,$7,$8,$9,0*
20,1,$1+$1,$8,$9,$2,$3,0*%
G04 Aperture macros list end*
%ADD10C,0.400000*%
%ADD11C,0.300000*%
%ADD12R,1.800000X1.800000*%
%ADD13C,1.800000*%
%ADD14R,1.700000X1.700000*%
%ADD15O,1.700000X1.700000*%
%ADD16C,2.000000*%
%ADD17O,3.048000X1.850000*%
%ADD18R,2.800000X2.800000*%
%ADD19RoundRect,0.250000X-0.600000X-0.750000X0.600000X-0.750000X0.600000X0.750000X-0.600000X0.750000X0*%
%ADD20O,1.700000X2.000000*%
%ADD21R,1.500000X1.050000*%
%ADD22O,1.500000X1.050000*%
G04 APERTURE END LIST*
D10*
X161177810Y-54412494D02*
X161177810Y-52412494D01*
X161177810Y-53364875D02*
X160034953Y-53364875D01*
X160034953Y-54412494D02*
X160034953Y-52412494D01*
X158225429Y-53079160D02*
X158225429Y-54412494D01*
X159082572Y-53079160D02*
X159082572Y-54126779D01*
X159082572Y-54126779D02*
X158987334Y-54317256D01*
X158987334Y-54317256D02*
X158796858Y-54412494D01*
X158796858Y-54412494D02*
X158511143Y-54412494D01*
X158511143Y-54412494D02*
X158320667Y-54317256D01*
X158320667Y-54317256D02*
X158225429Y-54222017D01*
X156511143Y-54317256D02*
X156701619Y-54412494D01*
X156701619Y-54412494D02*
X157082572Y-54412494D01*
X157082572Y-54412494D02*
X157273048Y-54317256D01*
X157273048Y-54317256D02*
X157368286Y-54126779D01*
X157368286Y-54126779D02*
X157368286Y-53364875D01*
X157368286Y-53364875D02*
X157273048Y-53174398D01*
X157273048Y-53174398D02*
X157082572Y-53079160D01*
X157082572Y-53079160D02*
X156701619Y-53079160D01*
X156701619Y-53079160D02*
X156511143Y-53174398D01*
X156511143Y-53174398D02*
X156415905Y-53364875D01*
X156415905Y-53364875D02*
X156415905Y-53555351D01*
X156415905Y-53555351D02*
X157368286Y-53745827D01*
X155558762Y-54412494D02*
X155558762Y-52412494D01*
X155558762Y-52412494D02*
X154892095Y-53841065D01*
X154892095Y-53841065D02*
X154225429Y-52412494D01*
X154225429Y-52412494D02*
X154225429Y-54412494D01*
X153273048Y-54412494D02*
X153273048Y-53079160D01*
X153273048Y-52412494D02*
X153368286Y-52507732D01*
X153368286Y-52507732D02*
X153273048Y-52602970D01*
X153273048Y-52602970D02*
X153177810Y-52507732D01*
X153177810Y-52507732D02*
X153273048Y-52412494D01*
X153273048Y-52412494D02*
X153273048Y-52602970D01*
X152511143Y-54412494D02*
X151463524Y-53079160D01*
X152511143Y-53079160D02*
X151463524Y-54412494D01*
X148225428Y-54412494D02*
X149177809Y-54412494D01*
X149177809Y-54412494D02*
X149177809Y-52412494D01*
X147558761Y-54412494D02*
X147558761Y-53079160D01*
X147558761Y-52412494D02*
X147653999Y-52507732D01*
X147653999Y-52507732D02*
X147558761Y-52602970D01*
X147558761Y-52602970D02*
X147463523Y-52507732D01*
X147463523Y-52507732D02*
X147558761Y-52412494D01*
X147558761Y-52412494D02*
X147558761Y-52602970D01*
X146606380Y-53079160D02*
X146606380Y-54412494D01*
X146606380Y-53269636D02*
X146511142Y-53174398D01*
X146511142Y-53174398D02*
X146320666Y-53079160D01*
X146320666Y-53079160D02*
X146034951Y-53079160D01*
X146034951Y-53079160D02*
X145844475Y-53174398D01*
X145844475Y-53174398D02*
X145749237Y-53364875D01*
X145749237Y-53364875D02*
X145749237Y-54412494D01*
X144796856Y-54412494D02*
X144796856Y-52412494D01*
X144606380Y-53650589D02*
X144034951Y-54412494D01*
X144034951Y-53079160D02*
X144796856Y-53841065D01*
X155701618Y-55632382D02*
X155034952Y-57632382D01*
X155034952Y-57632382D02*
X154368285Y-55632382D01*
X153796856Y-55822858D02*
X153701618Y-55727620D01*
X153701618Y-55727620D02*
X153511142Y-55632382D01*
X153511142Y-55632382D02*
X153034951Y-55632382D01*
X153034951Y-55632382D02*
X152844475Y-55727620D01*
X152844475Y-55727620D02*
X152749237Y-55822858D01*
X152749237Y-55822858D02*
X152653999Y-56013334D01*
X152653999Y-56013334D02*
X152653999Y-56203810D01*
X152653999Y-56203810D02*
X152749237Y-56489524D01*
X152749237Y-56489524D02*
X153892094Y-57632382D01*
X153892094Y-57632382D02*
X152653999Y-57632382D01*
X151796856Y-57441905D02*
X151701618Y-57537144D01*
X151701618Y-57537144D02*
X151796856Y-57632382D01*
X151796856Y-57632382D02*
X151892094Y-57537144D01*
X151892094Y-57537144D02*
X151796856Y-57441905D01*
X151796856Y-57441905D02*
X151796856Y-57632382D01*
X150463523Y-55632382D02*
X150273046Y-55632382D01*
X150273046Y-55632382D02*
X150082570Y-55727620D01*
X150082570Y-55727620D02*
X149987332Y-55822858D01*
X149987332Y-55822858D02*
X149892094Y-56013334D01*
X149892094Y-56013334D02*
X149796856Y-56394286D01*
X149796856Y-56394286D02*
X149796856Y-56870477D01*
X149796856Y-56870477D02*
X149892094Y-57251429D01*
X149892094Y-57251429D02*
X149987332Y-57441905D01*
X149987332Y-57441905D02*
X150082570Y-57537144D01*
X150082570Y-57537144D02*
X150273046Y-57632382D01*
X150273046Y-57632382D02*
X150463523Y-57632382D01*
X150463523Y-57632382D02*
X150653999Y-57537144D01*
X150653999Y-57537144D02*
X150749237Y-57441905D01*
X150749237Y-57441905D02*
X150844475Y-57251429D01*
X150844475Y-57251429D02*
X150939713Y-56870477D01*
X150939713Y-56870477D02*
X150939713Y-56394286D01*
X150939713Y-56394286D02*
X150844475Y-56013334D01*
X150844475Y-56013334D02*
X150749237Y-55822858D01*
X150749237Y-55822858D02*
X150653999Y-55727620D01*
X150653999Y-55727620D02*
X150463523Y-55632382D01*
D11*
X164034953Y-108859638D02*
X164034953Y-106859638D01*
X164034953Y-106859638D02*
X162892096Y-108859638D01*
X162892096Y-108859638D02*
X162892096Y-106859638D01*
X161654001Y-108859638D02*
X161844477Y-108764400D01*
X161844477Y-108764400D02*
X161939715Y-108669161D01*
X161939715Y-108669161D02*
X162034953Y-108478685D01*
X162034953Y-108478685D02*
X162034953Y-107907257D01*
X162034953Y-107907257D02*
X161939715Y-107716780D01*
X161939715Y-107716780D02*
X161844477Y-107621542D01*
X161844477Y-107621542D02*
X161654001Y-107526304D01*
X161654001Y-107526304D02*
X161368286Y-107526304D01*
X161368286Y-107526304D02*
X161177810Y-107621542D01*
X161177810Y-107621542D02*
X161082572Y-107716780D01*
X161082572Y-107716780D02*
X160987334Y-107907257D01*
X160987334Y-107907257D02*
X160987334Y-108478685D01*
X160987334Y-108478685D02*
X161082572Y-108669161D01*
X161082572Y-108669161D02*
X161177810Y-108764400D01*
X161177810Y-108764400D02*
X161368286Y-108859638D01*
X161368286Y-108859638D02*
X161654001Y-108859638D01*
X160320667Y-107526304D02*
X159844477Y-108859638D01*
X159844477Y-108859638D02*
X159368286Y-107526304D01*
X157844476Y-108764400D02*
X158034952Y-108859638D01*
X158034952Y-108859638D02*
X158415905Y-108859638D01*
X158415905Y-108859638D02*
X158606381Y-108764400D01*
X158606381Y-108764400D02*
X158701619Y-108573923D01*
X158701619Y-108573923D02*
X158701619Y-107812019D01*
X158701619Y-107812019D02*
X158606381Y-107621542D01*
X158606381Y-107621542D02*
X158415905Y-107526304D01*
X158415905Y-107526304D02*
X158034952Y-107526304D01*
X158034952Y-107526304D02*
X157844476Y-107621542D01*
X157844476Y-107621542D02*
X157749238Y-107812019D01*
X157749238Y-107812019D02*
X157749238Y-108002495D01*
X157749238Y-108002495D02*
X158701619Y-108192971D01*
X156892095Y-108859638D02*
X156892095Y-107526304D01*
X156892095Y-107716780D02*
X156796857Y-107621542D01*
X156796857Y-107621542D02*
X156606381Y-107526304D01*
X156606381Y-107526304D02*
X156320666Y-107526304D01*
X156320666Y-107526304D02*
X156130190Y-107621542D01*
X156130190Y-107621542D02*
X156034952Y-107812019D01*
X156034952Y-107812019D02*
X156034952Y-108859638D01*
X156034952Y-107812019D02*
X155939714Y-107621542D01*
X155939714Y-107621542D02*
X155749238Y-107526304D01*
X155749238Y-107526304D02*
X155463524Y-107526304D01*
X155463524Y-107526304D02*
X155273047Y-107621542D01*
X155273047Y-107621542D02*
X155177809Y-107812019D01*
X155177809Y-107812019D02*
X155177809Y-108859638D01*
X154225428Y-108859638D02*
X154225428Y-106859638D01*
X154225428Y-107621542D02*
X154034952Y-107526304D01*
X154034952Y-107526304D02*
X153653999Y-107526304D01*
X153653999Y-107526304D02*
X153463523Y-107621542D01*
X153463523Y-107621542D02*
X153368285Y-107716780D01*
X153368285Y-107716780D02*
X153273047Y-107907257D01*
X153273047Y-107907257D02*
X153273047Y-108478685D01*
X153273047Y-108478685D02*
X153368285Y-108669161D01*
X153368285Y-108669161D02*
X153463523Y-108764400D01*
X153463523Y-108764400D02*
X153653999Y-108859638D01*
X153653999Y-108859638D02*
X154034952Y-108859638D01*
X154034952Y-108859638D02*
X154225428Y-108764400D01*
X151653999Y-108764400D02*
X151844475Y-108859638D01*
X151844475Y-108859638D02*
X152225428Y-108859638D01*
X152225428Y-108859638D02*
X152415904Y-108764400D01*
X152415904Y-108764400D02*
X152511142Y-108573923D01*
X152511142Y-108573923D02*
X152511142Y-107812019D01*
X152511142Y-107812019D02*
X152415904Y-107621542D01*
X152415904Y-107621542D02*
X152225428Y-107526304D01*
X152225428Y-107526304D02*
X151844475Y-107526304D01*
X151844475Y-107526304D02*
X151653999Y-107621542D01*
X151653999Y-107621542D02*
X151558761Y-107812019D01*
X151558761Y-107812019D02*
X151558761Y-108002495D01*
X151558761Y-108002495D02*
X152511142Y-108192971D01*
X150701618Y-108859638D02*
X150701618Y-107526304D01*
X150701618Y-107907257D02*
X150606380Y-107716780D01*
X150606380Y-107716780D02*
X150511142Y-107621542D01*
X150511142Y-107621542D02*
X150320666Y-107526304D01*
X150320666Y-107526304D02*
X150130189Y-107526304D01*
X148034951Y-107050114D02*
X147939713Y-106954876D01*
X147939713Y-106954876D02*
X147749237Y-106859638D01*
X147749237Y-106859638D02*
X147273046Y-106859638D01*
X147273046Y-106859638D02*
X147082570Y-106954876D01*
X147082570Y-106954876D02*
X146987332Y-107050114D01*
X146987332Y-107050114D02*
X146892094Y-107240590D01*
X146892094Y-107240590D02*
X146892094Y-107431066D01*
X146892094Y-107431066D02*
X146987332Y-107716780D01*
X146987332Y-107716780D02*
X148130189Y-108859638D01*
X148130189Y-108859638D02*
X146892094Y-108859638D01*
X145653999Y-106859638D02*
X145463522Y-106859638D01*
X145463522Y-106859638D02*
X145273046Y-106954876D01*
X145273046Y-106954876D02*
X145177808Y-107050114D01*
X145177808Y-107050114D02*
X145082570Y-107240590D01*
X145082570Y-107240590D02*
X144987332Y-107621542D01*
X144987332Y-107621542D02*
X144987332Y-108097733D01*
X144987332Y-108097733D02*
X145082570Y-108478685D01*
X145082570Y-108478685D02*
X145177808Y-108669161D01*
X145177808Y-108669161D02*
X145273046Y-108764400D01*
X145273046Y-108764400D02*
X145463522Y-108859638D01*
X145463522Y-108859638D02*
X145653999Y-108859638D01*
X145653999Y-108859638D02*
X145844475Y-108764400D01*
X145844475Y-108764400D02*
X145939713Y-108669161D01*
X145939713Y-108669161D02*
X146034951Y-108478685D01*
X146034951Y-108478685D02*
X146130189Y-108097733D01*
X146130189Y-108097733D02*
X146130189Y-107621542D01*
X146130189Y-107621542D02*
X146034951Y-107240590D01*
X146034951Y-107240590D02*
X145939713Y-107050114D01*
X145939713Y-107050114D02*
X145844475Y-106954876D01*
X145844475Y-106954876D02*
X145653999Y-106859638D01*
X144225427Y-107050114D02*
X144130189Y-106954876D01*
X144130189Y-106954876D02*
X143939713Y-106859638D01*
X143939713Y-106859638D02*
X143463522Y-106859638D01*
X143463522Y-106859638D02*
X143273046Y-106954876D01*
X143273046Y-106954876D02*
X143177808Y-107050114D01*
X143177808Y-107050114D02*
X143082570Y-107240590D01*
X143082570Y-107240590D02*
X143082570Y-107431066D01*
X143082570Y-107431066D02*
X143177808Y-107716780D01*
X143177808Y-107716780D02*
X144320665Y-108859638D01*
X144320665Y-108859638D02*
X143082570Y-108859638D01*
X141273046Y-106859638D02*
X142225427Y-106859638D01*
X142225427Y-106859638D02*
X142320665Y-107812019D01*
X142320665Y-107812019D02*
X142225427Y-107716780D01*
X142225427Y-107716780D02*
X142034951Y-107621542D01*
X142034951Y-107621542D02*
X141558760Y-107621542D01*
X141558760Y-107621542D02*
X141368284Y-107716780D01*
X141368284Y-107716780D02*
X141273046Y-107812019D01*
X141273046Y-107812019D02*
X141177808Y-108002495D01*
X141177808Y-108002495D02*
X141177808Y-108478685D01*
X141177808Y-108478685D02*
X141273046Y-108669161D01*
X141273046Y-108669161D02*
X141368284Y-108764400D01*
X141368284Y-108764400D02*
X141558760Y-108859638D01*
X141558760Y-108859638D02*
X142034951Y-108859638D01*
X142034951Y-108859638D02*
X142225427Y-108764400D01*
X142225427Y-108764400D02*
X142320665Y-108669161D01*
%LPC*%
D12*
G04 #@! TO.C,D2*
X141780000Y-99030000D03*
D13*
X139240000Y-99030000D03*
G04 #@! TD*
D12*
G04 #@! TO.C,D1*
X122174000Y-64262000D03*
D13*
X124714000Y-64262000D03*
G04 #@! TD*
D14*
G04 #@! TO.C,J1*
X133858000Y-84592000D03*
D15*
X133858000Y-87132000D03*
X133858000Y-89672000D03*
X133858000Y-92212000D03*
G04 #@! TD*
D12*
G04 #@! TO.C,D4*
X183205000Y-97200000D03*
D13*
X180665000Y-97200000D03*
G04 #@! TD*
D16*
G04 #@! TO.C,SW2*
X118924000Y-78522000D03*
X125424000Y-78522000D03*
X118924000Y-83022000D03*
X125424000Y-83022000D03*
G04 #@! TD*
D17*
G04 #@! TO.C,SW1*
X146750000Y-78272000D03*
X159250000Y-78272000D03*
X146750000Y-83272000D03*
X159250000Y-83272000D03*
G04 #@! TD*
D12*
G04 #@! TO.C,D5*
X122174000Y-97200000D03*
D13*
X124714000Y-97200000D03*
G04 #@! TD*
D18*
G04 #@! TO.C,U3*
X145287500Y-114774500D03*
X159487500Y-114774500D03*
X145287500Y-91874500D03*
X159787500Y-91874500D03*
X148787500Y-91874500D03*
X156387500Y-91874500D03*
G04 #@! TD*
D14*
G04 #@! TO.C,JP2*
X129540000Y-91943000D03*
D15*
X129540000Y-94483000D03*
G04 #@! TD*
D19*
G04 #@! TO.C,J2*
X165862000Y-109474000D03*
D20*
X168362000Y-109474000D03*
G04 #@! TD*
D12*
G04 #@! TO.C,D3*
X183205000Y-64262000D03*
D13*
X180665000Y-64262000D03*
G04 #@! TD*
D21*
G04 #@! TO.C,U4*
X131572000Y-61214000D03*
D22*
X131572000Y-62484000D03*
X131572000Y-63754000D03*
G04 #@! TD*
%LPD*%
M02*
