G04 #@! TF.GenerationSoftware,KiCad,Pcbnew,9.0.5*
G04 #@! TF.CreationDate,2025-11-22T16:47:00-05:00*
G04 #@! TF.ProjectId,esp_now_button_v2,6573705f-6e6f-4775-9f62-7574746f6e5f,rev?*
G04 #@! TF.SameCoordinates,Original*
G04 #@! TF.FileFunction,Copper,L1,Top*
G04 #@! TF.FilePolarity,Positive*
%FSLAX46Y46*%
G04 Gerber Fmt 4.6, Leading zero omitted, Abs format (unit mm)*
G04 Created by KiCad (PCBNEW 9.0.5) date 2025-11-22 16:47:00*
%MOMM*%
%LPD*%
G01*
G04 APERTURE LIST*
G04 Aperture macros list*
%AMRoundRect*
0 Rectangle with rounded corners*
0 $1 Rounding radius*
0 $2 $3 $4 $5 $6 $7 $8 $9 X,Y pos of 4 corners*
0 Add a 4 corners polygon primitive as box body*
4,1,4,$2,$3,$4,$5,$6,$7,$8,$9,$2,$3,0*
0 Add four circle primitives for the rounded corners*
1,1,$1+$1,$2,$3*
1,1,$1+$1,$4,$5*
1,1,$1+$1,$6,$7*
1,1,$1+$1,$8,$9*
0 Add four rect primitives between the rounded corners*
20,1,$1+$1,$2,$3,$4,$5,0*
20,1,$1+$1,$4,$5,$6,$7,0*
20,1,$1+$1,$6,$7,$8,$9,0*
20,1,$1+$1,$8,$9,$2,$3,0*%
%AMFreePoly0*
4,1,9,3.862500,-0.866500,0.737500,-0.866500,0.737500,-0.450000,-0.737500,-0.450000,-0.737500,0.450000,0.737500,0.450000,0.737500,0.866500,3.862500,0.866500,3.862500,-0.866500,3.862500,-0.866500,$1*%
G04 Aperture macros list end*
G04 #@! TA.AperFunction,SMDPad,CuDef*
%ADD10RoundRect,0.250000X0.625000X-0.400000X0.625000X0.400000X-0.625000X0.400000X-0.625000X-0.400000X0*%
G04 #@! TD*
G04 #@! TA.AperFunction,ComponentPad*
%ADD11R,1.800000X1.800000*%
G04 #@! TD*
G04 #@! TA.AperFunction,ComponentPad*
%ADD12C,1.800000*%
G04 #@! TD*
G04 #@! TA.AperFunction,SMDPad,CuDef*
%ADD13RoundRect,0.250000X-0.625000X0.400000X-0.625000X-0.400000X0.625000X-0.400000X0.625000X0.400000X0*%
G04 #@! TD*
G04 #@! TA.AperFunction,ComponentPad*
%ADD14R,1.700000X1.700000*%
G04 #@! TD*
G04 #@! TA.AperFunction,ComponentPad*
%ADD15O,1.700000X1.700000*%
G04 #@! TD*
G04 #@! TA.AperFunction,ComponentPad*
%ADD16C,2.000000*%
G04 #@! TD*
G04 #@! TA.AperFunction,SMDPad,CuDef*
%ADD17RoundRect,0.250000X-0.925000X0.875000X-0.925000X-0.875000X0.925000X-0.875000X0.925000X0.875000X0*%
G04 #@! TD*
G04 #@! TA.AperFunction,SMDPad,CuDef*
%ADD18RoundRect,0.250000X0.475000X-0.337500X0.475000X0.337500X-0.475000X0.337500X-0.475000X-0.337500X0*%
G04 #@! TD*
G04 #@! TA.AperFunction,SMDPad,CuDef*
%ADD19R,1.500000X1.000000*%
G04 #@! TD*
G04 #@! TA.AperFunction,ComponentPad*
%ADD20O,3.048000X1.850000*%
G04 #@! TD*
G04 #@! TA.AperFunction,SMDPad,CuDef*
%ADD21RoundRect,0.250000X0.925000X-0.875000X0.925000X0.875000X-0.925000X0.875000X-0.925000X-0.875000X0*%
G04 #@! TD*
G04 #@! TA.AperFunction,SMDPad,CuDef*
%ADD22R,1.300000X0.900000*%
G04 #@! TD*
G04 #@! TA.AperFunction,SMDPad,CuDef*
%ADD23FreePoly0,180.000000*%
G04 #@! TD*
G04 #@! TA.AperFunction,SMDPad,CuDef*
%ADD24RoundRect,0.200000X-0.250000X-0.200000X0.250000X-0.200000X0.250000X0.200000X-0.250000X0.200000X0*%
G04 #@! TD*
G04 #@! TA.AperFunction,ComponentPad*
%ADD25R,2.800000X2.800000*%
G04 #@! TD*
G04 #@! TA.AperFunction,SMDPad,CuDef*
%ADD26R,2.000000X0.900000*%
G04 #@! TD*
G04 #@! TA.AperFunction,SMDPad,CuDef*
%ADD27R,0.900000X2.000000*%
G04 #@! TD*
G04 #@! TA.AperFunction,SMDPad,CuDef*
%ADD28R,5.000000X5.000000*%
G04 #@! TD*
G04 #@! TA.AperFunction,ComponentPad*
%ADD29RoundRect,0.250000X-0.600000X-0.750000X0.600000X-0.750000X0.600000X0.750000X-0.600000X0.750000X0*%
G04 #@! TD*
G04 #@! TA.AperFunction,ComponentPad*
%ADD30O,1.700000X2.000000*%
G04 #@! TD*
G04 #@! TA.AperFunction,ComponentPad*
%ADD31R,1.500000X1.050000*%
G04 #@! TD*
G04 #@! TA.AperFunction,ComponentPad*
%ADD32O,1.500000X1.050000*%
G04 #@! TD*
G04 #@! TA.AperFunction,ViaPad*
%ADD33C,0.800000*%
G04 #@! TD*
G04 #@! TA.AperFunction,Conductor*
%ADD34C,1.000000*%
G04 #@! TD*
G04 #@! TA.AperFunction,Conductor*
%ADD35C,0.500000*%
G04 #@! TD*
G04 #@! TA.AperFunction,Conductor*
%ADD36C,0.250000*%
G04 #@! TD*
G04 APERTURE END LIST*
D10*
G04 #@! TO.P,R11,1*
G04 #@! TO.N,+3.3V*
X185600000Y-93790000D03*
G04 #@! TO.P,R11,2*
G04 #@! TO.N,Net-(D4-A)*
X185600000Y-90690000D03*
G04 #@! TD*
D11*
G04 #@! TO.P,D2,1,K*
G04 #@! TO.N,GND*
X141780000Y-99030000D03*
D12*
G04 #@! TO.P,D2,2,A*
G04 #@! TO.N,Net-(D2-A)*
X139240000Y-99030000D03*
G04 #@! TD*
D13*
G04 #@! TO.P,R3,1*
G04 #@! TO.N,Net-(U1-IO18)*
X133430000Y-97730000D03*
G04 #@! TO.P,R3,2*
G04 #@! TO.N,Net-(Q1-B)*
X133430000Y-100830000D03*
G04 #@! TD*
D11*
G04 #@! TO.P,D1,1,K*
G04 #@! TO.N,Net-(D1-K)*
X122174000Y-64262000D03*
D12*
G04 #@! TO.P,D1,2,A*
G04 #@! TO.N,Net-(D1-A)*
X124714000Y-64262000D03*
G04 #@! TD*
D14*
G04 #@! TO.P,J1,1,Pin_1*
G04 #@! TO.N,+3.3V*
X133858000Y-84592000D03*
D15*
G04 #@! TO.P,J1,2,Pin_2*
G04 #@! TO.N,Net-(J1-Pin_2)*
X133858000Y-87132000D03*
G04 #@! TO.P,J1,3,Pin_3*
G04 #@! TO.N,Net-(J1-Pin_3)*
X133858000Y-89672000D03*
G04 #@! TO.P,J1,4,Pin_4*
G04 #@! TO.N,GND*
X133858000Y-92212000D03*
G04 #@! TD*
D11*
G04 #@! TO.P,D4,1,K*
G04 #@! TO.N,Net-(D1-K)*
X183205000Y-97200000D03*
D12*
G04 #@! TO.P,D4,2,A*
G04 #@! TO.N,Net-(D4-A)*
X180665000Y-97200000D03*
G04 #@! TD*
D16*
G04 #@! TO.P,SW2,1,1*
G04 #@! TO.N,Net-(U1-IO13)*
X118924000Y-78522000D03*
X125424000Y-78522000D03*
G04 #@! TO.P,SW2,2,2*
G04 #@! TO.N,GND*
X118924000Y-83022000D03*
X125424000Y-83022000D03*
G04 #@! TD*
D10*
G04 #@! TO.P,R12,1*
G04 #@! TO.N,Net-(D5-A)*
X136570000Y-111550000D03*
G04 #@! TO.P,R12,2*
G04 #@! TO.N,+3.3V*
X136570000Y-108450000D03*
G04 #@! TD*
D17*
G04 #@! TO.P,C5,1*
G04 #@! TO.N,Net-(JP3-A)*
X136652000Y-66030000D03*
G04 #@! TO.P,C5,2*
G04 #@! TO.N,GND*
X136652000Y-71130000D03*
G04 #@! TD*
D13*
G04 #@! TO.P,R10,1*
G04 #@! TO.N,Net-(D3-A)*
X185440000Y-67660000D03*
G04 #@! TO.P,R10,2*
G04 #@! TO.N,+3.3V*
X185440000Y-70760000D03*
G04 #@! TD*
D10*
G04 #@! TO.P,R9,1*
G04 #@! TO.N,Net-(U1-IO13)*
X129540000Y-86894000D03*
G04 #@! TO.P,R9,2*
G04 #@! TO.N,+3.3V*
X129540000Y-83794000D03*
G04 #@! TD*
D18*
G04 #@! TO.P,C1,1*
G04 #@! TO.N,+3.3V*
X140462000Y-57171500D03*
G04 #@! TO.P,C1,2*
G04 #@! TO.N,GND*
X140462000Y-55096500D03*
G04 #@! TD*
D19*
G04 #@! TO.P,JP4,1,A*
G04 #@! TO.N,GND*
X164592000Y-94600000D03*
G04 #@! TO.P,JP4,2,B*
G04 #@! TO.N,-BATT*
X164592000Y-95900000D03*
G04 #@! TD*
D10*
G04 #@! TO.P,R4,1*
G04 #@! TO.N,+3.3V*
X129540000Y-80036000D03*
G04 #@! TO.P,R4,2*
G04 #@! TO.N,Net-(JP2-B)*
X129540000Y-76936000D03*
G04 #@! TD*
G04 #@! TO.P,R6,1*
G04 #@! TO.N,GND*
X138938000Y-92762000D03*
G04 #@! TO.P,R6,2*
G04 #@! TO.N,Net-(J1-Pin_3)*
X138938000Y-89662000D03*
G04 #@! TD*
D18*
G04 #@! TO.P,C3,1*
G04 #@! TO.N,Net-(JP1-A)*
X125730000Y-72183500D03*
G04 #@! TO.P,C3,2*
G04 #@! TO.N,GND*
X125730000Y-70108500D03*
G04 #@! TD*
D20*
G04 #@! TO.P,SW1,1,1*
G04 #@! TO.N,Net-(U1-IO12)*
X146750000Y-78272000D03*
X159250000Y-78272000D03*
G04 #@! TO.P,SW1,2,2*
G04 #@! TO.N,GND*
X146750000Y-83272000D03*
X159250000Y-83272000D03*
G04 #@! TD*
D11*
G04 #@! TO.P,D5,1,K*
G04 #@! TO.N,Net-(D1-K)*
X122174000Y-97200000D03*
D12*
G04 #@! TO.P,D5,2,A*
G04 #@! TO.N,Net-(D5-A)*
X124714000Y-97200000D03*
G04 #@! TD*
D19*
G04 #@! TO.P,JP1,1,A*
G04 #@! TO.N,Net-(JP1-A)*
X121412000Y-72050000D03*
G04 #@! TO.P,JP1,2,B*
G04 #@! TO.N,GND*
X121412000Y-70750000D03*
G04 #@! TD*
D21*
G04 #@! TO.P,C2,1*
G04 #@! TO.N,+3.3V*
X136652000Y-58938000D03*
G04 #@! TO.P,C2,2*
G04 #@! TO.N,GND*
X136652000Y-53838000D03*
G04 #@! TD*
D10*
G04 #@! TO.P,R5,1*
G04 #@! TO.N,Net-(J1-Pin_2)*
X133858000Y-80036000D03*
G04 #@! TO.P,R5,2*
G04 #@! TO.N,Net-(U1-TXD0{slash}IO1)*
X133858000Y-76936000D03*
G04 #@! TD*
G04 #@! TO.P,R7,1*
G04 #@! TO.N,Net-(J1-Pin_3)*
X138938000Y-86386000D03*
G04 #@! TO.P,R7,2*
G04 #@! TO.N,Net-(U1-RXD0{slash}IO3)*
X138938000Y-83286000D03*
G04 #@! TD*
D22*
G04 #@! TO.P,U2,1,GND*
G04 #@! TO.N,GND*
X131952000Y-58142000D03*
D23*
G04 #@! TO.P,U2,2,VIN*
G04 #@! TO.N,Net-(JP3-A)*
X131864500Y-56642000D03*
D22*
G04 #@! TO.P,U2,3,VOUT*
G04 #@! TO.N,+3.3V*
X131952000Y-55142000D03*
G04 #@! TD*
D19*
G04 #@! TO.P,JP3,1,A*
G04 #@! TO.N,Net-(JP3-A)*
X164592000Y-99710000D03*
G04 #@! TO.P,JP3,2,B*
G04 #@! TO.N,+BATT*
X164592000Y-98410000D03*
G04 #@! TD*
D24*
G04 #@! TO.P,Q1,1,B*
G04 #@! TO.N,Net-(Q1-B)*
X131370000Y-103630000D03*
G04 #@! TO.P,Q1,2,E*
G04 #@! TO.N,GND*
X131370000Y-105530000D03*
G04 #@! TO.P,Q1,3,C*
G04 #@! TO.N,Net-(D1-K)*
X133370000Y-104580000D03*
G04 #@! TD*
D25*
G04 #@! TO.P,U3,1,5V*
G04 #@! TO.N,+5V*
X145287500Y-114774500D03*
G04 #@! TO.P,U3,2,GND*
G04 #@! TO.N,GND1*
X159487500Y-114774500D03*
G04 #@! TO.P,U3,3,Out+*
G04 #@! TO.N,Net-(JP3-A)*
X145287500Y-91874500D03*
G04 #@! TO.P,U3,4,Out-*
G04 #@! TO.N,GND*
X159787500Y-91874500D03*
G04 #@! TO.P,U3,5,B+*
G04 #@! TO.N,+BATT*
X148787500Y-91874500D03*
G04 #@! TO.P,U3,6,B-*
G04 #@! TO.N,-BATT*
X156387500Y-91874500D03*
G04 #@! TD*
D10*
G04 #@! TO.P,R2,1*
G04 #@! TO.N,Net-(JP1-A)*
X129286000Y-72696000D03*
G04 #@! TO.P,R2,2*
G04 #@! TO.N,+3.3V*
X129286000Y-69596000D03*
G04 #@! TD*
D26*
G04 #@! TO.P,U1,1,GND*
G04 #@! TO.N,GND*
X143900000Y-52621000D03*
G04 #@! TO.P,U1,2,VDD*
G04 #@! TO.N,+3.3V*
X143900000Y-53891000D03*
G04 #@! TO.P,U1,3,EN*
G04 #@! TO.N,Net-(JP1-A)*
X143900000Y-55161000D03*
G04 #@! TO.P,U1,4,SENSOR_VP*
G04 #@! TO.N,unconnected-(U1-SENSOR_VP-Pad4)*
X143900000Y-56431000D03*
G04 #@! TO.P,U1,5,SENSOR_VN*
G04 #@! TO.N,unconnected-(U1-SENSOR_VN-Pad5)*
X143900000Y-57701000D03*
G04 #@! TO.P,U1,6,IO34*
G04 #@! TO.N,unconnected-(U1-IO34-Pad6)*
X143900000Y-58971000D03*
G04 #@! TO.P,U1,7,IO35*
G04 #@! TO.N,unconnected-(U1-IO35-Pad7)*
X143900000Y-60241000D03*
G04 #@! TO.P,U1,8,IO32*
G04 #@! TO.N,unconnected-(U1-IO32-Pad8)*
X143900000Y-61511000D03*
G04 #@! TO.P,U1,9,IO33*
G04 #@! TO.N,unconnected-(U1-IO33-Pad9)*
X143900000Y-62781000D03*
G04 #@! TO.P,U1,10,IO25*
G04 #@! TO.N,unconnected-(U1-IO25-Pad10)*
X143900000Y-64051000D03*
G04 #@! TO.P,U1,11,IO26*
G04 #@! TO.N,unconnected-(U1-IO26-Pad11)*
X143900000Y-65321000D03*
G04 #@! TO.P,U1,12,IO27*
G04 #@! TO.N,unconnected-(U1-IO27-Pad12)*
X143900000Y-66591000D03*
G04 #@! TO.P,U1,13,IO14*
G04 #@! TO.N,unconnected-(U1-IO14-Pad13)*
X143900000Y-67861000D03*
G04 #@! TO.P,U1,14,IO12*
G04 #@! TO.N,Net-(U1-IO12)*
X143900000Y-69131000D03*
D27*
G04 #@! TO.P,U1,15,GND*
G04 #@! TO.N,GND*
X146685000Y-70131000D03*
G04 #@! TO.P,U1,16,IO13*
G04 #@! TO.N,Net-(U1-IO13)*
X147955000Y-70131000D03*
G04 #@! TO.P,U1,17,SHD/SD2*
G04 #@! TO.N,unconnected-(U1-SHD{slash}SD2-Pad17)*
X149225000Y-70131000D03*
G04 #@! TO.P,U1,18,SWP/SD3*
G04 #@! TO.N,unconnected-(U1-SWP{slash}SD3-Pad18)*
X150495000Y-70131000D03*
G04 #@! TO.P,U1,19,SCS/CMD*
G04 #@! TO.N,unconnected-(U1-SCS{slash}CMD-Pad19)*
X151765000Y-70131000D03*
G04 #@! TO.P,U1,20,SCK/CLK*
G04 #@! TO.N,unconnected-(U1-SCK{slash}CLK-Pad20)*
X153035000Y-70131000D03*
G04 #@! TO.P,U1,21,SDO/SD0*
G04 #@! TO.N,unconnected-(U1-SDO{slash}SD0-Pad21)*
X154305000Y-70131000D03*
G04 #@! TO.P,U1,22,SDI/SD1*
G04 #@! TO.N,unconnected-(U1-SDI{slash}SD1-Pad22)*
X155575000Y-70131000D03*
G04 #@! TO.P,U1,23,IO15*
G04 #@! TO.N,unconnected-(U1-IO15-Pad23)*
X156845000Y-70131000D03*
G04 #@! TO.P,U1,24,IO2*
G04 #@! TO.N,unconnected-(U1-IO2-Pad24)*
X158115000Y-70131000D03*
D26*
G04 #@! TO.P,U1,25,IO0*
G04 #@! TO.N,Net-(JP2-B)*
X160900000Y-69131000D03*
G04 #@! TO.P,U1,26,IO4*
G04 #@! TO.N,unconnected-(U1-IO4-Pad26)*
X160900000Y-67861000D03*
G04 #@! TO.P,U1,27,IO16*
G04 #@! TO.N,unconnected-(U1-IO16-Pad27)*
X160900000Y-66591000D03*
G04 #@! TO.P,U1,28,IO17*
G04 #@! TO.N,Net-(U1-IO17)*
X160900000Y-65321000D03*
G04 #@! TO.P,U1,29,IO5*
G04 #@! TO.N,unconnected-(U1-IO5-Pad29)*
X160900000Y-64051000D03*
G04 #@! TO.P,U1,30,IO18*
G04 #@! TO.N,Net-(U1-IO18)*
X160900000Y-62781000D03*
G04 #@! TO.P,U1,31,IO19*
G04 #@! TO.N,unconnected-(U1-IO19-Pad31)*
X160900000Y-61511000D03*
G04 #@! TO.P,U1,32,NC*
G04 #@! TO.N,unconnected-(U1-NC-Pad32)*
X160900000Y-60241000D03*
G04 #@! TO.P,U1,33,IO21*
G04 #@! TO.N,unconnected-(U1-IO21-Pad33)*
X160900000Y-58971000D03*
G04 #@! TO.P,U1,34,RXD0/IO3*
G04 #@! TO.N,Net-(U1-RXD0{slash}IO3)*
X160900000Y-57701000D03*
G04 #@! TO.P,U1,35,TXD0/IO1*
G04 #@! TO.N,Net-(U1-TXD0{slash}IO1)*
X160900000Y-56431000D03*
G04 #@! TO.P,U1,36,IO22*
G04 #@! TO.N,unconnected-(U1-IO22-Pad36)*
X160900000Y-55161000D03*
G04 #@! TO.P,U1,37,IO23*
G04 #@! TO.N,unconnected-(U1-IO23-Pad37)*
X160900000Y-53891000D03*
G04 #@! TO.P,U1,38,GND*
G04 #@! TO.N,GND*
X160900000Y-52621000D03*
D28*
G04 #@! TO.P,U1,39,GND*
X151400000Y-60121000D03*
G04 #@! TD*
D14*
G04 #@! TO.P,JP2,1,A*
G04 #@! TO.N,GND*
X129540000Y-91943000D03*
D15*
G04 #@! TO.P,JP2,2,B*
G04 #@! TO.N,Net-(JP2-B)*
X129540000Y-94483000D03*
G04 #@! TD*
D13*
G04 #@! TO.P,R8,1*
G04 #@! TO.N,Net-(U1-IO17)*
X136540000Y-97670000D03*
G04 #@! TO.P,R8,2*
G04 #@! TO.N,Net-(D2-A)*
X136540000Y-100770000D03*
G04 #@! TD*
D29*
G04 #@! TO.P,J2,1,Pin_1*
G04 #@! TO.N,+BATT*
X165862000Y-109474000D03*
D30*
G04 #@! TO.P,J2,2,Pin_2*
G04 #@! TO.N,-BATT*
X168362000Y-109474000D03*
G04 #@! TD*
D11*
G04 #@! TO.P,D3,1,K*
G04 #@! TO.N,Net-(D1-K)*
X183205000Y-64262000D03*
D12*
G04 #@! TO.P,D3,2,A*
G04 #@! TO.N,Net-(D3-A)*
X180665000Y-64262000D03*
G04 #@! TD*
D31*
G04 #@! TO.P,U4,1,GND*
G04 #@! TO.N,GND*
X131572000Y-61214000D03*
D32*
G04 #@! TO.P,U4,2,VI*
G04 #@! TO.N,Net-(JP3-A)*
X131572000Y-62484000D03*
G04 #@! TO.P,U4,3,VO*
G04 #@! TO.N,+3.3V*
X131572000Y-63754000D03*
G04 #@! TD*
D13*
G04 #@! TO.P,R1,1*
G04 #@! TO.N,Net-(D1-A)*
X136520000Y-103200000D03*
G04 #@! TO.P,R1,2*
G04 #@! TO.N,+3.3V*
X136520000Y-106300000D03*
G04 #@! TD*
D33*
G04 #@! TO.N,Net-(JP1-A)*
X146050000Y-64770000D03*
X127254000Y-71374000D03*
G04 #@! TO.N,Net-(JP3-A)*
X144272000Y-88900000D03*
X139612500Y-66040000D03*
G04 #@! TO.N,Net-(J1-Pin_2)*
X136652000Y-85810000D03*
X136652000Y-80010000D03*
G04 #@! TO.N,Net-(JP2-B)*
X127381000Y-75565000D03*
X163576000Y-69088000D03*
G04 #@! TO.N,Net-(U1-IO17)*
X136770000Y-96080000D03*
X164846000Y-65278000D03*
G04 #@! TO.N,Net-(U1-IO13)*
X137414000Y-75184000D03*
X147828000Y-75184000D03*
X147828000Y-72390000D03*
G04 #@! TO.N,Net-(U1-IO12)*
X141732000Y-69850000D03*
G04 #@! TO.N,Net-(U1-IO18)*
X158496000Y-63500000D03*
X133550000Y-96280000D03*
G04 #@! TD*
D34*
G04 #@! TO.N,+BATT*
X164592000Y-98410000D02*
X155323000Y-98410000D01*
X165862000Y-103886000D02*
X167528000Y-102220000D01*
X167528000Y-98410000D02*
X164592000Y-98410000D01*
X167528000Y-102220000D02*
X167528000Y-98410000D01*
X155323000Y-98410000D02*
X148787500Y-91874500D01*
X165862000Y-109474000D02*
X165862000Y-103886000D01*
G04 #@! TO.N,-BATT*
X169200000Y-96984416D02*
X169200000Y-105374000D01*
X156387500Y-94411500D02*
X156387500Y-91874500D01*
X164592000Y-95900000D02*
X168115584Y-95900000D01*
X164592000Y-95900000D02*
X157876000Y-95900000D01*
X157876000Y-95900000D02*
X156387500Y-94411500D01*
X169200000Y-105374000D02*
X168362000Y-106212000D01*
X168362000Y-106212000D02*
X168362000Y-109474000D01*
X168115584Y-95900000D02*
X169200000Y-96984416D01*
D35*
G04 #@! TO.N,+3.3V*
X142450000Y-54261000D02*
X142820000Y-53891000D01*
X132080000Y-77423836D02*
X132201272Y-77302564D01*
X140208000Y-68580000D02*
X141224000Y-67564000D01*
X142820000Y-53891000D02*
X143900000Y-53891000D01*
X185440000Y-70760000D02*
X174473000Y-81727000D01*
X132856000Y-55142000D02*
X136652000Y-58938000D01*
X129540000Y-80036000D02*
X131800000Y-80036000D01*
X184556000Y-99180000D02*
X184556000Y-96024000D01*
X137612000Y-78666708D02*
X133565416Y-78666708D01*
X132201272Y-70834436D02*
X132201272Y-69717272D01*
X132080000Y-69596000D02*
X129286000Y-69596000D01*
X170950000Y-111920000D02*
X171940000Y-110930000D01*
X178490000Y-99180000D02*
X184556000Y-99180000D01*
X131572000Y-63754000D02*
X131572000Y-67310000D01*
X131800000Y-80036000D02*
X132080000Y-79756000D01*
X171940000Y-105730000D02*
X178490000Y-99180000D01*
X133858000Y-84592000D02*
X134382000Y-84592000D01*
X136652000Y-58938000D02*
X138695500Y-58938000D01*
X138695500Y-58938000D02*
X140462000Y-57171500D01*
X132201272Y-69717272D02*
X132080000Y-69596000D01*
X138015708Y-84387000D02*
X137612000Y-83983292D01*
X141224000Y-57933500D02*
X140462000Y-57171500D01*
X185610000Y-93800000D02*
X185600000Y-93790000D01*
X133565416Y-78666708D02*
X132201272Y-77302564D01*
X131952000Y-55142000D02*
X132856000Y-55142000D01*
X131572000Y-67310000D02*
X130302000Y-68580000D01*
X129286000Y-69596000D02*
X130302000Y-68580000D01*
X185610000Y-94970000D02*
X185610000Y-93800000D01*
X133060000Y-83794000D02*
X133858000Y-84592000D01*
X186926000Y-92464000D02*
X186926000Y-72246000D01*
X136570000Y-108450000D02*
X136570000Y-106350000D01*
X141450000Y-106300000D02*
X147070000Y-111920000D01*
X132201272Y-77302564D02*
X132201272Y-70834436D01*
X129540000Y-83794000D02*
X129540000Y-80036000D01*
X142450000Y-55183500D02*
X142450000Y-54261000D01*
X171940000Y-110930000D02*
X171940000Y-105730000D01*
X140462000Y-57171500D02*
X142450000Y-55183500D01*
X136570000Y-106350000D02*
X136520000Y-106300000D01*
X143038364Y-81727000D02*
X140378364Y-84387000D01*
X137612000Y-83983292D02*
X137612000Y-78666708D01*
X136520000Y-106300000D02*
X141450000Y-106300000D01*
X141224000Y-67564000D02*
X141224000Y-57933500D01*
X130302000Y-68580000D02*
X140208000Y-68580000D01*
X147070000Y-111920000D02*
X170950000Y-111920000D01*
X140378364Y-84387000D02*
X138015708Y-84387000D01*
X185600000Y-93790000D02*
X186926000Y-92464000D01*
X129540000Y-83794000D02*
X133060000Y-83794000D01*
X184556000Y-96024000D02*
X185610000Y-94970000D01*
X174473000Y-81727000D02*
X143038364Y-81727000D01*
X186926000Y-72246000D02*
X185440000Y-70760000D01*
X132080000Y-79756000D02*
X132080000Y-77423836D01*
G04 #@! TO.N,GND*
X125424000Y-83022000D02*
X125424000Y-87827000D01*
X133796196Y-105530000D02*
X131370000Y-105530000D01*
X131572000Y-61214000D02*
X131572000Y-59842000D01*
X119242000Y-70750000D02*
X121412000Y-70750000D01*
X131572000Y-59842000D02*
X130912000Y-59182000D01*
X140673000Y-52621000D02*
X137869000Y-52621000D01*
X137414000Y-53076000D02*
X129042000Y-53076000D01*
X145442000Y-71374000D02*
X146685000Y-70131000D01*
X142788000Y-83272000D02*
X146414000Y-83272000D01*
D34*
X164592000Y-94600000D02*
X164592000Y-92964000D01*
D35*
X137050000Y-105160000D02*
X134166196Y-105160000D01*
X130912000Y-59182000D02*
X131952000Y-58142000D01*
X117094000Y-76200000D02*
X118618000Y-74676000D01*
X121412000Y-70750000D02*
X125088500Y-70750000D01*
X140462000Y-55096500D02*
X140462000Y-52832000D01*
X129540000Y-91943000D02*
X133589000Y-91943000D01*
X133589000Y-91943000D02*
X133858000Y-92212000D01*
X141780000Y-100430000D02*
X137050000Y-105160000D01*
X125088500Y-70750000D02*
X125730000Y-70108500D01*
X134166196Y-105160000D02*
X133796196Y-105530000D01*
D36*
X131370000Y-105530000D02*
X131576000Y-105324000D01*
D35*
X159787500Y-91874500D02*
X159787500Y-84145500D01*
X117566000Y-83022000D02*
X117094000Y-82550000D01*
X118618000Y-71374000D02*
X119242000Y-70750000D01*
X140673000Y-52621000D02*
X143900000Y-52621000D01*
X158900000Y-52621000D02*
X160900000Y-52621000D01*
D34*
X164592000Y-92964000D02*
X163502500Y-91874500D01*
D35*
X125424000Y-87827000D02*
X129540000Y-91943000D01*
X140462000Y-52832000D02*
X140673000Y-52621000D01*
X138388000Y-92212000D02*
X138938000Y-92762000D01*
X118924000Y-83022000D02*
X125424000Y-83022000D01*
X127000000Y-55118000D02*
X127000000Y-58166000D01*
X151400000Y-60121000D02*
X158900000Y-52621000D01*
X141780000Y-99030000D02*
X141780000Y-100430000D01*
X117094000Y-82550000D02*
X117094000Y-76200000D01*
X118618000Y-74676000D02*
X118618000Y-71374000D01*
X128016000Y-59182000D02*
X130912000Y-59182000D01*
D34*
X163502500Y-91874500D02*
X159787500Y-91874500D01*
D35*
X133858000Y-92212000D02*
X138388000Y-92212000D01*
X159787500Y-84145500D02*
X158914000Y-83272000D01*
X151400000Y-57121000D02*
X146900000Y-52621000D01*
X136896000Y-71374000D02*
X145442000Y-71374000D01*
X129042000Y-53076000D02*
X127000000Y-55118000D01*
X118924000Y-83022000D02*
X117566000Y-83022000D01*
X146900000Y-52621000D02*
X143900000Y-52621000D01*
X142240000Y-91694000D02*
X142240000Y-83820000D01*
X137869000Y-52621000D02*
X137414000Y-53076000D01*
X146414000Y-83272000D02*
X158914000Y-83272000D01*
X136652000Y-71130000D02*
X136896000Y-71374000D01*
X127000000Y-58166000D02*
X128016000Y-59182000D01*
X138938000Y-92762000D02*
X141172000Y-92762000D01*
X141172000Y-92762000D02*
X142240000Y-91694000D01*
X151400000Y-60121000D02*
X151400000Y-57121000D01*
X142240000Y-83820000D02*
X142788000Y-83272000D01*
G04 #@! TO.N,Net-(JP1-A)*
X128773500Y-72183500D02*
X129286000Y-72696000D01*
X145839000Y-55161000D02*
X146050000Y-55372000D01*
X143900000Y-55161000D02*
X145839000Y-55161000D01*
X146050000Y-55372000D02*
X146050000Y-64770000D01*
X127254000Y-72136000D02*
X127301500Y-72183500D01*
X127301500Y-72183500D02*
X128773500Y-72183500D01*
X125730000Y-72183500D02*
X127301500Y-72183500D01*
X121412000Y-72050000D02*
X125596500Y-72050000D01*
X127254000Y-71374000D02*
X127254000Y-72136000D01*
X125596500Y-72050000D02*
X125730000Y-72183500D01*
D34*
G04 #@! TO.N,Net-(JP3-A)*
X145287500Y-89474500D02*
X144713000Y-88900000D01*
X145287500Y-94274500D02*
X145287500Y-91874500D01*
D35*
X136642000Y-66030000D02*
X136652000Y-66030000D01*
X131864500Y-56642000D02*
X132452000Y-56642000D01*
X132588000Y-62484000D02*
X131572000Y-62484000D01*
D34*
X144713000Y-88900000D02*
X144272000Y-88900000D01*
X145287500Y-91874500D02*
X145287500Y-89474500D01*
X150723000Y-99710000D02*
X145287500Y-94274500D01*
D35*
X132842000Y-62230000D02*
X136642000Y-66030000D01*
D34*
X136662000Y-66040000D02*
X136652000Y-66030000D01*
X139612500Y-66040000D02*
X136662000Y-66040000D01*
D35*
X133052000Y-62020000D02*
X132842000Y-62230000D01*
D34*
X164592000Y-99710000D02*
X150723000Y-99710000D01*
D35*
X132842000Y-62230000D02*
X132588000Y-62484000D01*
X132452000Y-56642000D02*
X133052000Y-57242000D01*
X133052000Y-57242000D02*
X133052000Y-62020000D01*
G04 #@! TO.N,Net-(D1-K)*
X123525000Y-95849000D02*
X122174000Y-97200000D01*
X130860000Y-104580000D02*
X129820000Y-103540000D01*
X125273603Y-95849000D02*
X123525000Y-95849000D01*
X129820000Y-102100000D02*
X128851000Y-101131000D01*
X129820000Y-103540000D02*
X129820000Y-102100000D01*
X128851000Y-101131000D02*
X128851000Y-99426397D01*
X128851000Y-99426397D02*
X125273603Y-95849000D01*
X133370000Y-104580000D02*
X130860000Y-104580000D01*
G04 #@! TO.N,Net-(D1-A)*
X128931108Y-96511108D02*
X116393000Y-83973000D01*
X116393000Y-75909636D02*
X117917000Y-74385636D01*
X134960000Y-100140000D02*
X134210000Y-99390000D01*
X129001108Y-96511108D02*
X128931108Y-96511108D01*
X131321000Y-98831000D02*
X129001108Y-96511108D01*
X133840000Y-99390000D02*
X133281000Y-98831000D01*
X116393000Y-83973000D02*
X116393000Y-75909636D01*
X136520000Y-103200000D02*
X134960000Y-101640000D01*
X133281000Y-98831000D02*
X131321000Y-98831000D01*
X117917000Y-71059000D02*
X124714000Y-64262000D01*
X117917000Y-74385636D02*
X117917000Y-71059000D01*
X134960000Y-101640000D02*
X134960000Y-100140000D01*
X134210000Y-99390000D02*
X133840000Y-99390000D01*
G04 #@! TO.N,Net-(D2-A)*
X136540000Y-100770000D02*
X137500000Y-100770000D01*
X137500000Y-100770000D02*
X139240000Y-99030000D01*
G04 #@! TO.N,Net-(D3-A)*
X184063000Y-67660000D02*
X185440000Y-67660000D01*
X180665000Y-64262000D02*
X184063000Y-67660000D01*
G04 #@! TO.N,Net-(D4-A)*
X180665000Y-95625000D02*
X185600000Y-90690000D01*
X180665000Y-97200000D02*
X180665000Y-95625000D01*
G04 #@! TO.N,Net-(J1-Pin_3)*
X138928000Y-89672000D02*
X138938000Y-89662000D01*
X133858000Y-89672000D02*
X138928000Y-89672000D01*
X138938000Y-89662000D02*
X138938000Y-86386000D01*
G04 #@! TO.N,Net-(J1-Pin_2)*
X136652000Y-80010000D02*
X133884000Y-80010000D01*
X133884000Y-80010000D02*
X133858000Y-80036000D01*
X136652000Y-87122000D02*
X136642000Y-87132000D01*
X136642000Y-87132000D02*
X133858000Y-87132000D01*
X136652000Y-85810000D02*
X136652000Y-87122000D01*
G04 #@! TO.N,Net-(JP2-B)*
X128752000Y-76936000D02*
X127381000Y-75565000D01*
X160943000Y-69088000D02*
X160900000Y-69131000D01*
X163576000Y-69088000D02*
X160943000Y-69088000D01*
X129540000Y-76936000D02*
X128752000Y-76936000D01*
G04 #@! TO.N,Net-(Q1-B)*
X131370000Y-103630000D02*
X131370000Y-102890000D01*
X131370000Y-102890000D02*
X133430000Y-100830000D01*
G04 #@! TO.N,Net-(U1-IO17)*
X164846000Y-65278000D02*
X160943000Y-65278000D01*
X136770000Y-97440000D02*
X136540000Y-97670000D01*
X136770000Y-96080000D02*
X136770000Y-97440000D01*
X160943000Y-65278000D02*
X160900000Y-65321000D01*
G04 #@! TO.N,Net-(U1-TXD0{slash}IO1)*
X157480000Y-73660000D02*
X134620000Y-73660000D01*
X133858000Y-74422000D02*
X133858000Y-76936000D01*
X134620000Y-73660000D02*
X133858000Y-74422000D01*
X160900000Y-56431000D02*
X159820000Y-56431000D01*
X157646000Y-67323000D02*
X159258000Y-68935000D01*
X159820000Y-56431000D02*
X157646000Y-58605000D01*
X157646000Y-58605000D02*
X157646000Y-67323000D01*
X159258000Y-68935000D02*
X159258000Y-71882000D01*
X159258000Y-71882000D02*
X157480000Y-73660000D01*
G04 #@! TO.N,Net-(U1-RXD0{slash}IO3)*
X148180496Y-76035000D02*
X148295496Y-75920000D01*
X148295496Y-75920000D02*
X166878000Y-75920000D01*
X147360504Y-75920000D02*
X147475504Y-76035000D01*
X144730000Y-75920000D02*
X147360504Y-75920000D01*
X166878000Y-75920000D02*
X166878000Y-57658000D01*
X138938000Y-81712000D02*
X144730000Y-75920000D01*
X166835000Y-57701000D02*
X160900000Y-57701000D01*
X166878000Y-57658000D02*
X166835000Y-57701000D01*
X138938000Y-83286000D02*
X138938000Y-81712000D01*
X147475504Y-76035000D02*
X148180496Y-76035000D01*
G04 #@! TO.N,Net-(U1-IO13)*
X147828000Y-70258000D02*
X147955000Y-70131000D01*
X147828000Y-72390000D02*
X147828000Y-70258000D01*
X118924000Y-78522000D02*
X125424000Y-78522000D01*
X137414000Y-75184000D02*
X147828000Y-75184000D01*
X127254000Y-84608000D02*
X129540000Y-86894000D01*
X127254000Y-80352000D02*
X127254000Y-84608000D01*
X125424000Y-78522000D02*
X127254000Y-80352000D01*
G04 #@! TO.N,Net-(U1-IO12)*
X146414000Y-78272000D02*
X158914000Y-78272000D01*
X143900000Y-69131000D02*
X142451000Y-69131000D01*
X142451000Y-69131000D02*
X141732000Y-69850000D01*
G04 #@! TO.N,Net-(D5-A)*
X124714000Y-103854000D02*
X126210000Y-105350000D01*
X132500000Y-110880000D02*
X133020000Y-110880000D01*
X133020000Y-110880000D02*
X133690000Y-111550000D01*
X126970000Y-105350000D02*
X132500000Y-110880000D01*
X124714000Y-97200000D02*
X124714000Y-103854000D01*
X126210000Y-105350000D02*
X126970000Y-105350000D01*
X133690000Y-111550000D02*
X136570000Y-111550000D01*
G04 #@! TO.N,Net-(U1-IO18)*
X133790000Y-97370000D02*
X133430000Y-97730000D01*
X158496000Y-63500000D02*
X159215000Y-62781000D01*
X133550000Y-97610000D02*
X133430000Y-97730000D01*
X133550000Y-96280000D02*
X133550000Y-97610000D01*
X159215000Y-62781000D02*
X160900000Y-62781000D01*
G04 #@! TD*
G04 #@! TA.AperFunction,Conductor*
G04 #@! TO.N,GND*
G36*
X166574214Y-46387106D02*
G01*
X167408187Y-46732550D01*
X167411271Y-46733877D01*
X167412374Y-46734369D01*
X167412991Y-46734646D01*
X167462842Y-46757233D01*
X168514208Y-47233601D01*
X168517935Y-47235364D01*
X168774688Y-47361980D01*
X169603086Y-47770501D01*
X169606688Y-47772351D01*
X170673778Y-48342722D01*
X170677353Y-48344709D01*
X171725207Y-48949688D01*
X171728668Y-48951762D01*
X172756153Y-49590694D01*
X172759607Y-49592921D01*
X173249431Y-49920211D01*
X173765611Y-50265111D01*
X173769001Y-50267457D01*
X174752463Y-50972196D01*
X174755775Y-50974652D01*
X175715690Y-51711220D01*
X175718878Y-51713751D01*
X176654163Y-52481319D01*
X176657276Y-52483960D01*
X176713431Y-52533207D01*
X177566952Y-53281726D01*
X177570007Y-53284495D01*
X178453091Y-54111592D01*
X178456053Y-54114460D01*
X179311539Y-54969946D01*
X179314407Y-54972908D01*
X180141504Y-55855992D01*
X180144273Y-55859047D01*
X180473950Y-56234971D01*
X180863855Y-56679572D01*
X180942026Y-56768708D01*
X180944684Y-56771842D01*
X181710502Y-57704994D01*
X181712231Y-57707100D01*
X181714785Y-57710317D01*
X182105871Y-58219991D01*
X182451347Y-58670224D01*
X182453803Y-58673536D01*
X183158542Y-59656998D01*
X183160888Y-59660388D01*
X183833071Y-60666381D01*
X183835305Y-60669846D01*
X184402237Y-61581546D01*
X184474214Y-61697293D01*
X184476322Y-61700810D01*
X184841135Y-62332685D01*
X185081282Y-62748632D01*
X185083285Y-62752236D01*
X185168206Y-62911112D01*
X185653144Y-63818368D01*
X185653631Y-63819278D01*
X185655510Y-63822936D01*
X185699615Y-63912373D01*
X186190635Y-64908064D01*
X186192398Y-64911791D01*
X186691735Y-66013851D01*
X186693375Y-66017634D01*
X186988334Y-66729726D01*
X187151566Y-67123805D01*
X187156386Y-67135440D01*
X187157901Y-67139275D01*
X187584091Y-68271635D01*
X187585480Y-68275517D01*
X187974387Y-69421202D01*
X187975648Y-69425127D01*
X188326857Y-70582906D01*
X188327990Y-70586871D01*
X188641145Y-71755585D01*
X188642146Y-71759584D01*
X188916880Y-72937847D01*
X188917751Y-72941878D01*
X189153792Y-74128542D01*
X189154530Y-74132598D01*
X189351618Y-75326340D01*
X189352223Y-75330419D01*
X189510147Y-76529973D01*
X189510618Y-76534069D01*
X189629208Y-77738134D01*
X189629545Y-77742243D01*
X189708675Y-78949535D01*
X189708878Y-78953653D01*
X189748467Y-80162941D01*
X189748534Y-80167064D01*
X189748534Y-81376935D01*
X189748467Y-81381058D01*
X189708878Y-82590346D01*
X189708675Y-82594464D01*
X189629545Y-83801756D01*
X189629208Y-83805865D01*
X189510618Y-85009930D01*
X189510147Y-85014026D01*
X189352223Y-86213580D01*
X189351618Y-86217659D01*
X189154530Y-87411401D01*
X189153792Y-87415457D01*
X188917751Y-88602121D01*
X188916880Y-88606152D01*
X188642146Y-89784415D01*
X188641145Y-89788414D01*
X188327990Y-90957128D01*
X188326857Y-90961093D01*
X187975648Y-92118872D01*
X187974387Y-92122797D01*
X187929813Y-92254110D01*
X187888976Y-92312186D01*
X187823224Y-92338965D01*
X187753431Y-92325944D01*
X187701758Y-92277258D01*
X187684500Y-92213609D01*
X187684500Y-72171293D01*
X187684499Y-72171290D01*
X187675291Y-72125000D01*
X187655351Y-72024754D01*
X187634864Y-71975295D01*
X187627164Y-71956705D01*
X187598174Y-71886716D01*
X187515165Y-71762484D01*
X187409516Y-71656835D01*
X186860404Y-71107723D01*
X186826378Y-71045411D01*
X186823499Y-71018628D01*
X186823499Y-70309455D01*
X186812887Y-70205574D01*
X186793603Y-70147379D01*
X186757115Y-70037262D01*
X186664030Y-69886348D01*
X186664029Y-69886347D01*
X186664024Y-69886341D01*
X186538658Y-69760975D01*
X186538652Y-69760970D01*
X186507897Y-69742000D01*
X186387738Y-69667885D01*
X186303582Y-69639999D01*
X186219427Y-69612113D01*
X186219420Y-69612112D01*
X186115553Y-69601500D01*
X184764455Y-69601500D01*
X184660574Y-69612112D01*
X184492261Y-69667885D01*
X184341347Y-69760970D01*
X184341341Y-69760975D01*
X184215975Y-69886341D01*
X184215970Y-69886347D01*
X184122885Y-70037262D01*
X184067113Y-70205572D01*
X184067112Y-70205579D01*
X184056500Y-70309446D01*
X184056500Y-71018628D01*
X184036498Y-71086749D01*
X184019595Y-71107723D01*
X174195724Y-80931595D01*
X174133412Y-80965621D01*
X174106629Y-80968500D01*
X142963654Y-80968500D01*
X142892527Y-80982649D01*
X142817116Y-80997649D01*
X142817111Y-80997651D01*
X142679079Y-81054826D01*
X142554853Y-81137831D01*
X142554846Y-81137836D01*
X140536594Y-83156088D01*
X140474282Y-83190114D01*
X140403466Y-83185049D01*
X140346631Y-83142502D01*
X140321820Y-83075982D01*
X140321499Y-83066993D01*
X140321499Y-82835455D01*
X140310887Y-82731574D01*
X140299092Y-82695978D01*
X140255115Y-82563262D01*
X140162030Y-82412348D01*
X140162029Y-82412347D01*
X140162024Y-82412341D01*
X140036658Y-82286975D01*
X140036652Y-82286970D01*
X139946943Y-82231637D01*
X139885738Y-82193885D01*
X139811542Y-82169299D01*
X139753171Y-82128886D01*
X139725915Y-82063330D01*
X139738428Y-81993444D01*
X139762077Y-81960603D01*
X145007276Y-76715405D01*
X145069588Y-76681379D01*
X145096371Y-76678500D01*
X145620851Y-76678500D01*
X145688972Y-76698502D01*
X145735465Y-76752158D01*
X145745569Y-76822432D01*
X145716075Y-76887012D01*
X145659787Y-76924333D01*
X145600730Y-76943521D01*
X145399678Y-77045963D01*
X145217134Y-77178589D01*
X145217131Y-77178591D01*
X145057591Y-77338131D01*
X145057589Y-77338134D01*
X144924963Y-77520678D01*
X144822521Y-77721730D01*
X144752798Y-77936315D01*
X144752797Y-77936320D01*
X144752797Y-77936321D01*
X144717500Y-78159181D01*
X144717500Y-78384819D01*
X144750314Y-78592001D01*
X144752798Y-78607684D01*
X144822521Y-78822269D01*
X144822522Y-78822272D01*
X144822523Y-78822273D01*
X144924961Y-79023318D01*
X145057587Y-79205863D01*
X145057589Y-79205865D01*
X145057591Y-79205868D01*
X145217131Y-79365408D01*
X145217134Y-79365410D01*
X145217137Y-79365413D01*
X145399682Y-79498039D01*
X145600727Y-79600477D01*
X145815321Y-79670203D01*
X146038181Y-79705500D01*
X146038184Y-79705500D01*
X147461816Y-79705500D01*
X147461819Y-79705500D01*
X147684679Y-79670203D01*
X147899273Y-79600477D01*
X148100318Y-79498039D01*
X148282863Y-79365413D01*
X148442413Y-79205863D01*
X148532085Y-79082438D01*
X148588307Y-79039085D01*
X148634021Y-79030500D01*
X157365979Y-79030500D01*
X157434100Y-79050502D01*
X157467914Y-79082438D01*
X157557587Y-79205863D01*
X157557589Y-79205865D01*
X157557591Y-79205868D01*
X157717131Y-79365408D01*
X157717134Y-79365410D01*
X157717137Y-79365413D01*
X157899682Y-79498039D01*
X158100727Y-79600477D01*
X158315321Y-79670203D01*
X158538181Y-79705500D01*
X158538184Y-79705500D01*
X159961816Y-79705500D01*
X159961819Y-79705500D01*
X160184679Y-79670203D01*
X160399273Y-79600477D01*
X160600318Y-79498039D01*
X160782863Y-79365413D01*
X160942413Y-79205863D01*
X161075039Y-79023318D01*
X161177477Y-78822273D01*
X161247203Y-78607679D01*
X161282500Y-78384819D01*
X161282500Y-78159181D01*
X161247203Y-77936321D01*
X161177477Y-77721727D01*
X161075039Y-77520682D01*
X160942413Y-77338137D01*
X160942410Y-77338134D01*
X160942408Y-77338131D01*
X160782868Y-77178591D01*
X160782865Y-77178589D01*
X160782863Y-77178587D01*
X160645449Y-77078751D01*
X160600321Y-77045963D01*
X160600320Y-77045962D01*
X160600318Y-77045961D01*
X160399273Y-76943523D01*
X160399272Y-76943522D01*
X160399269Y-76943521D01*
X160340213Y-76924333D01*
X160281607Y-76884259D01*
X160253970Y-76818863D01*
X160266077Y-76748906D01*
X160314083Y-76696600D01*
X160379149Y-76678500D01*
X166952706Y-76678500D01*
X167099246Y-76649351D01*
X167237284Y-76592174D01*
X167361516Y-76509165D01*
X167467165Y-76403516D01*
X167550174Y-76279284D01*
X167607351Y-76141246D01*
X167636500Y-75994706D01*
X167636500Y-65878878D01*
X171449500Y-65878878D01*
X171449500Y-66141121D01*
X171483728Y-66401108D01*
X171483729Y-66401114D01*
X171483730Y-66401116D01*
X171551602Y-66654419D01*
X171569071Y-66696593D01*
X171569070Y-66696593D01*
X171571655Y-66702835D01*
X171573707Y-66709821D01*
X171582768Y-66729663D01*
X171583619Y-66731716D01*
X171583636Y-66731756D01*
X171651957Y-66896697D01*
X171651958Y-66896700D01*
X171651960Y-66896703D01*
X171651963Y-66896709D01*
X171682897Y-66950288D01*
X171682898Y-66950289D01*
X171685899Y-66955488D01*
X171692400Y-66969722D01*
X171709290Y-66996004D01*
X171710806Y-66998629D01*
X171783073Y-67123799D01*
X171783077Y-67123805D01*
X171831245Y-67186578D01*
X171834445Y-67190749D01*
X171846873Y-67210086D01*
X171867940Y-67234400D01*
X171942718Y-67331851D01*
X172011929Y-67401062D01*
X172015111Y-67404244D01*
X172033980Y-67426020D01*
X172055755Y-67444888D01*
X172128149Y-67517282D01*
X172128152Y-67517285D01*
X172128154Y-67517286D01*
X172146347Y-67531246D01*
X172220647Y-67588259D01*
X172222622Y-67589774D01*
X172225601Y-67592060D01*
X172249914Y-67613127D01*
X172269248Y-67625552D01*
X172336197Y-67676924D01*
X172463988Y-67750704D01*
X172490278Y-67767600D01*
X172504513Y-67774101D01*
X172508211Y-67776236D01*
X172563303Y-67808043D01*
X172730334Y-67877229D01*
X172750179Y-67886293D01*
X172757171Y-67888346D01*
X172763409Y-67890930D01*
X172763412Y-67890931D01*
X172805581Y-67908398D01*
X173058884Y-67976270D01*
X173058890Y-67976270D01*
X173058891Y-67976271D01*
X173083900Y-67979563D01*
X173318880Y-68010500D01*
X173318887Y-68010500D01*
X173581113Y-68010500D01*
X173581120Y-68010500D01*
X173841116Y-67976270D01*
X174094419Y-67908398D01*
X174142830Y-67888345D01*
X174149821Y-67886293D01*
X174169660Y-67877231D01*
X174336697Y-67808043D01*
X174395487Y-67774100D01*
X174409722Y-67767600D01*
X174436025Y-67750696D01*
X174563803Y-67676924D01*
X174630753Y-67625551D01*
X174650086Y-67613127D01*
X174674379Y-67592074D01*
X174771851Y-67517282D01*
X174844250Y-67444882D01*
X174866020Y-67426020D01*
X174884880Y-67404252D01*
X174957282Y-67331851D01*
X175032074Y-67234379D01*
X175053127Y-67210086D01*
X175065551Y-67190753D01*
X175116924Y-67123803D01*
X175190699Y-66996019D01*
X175207600Y-66969722D01*
X175214100Y-66955487D01*
X175248043Y-66896697D01*
X175317231Y-66729660D01*
X175326293Y-66709821D01*
X175328345Y-66702830D01*
X175348398Y-66654419D01*
X175416270Y-66401116D01*
X175450500Y-66141120D01*
X175450500Y-65878880D01*
X175416270Y-65618884D01*
X175348398Y-65365581D01*
X175328342Y-65317161D01*
X175326293Y-65310179D01*
X175317229Y-65290334D01*
X175248043Y-65123303D01*
X175214097Y-65064507D01*
X175207600Y-65050278D01*
X175190696Y-65023975D01*
X175189195Y-65021375D01*
X175116924Y-64896197D01*
X175065552Y-64829248D01*
X175053127Y-64809914D01*
X175032060Y-64785601D01*
X175029774Y-64782622D01*
X175029773Y-64782621D01*
X175013797Y-64761801D01*
X174965505Y-64698865D01*
X174957286Y-64688154D01*
X174957285Y-64688152D01*
X174957282Y-64688149D01*
X174884888Y-64615755D01*
X174866020Y-64593980D01*
X174844244Y-64575111D01*
X174841075Y-64571942D01*
X174771851Y-64502718D01*
X174674398Y-64427939D01*
X174650086Y-64406873D01*
X174630749Y-64394445D01*
X174585331Y-64359595D01*
X174563805Y-64343077D01*
X174563799Y-64343073D01*
X174438629Y-64270806D01*
X174433512Y-64267687D01*
X174409732Y-64252405D01*
X174409720Y-64252399D01*
X174400942Y-64248390D01*
X174390288Y-64242897D01*
X174336709Y-64211963D01*
X174336703Y-64211960D01*
X174336700Y-64211958D01*
X174336697Y-64211957D01*
X174189894Y-64151149D01*
X179256500Y-64151149D01*
X179256500Y-64372851D01*
X179288535Y-64575111D01*
X179291183Y-64591829D01*
X179355098Y-64788538D01*
X179359692Y-64802676D01*
X179438753Y-64957842D01*
X179460345Y-65000218D01*
X179590658Y-65179578D01*
X179747421Y-65336341D01*
X179824409Y-65392276D01*
X179926785Y-65466657D01*
X180124324Y-65567308D01*
X180335176Y-65635818D01*
X180554149Y-65670500D01*
X180554152Y-65670500D01*
X180775847Y-65670500D01*
X180775851Y-65670500D01*
X180906653Y-65649782D01*
X180977059Y-65658881D01*
X181015455Y-65685136D01*
X183473835Y-68143516D01*
X183579484Y-68249165D01*
X183703716Y-68332174D01*
X183841754Y-68389351D01*
X183988294Y-68418500D01*
X183988295Y-68418500D01*
X184074620Y-68418500D01*
X184142741Y-68438502D01*
X184181860Y-68478352D01*
X184215968Y-68533650D01*
X184215975Y-68533658D01*
X184341341Y-68659024D01*
X184341347Y-68659029D01*
X184341348Y-68659030D01*
X184492262Y-68752115D01*
X184660574Y-68807887D01*
X184764455Y-68818500D01*
X186115544Y-68818499D01*
X186219426Y-68807887D01*
X186387738Y-68752115D01*
X186538652Y-68659030D01*
X186664030Y-68533652D01*
X186757115Y-68382738D01*
X186812887Y-68214426D01*
X186823500Y-68110545D01*
X186823499Y-67209456D01*
X186822453Y-67199221D01*
X186812887Y-67105574D01*
X186793975Y-67048500D01*
X186757115Y-66937262D01*
X186664030Y-66786348D01*
X186664029Y-66786347D01*
X186664024Y-66786341D01*
X186538658Y-66660975D01*
X186538652Y-66660970D01*
X186525273Y-66652718D01*
X186387738Y-66567885D01*
X186303582Y-66539999D01*
X186219427Y-66512113D01*
X186219420Y-66512112D01*
X186115553Y-66501500D01*
X184764455Y-66501500D01*
X184660574Y-66512112D01*
X184492261Y-66567885D01*
X184341347Y-66660970D01*
X184341343Y-66660973D01*
X184328089Y-66674227D01*
X184265775Y-66708249D01*
X184194959Y-66703180D01*
X184149903Y-66674222D01*
X183361276Y-65885595D01*
X183327250Y-65823283D01*
X183332315Y-65752468D01*
X183374862Y-65695632D01*
X183441382Y-65670821D01*
X183450371Y-65670500D01*
X184153632Y-65670500D01*
X184153638Y-65670500D01*
X184153645Y-65670499D01*
X184153649Y-65670499D01*
X184214196Y-65663990D01*
X184214199Y-65663989D01*
X184214201Y-65663989D01*
X184351204Y-65612889D01*
X184366265Y-65601615D01*
X184468261Y-65525261D01*
X184555887Y-65408207D01*
X184555887Y-65408206D01*
X184555889Y-65408204D01*
X184606989Y-65271201D01*
X184613500Y-65210638D01*
X184613500Y-63313362D01*
X184609876Y-63279649D01*
X184606990Y-63252803D01*
X184606988Y-63252795D01*
X184560814Y-63129000D01*
X184555889Y-63115796D01*
X184555888Y-63115794D01*
X184555887Y-63115792D01*
X184468261Y-62998738D01*
X184351207Y-62911112D01*
X184351202Y-62911110D01*
X184214204Y-62860011D01*
X184214196Y-62860009D01*
X184153649Y-62853500D01*
X184153638Y-62853500D01*
X182256362Y-62853500D01*
X182256350Y-62853500D01*
X182195803Y-62860009D01*
X182195795Y-62860011D01*
X182058797Y-62911110D01*
X182058792Y-62911112D01*
X181941738Y-62998738D01*
X181854112Y-63115792D01*
X181854110Y-63115797D01*
X181829340Y-63182208D01*
X181786793Y-63239044D01*
X181720273Y-63263854D01*
X181650899Y-63248762D01*
X181622190Y-63227270D01*
X181582578Y-63187658D01*
X181403218Y-63057345D01*
X181403217Y-63057344D01*
X181403215Y-63057343D01*
X181205676Y-62956692D01*
X181205673Y-62956691D01*
X181205671Y-62956690D01*
X180994829Y-62888183D01*
X180994825Y-62888182D01*
X180994824Y-62888182D01*
X180775851Y-62853500D01*
X180554149Y-62853500D01*
X180335176Y-62888182D01*
X180335170Y-62888183D01*
X180124328Y-62956690D01*
X180124322Y-62956693D01*
X179926781Y-63057345D01*
X179747421Y-63187658D01*
X179590658Y-63344421D01*
X179460345Y-63523781D01*
X179359693Y-63721322D01*
X179359690Y-63721328D01*
X179291183Y-63932170D01*
X179291182Y-63932175D01*
X179291182Y-63932176D01*
X179256500Y-64151149D01*
X174189894Y-64151149D01*
X174171756Y-64143636D01*
X174171756Y-64143635D01*
X174169651Y-64142763D01*
X174149821Y-64133707D01*
X174142834Y-64131655D01*
X174136602Y-64129074D01*
X174136593Y-64129071D01*
X174133230Y-64127678D01*
X174094419Y-64111602D01*
X173841116Y-64043730D01*
X173841114Y-64043729D01*
X173841108Y-64043728D01*
X173581121Y-64009500D01*
X173581120Y-64009500D01*
X173318880Y-64009500D01*
X173318878Y-64009500D01*
X173058891Y-64043728D01*
X172805577Y-64111603D01*
X172763407Y-64129070D01*
X172757161Y-64131656D01*
X172750179Y-64133707D01*
X172730369Y-64142753D01*
X172728249Y-64143632D01*
X172728247Y-64143632D01*
X172563307Y-64211955D01*
X172563296Y-64211960D01*
X172509708Y-64242898D01*
X172504497Y-64245906D01*
X172490278Y-64252400D01*
X172464017Y-64269276D01*
X172461391Y-64270793D01*
X172461374Y-64270804D01*
X172336198Y-64343075D01*
X172273417Y-64391248D01*
X172273416Y-64391247D01*
X172269227Y-64394460D01*
X172249914Y-64406873D01*
X172225638Y-64427907D01*
X172222642Y-64430207D01*
X172222631Y-64430217D01*
X172128152Y-64502715D01*
X172058939Y-64571926D01*
X172058938Y-64571925D01*
X172055725Y-64575137D01*
X172033980Y-64593980D01*
X172015137Y-64615725D01*
X172011939Y-64618924D01*
X172011926Y-64618939D01*
X171942715Y-64688152D01*
X171870217Y-64782631D01*
X171870216Y-64782630D01*
X171867905Y-64785641D01*
X171846873Y-64809914D01*
X171834463Y-64829223D01*
X171831261Y-64833397D01*
X171831248Y-64833417D01*
X171783075Y-64896198D01*
X171710804Y-65021374D01*
X171710803Y-65021373D01*
X171709272Y-65024024D01*
X171692400Y-65050278D01*
X171685909Y-65064490D01*
X171682900Y-65069703D01*
X171682898Y-65069708D01*
X171651960Y-65123296D01*
X171651955Y-65123307D01*
X171583631Y-65288248D01*
X171583632Y-65288249D01*
X171582753Y-65290369D01*
X171573707Y-65310179D01*
X171571656Y-65317161D01*
X171569070Y-65323407D01*
X171551603Y-65365577D01*
X171483728Y-65618891D01*
X171449500Y-65878878D01*
X167636500Y-65878878D01*
X167636500Y-57583294D01*
X167607351Y-57436754D01*
X167550174Y-57298716D01*
X167467165Y-57174484D01*
X167361516Y-57068835D01*
X167237284Y-56985826D01*
X167139676Y-56945396D01*
X167099247Y-56928649D01*
X167025976Y-56914074D01*
X167025976Y-56914073D01*
X166952711Y-56899500D01*
X166952706Y-56899500D01*
X166803294Y-56899500D01*
X166803288Y-56899500D01*
X166730024Y-56914073D01*
X166730024Y-56914074D01*
X166693388Y-56921361D01*
X166656752Y-56928649D01*
X166656748Y-56928650D01*
X166646468Y-56932909D01*
X166598251Y-56942500D01*
X162534500Y-56942500D01*
X162466379Y-56922498D01*
X162419886Y-56868842D01*
X162408500Y-56816500D01*
X162408500Y-55932367D01*
X162408499Y-55932350D01*
X162401990Y-55871803D01*
X162401989Y-55871801D01*
X162401989Y-55871799D01*
X162390140Y-55840033D01*
X162385074Y-55769221D01*
X162390137Y-55751974D01*
X162401989Y-55720201D01*
X162408499Y-55659652D01*
X162408499Y-55659649D01*
X162408500Y-55659632D01*
X162408500Y-54662367D01*
X162408499Y-54662350D01*
X162401990Y-54601803D01*
X162401989Y-54601801D01*
X162401989Y-54601799D01*
X162390140Y-54570033D01*
X162385074Y-54499221D01*
X162390137Y-54481974D01*
X162401989Y-54450201D01*
X162402463Y-54445797D01*
X162408499Y-54389649D01*
X162408500Y-54389632D01*
X162408500Y-53392367D01*
X162408499Y-53392350D01*
X162401990Y-53331803D01*
X162401989Y-53331801D01*
X162401989Y-53331799D01*
X162389873Y-53299317D01*
X162384807Y-53228505D01*
X162389874Y-53211247D01*
X162401493Y-53180096D01*
X162401494Y-53180093D01*
X162407999Y-53119597D01*
X162408000Y-53119585D01*
X162408000Y-52875000D01*
X159392000Y-52875000D01*
X159392000Y-53119597D01*
X159398505Y-53180096D01*
X159398506Y-53180098D01*
X159410126Y-53211254D01*
X159415190Y-53282069D01*
X159410127Y-53299314D01*
X159398010Y-53331801D01*
X159398009Y-53331804D01*
X159391500Y-53392350D01*
X159391500Y-54389649D01*
X159398009Y-54450195D01*
X159398010Y-54450198D01*
X159409860Y-54481970D01*
X159414923Y-54552786D01*
X159409860Y-54570030D01*
X159398010Y-54601801D01*
X159398009Y-54601804D01*
X159391500Y-54662350D01*
X159391500Y-55659632D01*
X159391501Y-55659652D01*
X159397932Y-55719478D01*
X159385325Y-55789347D01*
X159342662Y-55837706D01*
X159336487Y-55841832D01*
X159336478Y-55841839D01*
X157056838Y-58121480D01*
X157056833Y-58121486D01*
X156973826Y-58245715D01*
X156916649Y-58383753D01*
X156916647Y-58383760D01*
X156911069Y-58411797D01*
X156911070Y-58411798D01*
X156887500Y-58530288D01*
X156887500Y-67397707D01*
X156906932Y-67495399D01*
X156916649Y-67544247D01*
X156973826Y-67682284D01*
X157056834Y-67806515D01*
X157056838Y-67806519D01*
X157661701Y-68411382D01*
X157665428Y-68418207D01*
X157671760Y-68422730D01*
X157682207Y-68448935D01*
X157695727Y-68473694D01*
X157695171Y-68481454D01*
X157698052Y-68488679D01*
X157692674Y-68516366D01*
X157690662Y-68544509D01*
X157686000Y-68550736D01*
X157684517Y-68558373D01*
X157665020Y-68578761D01*
X157648115Y-68601345D01*
X157639593Y-68605352D01*
X157635450Y-68609686D01*
X157618983Y-68615045D01*
X157602137Y-68622968D01*
X157594191Y-68624883D01*
X157555799Y-68629011D01*
X157516914Y-68643514D01*
X157509531Y-68645294D01*
X157481353Y-68643911D01*
X157453214Y-68645923D01*
X157439339Y-68641849D01*
X157438619Y-68641814D01*
X157438200Y-68641514D01*
X157435970Y-68640860D01*
X157413199Y-68632367D01*
X157404201Y-68629011D01*
X157404200Y-68629010D01*
X157404198Y-68629010D01*
X157404195Y-68629009D01*
X157343649Y-68622500D01*
X157343638Y-68622500D01*
X156346362Y-68622500D01*
X156346350Y-68622500D01*
X156285804Y-68629009D01*
X156285801Y-68629010D01*
X156254030Y-68640860D01*
X156183214Y-68645923D01*
X156165970Y-68640860D01*
X156143199Y-68632367D01*
X156134201Y-68629011D01*
X156134200Y-68629010D01*
X156134198Y-68629010D01*
X156134195Y-68629009D01*
X156073649Y-68622500D01*
X156073638Y-68622500D01*
X155076362Y-68622500D01*
X155076350Y-68622500D01*
X155015804Y-68629009D01*
X155015801Y-68629010D01*
X154984030Y-68640860D01*
X154913214Y-68645923D01*
X154895970Y-68640860D01*
X154873199Y-68632367D01*
X154864201Y-68629011D01*
X154864200Y-68629010D01*
X154864198Y-68629010D01*
X154864195Y-68629009D01*
X154803649Y-68622500D01*
X154803638Y-68622500D01*
X153806362Y-68622500D01*
X153806350Y-68622500D01*
X153745804Y-68629009D01*
X153745801Y-68629010D01*
X153714030Y-68640860D01*
X153643214Y-68645923D01*
X153625970Y-68640860D01*
X153603199Y-68632367D01*
X153594201Y-68629011D01*
X153594200Y-68629010D01*
X153594198Y-68629010D01*
X153594195Y-68629009D01*
X153533649Y-68622500D01*
X153533638Y-68622500D01*
X152536362Y-68622500D01*
X152536350Y-68622500D01*
X152475804Y-68629009D01*
X152475801Y-68629010D01*
X152444030Y-68640860D01*
X152373214Y-68645923D01*
X152355970Y-68640860D01*
X152333199Y-68632367D01*
X152324201Y-68629011D01*
X152324200Y-68629010D01*
X152324198Y-68629010D01*
X152324195Y-68629009D01*
X152263649Y-68622500D01*
X152263638Y-68622500D01*
X151266362Y-68622500D01*
X151266350Y-68622500D01*
X151205804Y-68629009D01*
X151205801Y-68629010D01*
X151174030Y-68640860D01*
X151103214Y-68645923D01*
X151085970Y-68640860D01*
X151063199Y-68632367D01*
X151054201Y-68629011D01*
X151054200Y-68629010D01*
X151054198Y-68629010D01*
X151054195Y-68629009D01*
X150993649Y-68622500D01*
X150993638Y-68622500D01*
X149996362Y-68622500D01*
X149996350Y-68622500D01*
X149935804Y-68629009D01*
X149935801Y-68629010D01*
X149904030Y-68640860D01*
X149833214Y-68645923D01*
X149815970Y-68640860D01*
X149793199Y-68632367D01*
X149784201Y-68629011D01*
X149784200Y-68629010D01*
X149784198Y-68629010D01*
X149784195Y-68629009D01*
X149723649Y-68622500D01*
X149723638Y-68622500D01*
X148726362Y-68622500D01*
X148726350Y-68622500D01*
X148665804Y-68629009D01*
X148665801Y-68629010D01*
X148634030Y-68640860D01*
X148563214Y-68645923D01*
X148545970Y-68640860D01*
X148523199Y-68632367D01*
X148514201Y-68629011D01*
X148514200Y-68629010D01*
X148514198Y-68629010D01*
X148514195Y-68629009D01*
X148453649Y-68622500D01*
X148453638Y-68622500D01*
X147456362Y-68622500D01*
X147456350Y-68622500D01*
X147395804Y-68629009D01*
X147395801Y-68629010D01*
X147363314Y-68641127D01*
X147292498Y-68646190D01*
X147275254Y-68641126D01*
X147244098Y-68629506D01*
X147244096Y-68629505D01*
X147183597Y-68623000D01*
X146939000Y-68623000D01*
X146939000Y-71639000D01*
X146943500Y-71639000D01*
X146952325Y-71641591D01*
X146961432Y-71640282D01*
X146985857Y-71651437D01*
X147011621Y-71659002D01*
X147017645Y-71665955D01*
X147026012Y-71669776D01*
X147040526Y-71692361D01*
X147058114Y-71712658D01*
X147060438Y-71723344D01*
X147064396Y-71729502D01*
X147069500Y-71765000D01*
X147069500Y-71851696D01*
X147049498Y-71919817D01*
X147048267Y-71921696D01*
X147022898Y-71959664D01*
X146954414Y-72124996D01*
X146919500Y-72300518D01*
X146919500Y-72479481D01*
X146954414Y-72655003D01*
X146984353Y-72727281D01*
X146991942Y-72797871D01*
X146960163Y-72861358D01*
X146899105Y-72897586D01*
X146867944Y-72901500D01*
X138011713Y-72901500D01*
X137943592Y-72881498D01*
X137897099Y-72827842D01*
X137886995Y-72757568D01*
X137916489Y-72692988D01*
X137945566Y-72668259D01*
X138050339Y-72603634D01*
X138050345Y-72603629D01*
X138175629Y-72478345D01*
X138175634Y-72478339D01*
X138268657Y-72327525D01*
X138324393Y-72159321D01*
X138324394Y-72159318D01*
X138334999Y-72055516D01*
X138335000Y-72055516D01*
X138335000Y-71384000D01*
X134969000Y-71384000D01*
X134969000Y-72055516D01*
X134979605Y-72159318D01*
X134979606Y-72159321D01*
X135035342Y-72327525D01*
X135128365Y-72478339D01*
X135128370Y-72478345D01*
X135253654Y-72603629D01*
X135253660Y-72603634D01*
X135358434Y-72668259D01*
X135405912Y-72721045D01*
X135417315Y-72791120D01*
X135389023Y-72856235D01*
X135330017Y-72895718D01*
X135292287Y-72901500D01*
X134545290Y-72901500D01*
X134398753Y-72930649D01*
X134398750Y-72930650D01*
X134260716Y-72987826D01*
X134136486Y-73070833D01*
X134136480Y-73070838D01*
X133268838Y-73938480D01*
X133268833Y-73938486D01*
X133190537Y-74055665D01*
X133136060Y-74101193D01*
X133065617Y-74110041D01*
X133001573Y-74079399D01*
X132964261Y-74018998D01*
X132959772Y-73985663D01*
X132959772Y-71179597D01*
X145727000Y-71179597D01*
X145733505Y-71240093D01*
X145784555Y-71376964D01*
X145784555Y-71376965D01*
X145872095Y-71493904D01*
X145989034Y-71581444D01*
X146125906Y-71632494D01*
X146186402Y-71638999D01*
X146186415Y-71639000D01*
X146431000Y-71639000D01*
X146431000Y-70385000D01*
X145727000Y-70385000D01*
X145727000Y-71179597D01*
X132959772Y-71179597D01*
X132959772Y-69642565D01*
X132959771Y-69642562D01*
X132930623Y-69496026D01*
X132930622Y-69496024D01*
X132929415Y-69489955D01*
X132932054Y-69489429D01*
X132931514Y-69430105D01*
X132969352Y-69370031D01*
X133033662Y-69339951D01*
X133052729Y-69338500D01*
X135324712Y-69338500D01*
X135392833Y-69358502D01*
X135439326Y-69412158D01*
X135449430Y-69482432D01*
X135419936Y-69547012D01*
X135390859Y-69571741D01*
X135253660Y-69656365D01*
X135253654Y-69656370D01*
X135128370Y-69781654D01*
X135128365Y-69781660D01*
X135035342Y-69932474D01*
X134979606Y-70100678D01*
X134979605Y-70100681D01*
X134969000Y-70204483D01*
X134969000Y-70876000D01*
X138335000Y-70876000D01*
X138335000Y-70204483D01*
X138324394Y-70100681D01*
X138324393Y-70100678D01*
X138268657Y-69932474D01*
X138175634Y-69781660D01*
X138175629Y-69781654D01*
X138050345Y-69656370D01*
X138050339Y-69656365D01*
X137913141Y-69571741D01*
X137865663Y-69518955D01*
X137854260Y-69448880D01*
X137882552Y-69383765D01*
X137941558Y-69344282D01*
X137979288Y-69338500D01*
X140282701Y-69338500D01*
X140282705Y-69338500D01*
X140282706Y-69338500D01*
X140355976Y-69323925D01*
X140429247Y-69309351D01*
X140567284Y-69252174D01*
X140691515Y-69169166D01*
X141813166Y-68047515D01*
X141896174Y-67923284D01*
X141953351Y-67785247D01*
X141973832Y-67682283D01*
X141976417Y-67669286D01*
X141979679Y-67652887D01*
X141982500Y-67638706D01*
X141982500Y-57858794D01*
X141953351Y-57712254D01*
X141896174Y-57574216D01*
X141886071Y-57559096D01*
X141813166Y-57449985D01*
X141813164Y-57449983D01*
X141813159Y-57449977D01*
X141732404Y-57369222D01*
X141717459Y-57341853D01*
X141700603Y-57315625D01*
X141699697Y-57309326D01*
X141698378Y-57306910D01*
X141695499Y-57280127D01*
X141695499Y-57062872D01*
X141715501Y-56994751D01*
X141732404Y-56973777D01*
X142176405Y-56529776D01*
X142238717Y-56495750D01*
X142309532Y-56500815D01*
X142366368Y-56543362D01*
X142391179Y-56609882D01*
X142391500Y-56618871D01*
X142391500Y-56929649D01*
X142398009Y-56990195D01*
X142398010Y-56990198D01*
X142398010Y-56990200D01*
X142398011Y-56990201D01*
X142409860Y-57021970D01*
X142414923Y-57092786D01*
X142409860Y-57110030D01*
X142398010Y-57141801D01*
X142398009Y-57141804D01*
X142391500Y-57202350D01*
X142391500Y-58199649D01*
X142398009Y-58260195D01*
X142398010Y-58260198D01*
X142409860Y-58291970D01*
X142414923Y-58362786D01*
X142409860Y-58380030D01*
X142398010Y-58411801D01*
X142398009Y-58411804D01*
X142391500Y-58472350D01*
X142391500Y-59469649D01*
X142398009Y-59530195D01*
X142398010Y-59530198D01*
X142409860Y-59561970D01*
X142414923Y-59632786D01*
X142409860Y-59650030D01*
X142398010Y-59681801D01*
X142398009Y-59681804D01*
X142391500Y-59742350D01*
X142391500Y-60739649D01*
X142398009Y-60800195D01*
X142398010Y-60800198D01*
X142409860Y-60831970D01*
X142414923Y-60902786D01*
X142409860Y-60920030D01*
X142398010Y-60951801D01*
X142398009Y-60951804D01*
X142391500Y-61012350D01*
X142391500Y-62009649D01*
X142398009Y-62070195D01*
X142398010Y-62070198D01*
X142409860Y-62101970D01*
X142414923Y-62172786D01*
X142409860Y-62190030D01*
X142398010Y-62221801D01*
X142398009Y-62221804D01*
X142391500Y-62282350D01*
X142391500Y-63279649D01*
X142398009Y-63340195D01*
X142398010Y-63340198D01*
X142409860Y-63371970D01*
X142414923Y-63442786D01*
X142409860Y-63460030D01*
X142398010Y-63491801D01*
X142398009Y-63491804D01*
X142391500Y-63552350D01*
X142391500Y-64549649D01*
X142398009Y-64610195D01*
X142398010Y-64610198D01*
X142398010Y-64610200D01*
X142398011Y-64610201D01*
X142401270Y-64618939D01*
X142409860Y-64641970D01*
X142414923Y-64712786D01*
X142409860Y-64730030D01*
X142398010Y-64761801D01*
X142398009Y-64761804D01*
X142391500Y-64822350D01*
X142391500Y-65819649D01*
X142398009Y-65880195D01*
X142398010Y-65880198D01*
X142409860Y-65911970D01*
X142414923Y-65982786D01*
X142409860Y-66000030D01*
X142398010Y-66031801D01*
X142398009Y-66031804D01*
X142391500Y-66092350D01*
X142391500Y-67089649D01*
X142398009Y-67150195D01*
X142398010Y-67150198D01*
X142409860Y-67181970D01*
X142414923Y-67252786D01*
X142409860Y-67270030D01*
X142398010Y-67301801D01*
X142398009Y-67301804D01*
X142391500Y-67362350D01*
X142391500Y-68266069D01*
X142371498Y-68334190D01*
X142317842Y-68380683D01*
X142290084Y-68389647D01*
X142229759Y-68401647D01*
X142229750Y-68401650D01*
X142091716Y-68458826D01*
X141967483Y-68541835D01*
X141967482Y-68541836D01*
X141576296Y-68933021D01*
X141513984Y-68967046D01*
X141511786Y-68967503D01*
X141467006Y-68976411D01*
X141467000Y-68976413D01*
X141301663Y-69044898D01*
X141152869Y-69144319D01*
X141152862Y-69144324D01*
X141026324Y-69270862D01*
X141026319Y-69270869D01*
X140926899Y-69419662D01*
X140858414Y-69584996D01*
X140823500Y-69760518D01*
X140823500Y-69939481D01*
X140834842Y-69996499D01*
X140858413Y-70115000D01*
X140926898Y-70280336D01*
X141026322Y-70429135D01*
X141152865Y-70555678D01*
X141301664Y-70655102D01*
X141467000Y-70723587D01*
X141642521Y-70758500D01*
X141642522Y-70758500D01*
X141821478Y-70758500D01*
X141821479Y-70758500D01*
X141997000Y-70723587D01*
X142162336Y-70655102D01*
X142311135Y-70555678D01*
X142437678Y-70429135D01*
X142537102Y-70280336D01*
X142595331Y-70139759D01*
X142639879Y-70084481D01*
X142707242Y-70062060D01*
X142755769Y-70069923D01*
X142790799Y-70082989D01*
X142790802Y-70082989D01*
X142790803Y-70082990D01*
X142851350Y-70089499D01*
X142851355Y-70089499D01*
X142851362Y-70089500D01*
X142851368Y-70089500D01*
X144948632Y-70089500D01*
X144948638Y-70089500D01*
X144948645Y-70089499D01*
X144948649Y-70089499D01*
X145009196Y-70082990D01*
X145009199Y-70082989D01*
X145009201Y-70082989D01*
X145015033Y-70080814D01*
X145065313Y-70062060D01*
X145146204Y-70031889D01*
X145183413Y-70004035D01*
X145263261Y-69944261D01*
X145350887Y-69827207D01*
X145350887Y-69827206D01*
X145350889Y-69827204D01*
X145401989Y-69690201D01*
X145404389Y-69667885D01*
X145408499Y-69629649D01*
X145408500Y-69629632D01*
X145408500Y-69082402D01*
X145727000Y-69082402D01*
X145727000Y-69877000D01*
X146431000Y-69877000D01*
X146431000Y-68623000D01*
X146186402Y-68623000D01*
X146125906Y-68629505D01*
X145989035Y-68680555D01*
X145989034Y-68680555D01*
X145872095Y-68768095D01*
X145784555Y-68885034D01*
X145784555Y-68885035D01*
X145733505Y-69021906D01*
X145727000Y-69082402D01*
X145408500Y-69082402D01*
X145408500Y-68632367D01*
X145408499Y-68632350D01*
X145401990Y-68571803D01*
X145401989Y-68571801D01*
X145401989Y-68571799D01*
X145390140Y-68540033D01*
X145385074Y-68469221D01*
X145390137Y-68451974D01*
X145401989Y-68420201D01*
X145402204Y-68418207D01*
X145408499Y-68359649D01*
X145408500Y-68359632D01*
X145408500Y-67362367D01*
X145408499Y-67362350D01*
X145401990Y-67301803D01*
X145401989Y-67301801D01*
X145401989Y-67301799D01*
X145390140Y-67270033D01*
X145385074Y-67199221D01*
X145390137Y-67181974D01*
X145401989Y-67150201D01*
X145403372Y-67137343D01*
X145408499Y-67089649D01*
X145408500Y-67089632D01*
X145408500Y-66092367D01*
X145408499Y-66092350D01*
X145401990Y-66031803D01*
X145401989Y-66031801D01*
X145401989Y-66031799D01*
X145390140Y-66000033D01*
X145385074Y-65929221D01*
X145390137Y-65911974D01*
X145401989Y-65880201D01*
X145402131Y-65878887D01*
X145408499Y-65819649D01*
X145408500Y-65819632D01*
X145408500Y-65669736D01*
X145428502Y-65601615D01*
X145482158Y-65555122D01*
X145552432Y-65545018D01*
X145604501Y-65564970D01*
X145619664Y-65575102D01*
X145785000Y-65643587D01*
X145960521Y-65678500D01*
X145960522Y-65678500D01*
X146139478Y-65678500D01*
X146139479Y-65678500D01*
X146315000Y-65643587D01*
X146480336Y-65575102D01*
X146629135Y-65475678D01*
X146755678Y-65349135D01*
X146855102Y-65200336D01*
X146923587Y-65035000D01*
X146958500Y-64859479D01*
X146958500Y-64680521D01*
X146923587Y-64505000D01*
X146855102Y-64339664D01*
X146829732Y-64301695D01*
X146808520Y-64233943D01*
X146808500Y-64231696D01*
X146808500Y-62669597D01*
X148392000Y-62669597D01*
X148398505Y-62730093D01*
X148449555Y-62866964D01*
X148449555Y-62866965D01*
X148537095Y-62983904D01*
X148654034Y-63071444D01*
X148790906Y-63122494D01*
X148851402Y-63128999D01*
X148851415Y-63129000D01*
X151146000Y-63129000D01*
X151654000Y-63129000D01*
X153948585Y-63129000D01*
X153948597Y-63128999D01*
X154009093Y-63122494D01*
X154145964Y-63071444D01*
X154145965Y-63071444D01*
X154262904Y-62983904D01*
X154350444Y-62866965D01*
X154350444Y-62866964D01*
X154401494Y-62730093D01*
X154407999Y-62669597D01*
X154408000Y-62669585D01*
X154408000Y-60375000D01*
X151654000Y-60375000D01*
X151654000Y-63129000D01*
X151146000Y-63129000D01*
X151146000Y-60375000D01*
X148392000Y-60375000D01*
X148392000Y-62669597D01*
X146808500Y-62669597D01*
X146808500Y-57572402D01*
X148392000Y-57572402D01*
X148392000Y-59867000D01*
X151146000Y-59867000D01*
X151654000Y-59867000D01*
X154408000Y-59867000D01*
X154408000Y-57572414D01*
X154407999Y-57572402D01*
X154401494Y-57511906D01*
X154350444Y-57375035D01*
X154350444Y-57375034D01*
X154262904Y-57258095D01*
X154145965Y-57170555D01*
X154009093Y-57119505D01*
X153948597Y-57113000D01*
X151654000Y-57113000D01*
X151654000Y-59867000D01*
X151146000Y-59867000D01*
X151146000Y-57113000D01*
X148851402Y-57113000D01*
X148790906Y-57119505D01*
X148654035Y-57170555D01*
X148654034Y-57170555D01*
X148537095Y-57258095D01*
X148449555Y-57375034D01*
X148449555Y-57375035D01*
X148398505Y-57511906D01*
X148392000Y-57572402D01*
X146808500Y-57572402D01*
X146808500Y-55297293D01*
X146808499Y-55297290D01*
X146801479Y-55262000D01*
X146779351Y-55150754D01*
X146752652Y-55086295D01*
X146722174Y-55012715D01*
X146639166Y-54888485D01*
X146322515Y-54571834D01*
X146198284Y-54488826D01*
X146060247Y-54431649D01*
X145986976Y-54417074D01*
X145986975Y-54417073D01*
X145913711Y-54402500D01*
X145913706Y-54402500D01*
X145534500Y-54402500D01*
X145466379Y-54382498D01*
X145419886Y-54328842D01*
X145408500Y-54276500D01*
X145408500Y-53392367D01*
X145408499Y-53392350D01*
X145401990Y-53331803D01*
X145401989Y-53331801D01*
X145401989Y-53331799D01*
X145389873Y-53299317D01*
X145384807Y-53228505D01*
X145389874Y-53211247D01*
X145401493Y-53180096D01*
X145401494Y-53180093D01*
X145407999Y-53119597D01*
X145408000Y-53119585D01*
X145408000Y-52875000D01*
X142392000Y-52875000D01*
X142392000Y-53119600D01*
X142398404Y-53179160D01*
X142385798Y-53249029D01*
X142343135Y-53297389D01*
X142336491Y-53301828D01*
X142336485Y-53301833D01*
X141860834Y-53777485D01*
X141860833Y-53777486D01*
X141777828Y-53901712D01*
X141777826Y-53901714D01*
X141777826Y-53901716D01*
X141751321Y-53965706D01*
X141751320Y-53965705D01*
X141720650Y-54039750D01*
X141720649Y-54039753D01*
X141695142Y-54167981D01*
X141662233Y-54230890D01*
X141600538Y-54266021D01*
X141529643Y-54262220D01*
X141482468Y-54232493D01*
X141410345Y-54160370D01*
X141410339Y-54160365D01*
X141259525Y-54067342D01*
X141091321Y-54011606D01*
X141091318Y-54011605D01*
X140987516Y-54001000D01*
X140716000Y-54001000D01*
X140716000Y-54970500D01*
X140695998Y-55038621D01*
X140642342Y-55085114D01*
X140590000Y-55096500D01*
X140462000Y-55096500D01*
X140462000Y-55224500D01*
X140441998Y-55292621D01*
X140388342Y-55339114D01*
X140336000Y-55350500D01*
X139229000Y-55350500D01*
X139229000Y-55484516D01*
X139239605Y-55588318D01*
X139239606Y-55588321D01*
X139295342Y-55756525D01*
X139388365Y-55907339D01*
X139388370Y-55907345D01*
X139513657Y-56032632D01*
X139516446Y-56034837D01*
X139517863Y-56036838D01*
X139518850Y-56037825D01*
X139518681Y-56037993D01*
X139557479Y-56092775D01*
X139560674Y-56163700D01*
X139525017Y-56225093D01*
X139516457Y-56232511D01*
X139513345Y-56234971D01*
X139387975Y-56360341D01*
X139387970Y-56360347D01*
X139294885Y-56511262D01*
X139239113Y-56679572D01*
X139239112Y-56679579D01*
X139228500Y-56783446D01*
X139228500Y-57280127D01*
X139208498Y-57348248D01*
X139191595Y-57369222D01*
X138542724Y-58018093D01*
X138480412Y-58052119D01*
X138409597Y-58047054D01*
X138352761Y-58004507D01*
X138328281Y-57941801D01*
X138328146Y-57940484D01*
X138324887Y-57908574D01*
X138269115Y-57740262D01*
X138176030Y-57589348D01*
X138176029Y-57589347D01*
X138176024Y-57589341D01*
X138050658Y-57463975D01*
X138050652Y-57463970D01*
X138027979Y-57449985D01*
X137899738Y-57370885D01*
X137812124Y-57341853D01*
X137731427Y-57315113D01*
X137731420Y-57315112D01*
X137627553Y-57304500D01*
X137627545Y-57304500D01*
X136143371Y-57304500D01*
X136075250Y-57284498D01*
X136054276Y-57267595D01*
X133550197Y-54763516D01*
X134969000Y-54763516D01*
X134979605Y-54867318D01*
X134979606Y-54867321D01*
X135035342Y-55035525D01*
X135128365Y-55186339D01*
X135128370Y-55186345D01*
X135253654Y-55311629D01*
X135253660Y-55311634D01*
X135404474Y-55404657D01*
X135572678Y-55460393D01*
X135572681Y-55460394D01*
X135676483Y-55470999D01*
X135676483Y-55471000D01*
X136398000Y-55471000D01*
X136906000Y-55471000D01*
X137627517Y-55471000D01*
X137627516Y-55470999D01*
X137731318Y-55460394D01*
X137731321Y-55460393D01*
X137899525Y-55404657D01*
X138050339Y-55311634D01*
X138050345Y-55311629D01*
X138175629Y-55186345D01*
X138175634Y-55186339D01*
X138268657Y-55035525D01*
X138324393Y-54867321D01*
X138324394Y-54867318D01*
X138334999Y-54763516D01*
X138335000Y-54763516D01*
X138335000Y-54708483D01*
X139229000Y-54708483D01*
X139229000Y-54842500D01*
X140208000Y-54842500D01*
X140208000Y-54001000D01*
X139936483Y-54001000D01*
X139832681Y-54011605D01*
X139832678Y-54011606D01*
X139664474Y-54067342D01*
X139513660Y-54160365D01*
X139513654Y-54160370D01*
X139388370Y-54285654D01*
X139388365Y-54285660D01*
X139295342Y-54436474D01*
X139239606Y-54604678D01*
X139239605Y-54604681D01*
X139229000Y-54708483D01*
X138335000Y-54708483D01*
X138335000Y-54092000D01*
X136906000Y-54092000D01*
X136906000Y-55471000D01*
X136398000Y-55471000D01*
X136398000Y-54092000D01*
X134969000Y-54092000D01*
X134969000Y-54763516D01*
X133550197Y-54763516D01*
X133339519Y-54552838D01*
X133339515Y-54552834D01*
X133215284Y-54469826D01*
X133077247Y-54412649D01*
X133077245Y-54412648D01*
X133066818Y-54410574D01*
X133003910Y-54377663D01*
X132990538Y-54362505D01*
X132965261Y-54328738D01*
X132848207Y-54241112D01*
X132848202Y-54241110D01*
X132711204Y-54190011D01*
X132711196Y-54190009D01*
X132650649Y-54183500D01*
X132650638Y-54183500D01*
X131253362Y-54183500D01*
X131253350Y-54183500D01*
X131192803Y-54190009D01*
X131192795Y-54190011D01*
X131055797Y-54241110D01*
X131055792Y-54241112D01*
X130938738Y-54328738D01*
X130851112Y-54445792D01*
X130851110Y-54445797D01*
X130800011Y-54582795D01*
X130800009Y-54582803D01*
X130793500Y-54643350D01*
X130793500Y-55136000D01*
X130773498Y-55204121D01*
X130719842Y-55250614D01*
X130667500Y-55262000D01*
X128002000Y-55262000D01*
X127953280Y-55265484D01*
X127928918Y-55267227D01*
X127788686Y-55308403D01*
X127788682Y-55308405D01*
X127665729Y-55387422D01*
X127570016Y-55497880D01*
X127509300Y-55630829D01*
X127488500Y-55775502D01*
X127488500Y-57508494D01*
X127493727Y-57581581D01*
X127530583Y-57707100D01*
X127534904Y-57721816D01*
X127613923Y-57844771D01*
X127724381Y-57940484D01*
X127857330Y-58001200D01*
X128002000Y-58022000D01*
X128002003Y-58022000D01*
X131126994Y-58022000D01*
X131127000Y-58022000D01*
X131200079Y-58016773D01*
X131340316Y-57975596D01*
X131444602Y-57908575D01*
X131445494Y-57908002D01*
X131513615Y-57888000D01*
X131826000Y-57888000D01*
X131894121Y-57908002D01*
X131940614Y-57961658D01*
X131952000Y-58014000D01*
X131952000Y-58142000D01*
X132080000Y-58142000D01*
X132148121Y-58162002D01*
X132194614Y-58215658D01*
X132206000Y-58268000D01*
X132206000Y-59100001D01*
X132222002Y-59116003D01*
X132235621Y-59120002D01*
X132282114Y-59173658D01*
X132293500Y-59226000D01*
X132293500Y-60055000D01*
X132273498Y-60123121D01*
X132219842Y-60169614D01*
X132167500Y-60181000D01*
X131826000Y-60181000D01*
X131826000Y-60937670D01*
X131802255Y-60913925D01*
X131716745Y-60864556D01*
X131621370Y-60839000D01*
X131522630Y-60839000D01*
X131427255Y-60864556D01*
X131341745Y-60913925D01*
X131318000Y-60937670D01*
X131318000Y-60181000D01*
X130773402Y-60181000D01*
X130712906Y-60187505D01*
X130576035Y-60238555D01*
X130576034Y-60238555D01*
X130459095Y-60326095D01*
X130371555Y-60443034D01*
X130371555Y-60443035D01*
X130320505Y-60579906D01*
X130314000Y-60640402D01*
X130314000Y-60960000D01*
X131295670Y-60960000D01*
X131271925Y-60983745D01*
X131222556Y-61069255D01*
X131197000Y-61164630D01*
X131197000Y-61263370D01*
X131222556Y-61358745D01*
X131271925Y-61444255D01*
X131278170Y-61450500D01*
X131245206Y-61450500D01*
X131187374Y-61462003D01*
X131169401Y-61465579D01*
X131144821Y-61468000D01*
X130314000Y-61468000D01*
X130314000Y-61787597D01*
X130320505Y-61848093D01*
X130371555Y-61984963D01*
X130375873Y-61992871D01*
X130373854Y-61993973D01*
X130394248Y-62048664D01*
X130384978Y-62105858D01*
X130353219Y-62182533D01*
X130353217Y-62182538D01*
X130313500Y-62382206D01*
X130313500Y-62585793D01*
X130353217Y-62785461D01*
X130353219Y-62785466D01*
X130431124Y-62973546D01*
X130431126Y-62973550D01*
X130481539Y-63048999D01*
X130502754Y-63116752D01*
X130483971Y-63185218D01*
X130481539Y-63189001D01*
X130431126Y-63264449D01*
X130431124Y-63264453D01*
X130353219Y-63452533D01*
X130353217Y-63452538D01*
X130313500Y-63652206D01*
X130313500Y-63855793D01*
X130353217Y-64055461D01*
X130353219Y-64055466D01*
X130389738Y-64143632D01*
X130431124Y-64243546D01*
X130544228Y-64412818D01*
X130688182Y-64556772D01*
X130757502Y-64603090D01*
X130803029Y-64657565D01*
X130813500Y-64707854D01*
X130813500Y-66943629D01*
X130793498Y-67011750D01*
X130776599Y-67032719D01*
X130296015Y-67513304D01*
X129818485Y-67990834D01*
X129408722Y-68400596D01*
X129346410Y-68434621D01*
X129319627Y-68437500D01*
X128610455Y-68437500D01*
X128506574Y-68448112D01*
X128338261Y-68503885D01*
X128187347Y-68596970D01*
X128187341Y-68596975D01*
X128061975Y-68722341D01*
X128061970Y-68722347D01*
X127968885Y-68873262D01*
X127913113Y-69041572D01*
X127913112Y-69041579D01*
X127902500Y-69145446D01*
X127902500Y-70046544D01*
X127913112Y-70150425D01*
X127968885Y-70318738D01*
X128061970Y-70469652D01*
X128061975Y-70469658D01*
X128187341Y-70595024D01*
X128187347Y-70595029D01*
X128187348Y-70595030D01*
X128338262Y-70688115D01*
X128506574Y-70743887D01*
X128610455Y-70754500D01*
X129961544Y-70754499D01*
X130065426Y-70743887D01*
X130233738Y-70688115D01*
X130384652Y-70595030D01*
X130510030Y-70469652D01*
X130535020Y-70429137D01*
X130544140Y-70414352D01*
X130596926Y-70366875D01*
X130651380Y-70354500D01*
X131316772Y-70354500D01*
X131384893Y-70374502D01*
X131431386Y-70428158D01*
X131442772Y-70480500D01*
X131442772Y-76974029D01*
X131433371Y-77021785D01*
X131428570Y-77033504D01*
X131407826Y-77064552D01*
X131350649Y-77202589D01*
X131344836Y-77231815D01*
X131342464Y-77243734D01*
X131342464Y-77243737D01*
X131321500Y-77349129D01*
X131321500Y-79151500D01*
X131301498Y-79219621D01*
X131247842Y-79266114D01*
X131195500Y-79277500D01*
X130905380Y-79277500D01*
X130837259Y-79257498D01*
X130798140Y-79217648D01*
X130764031Y-79162349D01*
X130764024Y-79162341D01*
X130638658Y-79036975D01*
X130638652Y-79036970D01*
X130487738Y-78943885D01*
X130384066Y-78909532D01*
X130319427Y-78888113D01*
X130319420Y-78888112D01*
X130215553Y-78877500D01*
X128864455Y-78877500D01*
X128760574Y-78888112D01*
X128592261Y-78943885D01*
X128441347Y-79036970D01*
X128441341Y-79036975D01*
X128315975Y-79162341D01*
X128315970Y-79162347D01*
X128222885Y-79313262D01*
X128167113Y-79481572D01*
X128167112Y-79481579D01*
X128156500Y-79585446D01*
X128156500Y-79922057D01*
X128136498Y-79990178D01*
X128082842Y-80036671D01*
X128012568Y-80046775D01*
X127947988Y-80017281D01*
X127925735Y-79992059D01*
X127878961Y-79922057D01*
X127843166Y-79868485D01*
X126934540Y-78959859D01*
X126900514Y-78897547D01*
X126899186Y-78851058D01*
X126932500Y-78640722D01*
X126932500Y-78403278D01*
X126895356Y-78168759D01*
X126821982Y-77942937D01*
X126714185Y-77731373D01*
X126574620Y-77539278D01*
X126574617Y-77539275D01*
X126574615Y-77539272D01*
X126406727Y-77371384D01*
X126406724Y-77371382D01*
X126406722Y-77371380D01*
X126214627Y-77231815D01*
X126003063Y-77124018D01*
X126003060Y-77124017D01*
X126003058Y-77124016D01*
X125777246Y-77050645D01*
X125777242Y-77050644D01*
X125777241Y-77050644D01*
X125542722Y-77013500D01*
X125305278Y-77013500D01*
X125100314Y-77045963D01*
X125070753Y-77050645D01*
X124844941Y-77124016D01*
X124844935Y-77124019D01*
X124633369Y-77231817D01*
X124441275Y-77371382D01*
X124441272Y-77371384D01*
X124273384Y-77539272D01*
X124273382Y-77539275D01*
X124273380Y-77539278D01*
X124148208Y-77711562D01*
X124091988Y-77754915D01*
X124046274Y-77763500D01*
X120301726Y-77763500D01*
X120233605Y-77743498D01*
X120199792Y-77711563D01*
X120074620Y-77539278D01*
X120074617Y-77539275D01*
X120074615Y-77539272D01*
X119906727Y-77371384D01*
X119906724Y-77371382D01*
X119906722Y-77371380D01*
X119714627Y-77231815D01*
X119503063Y-77124018D01*
X119503060Y-77124017D01*
X119503058Y-77124016D01*
X119277246Y-77050645D01*
X119277242Y-77050644D01*
X119277241Y-77050644D01*
X119042722Y-77013500D01*
X118805278Y-77013500D01*
X118600314Y-77045963D01*
X118570753Y-77050645D01*
X118344941Y-77124016D01*
X118344935Y-77124019D01*
X118133369Y-77231817D01*
X117941275Y-77371382D01*
X117941272Y-77371384D01*
X117773384Y-77539272D01*
X117773382Y-77539275D01*
X117633817Y-77731369D01*
X117526019Y-77942935D01*
X117526016Y-77942941D01*
X117452645Y-78168753D01*
X117452644Y-78168758D01*
X117452644Y-78168759D01*
X117415500Y-78403278D01*
X117415500Y-78640722D01*
X117444254Y-78822269D01*
X117452645Y-78875246D01*
X117526016Y-79101058D01*
X117526018Y-79101063D01*
X117633815Y-79312627D01*
X117773380Y-79504722D01*
X117773382Y-79504724D01*
X117773384Y-79504727D01*
X117941272Y-79672615D01*
X117941275Y-79672617D01*
X117941278Y-79672620D01*
X118133373Y-79812185D01*
X118344937Y-79919982D01*
X118570759Y-79993356D01*
X118805278Y-80030500D01*
X118805281Y-80030500D01*
X119042719Y-80030500D01*
X119042722Y-80030500D01*
X119277241Y-79993356D01*
X119503063Y-79919982D01*
X119714627Y-79812185D01*
X119906722Y-79672620D01*
X120074620Y-79504722D01*
X120199791Y-79332437D01*
X120256012Y-79289085D01*
X120301726Y-79280500D01*
X124046274Y-79280500D01*
X124114395Y-79300502D01*
X124148207Y-79332436D01*
X124273380Y-79504722D01*
X124273382Y-79504724D01*
X124273384Y-79504727D01*
X124441272Y-79672615D01*
X124441275Y-79672617D01*
X124441278Y-79672620D01*
X124633373Y-79812185D01*
X124844937Y-79919982D01*
X125070759Y-79993356D01*
X125305278Y-80030500D01*
X125305281Y-80030500D01*
X125542719Y-80030500D01*
X125542722Y-80030500D01*
X125753056Y-79997186D01*
X125823464Y-80006286D01*
X125861859Y-80032540D01*
X126458595Y-80629276D01*
X126492621Y-80691588D01*
X126495500Y-80718371D01*
X126495500Y-81689211D01*
X126475498Y-81757332D01*
X126421842Y-81803825D01*
X126351568Y-81813929D01*
X126295439Y-81791147D01*
X126214367Y-81732245D01*
X126002867Y-81624480D01*
X125777129Y-81551133D01*
X125542679Y-81514000D01*
X125305321Y-81514000D01*
X125070870Y-81551133D01*
X124845132Y-81624480D01*
X124633634Y-81732243D01*
X124552442Y-81791231D01*
X124552442Y-81791232D01*
X125258227Y-82497017D01*
X125211708Y-82509482D01*
X125086292Y-82581890D01*
X124983890Y-82684292D01*
X124911482Y-82809708D01*
X124899017Y-82856227D01*
X124193231Y-82150442D01*
X124134243Y-82231634D01*
X124026480Y-82443132D01*
X123953133Y-82668870D01*
X123916000Y-82903321D01*
X123916000Y-83140678D01*
X123953133Y-83375129D01*
X124026480Y-83600867D01*
X124134246Y-83812368D01*
X124193230Y-83893556D01*
X124193232Y-83893556D01*
X124899016Y-83187771D01*
X124911482Y-83234292D01*
X124983890Y-83359708D01*
X125086292Y-83462110D01*
X125211708Y-83534518D01*
X125258225Y-83546982D01*
X124552442Y-84252765D01*
X124552442Y-84252766D01*
X124633636Y-84311756D01*
X124633637Y-84311757D01*
X124845132Y-84419519D01*
X125070870Y-84492866D01*
X125305321Y-84530000D01*
X125542679Y-84530000D01*
X125777129Y-84492866D01*
X126002867Y-84419519D01*
X126214363Y-84311756D01*
X126295438Y-84252852D01*
X126362306Y-84228994D01*
X126431458Y-84245074D01*
X126480938Y-84295987D01*
X126495500Y-84354788D01*
X126495500Y-84682707D01*
X126506766Y-84739344D01*
X126524649Y-84829247D01*
X126581826Y-84967284D01*
X126664834Y-85091515D01*
X126664838Y-85091519D01*
X128119595Y-86546276D01*
X128153621Y-86608588D01*
X128156500Y-86635371D01*
X128156500Y-87344544D01*
X128167112Y-87448425D01*
X128222885Y-87616738D01*
X128315970Y-87767652D01*
X128315975Y-87767658D01*
X128441341Y-87893024D01*
X128441347Y-87893029D01*
X128441348Y-87893030D01*
X128592262Y-87986115D01*
X128760574Y-88041887D01*
X128864455Y-88052500D01*
X130215544Y-88052499D01*
X130319426Y-88041887D01*
X130487738Y-87986115D01*
X130638652Y-87893030D01*
X130764030Y-87767652D01*
X130857115Y-87616738D01*
X130912887Y-87448426D01*
X130923500Y-87344545D01*
X130923499Y-86443456D01*
X130921558Y-86424460D01*
X130912887Y-86339574D01*
X130891790Y-86275906D01*
X130857115Y-86171262D01*
X130764030Y-86020348D01*
X130764029Y-86020347D01*
X130764024Y-86020341D01*
X130638658Y-85894975D01*
X130638652Y-85894970D01*
X130535871Y-85831574D01*
X130487738Y-85801885D01*
X130403582Y-85773999D01*
X130319427Y-85746113D01*
X130319420Y-85746112D01*
X130215553Y-85735500D01*
X130215545Y-85735500D01*
X129506371Y-85735500D01*
X129438250Y-85715498D01*
X129417276Y-85698595D01*
X128886275Y-85167594D01*
X128852249Y-85105282D01*
X128857314Y-85034467D01*
X128899861Y-84977631D01*
X128966381Y-84952820D01*
X128975344Y-84952499D01*
X130215544Y-84952499D01*
X130319426Y-84941887D01*
X130487738Y-84886115D01*
X130638652Y-84793030D01*
X130764030Y-84667652D01*
X130798140Y-84612352D01*
X130850926Y-84564875D01*
X130905380Y-84552500D01*
X132373500Y-84552500D01*
X132441621Y-84572502D01*
X132488114Y-84626158D01*
X132499500Y-84678500D01*
X132499500Y-85490649D01*
X132506009Y-85551196D01*
X132506011Y-85551204D01*
X132557110Y-85688202D01*
X132557112Y-85688207D01*
X132644738Y-85805261D01*
X132761791Y-85892886D01*
X132761792Y-85892886D01*
X132761796Y-85892889D01*
X132879711Y-85936869D01*
X132936543Y-85979414D01*
X132961354Y-86045934D01*
X132946263Y-86115308D01*
X132924771Y-86144018D01*
X132821794Y-86246995D01*
X132696108Y-86419987D01*
X132599029Y-86610515D01*
X132599026Y-86610521D01*
X132532952Y-86813878D01*
X132532951Y-86813883D01*
X132532951Y-86813884D01*
X132499500Y-87025084D01*
X132499500Y-87238916D01*
X132532951Y-87450116D01*
X132532952Y-87450121D01*
X132597536Y-87648891D01*
X132599028Y-87653483D01*
X132696106Y-87844009D01*
X132821794Y-88017004D01*
X132821796Y-88017006D01*
X132821798Y-88017009D01*
X132972990Y-88168201D01*
X132972993Y-88168203D01*
X132972996Y-88168206D01*
X133145991Y-88293894D01*
X133145996Y-88293896D01*
X133147088Y-88294566D01*
X133147418Y-88294931D01*
X133149996Y-88296804D01*
X133149602Y-88297345D01*
X133194721Y-88347213D01*
X133206328Y-88417255D01*
X133178226Y-88482453D01*
X133149870Y-88507023D01*
X133149996Y-88507196D01*
X133147982Y-88508658D01*
X133147088Y-88509434D01*
X133145987Y-88510108D01*
X132972993Y-88635796D01*
X132972990Y-88635798D01*
X132821798Y-88786990D01*
X132821796Y-88786993D01*
X132696108Y-88959987D01*
X132599029Y-89150515D01*
X132599026Y-89150521D01*
X132532952Y-89353878D01*
X132532951Y-89353883D01*
X132532951Y-89353884D01*
X132499500Y-89565084D01*
X132499500Y-89778916D01*
X132530163Y-89972511D01*
X132532952Y-89990121D01*
X132580212Y-90135574D01*
X132599028Y-90193483D01*
X132696106Y-90384009D01*
X132696108Y-90384012D01*
X132726505Y-90425850D01*
X132821794Y-90557004D01*
X132821796Y-90557006D01*
X132821798Y-90557009D01*
X132972990Y-90708201D01*
X132972993Y-90708203D01*
X132972996Y-90708206D01*
X133145991Y-90833894D01*
X133146001Y-90833899D01*
X133147567Y-90834859D01*
X133148042Y-90835384D01*
X133149996Y-90836804D01*
X133149697Y-90837214D01*
X133195200Y-90887505D01*
X133206808Y-90957546D01*
X133178707Y-91022745D01*
X133150157Y-91047485D01*
X133150258Y-91047624D01*
X133148644Y-91048796D01*
X133147574Y-91049724D01*
X133146255Y-91050532D01*
X132973320Y-91176177D01*
X132822177Y-91327320D01*
X132696536Y-91500249D01*
X132599493Y-91690707D01*
X132599490Y-91690713D01*
X132533440Y-91893995D01*
X132523302Y-91958000D01*
X133427297Y-91958000D01*
X133392075Y-92019007D01*
X133358000Y-92146174D01*
X133358000Y-92277826D01*
X133392075Y-92404993D01*
X133427297Y-92466000D01*
X132523302Y-92466000D01*
X132533440Y-92530004D01*
X132599490Y-92733286D01*
X132599493Y-92733292D01*
X132696536Y-92923750D01*
X132822177Y-93096679D01*
X132973320Y-93247822D01*
X133146249Y-93373463D01*
X133336707Y-93470506D01*
X133336713Y-93470509D01*
X133539998Y-93536560D01*
X133604000Y-93546696D01*
X133604000Y-92642702D01*
X133665007Y-92677925D01*
X133792174Y-92712000D01*
X133923826Y-92712000D01*
X134050993Y-92677925D01*
X134112000Y-92642702D01*
X134112000Y-93546696D01*
X134176001Y-93536560D01*
X134379286Y-93470509D01*
X134379292Y-93470506D01*
X134569750Y-93373463D01*
X134742679Y-93247822D01*
X134777985Y-93212516D01*
X137555000Y-93212516D01*
X137565605Y-93316318D01*
X137565606Y-93316321D01*
X137621342Y-93484525D01*
X137714365Y-93635339D01*
X137714370Y-93635345D01*
X137839654Y-93760629D01*
X137839660Y-93760634D01*
X137990474Y-93853657D01*
X138158678Y-93909393D01*
X138158681Y-93909394D01*
X138262483Y-93919999D01*
X138262483Y-93920000D01*
X138684000Y-93920000D01*
X139192000Y-93920000D01*
X139613517Y-93920000D01*
X139613516Y-93919999D01*
X139717318Y-93909394D01*
X139717321Y-93909393D01*
X139885525Y-93853657D01*
X140036339Y-93760634D01*
X140036345Y-93760629D01*
X140161629Y-93635345D01*
X140161634Y-93635339D01*
X140254657Y-93484525D01*
X140310393Y-93316321D01*
X140310394Y-93316318D01*
X140320999Y-93212516D01*
X140321000Y-93212516D01*
X140321000Y-93016000D01*
X139192000Y-93016000D01*
X139192000Y-93920000D01*
X138684000Y-93920000D01*
X138684000Y-93016000D01*
X137555000Y-93016000D01*
X137555000Y-93212516D01*
X134777985Y-93212516D01*
X134893822Y-93096679D01*
X135019465Y-92923747D01*
X135028199Y-92906607D01*
X135028199Y-92906606D01*
X135116506Y-92733292D01*
X135116509Y-92733286D01*
X135182559Y-92530004D01*
X135192698Y-92466000D01*
X134288703Y-92466000D01*
X134323925Y-92404993D01*
X134348981Y-92311483D01*
X137555000Y-92311483D01*
X137555000Y-92508000D01*
X138684000Y-92508000D01*
X139192000Y-92508000D01*
X140321000Y-92508000D01*
X140321000Y-92311483D01*
X140310394Y-92207681D01*
X140310393Y-92207678D01*
X140254657Y-92039474D01*
X140161634Y-91888660D01*
X140161629Y-91888654D01*
X140036345Y-91763370D01*
X140036339Y-91763365D01*
X139885525Y-91670342D01*
X139717321Y-91614606D01*
X139717318Y-91614605D01*
X139613516Y-91604000D01*
X139192000Y-91604000D01*
X139192000Y-92508000D01*
X138684000Y-92508000D01*
X138684000Y-91604000D01*
X138262483Y-91604000D01*
X138158681Y-91614605D01*
X138158678Y-91614606D01*
X137990474Y-91670342D01*
X137839660Y-91763365D01*
X137839654Y-91763370D01*
X137714370Y-91888654D01*
X137714365Y-91888660D01*
X137621342Y-92039474D01*
X137565606Y-92207678D01*
X137565605Y-92207681D01*
X137555000Y-92311483D01*
X134348981Y-92311483D01*
X134358000Y-92277826D01*
X134358000Y-92146174D01*
X134323925Y-92019007D01*
X134288703Y-91958000D01*
X135192697Y-91958000D01*
X135182559Y-91893995D01*
X135116509Y-91690713D01*
X135116506Y-91690707D01*
X135019463Y-91500249D01*
X134893822Y-91327320D01*
X134742679Y-91176177D01*
X134569749Y-91050535D01*
X134568433Y-91049729D01*
X134568037Y-91049291D01*
X134565742Y-91047624D01*
X134566092Y-91047141D01*
X134520800Y-90997084D01*
X134509190Y-90927043D01*
X134537291Y-90861844D01*
X134566076Y-90836903D01*
X134566004Y-90836804D01*
X134567158Y-90835965D01*
X134568441Y-90834854D01*
X134569992Y-90833902D01*
X134570009Y-90833894D01*
X134743004Y-90708206D01*
X134894206Y-90557004D01*
X134948380Y-90482438D01*
X135004602Y-90439085D01*
X135050316Y-90430500D01*
X137578788Y-90430500D01*
X137646909Y-90450502D01*
X137686028Y-90490352D01*
X137713968Y-90535649D01*
X137713975Y-90535658D01*
X137839341Y-90661024D01*
X137839347Y-90661029D01*
X137839348Y-90661030D01*
X137990262Y-90754115D01*
X138158574Y-90809887D01*
X138262455Y-90820500D01*
X139613544Y-90820499D01*
X139717426Y-90809887D01*
X139885738Y-90754115D01*
X140036652Y-90661030D01*
X140162030Y-90535652D01*
X140255115Y-90384738D01*
X140310887Y-90216426D01*
X140321500Y-90112545D01*
X140321499Y-89211456D01*
X140318319Y-89180331D01*
X140310887Y-89107574D01*
X140284890Y-89029119D01*
X140255115Y-88939262D01*
X140162030Y-88788348D01*
X140162029Y-88788347D01*
X140162024Y-88788341D01*
X140036658Y-88662975D01*
X140036652Y-88662970D01*
X139885738Y-88569885D01*
X139782865Y-88535797D01*
X139724496Y-88495384D01*
X139697240Y-88429827D01*
X139696500Y-88416193D01*
X139696500Y-87631806D01*
X139716502Y-87563685D01*
X139770158Y-87517192D01*
X139782850Y-87512207D01*
X139885738Y-87478115D01*
X140036652Y-87385030D01*
X140162030Y-87259652D01*
X140255115Y-87108738D01*
X140310887Y-86940426D01*
X140321500Y-86836545D01*
X140321499Y-85935456D01*
X140315499Y-85876726D01*
X140310887Y-85831574D01*
X140301049Y-85801885D01*
X140255115Y-85663262D01*
X140162030Y-85512348D01*
X140162029Y-85512347D01*
X140162024Y-85512341D01*
X140036658Y-85386975D01*
X140036652Y-85386970D01*
X140036646Y-85386966D01*
X140023309Y-85378739D01*
X139975832Y-85325955D01*
X139964429Y-85255880D01*
X139992721Y-85190764D01*
X140051727Y-85151282D01*
X140089457Y-85145500D01*
X140453065Y-85145500D01*
X140453069Y-85145500D01*
X140453070Y-85145500D01*
X140526340Y-85130925D01*
X140599611Y-85116351D01*
X140737648Y-85059174D01*
X140861879Y-84976166D01*
X143315640Y-82522405D01*
X143377952Y-82488379D01*
X143404735Y-82485500D01*
X144737835Y-82485500D01*
X144805956Y-82505502D01*
X144852449Y-82559158D01*
X144862553Y-82629432D01*
X144850102Y-82668702D01*
X144822987Y-82721917D01*
X144753285Y-82936435D01*
X144740368Y-83018000D01*
X146151656Y-83018000D01*
X146124979Y-83082402D01*
X146100000Y-83207981D01*
X146100000Y-83336019D01*
X146124979Y-83461598D01*
X146151656Y-83526000D01*
X144740368Y-83526000D01*
X144753285Y-83607564D01*
X144822986Y-83822079D01*
X144925391Y-84023059D01*
X145057971Y-84205539D01*
X145057973Y-84205542D01*
X145217457Y-84365026D01*
X145217460Y-84365028D01*
X145399940Y-84497608D01*
X145600920Y-84600013D01*
X145815434Y-84669713D01*
X146038223Y-84705000D01*
X146496000Y-84705000D01*
X146496000Y-83870344D01*
X146560402Y-83897021D01*
X146685981Y-83922000D01*
X146814019Y-83922000D01*
X146939598Y-83897021D01*
X147004000Y-83870344D01*
X147004000Y-84705000D01*
X147461777Y-84705000D01*
X147684565Y-84669713D01*
X147899079Y-84600013D01*
X148100059Y-84497608D01*
X148282539Y-84365028D01*
X148282542Y-84365026D01*
X148442026Y-84205542D01*
X148442028Y-84205539D01*
X148574608Y-84023059D01*
X148677013Y-83822079D01*
X148746714Y-83607564D01*
X148759632Y-83526000D01*
X147348344Y-83526000D01*
X147375021Y-83461598D01*
X147400000Y-83336019D01*
X147400000Y-83207981D01*
X147375021Y-83082402D01*
X147348344Y-83018000D01*
X148759632Y-83018000D01*
X148746714Y-82936435D01*
X148677012Y-82721917D01*
X148649898Y-82668702D01*
X148636794Y-82598925D01*
X148663495Y-82533141D01*
X148721522Y-82492235D01*
X148762165Y-82485500D01*
X157237835Y-82485500D01*
X157305956Y-82505502D01*
X157352449Y-82559158D01*
X157362553Y-82629432D01*
X157350102Y-82668702D01*
X157322987Y-82721917D01*
X157253285Y-82936435D01*
X157240368Y-83018000D01*
X158651656Y-83018000D01*
X158624979Y-83082402D01*
X158600000Y-83207981D01*
X158600000Y-83336019D01*
X158624979Y-83461598D01*
X158651656Y-83526000D01*
X157240368Y-83526000D01*
X157253285Y-83607564D01*
X157322986Y-83822079D01*
X157425391Y-84023059D01*
X157557971Y-84205539D01*
X157557973Y-84205542D01*
X157717457Y-84365026D01*
X157717460Y-84365028D01*
X157899940Y-84497608D01*
X158100920Y-84600013D01*
X158315434Y-84669713D01*
X158538223Y-84705000D01*
X158996000Y-84705000D01*
X158996000Y-83870344D01*
X159060402Y-83897021D01*
X159185981Y-83922000D01*
X159314019Y-83922000D01*
X159439598Y-83897021D01*
X159504000Y-83870344D01*
X159504000Y-84705000D01*
X159961777Y-84705000D01*
X160184565Y-84669713D01*
X160399079Y-84600013D01*
X160600059Y-84497608D01*
X160782539Y-84365028D01*
X160782542Y-84365026D01*
X160942026Y-84205542D01*
X160942028Y-84205539D01*
X161074608Y-84023059D01*
X161177013Y-83822079D01*
X161246714Y-83607564D01*
X161259632Y-83526000D01*
X159848344Y-83526000D01*
X159875021Y-83461598D01*
X159900000Y-83336019D01*
X159900000Y-83207981D01*
X159875021Y-83082402D01*
X159848344Y-83018000D01*
X161259632Y-83018000D01*
X161246714Y-82936435D01*
X161177012Y-82721917D01*
X161149898Y-82668702D01*
X161136794Y-82598925D01*
X161163495Y-82533141D01*
X161221522Y-82492235D01*
X161262165Y-82485500D01*
X174547706Y-82485500D01*
X174623115Y-82470500D01*
X174694247Y-82456351D01*
X174832284Y-82399174D01*
X174956515Y-82316166D01*
X185317276Y-71955403D01*
X185344644Y-71940459D01*
X185370873Y-71923603D01*
X185377171Y-71922697D01*
X185379588Y-71921378D01*
X185406371Y-71918499D01*
X185473628Y-71918499D01*
X185541749Y-71938501D01*
X185562723Y-71955404D01*
X186130595Y-72523276D01*
X186164621Y-72585588D01*
X186167500Y-72612371D01*
X186167500Y-89405500D01*
X186147498Y-89473621D01*
X186093842Y-89520114D01*
X186041500Y-89531500D01*
X184924455Y-89531500D01*
X184820574Y-89542112D01*
X184652261Y-89597885D01*
X184501347Y-89690970D01*
X184501341Y-89690975D01*
X184375975Y-89816341D01*
X184375970Y-89816347D01*
X184282885Y-89967262D01*
X184227113Y-90135572D01*
X184227112Y-90135579D01*
X184216500Y-90239446D01*
X184216500Y-90948628D01*
X184196498Y-91016749D01*
X184179595Y-91037723D01*
X180075840Y-95141477D01*
X180075835Y-95141483D01*
X179992826Y-95265716D01*
X179935650Y-95403749D01*
X179935649Y-95403752D01*
X179926025Y-95452136D01*
X179906500Y-95550291D01*
X179906500Y-95945879D01*
X179886498Y-96014000D01*
X179854563Y-96047814D01*
X179747418Y-96125661D01*
X179590658Y-96282421D01*
X179460345Y-96461781D01*
X179359693Y-96659322D01*
X179359690Y-96659328D01*
X179291183Y-96870170D01*
X179291182Y-96870175D01*
X179291182Y-96870176D01*
X179256500Y-97089149D01*
X179256500Y-97310851D01*
X179284233Y-97485949D01*
X179291183Y-97529829D01*
X179354508Y-97724721D01*
X179359692Y-97740676D01*
X179460343Y-97938215D01*
X179460345Y-97938218D01*
X179590658Y-98117578D01*
X179679485Y-98206405D01*
X179713511Y-98268717D01*
X179708446Y-98339532D01*
X179665899Y-98396368D01*
X179599379Y-98421179D01*
X179590390Y-98421500D01*
X178415288Y-98421500D01*
X178342024Y-98436073D01*
X178342024Y-98436074D01*
X178268753Y-98450649D01*
X178268751Y-98450649D01*
X178268750Y-98450650D01*
X178130714Y-98507827D01*
X178006486Y-98590833D01*
X178006480Y-98590838D01*
X171350838Y-105246480D01*
X171350833Y-105246486D01*
X171267827Y-105370714D01*
X171244783Y-105426348D01*
X171210649Y-105508754D01*
X171181500Y-105655290D01*
X171181500Y-110563629D01*
X171161498Y-110631750D01*
X171144595Y-110652724D01*
X170672724Y-111124595D01*
X170610412Y-111158621D01*
X170583629Y-111161500D01*
X168821793Y-111161500D01*
X168753672Y-111141498D01*
X168707179Y-111087842D01*
X168697075Y-111017568D01*
X168726569Y-110952988D01*
X168782857Y-110915667D01*
X168799633Y-110910216D01*
X168883483Y-110882972D01*
X169074009Y-110785894D01*
X169247004Y-110660206D01*
X169398206Y-110509004D01*
X169523894Y-110336009D01*
X169620972Y-110145483D01*
X169687049Y-109942116D01*
X169720500Y-109730916D01*
X169720500Y-109217084D01*
X169687049Y-109005884D01*
X169620972Y-108802517D01*
X169523894Y-108611991D01*
X169398206Y-108438996D01*
X169398205Y-108438995D01*
X169395296Y-108434991D01*
X169397016Y-108433741D01*
X169371648Y-108377045D01*
X169370500Y-108360072D01*
X169370500Y-106681924D01*
X169390502Y-106613803D01*
X169407405Y-106592829D01*
X169619868Y-106380366D01*
X169983353Y-106016881D01*
X170093721Y-105851704D01*
X170131360Y-105760835D01*
X170137680Y-105745579D01*
X170142602Y-105733694D01*
X170169744Y-105668169D01*
X170208500Y-105473329D01*
X170208500Y-96885087D01*
X170169744Y-96690247D01*
X170144925Y-96630328D01*
X170093722Y-96506712D01*
X169983354Y-96341535D01*
X168758465Y-95116647D01*
X168665270Y-95054376D01*
X168593287Y-95006278D01*
X168588952Y-95004483D01*
X168409758Y-94930258D01*
X168409753Y-94930256D01*
X168214915Y-94891500D01*
X168214913Y-94891500D01*
X165939691Y-94891500D01*
X165871570Y-94871498D01*
X165850596Y-94854595D01*
X165850001Y-94854000D01*
X163333999Y-94854000D01*
X163333404Y-94854595D01*
X163271092Y-94888621D01*
X163244309Y-94891500D01*
X158345924Y-94891500D01*
X158277803Y-94871498D01*
X158256829Y-94854595D01*
X157453636Y-94051402D01*
X163334000Y-94051402D01*
X163334000Y-94346000D01*
X164338000Y-94346000D01*
X164846000Y-94346000D01*
X165850000Y-94346000D01*
X165850000Y-94051414D01*
X165849999Y-94051402D01*
X165843494Y-93990906D01*
X165792444Y-93854035D01*
X165792444Y-93854034D01*
X165704904Y-93737095D01*
X165587965Y-93649555D01*
X165451093Y-93598505D01*
X165390597Y-93592000D01*
X164846000Y-93592000D01*
X164846000Y-94346000D01*
X164338000Y-94346000D01*
X164338000Y-93592000D01*
X163793402Y-93592000D01*
X163732906Y-93598505D01*
X163596035Y-93649555D01*
X163596034Y-93649555D01*
X163479095Y-93737095D01*
X163391555Y-93854034D01*
X163391555Y-93854035D01*
X163340505Y-93990906D01*
X163334000Y-94051402D01*
X157453636Y-94051402D01*
X157432905Y-94030671D01*
X157398879Y-93968359D01*
X157396000Y-93941576D01*
X157396000Y-93909000D01*
X157416002Y-93840879D01*
X157469658Y-93794386D01*
X157522000Y-93783000D01*
X157836132Y-93783000D01*
X157836138Y-93783000D01*
X157836145Y-93782999D01*
X157836149Y-93782999D01*
X157896696Y-93776490D01*
X157896697Y-93776489D01*
X157896701Y-93776489D01*
X158033704Y-93725389D01*
X158033705Y-93725387D01*
X158042148Y-93722239D01*
X158043290Y-93725302D01*
X158096963Y-93713603D01*
X158132280Y-93723977D01*
X158133094Y-93721796D01*
X158278406Y-93775994D01*
X158338902Y-93782499D01*
X158338915Y-93782500D01*
X159533500Y-93782500D01*
X159533500Y-92602732D01*
X159562899Y-92614910D01*
X159711662Y-92644500D01*
X159863338Y-92644500D01*
X160012101Y-92614910D01*
X160041500Y-92602732D01*
X160041500Y-93782500D01*
X161236085Y-93782500D01*
X161236097Y-93782499D01*
X161296593Y-93775994D01*
X161433464Y-93724944D01*
X161433465Y-93724944D01*
X161550404Y-93637404D01*
X161637944Y-93520465D01*
X161637944Y-93520464D01*
X161688994Y-93383593D01*
X161695499Y-93323097D01*
X161695500Y-93323085D01*
X161695500Y-92128500D01*
X160515732Y-92128500D01*
X160527910Y-92099101D01*
X160557500Y-91950338D01*
X160557500Y-91798662D01*
X160527910Y-91649899D01*
X160515732Y-91620500D01*
X161695500Y-91620500D01*
X161695500Y-90425914D01*
X161695499Y-90425902D01*
X161688994Y-90365406D01*
X161637944Y-90228535D01*
X161637944Y-90228534D01*
X161550404Y-90111595D01*
X161433465Y-90024055D01*
X161296593Y-89973005D01*
X161236097Y-89966500D01*
X160041500Y-89966500D01*
X160041500Y-91146267D01*
X160012101Y-91134090D01*
X159863338Y-91104500D01*
X159711662Y-91104500D01*
X159562899Y-91134090D01*
X159533500Y-91146267D01*
X159533500Y-89966500D01*
X158338902Y-89966500D01*
X158278405Y-89973005D01*
X158133094Y-90027203D01*
X158131867Y-90023915D01*
X158078920Y-90035383D01*
X158042882Y-90024786D01*
X158042147Y-90026760D01*
X157896704Y-89972511D01*
X157896696Y-89972509D01*
X157836149Y-89966000D01*
X157836138Y-89966000D01*
X154938862Y-89966000D01*
X154938850Y-89966000D01*
X154878303Y-89972509D01*
X154878295Y-89972511D01*
X154741297Y-90023610D01*
X154741292Y-90023612D01*
X154624238Y-90111238D01*
X154536612Y-90228292D01*
X154536610Y-90228297D01*
X154485511Y-90365295D01*
X154485509Y-90365303D01*
X154479000Y-90425850D01*
X154479000Y-93323149D01*
X154485509Y-93383696D01*
X154485511Y-93383704D01*
X154536610Y-93520702D01*
X154536612Y-93520707D01*
X154624238Y-93637761D01*
X154741292Y-93725387D01*
X154741294Y-93725388D01*
X154741296Y-93725389D01*
X154772681Y-93737095D01*
X154878295Y-93776488D01*
X154878303Y-93776490D01*
X154938850Y-93782999D01*
X154938855Y-93782999D01*
X154938862Y-93783000D01*
X155253000Y-93783000D01*
X155321121Y-93803002D01*
X155367614Y-93856658D01*
X155379000Y-93909000D01*
X155379000Y-94510831D01*
X155417756Y-94705668D01*
X155417756Y-94705669D01*
X155457292Y-94801117D01*
X155473783Y-94840928D01*
X155493779Y-94889204D01*
X155604147Y-95054381D01*
X155604149Y-95054383D01*
X157233113Y-96683348D01*
X157233119Y-96683353D01*
X157398296Y-96793722D01*
X157511751Y-96840716D01*
X157581831Y-96869744D01*
X157776671Y-96908500D01*
X157975329Y-96908500D01*
X163793362Y-96908500D01*
X164492671Y-96908500D01*
X167645660Y-96908500D01*
X167713781Y-96928502D01*
X167734755Y-96945405D01*
X168069795Y-97280445D01*
X168103821Y-97342757D01*
X168098756Y-97413572D01*
X168056209Y-97470408D01*
X167989689Y-97495219D01*
X167932482Y-97485949D01*
X167822174Y-97440258D01*
X167822169Y-97440256D01*
X167627331Y-97401500D01*
X167627329Y-97401500D01*
X165390638Y-97401500D01*
X164691329Y-97401500D01*
X155792925Y-97401500D01*
X155724804Y-97381498D01*
X155703830Y-97364595D01*
X150732905Y-92393670D01*
X150698879Y-92331358D01*
X150696000Y-92304575D01*
X150696000Y-90425867D01*
X150695999Y-90425850D01*
X150689490Y-90365303D01*
X150689488Y-90365295D01*
X150642551Y-90239455D01*
X150638389Y-90228296D01*
X150638388Y-90228294D01*
X150638387Y-90228292D01*
X150550761Y-90111238D01*
X150433707Y-90023612D01*
X150433702Y-90023610D01*
X150296704Y-89972511D01*
X150296696Y-89972509D01*
X150236149Y-89966000D01*
X150236138Y-89966000D01*
X147338862Y-89966000D01*
X147338850Y-89966000D01*
X147278303Y-89972509D01*
X147278295Y-89972511D01*
X147141296Y-90023610D01*
X147141293Y-90023612D01*
X147113006Y-90044787D01*
X147046485Y-90069596D01*
X146977112Y-90054503D01*
X146961994Y-90044787D01*
X146933706Y-90023612D01*
X146933703Y-90023610D01*
X146796704Y-89972511D01*
X146796696Y-89972509D01*
X146736149Y-89966000D01*
X146736138Y-89966000D01*
X146422000Y-89966000D01*
X146353879Y-89945998D01*
X146307386Y-89892342D01*
X146296000Y-89840000D01*
X146296000Y-89375172D01*
X146295999Y-89375168D01*
X146293351Y-89361854D01*
X146257244Y-89180331D01*
X146194610Y-89029119D01*
X146193335Y-89026042D01*
X146181222Y-88996797D01*
X146134378Y-88926690D01*
X146070854Y-88831619D01*
X145355881Y-88116647D01*
X145190704Y-88006279D01*
X145142024Y-87986115D01*
X145007169Y-87930256D01*
X144899695Y-87908878D01*
X171449500Y-87908878D01*
X171449500Y-88171121D01*
X171483728Y-88431108D01*
X171483729Y-88431114D01*
X171483730Y-88431116D01*
X171551602Y-88684419D01*
X171569071Y-88726593D01*
X171569070Y-88726593D01*
X171571655Y-88732835D01*
X171573707Y-88739821D01*
X171582768Y-88759663D01*
X171583619Y-88761716D01*
X171583636Y-88761756D01*
X171651957Y-88926697D01*
X171651958Y-88926700D01*
X171651960Y-88926703D01*
X171651963Y-88926709D01*
X171682897Y-88980288D01*
X171682898Y-88980289D01*
X171685899Y-88985488D01*
X171692400Y-88999722D01*
X171709290Y-89026004D01*
X171710806Y-89028629D01*
X171783073Y-89153799D01*
X171783077Y-89153805D01*
X171831245Y-89216578D01*
X171834445Y-89220749D01*
X171846873Y-89240086D01*
X171867940Y-89264400D01*
X171942718Y-89361851D01*
X172011929Y-89431062D01*
X172015111Y-89434244D01*
X172033980Y-89456020D01*
X172055755Y-89474888D01*
X172128149Y-89547282D01*
X172128152Y-89547285D01*
X172128154Y-89547286D01*
X172222622Y-89619774D01*
X172225601Y-89622060D01*
X172249914Y-89643127D01*
X172269248Y-89655552D01*
X172336197Y-89706924D01*
X172463988Y-89780704D01*
X172490278Y-89797600D01*
X172504513Y-89804101D01*
X172509706Y-89807099D01*
X172563303Y-89838043D01*
X172730334Y-89907229D01*
X172750179Y-89916293D01*
X172757171Y-89918346D01*
X172763409Y-89920930D01*
X172763412Y-89920931D01*
X172805581Y-89938398D01*
X173058884Y-90006270D01*
X173058890Y-90006270D01*
X173058891Y-90006271D01*
X173083900Y-90009563D01*
X173318880Y-90040500D01*
X173318887Y-90040500D01*
X173581113Y-90040500D01*
X173581120Y-90040500D01*
X173841116Y-90006270D01*
X174094419Y-89938398D01*
X174142830Y-89918345D01*
X174149821Y-89916293D01*
X174169660Y-89907231D01*
X174336697Y-89838043D01*
X174395487Y-89804100D01*
X174409722Y-89797600D01*
X174436025Y-89780696D01*
X174563803Y-89706924D01*
X174630753Y-89655551D01*
X174650086Y-89643127D01*
X174674379Y-89622074D01*
X174771851Y-89547282D01*
X174844250Y-89474882D01*
X174866020Y-89456020D01*
X174884880Y-89434252D01*
X174957282Y-89361851D01*
X175032074Y-89264379D01*
X175053127Y-89240086D01*
X175065551Y-89220753D01*
X175116924Y-89153803D01*
X175190699Y-89026019D01*
X175207600Y-88999722D01*
X175214100Y-88985487D01*
X175248043Y-88926697D01*
X175317231Y-88759660D01*
X175326293Y-88739821D01*
X175328345Y-88732830D01*
X175348398Y-88684419D01*
X175416270Y-88431116D01*
X175450500Y-88171120D01*
X175450500Y-87908880D01*
X175416876Y-87653484D01*
X175416271Y-87648891D01*
X175416270Y-87648890D01*
X175416270Y-87648884D01*
X175348398Y-87395581D01*
X175328342Y-87347161D01*
X175326293Y-87340179D01*
X175317229Y-87320334D01*
X175248043Y-87153303D01*
X175214097Y-87094507D01*
X175207600Y-87080278D01*
X175190696Y-87053975D01*
X175189195Y-87051375D01*
X175116924Y-86926197D01*
X175065552Y-86859248D01*
X175053127Y-86839914D01*
X175032060Y-86815601D01*
X174957282Y-86718149D01*
X174884888Y-86645755D01*
X174866020Y-86623980D01*
X174844244Y-86605111D01*
X174841075Y-86601942D01*
X174771851Y-86532718D01*
X174674398Y-86457939D01*
X174650086Y-86436873D01*
X174630749Y-86424445D01*
X174607435Y-86406556D01*
X174563805Y-86373077D01*
X174563799Y-86373073D01*
X174438630Y-86300806D01*
X174438630Y-86300807D01*
X174436010Y-86299294D01*
X174409722Y-86282400D01*
X174395487Y-86275899D01*
X174390289Y-86272898D01*
X174390288Y-86272897D01*
X174336709Y-86241963D01*
X174336703Y-86241960D01*
X174336700Y-86241958D01*
X174336697Y-86241957D01*
X174171756Y-86173636D01*
X174171756Y-86173635D01*
X174169651Y-86172763D01*
X174149821Y-86163707D01*
X174142834Y-86161655D01*
X174136602Y-86159074D01*
X174136593Y-86159071D01*
X174133230Y-86157678D01*
X174094419Y-86141602D01*
X173841116Y-86073730D01*
X173841114Y-86073729D01*
X173841108Y-86073728D01*
X173581121Y-86039500D01*
X173581120Y-86039500D01*
X173318880Y-86039500D01*
X173318878Y-86039500D01*
X173058891Y-86073728D01*
X172805577Y-86141603D01*
X172763407Y-86159070D01*
X172757161Y-86161656D01*
X172750179Y-86163707D01*
X172730369Y-86172753D01*
X172728249Y-86173632D01*
X172728247Y-86173632D01*
X172563307Y-86241955D01*
X172563296Y-86241960D01*
X172509708Y-86272898D01*
X172504497Y-86275906D01*
X172490278Y-86282400D01*
X172464017Y-86299276D01*
X172461391Y-86300793D01*
X172461374Y-86300804D01*
X172336198Y-86373075D01*
X172273417Y-86421248D01*
X172273416Y-86421247D01*
X172269227Y-86424460D01*
X172249914Y-86436873D01*
X172225638Y-86457907D01*
X172222642Y-86460207D01*
X172222631Y-86460217D01*
X172128152Y-86532715D01*
X172058939Y-86601926D01*
X172058938Y-86601925D01*
X172055725Y-86605137D01*
X172033980Y-86623980D01*
X172015137Y-86645725D01*
X172011939Y-86648924D01*
X172011926Y-86648939D01*
X171942715Y-86718152D01*
X171870217Y-86812631D01*
X171870216Y-86812630D01*
X171867905Y-86815641D01*
X171846873Y-86839914D01*
X171834463Y-86859223D01*
X171831261Y-86863397D01*
X171831248Y-86863417D01*
X171783075Y-86926198D01*
X171710804Y-87051374D01*
X171710803Y-87051373D01*
X171709272Y-87054024D01*
X171692400Y-87080278D01*
X171685909Y-87094490D01*
X171682900Y-87099703D01*
X171682898Y-87099708D01*
X171651960Y-87153296D01*
X171651955Y-87153307D01*
X171583631Y-87318248D01*
X171583632Y-87318249D01*
X171582753Y-87320369D01*
X171573707Y-87340179D01*
X171571656Y-87347161D01*
X171569070Y-87353407D01*
X171551603Y-87395577D01*
X171483728Y-87648891D01*
X171449500Y-87908878D01*
X144899695Y-87908878D01*
X144812331Y-87891500D01*
X144812329Y-87891500D01*
X144172671Y-87891500D01*
X144172668Y-87891500D01*
X143977830Y-87930256D01*
X143977825Y-87930258D01*
X143794296Y-88006279D01*
X143629123Y-88116644D01*
X143629116Y-88116649D01*
X143488649Y-88257116D01*
X143488644Y-88257123D01*
X143378279Y-88422296D01*
X143302258Y-88605825D01*
X143302256Y-88605830D01*
X143263500Y-88800668D01*
X143263500Y-88999331D01*
X143294227Y-89153803D01*
X143302256Y-89194169D01*
X143378279Y-89377704D01*
X143488647Y-89542881D01*
X143629119Y-89683353D01*
X143755578Y-89767850D01*
X143801106Y-89822327D01*
X143809954Y-89892770D01*
X143779313Y-89956814D01*
X143729610Y-89990670D01*
X143641295Y-90023611D01*
X143641292Y-90023612D01*
X143524238Y-90111238D01*
X143436612Y-90228292D01*
X143436610Y-90228297D01*
X143385511Y-90365295D01*
X143385509Y-90365303D01*
X143379000Y-90425850D01*
X143379000Y-93323149D01*
X143385509Y-93383696D01*
X143385511Y-93383704D01*
X143436610Y-93520702D01*
X143436612Y-93520707D01*
X143524238Y-93637761D01*
X143641292Y-93725387D01*
X143641294Y-93725388D01*
X143641296Y-93725389D01*
X143672681Y-93737095D01*
X143778295Y-93776488D01*
X143778303Y-93776490D01*
X143838850Y-93782999D01*
X143838855Y-93782999D01*
X143838862Y-93783000D01*
X144153000Y-93783000D01*
X144221121Y-93803002D01*
X144267614Y-93856658D01*
X144279000Y-93909000D01*
X144279000Y-94373831D01*
X144317757Y-94568672D01*
X144392350Y-94748753D01*
X144392346Y-94748754D01*
X144392355Y-94748766D01*
X144393777Y-94752202D01*
X144461797Y-94854000D01*
X144504147Y-94917381D01*
X144504149Y-94917383D01*
X150080113Y-100493349D01*
X150080119Y-100493354D01*
X150245296Y-100603722D01*
X150350951Y-100647485D01*
X150428831Y-100679744D01*
X150623671Y-100718500D01*
X150623672Y-100718500D01*
X165390632Y-100718500D01*
X165390638Y-100718500D01*
X165390645Y-100718499D01*
X165390649Y-100718499D01*
X165451196Y-100711990D01*
X165451199Y-100711989D01*
X165451201Y-100711989D01*
X165588204Y-100660889D01*
X165705261Y-100573261D01*
X165792889Y-100456204D01*
X165843989Y-100319201D01*
X165848680Y-100275574D01*
X165850499Y-100258649D01*
X165850500Y-100258632D01*
X165850500Y-99544500D01*
X165870502Y-99476379D01*
X165924158Y-99429886D01*
X165976500Y-99418500D01*
X166393500Y-99418500D01*
X166461621Y-99438502D01*
X166508114Y-99492158D01*
X166519500Y-99544500D01*
X166519500Y-101750075D01*
X166499498Y-101818196D01*
X166482595Y-101839170D01*
X165219119Y-103102647D01*
X165078649Y-103243116D01*
X165078644Y-103243123D01*
X164968279Y-103408296D01*
X164892258Y-103591825D01*
X164892256Y-103591830D01*
X164853500Y-103786668D01*
X164853500Y-108014460D01*
X164833498Y-108082581D01*
X164793649Y-108121699D01*
X164788349Y-108124968D01*
X164788347Y-108124969D01*
X164662975Y-108250341D01*
X164662970Y-108250347D01*
X164569885Y-108401262D01*
X164514113Y-108569572D01*
X164514112Y-108569579D01*
X164503500Y-108673446D01*
X164503500Y-110274544D01*
X164514112Y-110378425D01*
X164569885Y-110546738D01*
X164662970Y-110697652D01*
X164662975Y-110697658D01*
X164788341Y-110823024D01*
X164788347Y-110823029D01*
X164788348Y-110823030D01*
X164939262Y-110916115D01*
X164939268Y-110916117D01*
X164945914Y-110919217D01*
X164945299Y-110920534D01*
X164996972Y-110956310D01*
X165024227Y-111021867D01*
X165011713Y-111091752D01*
X164963403Y-111143777D01*
X164898967Y-111161500D01*
X147436371Y-111161500D01*
X147368250Y-111141498D01*
X147347276Y-111124595D01*
X141933519Y-105710838D01*
X141933515Y-105710834D01*
X141809284Y-105627826D01*
X141671247Y-105570649D01*
X141597976Y-105556074D01*
X141597975Y-105556073D01*
X141524711Y-105541500D01*
X141524706Y-105541500D01*
X137885380Y-105541500D01*
X137817259Y-105521498D01*
X137778140Y-105481648D01*
X137744030Y-105426348D01*
X137744024Y-105426341D01*
X137618658Y-105300975D01*
X137618652Y-105300970D01*
X137567010Y-105269117D01*
X137467738Y-105207885D01*
X137349257Y-105168625D01*
X137299427Y-105152113D01*
X137299420Y-105152112D01*
X137195553Y-105141500D01*
X135844455Y-105141500D01*
X135740574Y-105152112D01*
X135572261Y-105207885D01*
X135421347Y-105300970D01*
X135421341Y-105300975D01*
X135295975Y-105426341D01*
X135295970Y-105426347D01*
X135202885Y-105577262D01*
X135147113Y-105745572D01*
X135147112Y-105745579D01*
X135136500Y-105849446D01*
X135136500Y-106750544D01*
X135147112Y-106854425D01*
X135202885Y-107022738D01*
X135295970Y-107173652D01*
X135295975Y-107173658D01*
X135421340Y-107299023D01*
X135421344Y-107299026D01*
X135421348Y-107299030D01*
X135421351Y-107299032D01*
X135423055Y-107300379D01*
X135423926Y-107301609D01*
X135426537Y-107304220D01*
X135426090Y-107304666D01*
X135464085Y-107358319D01*
X135467278Y-107429244D01*
X135434004Y-107488313D01*
X135345970Y-107576347D01*
X135252885Y-107727262D01*
X135197113Y-107895572D01*
X135197112Y-107895579D01*
X135186500Y-107999446D01*
X135186500Y-108900544D01*
X135197112Y-109004425D01*
X135252885Y-109172738D01*
X135345970Y-109323652D01*
X135345975Y-109323658D01*
X135471341Y-109449024D01*
X135471347Y-109449029D01*
X135471348Y-109449030D01*
X135622262Y-109542115D01*
X135790574Y-109597887D01*
X135894455Y-109608500D01*
X137245544Y-109608499D01*
X137349426Y-109597887D01*
X137517738Y-109542115D01*
X137668652Y-109449030D01*
X137794030Y-109323652D01*
X137887115Y-109172738D01*
X137942887Y-109004426D01*
X137953500Y-108900545D01*
X137953499Y-107999456D01*
X137942887Y-107895574D01*
X137887115Y-107727262D01*
X137794030Y-107576348D01*
X137794029Y-107576347D01*
X137794024Y-107576341D01*
X137668657Y-107450974D01*
X137666942Y-107449618D01*
X137666071Y-107448388D01*
X137663463Y-107445780D01*
X137663908Y-107445334D01*
X137660466Y-107440473D01*
X137650962Y-107434541D01*
X137640313Y-107412013D01*
X137625913Y-107391678D01*
X137625409Y-107380484D01*
X137620621Y-107370355D01*
X137623841Y-107345647D01*
X137622721Y-107320753D01*
X137628589Y-107309221D01*
X137629797Y-107299954D01*
X137643465Y-107279988D01*
X137648787Y-107269531D01*
X137652219Y-107265462D01*
X137744030Y-107173652D01*
X137783046Y-107110396D01*
X137789076Y-107103250D01*
X137811204Y-107088613D01*
X137830926Y-107070875D01*
X137841734Y-107068418D01*
X137848291Y-107064082D01*
X137861588Y-107063906D01*
X137885380Y-107058500D01*
X141083629Y-107058500D01*
X141151750Y-107078502D01*
X141172724Y-107095405D01*
X146480834Y-112403515D01*
X146480835Y-112403516D01*
X146586484Y-112509165D01*
X146710716Y-112592174D01*
X146791576Y-112625667D01*
X146848753Y-112649351D01*
X146922024Y-112663925D01*
X146995294Y-112678500D01*
X146995295Y-112678500D01*
X146995299Y-112678500D01*
X157800094Y-112678500D01*
X157868215Y-112698502D01*
X157914708Y-112752158D01*
X157924812Y-112822432D01*
X157895318Y-112887012D01*
X157849097Y-112919104D01*
X157849201Y-112919295D01*
X157847434Y-112920259D01*
X157844129Y-112922554D01*
X157841299Y-112923610D01*
X157841291Y-112923613D01*
X157724238Y-113011238D01*
X157636612Y-113128292D01*
X157636610Y-113128297D01*
X157585511Y-113265295D01*
X157585509Y-113265303D01*
X157579000Y-113325850D01*
X157579000Y-116223149D01*
X157585509Y-116283696D01*
X157585511Y-116283704D01*
X157636610Y-116420702D01*
X157636612Y-116420707D01*
X157724238Y-116537761D01*
X157841292Y-116625387D01*
X157841294Y-116625388D01*
X157841296Y-116625389D01*
X157900375Y-116647424D01*
X157978295Y-116676488D01*
X157978303Y-116676490D01*
X158038850Y-116682999D01*
X158038855Y-116682999D01*
X158038862Y-116683000D01*
X158038868Y-116683000D01*
X160902018Y-116683000D01*
X160970139Y-116703002D01*
X161016632Y-116756658D01*
X161026736Y-116826932D01*
X160997242Y-116891512D01*
X160937516Y-116929896D01*
X160930638Y-116931706D01*
X160822238Y-116956981D01*
X160541030Y-117022550D01*
X160540168Y-117022747D01*
X160472729Y-117037973D01*
X160469561Y-117038646D01*
X159357326Y-117259883D01*
X159356436Y-117260057D01*
X159279590Y-117274768D01*
X159276424Y-117275332D01*
X158166200Y-117458631D01*
X158165285Y-117458779D01*
X158079313Y-117472324D01*
X158076149Y-117472781D01*
X156968859Y-117618558D01*
X156967917Y-117618678D01*
X156873200Y-117630422D01*
X156870046Y-117630773D01*
X155766417Y-117739471D01*
X155765449Y-117739563D01*
X155662620Y-117748890D01*
X155659479Y-117749135D01*
X154560314Y-117821179D01*
X154559322Y-117821240D01*
X154448825Y-117827608D01*
X154445699Y-117827750D01*
X153351913Y-117863557D01*
X153350900Y-117863586D01*
X153235594Y-117866432D01*
X153233023Y-117866496D01*
X153229916Y-117866534D01*
X152142449Y-117866534D01*
X152141412Y-117866530D01*
X152140887Y-117866525D01*
X152016695Y-117865503D01*
X152013610Y-117865440D01*
X150933065Y-117830067D01*
X150932008Y-117830027D01*
X150801031Y-117824638D01*
X150797970Y-117824475D01*
X149725498Y-117754182D01*
X149724420Y-117754107D01*
X149587354Y-117743942D01*
X149584323Y-117743680D01*
X148520648Y-117638918D01*
X148519553Y-117638806D01*
X148377018Y-117623509D01*
X148374017Y-117623150D01*
X147319906Y-117484373D01*
X147318794Y-117484222D01*
X147171285Y-117463464D01*
X147168318Y-117463010D01*
X146124615Y-117290693D01*
X146123488Y-117290502D01*
X145971463Y-117263983D01*
X145968534Y-117263436D01*
X144936041Y-117058060D01*
X144934898Y-117057827D01*
X144778833Y-117025280D01*
X144775946Y-117024643D01*
X144377372Y-116931709D01*
X144315572Y-116896760D01*
X144282478Y-116833949D01*
X144288595Y-116763216D01*
X144331983Y-116707020D01*
X144398865Y-116683201D01*
X144405983Y-116683000D01*
X146736132Y-116683000D01*
X146736138Y-116683000D01*
X146736145Y-116682999D01*
X146736149Y-116682999D01*
X146796696Y-116676490D01*
X146796699Y-116676489D01*
X146796701Y-116676489D01*
X146933704Y-116625389D01*
X147050761Y-116537761D01*
X147096332Y-116476886D01*
X147138387Y-116420707D01*
X147138387Y-116420706D01*
X147138389Y-116420704D01*
X147189489Y-116283701D01*
X147196000Y-116223138D01*
X147196000Y-113325862D01*
X147195999Y-113325850D01*
X147189490Y-113265303D01*
X147189488Y-113265295D01*
X147138389Y-113128297D01*
X147138387Y-113128292D01*
X147050761Y-113011238D01*
X146933707Y-112923612D01*
X146933704Y-112923611D01*
X146927340Y-112921237D01*
X146927336Y-112921236D01*
X146796701Y-112872511D01*
X146736138Y-112866000D01*
X143838862Y-112866000D01*
X143838850Y-112866000D01*
X143778303Y-112872509D01*
X143778295Y-112872511D01*
X143641297Y-112923610D01*
X143641292Y-112923612D01*
X143524238Y-113011238D01*
X143436612Y-113128292D01*
X143436610Y-113128297D01*
X143385511Y-113265295D01*
X143385509Y-113265303D01*
X143379000Y-113325850D01*
X143379000Y-116223149D01*
X143385509Y-116283696D01*
X143385511Y-116283704D01*
X143436610Y-116420702D01*
X143436612Y-116420707D01*
X143484938Y-116485262D01*
X143509749Y-116551782D01*
X143494658Y-116621156D01*
X143444456Y-116671358D01*
X143375081Y-116686450D01*
X143351459Y-116682478D01*
X142584181Y-116476886D01*
X142583015Y-116476567D01*
X142420309Y-116431293D01*
X142417510Y-116430479D01*
X141423531Y-116128959D01*
X141422355Y-116128596D01*
X141256950Y-116076651D01*
X141254201Y-116075753D01*
X140466320Y-115808304D01*
X140274642Y-115743238D01*
X140273532Y-115742856D01*
X140105816Y-115684059D01*
X140103137Y-115683085D01*
X139138740Y-115320112D01*
X139137554Y-115319658D01*
X138968266Y-115253981D01*
X138965621Y-115252921D01*
X138017252Y-114860094D01*
X138016057Y-114859592D01*
X137845320Y-114786804D01*
X137842732Y-114785666D01*
X136911156Y-114363576D01*
X136909959Y-114363026D01*
X136738365Y-114283106D01*
X136735835Y-114281893D01*
X135821792Y-113831136D01*
X135820594Y-113830538D01*
X135648524Y-113743398D01*
X135646054Y-113742112D01*
X134754005Y-113265303D01*
X134750176Y-113263256D01*
X134749088Y-113262667D01*
X134633521Y-113199282D01*
X134576986Y-113168274D01*
X134574579Y-113166919D01*
X133697693Y-112660649D01*
X133696501Y-112659952D01*
X133582090Y-112592214D01*
X133524845Y-112558321D01*
X133522607Y-112556964D01*
X133479574Y-112530204D01*
X133432291Y-112477247D01*
X133421144Y-112407131D01*
X133449674Y-112342119D01*
X133508823Y-112302852D01*
X133570694Y-112299628D01*
X133615294Y-112308500D01*
X133615295Y-112308500D01*
X133764705Y-112308500D01*
X135204620Y-112308500D01*
X135272741Y-112328502D01*
X135311860Y-112368352D01*
X135345968Y-112423650D01*
X135345975Y-112423658D01*
X135471341Y-112549024D01*
X135471347Y-112549029D01*
X135471348Y-112549030D01*
X135622262Y-112642115D01*
X135790574Y-112697887D01*
X135894455Y-112708500D01*
X137245544Y-112708499D01*
X137349426Y-112697887D01*
X137517738Y-112642115D01*
X137668652Y-112549030D01*
X137794030Y-112423652D01*
X137887115Y-112272738D01*
X137942887Y-112104426D01*
X137953500Y-112000545D01*
X137953499Y-111099456D01*
X137942887Y-110995574D01*
X137887115Y-110827262D01*
X137794030Y-110676348D01*
X137794029Y-110676347D01*
X137794024Y-110676341D01*
X137668658Y-110550975D01*
X137668652Y-110550970D01*
X137622096Y-110522254D01*
X137517738Y-110457885D01*
X137433582Y-110429999D01*
X137349427Y-110402113D01*
X137349420Y-110402112D01*
X137245553Y-110391500D01*
X135894455Y-110391500D01*
X135790574Y-110402112D01*
X135622261Y-110457885D01*
X135471347Y-110550970D01*
X135471341Y-110550975D01*
X135345975Y-110676341D01*
X135345968Y-110676349D01*
X135311860Y-110731648D01*
X135259074Y-110779125D01*
X135204620Y-110791500D01*
X134056371Y-110791500D01*
X133988250Y-110771498D01*
X133967276Y-110754595D01*
X133503519Y-110290838D01*
X133503515Y-110290834D01*
X133379284Y-110207826D01*
X133241247Y-110150649D01*
X133167976Y-110136074D01*
X133167975Y-110136073D01*
X133094711Y-110121500D01*
X133094706Y-110121500D01*
X132866371Y-110121500D01*
X132798250Y-110101498D01*
X132777276Y-110084595D01*
X128479902Y-105787221D01*
X130412001Y-105787221D01*
X130418481Y-105858553D01*
X130469633Y-106022706D01*
X130558578Y-106169840D01*
X130558586Y-106169850D01*
X130680149Y-106291413D01*
X130680159Y-106291421D01*
X130827293Y-106380366D01*
X130991447Y-106431518D01*
X131062776Y-106437999D01*
X131624000Y-106437999D01*
X131677222Y-106437999D01*
X131748553Y-106431518D01*
X131912706Y-106380366D01*
X132059840Y-106291421D01*
X132059850Y-106291413D01*
X132181413Y-106169850D01*
X132181421Y-106169840D01*
X132270366Y-106022706D01*
X132321518Y-105858553D01*
X132321518Y-105858552D01*
X132328000Y-105787222D01*
X132328000Y-105784000D01*
X131624000Y-105784000D01*
X131624000Y-106437999D01*
X131062776Y-106437999D01*
X131116000Y-106437998D01*
X131116000Y-105784000D01*
X130412001Y-105784000D01*
X130412001Y-105787221D01*
X128479902Y-105787221D01*
X127453519Y-104760838D01*
X127453515Y-104760834D01*
X127329284Y-104677826D01*
X127329285Y-104677826D01*
X127329283Y-104677825D01*
X127323713Y-104675518D01*
X127268434Y-104630967D01*
X127246016Y-104563603D01*
X127263577Y-104494812D01*
X127315541Y-104446436D01*
X127352221Y-104434663D01*
X127374785Y-104431090D01*
X127614379Y-104353241D01*
X127838845Y-104238870D01*
X128042656Y-104090793D01*
X128220793Y-103912656D01*
X128368870Y-103708845D01*
X128483241Y-103484379D01*
X128561090Y-103244785D01*
X128600500Y-102995962D01*
X128600500Y-102744038D01*
X128561090Y-102495215D01*
X128483241Y-102255621D01*
X128408402Y-102108742D01*
X128395299Y-102038967D01*
X128421999Y-101973182D01*
X128480027Y-101932276D01*
X128550958Y-101929236D01*
X128609765Y-101962446D01*
X129024595Y-102377276D01*
X129058621Y-102439588D01*
X129061500Y-102466371D01*
X129061500Y-103614707D01*
X129080226Y-103708848D01*
X129090649Y-103761247D01*
X129147826Y-103899284D01*
X129230834Y-104023515D01*
X129230838Y-104023519D01*
X130375944Y-105168625D01*
X130409970Y-105230937D01*
X130412332Y-105269117D01*
X130412000Y-105272772D01*
X130412000Y-105276000D01*
X130533173Y-105276000D01*
X130534926Y-105276270D01*
X130535823Y-105276028D01*
X130542716Y-105277474D01*
X130571206Y-105281877D01*
X130576378Y-105283514D01*
X130638753Y-105309351D01*
X130683637Y-105318279D01*
X130785294Y-105338500D01*
X130785295Y-105338500D01*
X130934705Y-105338500D01*
X132639235Y-105338500D01*
X132704419Y-105356671D01*
X132827087Y-105430827D01*
X132991351Y-105482013D01*
X133062735Y-105488500D01*
X133677264Y-105488499D01*
X133748649Y-105482013D01*
X133912913Y-105430827D01*
X134060155Y-105341816D01*
X134181816Y-105220155D01*
X134270827Y-105072913D01*
X134322013Y-104908649D01*
X134328500Y-104837265D01*
X134328499Y-104322736D01*
X134322013Y-104251351D01*
X134270827Y-104087087D01*
X134181816Y-103939845D01*
X134181815Y-103939844D01*
X134181811Y-103939839D01*
X134060160Y-103818188D01*
X134060155Y-103818184D01*
X133954688Y-103754427D01*
X133912913Y-103729173D01*
X133912912Y-103729172D01*
X133912911Y-103729172D01*
X133912906Y-103729170D01*
X133748646Y-103677986D01*
X133696723Y-103673268D01*
X133677265Y-103671500D01*
X133677262Y-103671500D01*
X133062738Y-103671500D01*
X132991353Y-103677986D01*
X132991352Y-103677986D01*
X132827093Y-103729170D01*
X132827088Y-103729172D01*
X132704420Y-103803328D01*
X132687901Y-103807932D01*
X132674733Y-103816396D01*
X132639235Y-103821500D01*
X132454500Y-103821500D01*
X132386379Y-103801498D01*
X132339886Y-103747842D01*
X132328500Y-103695500D01*
X132328499Y-103372738D01*
X132326266Y-103348164D01*
X132322013Y-103301351D01*
X132275613Y-103152446D01*
X132274444Y-103081459D01*
X132306811Y-103025868D01*
X133307276Y-102025404D01*
X133369588Y-101991378D01*
X133396371Y-101988499D01*
X134105543Y-101988499D01*
X134105544Y-101988499D01*
X134193994Y-101979463D01*
X134263793Y-101992439D01*
X134311562Y-102034808D01*
X134370834Y-102123515D01*
X134370838Y-102123519D01*
X135099595Y-102852276D01*
X135133621Y-102914588D01*
X135136500Y-102941371D01*
X135136500Y-103650544D01*
X135147112Y-103754425D01*
X135202885Y-103922738D01*
X135295970Y-104073652D01*
X135295975Y-104073658D01*
X135421341Y-104199024D01*
X135421347Y-104199029D01*
X135421348Y-104199030D01*
X135572262Y-104292115D01*
X135740574Y-104347887D01*
X135844455Y-104358500D01*
X137195544Y-104358499D01*
X137299426Y-104347887D01*
X137467738Y-104292115D01*
X137618652Y-104199030D01*
X137744030Y-104073652D01*
X137837115Y-103922738D01*
X137892887Y-103754426D01*
X137903500Y-103650545D01*
X137903499Y-102749456D01*
X137892887Y-102645574D01*
X137837115Y-102477262D01*
X137744030Y-102326348D01*
X137744029Y-102326347D01*
X137744024Y-102326341D01*
X137618658Y-102200975D01*
X137618652Y-102200970D01*
X137467738Y-102107885D01*
X137467734Y-102107883D01*
X137467733Y-102107883D01*
X137461086Y-102104783D01*
X137461627Y-102103620D01*
X137409460Y-102067497D01*
X137382209Y-102001939D01*
X137394727Y-101932055D01*
X137443040Y-101880032D01*
X137467828Y-101868712D01*
X137487738Y-101862115D01*
X137638652Y-101769030D01*
X137764030Y-101643652D01*
X137857115Y-101492738D01*
X137864403Y-101470742D01*
X137904811Y-101412374D01*
X137913991Y-101405618D01*
X137983515Y-101359166D01*
X138889544Y-100453135D01*
X138951855Y-100419112D01*
X138998348Y-100417783D01*
X139129149Y-100438500D01*
X139129152Y-100438500D01*
X139350848Y-100438500D01*
X139350851Y-100438500D01*
X139569824Y-100403818D01*
X139780676Y-100335308D01*
X139978215Y-100234657D01*
X140157576Y-100104343D01*
X140197577Y-100064342D01*
X140259888Y-100030316D01*
X140330704Y-100035380D01*
X140387540Y-100077926D01*
X140404728Y-100109403D01*
X140429553Y-100175960D01*
X140429555Y-100175965D01*
X140517095Y-100292904D01*
X140634034Y-100380444D01*
X140770906Y-100431494D01*
X140831402Y-100437999D01*
X140831415Y-100438000D01*
X141526000Y-100438000D01*
X141526000Y-99402968D01*
X141606306Y-99449333D01*
X141720756Y-99480000D01*
X141839244Y-99480000D01*
X141953694Y-99449333D01*
X142034000Y-99402968D01*
X142034000Y-100438000D01*
X142728585Y-100438000D01*
X142728597Y-100437999D01*
X142789093Y-100431494D01*
X142925964Y-100380444D01*
X142925965Y-100380444D01*
X143042904Y-100292904D01*
X143130444Y-100175965D01*
X143130444Y-100175964D01*
X143181494Y-100039093D01*
X143187999Y-99978597D01*
X143188000Y-99978585D01*
X143188000Y-99284000D01*
X142152968Y-99284000D01*
X142199333Y-99203694D01*
X142230000Y-99089244D01*
X142230000Y-98970756D01*
X142199333Y-98856306D01*
X142152968Y-98776000D01*
X143188000Y-98776000D01*
X143188000Y-98081414D01*
X143187999Y-98081402D01*
X143181494Y-98020906D01*
X143130444Y-97884035D01*
X143130444Y-97884034D01*
X143042904Y-97767095D01*
X142925965Y-97679555D01*
X142789093Y-97628505D01*
X142728597Y-97622000D01*
X142034000Y-97622000D01*
X142034000Y-98657031D01*
X141953694Y-98610667D01*
X141839244Y-98580000D01*
X141720756Y-98580000D01*
X141606306Y-98610667D01*
X141526000Y-98657031D01*
X141526000Y-97622000D01*
X140831402Y-97622000D01*
X140770906Y-97628505D01*
X140634035Y-97679555D01*
X140634034Y-97679555D01*
X140517095Y-97767095D01*
X140429555Y-97884034D01*
X140429554Y-97884037D01*
X140404728Y-97950597D01*
X140362181Y-98007432D01*
X140295660Y-98032242D01*
X140226286Y-98017150D01*
X140197578Y-97995658D01*
X140157578Y-97955658D01*
X139978218Y-97825345D01*
X139978217Y-97825344D01*
X139978215Y-97825343D01*
X139780676Y-97724692D01*
X139780673Y-97724691D01*
X139780671Y-97724690D01*
X139569829Y-97656183D01*
X139569825Y-97656182D01*
X139569824Y-97656182D01*
X139350851Y-97621500D01*
X139129149Y-97621500D01*
X138910176Y-97656182D01*
X138910170Y-97656183D01*
X138699328Y-97724690D01*
X138699322Y-97724693D01*
X138501781Y-97825345D01*
X138322421Y-97955658D01*
X138165661Y-98112418D01*
X138165656Y-98112424D01*
X138151432Y-98132001D01*
X138095208Y-98175353D01*
X138024471Y-98181425D01*
X137961681Y-98148291D01*
X137926772Y-98086469D01*
X137923499Y-98057944D01*
X137923499Y-97219456D01*
X137912887Y-97115574D01*
X137857115Y-96947262D01*
X137764030Y-96796348D01*
X137764029Y-96796347D01*
X137764024Y-96796341D01*
X137638658Y-96670975D01*
X137638654Y-96670972D01*
X137638652Y-96670970D01*
X137626357Y-96663386D01*
X137578881Y-96610599D01*
X137567479Y-96540524D01*
X137576099Y-96507928D01*
X137576604Y-96506711D01*
X137643587Y-96345000D01*
X137678500Y-96169479D01*
X137678500Y-95990521D01*
X137643587Y-95815000D01*
X137575102Y-95649664D01*
X137475678Y-95500865D01*
X137349135Y-95374322D01*
X137200336Y-95274898D01*
X137083429Y-95226473D01*
X137035003Y-95206414D01*
X137035001Y-95206413D01*
X137035000Y-95206413D01*
X136946645Y-95188838D01*
X136859481Y-95171500D01*
X136859479Y-95171500D01*
X136680521Y-95171500D01*
X136680518Y-95171500D01*
X136562332Y-95195009D01*
X136505000Y-95206413D01*
X136504999Y-95206413D01*
X136504996Y-95206414D01*
X136339662Y-95274899D01*
X136190869Y-95374319D01*
X136190862Y-95374324D01*
X136064324Y-95500862D01*
X136064319Y-95500869D01*
X135964899Y-95649662D01*
X135896414Y-95814996D01*
X135861500Y-95990518D01*
X135861500Y-96169481D01*
X135896414Y-96345004D01*
X135896514Y-96345245D01*
X135896528Y-96345384D01*
X135898212Y-96350934D01*
X135897159Y-96351253D01*
X135904102Y-96415835D01*
X135872321Y-96479321D01*
X135811262Y-96515548D01*
X135792911Y-96518808D01*
X135760580Y-96522111D01*
X135760577Y-96522112D01*
X135592261Y-96577885D01*
X135441347Y-96670970D01*
X135441341Y-96670975D01*
X135315975Y-96796341D01*
X135315970Y-96796347D01*
X135222885Y-96947262D01*
X135167113Y-97115572D01*
X135167112Y-97115579D01*
X135156500Y-97219446D01*
X135156500Y-98120544D01*
X135167112Y-98224425D01*
X135222885Y-98392738D01*
X135315970Y-98543652D01*
X135315975Y-98543658D01*
X135441341Y-98669024D01*
X135441347Y-98669029D01*
X135441348Y-98669030D01*
X135592262Y-98762115D01*
X135760574Y-98817887D01*
X135864455Y-98828500D01*
X137215544Y-98828499D01*
X137319426Y-98817887D01*
X137487738Y-98762115D01*
X137638652Y-98669030D01*
X137640650Y-98667031D01*
X137642359Y-98666098D01*
X137644410Y-98664477D01*
X137644686Y-98664827D01*
X137702958Y-98633003D01*
X137773774Y-98638063D01*
X137830613Y-98680606D01*
X137855428Y-98747125D01*
X137854199Y-98775832D01*
X137847538Y-98817887D01*
X137831500Y-98919149D01*
X137831500Y-99140851D01*
X137841453Y-99203694D01*
X137852216Y-99271650D01*
X137843116Y-99342061D01*
X137816862Y-99380455D01*
X137566499Y-99630818D01*
X137504187Y-99664844D01*
X137437772Y-99661328D01*
X137319427Y-99622113D01*
X137319420Y-99622112D01*
X137215553Y-99611500D01*
X135864455Y-99611500D01*
X135760573Y-99622113D01*
X135649737Y-99658839D01*
X135633920Y-99659382D01*
X135619094Y-99664913D01*
X135599165Y-99660578D01*
X135578782Y-99661279D01*
X135564227Y-99652977D01*
X135549720Y-99649822D01*
X135521012Y-99628331D01*
X135443516Y-99550835D01*
X135443515Y-99550834D01*
X135439115Y-99546434D01*
X134693519Y-98800838D01*
X134693518Y-98800837D01*
X134693515Y-98800834D01*
X134679161Y-98791243D01*
X134633635Y-98736766D01*
X134624789Y-98666323D01*
X134650335Y-98608324D01*
X134654025Y-98603656D01*
X134654030Y-98603652D01*
X134747115Y-98452738D01*
X134802887Y-98284426D01*
X134813500Y-98180545D01*
X134813499Y-97279456D01*
X134802887Y-97175574D01*
X134747115Y-97007262D01*
X134654030Y-96856348D01*
X134654029Y-96856347D01*
X134654024Y-96856341D01*
X134528658Y-96730975D01*
X134528649Y-96730968D01*
X134474933Y-96697835D01*
X134427455Y-96645049D01*
X134416053Y-96574974D01*
X134422369Y-96551097D01*
X134421790Y-96550922D01*
X134423582Y-96545011D01*
X134423587Y-96545000D01*
X134458500Y-96369479D01*
X134458500Y-96190521D01*
X134423587Y-96015000D01*
X134355102Y-95849664D01*
X134255678Y-95700865D01*
X134129135Y-95574322D01*
X133980336Y-95474898D01*
X133863429Y-95426473D01*
X133815003Y-95406414D01*
X133815001Y-95406413D01*
X133815000Y-95406413D01*
X133726645Y-95388838D01*
X133639481Y-95371500D01*
X133639479Y-95371500D01*
X133460521Y-95371500D01*
X133460518Y-95371500D01*
X133329771Y-95397507D01*
X133285000Y-95406413D01*
X133284999Y-95406413D01*
X133284996Y-95406414D01*
X133119662Y-95474899D01*
X132970869Y-95574319D01*
X132970862Y-95574324D01*
X132844324Y-95700862D01*
X132844319Y-95700869D01*
X132744899Y-95849662D01*
X132676414Y-96014996D01*
X132641500Y-96190518D01*
X132641500Y-96369484D01*
X132660025Y-96462612D01*
X132653697Y-96533326D01*
X132610143Y-96589393D01*
X132576080Y-96606797D01*
X132533382Y-96620945D01*
X132482261Y-96637885D01*
X132331347Y-96730970D01*
X132331341Y-96730975D01*
X132205975Y-96856341D01*
X132205970Y-96856347D01*
X132112885Y-97007262D01*
X132057113Y-97175572D01*
X132057112Y-97175579D01*
X132046500Y-97279446D01*
X132046500Y-97279454D01*
X132046500Y-97279455D01*
X132046500Y-97656183D01*
X132046501Y-97946500D01*
X132043909Y-97955325D01*
X132045219Y-97964432D01*
X132034063Y-97988857D01*
X132026499Y-98014621D01*
X132019545Y-98020645D01*
X132015725Y-98029012D01*
X131993139Y-98043526D01*
X131972843Y-98061114D01*
X131962156Y-98063438D01*
X131955999Y-98067396D01*
X131920501Y-98072500D01*
X131687371Y-98072500D01*
X131619250Y-98052498D01*
X131598276Y-98035595D01*
X129612228Y-96049547D01*
X129578202Y-95987235D01*
X129583267Y-95916420D01*
X129625814Y-95859584D01*
X129681607Y-95836005D01*
X129858116Y-95808049D01*
X130061483Y-95741972D01*
X130252009Y-95644894D01*
X130425004Y-95519206D01*
X130576206Y-95368004D01*
X130701894Y-95195009D01*
X130798972Y-95004483D01*
X130865049Y-94801116D01*
X130898500Y-94589916D01*
X130898500Y-94376084D01*
X130865049Y-94164884D01*
X130798972Y-93961517D01*
X130701894Y-93770991D01*
X130576206Y-93597996D01*
X130576203Y-93597993D01*
X130576201Y-93597990D01*
X130472840Y-93494629D01*
X130438814Y-93432317D01*
X130443879Y-93361502D01*
X130486426Y-93304666D01*
X130517903Y-93287478D01*
X130635965Y-93243444D01*
X130752904Y-93155904D01*
X130840444Y-93038965D01*
X130840444Y-93038964D01*
X130891494Y-92902093D01*
X130897999Y-92841597D01*
X130898000Y-92841585D01*
X130898000Y-92197000D01*
X129970703Y-92197000D01*
X130005925Y-92135993D01*
X130040000Y-92008826D01*
X130040000Y-91877174D01*
X130005925Y-91750007D01*
X129970703Y-91689000D01*
X130898000Y-91689000D01*
X130898000Y-91044414D01*
X130897999Y-91044402D01*
X130891494Y-90983906D01*
X130840444Y-90847035D01*
X130840444Y-90847034D01*
X130752904Y-90730095D01*
X130635965Y-90642555D01*
X130499093Y-90591505D01*
X130438597Y-90585000D01*
X129794000Y-90585000D01*
X129794000Y-91512297D01*
X129732993Y-91477075D01*
X129605826Y-91443000D01*
X129474174Y-91443000D01*
X129347007Y-91477075D01*
X129286000Y-91512297D01*
X129286000Y-90585000D01*
X128641402Y-90585000D01*
X128580906Y-90591505D01*
X128444035Y-90642555D01*
X128444034Y-90642555D01*
X128327095Y-90730095D01*
X128239555Y-90847034D01*
X128239555Y-90847035D01*
X128188505Y-90983906D01*
X128182000Y-91044402D01*
X128182000Y-91689000D01*
X129109297Y-91689000D01*
X129074075Y-91750007D01*
X129040000Y-91877174D01*
X129040000Y-92008826D01*
X129074075Y-92135993D01*
X129109297Y-92197000D01*
X128182000Y-92197000D01*
X128182000Y-92841597D01*
X128188505Y-92902093D01*
X128239555Y-93038964D01*
X128239555Y-93038965D01*
X128327095Y-93155904D01*
X128444034Y-93243444D01*
X128562096Y-93287478D01*
X128618932Y-93330024D01*
X128643743Y-93396545D01*
X128628652Y-93465919D01*
X128607160Y-93494629D01*
X128503794Y-93597995D01*
X128378108Y-93770987D01*
X128281029Y-93961515D01*
X128281026Y-93961521D01*
X128214952Y-94164878D01*
X128214951Y-94164883D01*
X128214951Y-94164884D01*
X128181858Y-94373829D01*
X128181500Y-94376087D01*
X128181500Y-94384629D01*
X128161498Y-94452750D01*
X128107842Y-94499243D01*
X128037568Y-94509347D01*
X127972988Y-94479853D01*
X127966405Y-94473724D01*
X118024978Y-84532297D01*
X117990952Y-84469985D01*
X117996017Y-84399170D01*
X118038564Y-84342334D01*
X118105084Y-84317523D01*
X118171276Y-84330935D01*
X118345132Y-84419519D01*
X118570870Y-84492866D01*
X118805321Y-84530000D01*
X119042679Y-84530000D01*
X119277129Y-84492866D01*
X119502867Y-84419519D01*
X119714367Y-84311754D01*
X119795556Y-84252767D01*
X119795556Y-84252765D01*
X119089773Y-83546982D01*
X119136292Y-83534518D01*
X119261708Y-83462110D01*
X119364110Y-83359708D01*
X119436518Y-83234292D01*
X119448982Y-83187773D01*
X120154765Y-83893556D01*
X120154767Y-83893556D01*
X120213754Y-83812367D01*
X120321519Y-83600867D01*
X120394866Y-83375129D01*
X120432000Y-83140678D01*
X120432000Y-82903321D01*
X120394866Y-82668870D01*
X120321519Y-82443132D01*
X120213757Y-82231637D01*
X120213756Y-82231636D01*
X120154766Y-82150442D01*
X119448982Y-82856226D01*
X119436518Y-82809708D01*
X119364110Y-82684292D01*
X119261708Y-82581890D01*
X119136292Y-82509482D01*
X119089771Y-82497016D01*
X119795556Y-81791232D01*
X119795556Y-81791230D01*
X119714368Y-81732246D01*
X119502867Y-81624480D01*
X119277129Y-81551133D01*
X119042679Y-81514000D01*
X118805321Y-81514000D01*
X118570870Y-81551133D01*
X118345132Y-81624480D01*
X118133634Y-81732243D01*
X118052442Y-81791231D01*
X118758227Y-82497017D01*
X118711708Y-82509482D01*
X118586292Y-82581890D01*
X118483890Y-82684292D01*
X118411482Y-82809708D01*
X118399017Y-82856227D01*
X117693232Y-82150442D01*
X117693231Y-82150442D01*
X117634243Y-82231634D01*
X117526480Y-82443132D01*
X117453133Y-82668870D01*
X117416000Y-82903321D01*
X117416000Y-83140678D01*
X117453133Y-83375129D01*
X117526480Y-83600867D01*
X117615064Y-83774723D01*
X117628168Y-83844500D01*
X117601468Y-83910285D01*
X117543440Y-83951191D01*
X117472509Y-83954231D01*
X117413702Y-83921021D01*
X117188405Y-83695724D01*
X117154379Y-83633412D01*
X117151500Y-83606629D01*
X117151500Y-76276007D01*
X117171502Y-76207886D01*
X117188405Y-76186912D01*
X117899799Y-75475518D01*
X126472500Y-75475518D01*
X126472500Y-75475521D01*
X126472500Y-75654479D01*
X126507413Y-75830000D01*
X126575898Y-75995336D01*
X126675322Y-76144135D01*
X126801865Y-76270678D01*
X126950664Y-76370102D01*
X127116000Y-76438587D01*
X127160783Y-76447494D01*
X127223692Y-76480401D01*
X127225297Y-76481978D01*
X128127834Y-77384515D01*
X128161860Y-77446827D01*
X128164086Y-77460802D01*
X128167112Y-77490422D01*
X128167112Y-77490424D01*
X128167113Y-77490426D01*
X128222885Y-77658738D01*
X128267687Y-77731373D01*
X128315970Y-77809652D01*
X128315975Y-77809658D01*
X128441341Y-77935024D01*
X128441347Y-77935029D01*
X128441348Y-77935030D01*
X128592262Y-78028115D01*
X128760574Y-78083887D01*
X128864455Y-78094500D01*
X130215544Y-78094499D01*
X130319426Y-78083887D01*
X130487738Y-78028115D01*
X130638652Y-77935030D01*
X130764030Y-77809652D01*
X130857115Y-77658738D01*
X130912887Y-77490426D01*
X130923500Y-77386545D01*
X130923499Y-76485456D01*
X130912887Y-76381574D01*
X130857115Y-76213262D01*
X130764030Y-76062348D01*
X130764029Y-76062347D01*
X130764024Y-76062341D01*
X130638658Y-75936975D01*
X130638652Y-75936970D01*
X130561983Y-75889680D01*
X130487738Y-75843885D01*
X130384868Y-75809798D01*
X130319427Y-75788113D01*
X130319420Y-75788112D01*
X130215553Y-75777500D01*
X128864455Y-75777500D01*
X128760566Y-75788113D01*
X128758570Y-75788541D01*
X128757308Y-75788446D01*
X128753731Y-75788812D01*
X128753665Y-75788173D01*
X128687772Y-75783238D01*
X128643107Y-75754426D01*
X128297978Y-75409297D01*
X128263952Y-75346985D01*
X128263494Y-75344782D01*
X128260637Y-75330419D01*
X128254587Y-75300000D01*
X128186102Y-75134664D01*
X128086678Y-74985865D01*
X127960135Y-74859322D01*
X127811336Y-74759898D01*
X127664983Y-74699276D01*
X127646003Y-74691414D01*
X127646001Y-74691413D01*
X127646000Y-74691413D01*
X127557645Y-74673838D01*
X127470481Y-74656500D01*
X127470479Y-74656500D01*
X127291521Y-74656500D01*
X127291518Y-74656500D01*
X127160771Y-74682507D01*
X127116000Y-74691413D01*
X127115999Y-74691413D01*
X127115996Y-74691414D01*
X126950662Y-74759899D01*
X126801869Y-74859319D01*
X126801862Y-74859324D01*
X126675324Y-74985862D01*
X126675319Y-74985869D01*
X126575899Y-75134662D01*
X126507414Y-75299996D01*
X126472500Y-75475518D01*
X117899799Y-75475518D01*
X117995081Y-75380236D01*
X118240655Y-75134662D01*
X118506165Y-74869152D01*
X118535856Y-74824716D01*
X118589174Y-74744920D01*
X118646351Y-74606882D01*
X118675500Y-74460342D01*
X118675500Y-71501350D01*
X120153500Y-71501350D01*
X120153500Y-72598649D01*
X120160009Y-72659196D01*
X120160011Y-72659204D01*
X120211110Y-72796202D01*
X120211112Y-72796207D01*
X120298738Y-72913261D01*
X120415792Y-73000887D01*
X120415794Y-73000888D01*
X120415796Y-73000889D01*
X120455393Y-73015658D01*
X120552795Y-73051988D01*
X120552803Y-73051990D01*
X120613350Y-73058499D01*
X120613355Y-73058499D01*
X120613362Y-73058500D01*
X120613368Y-73058500D01*
X122210632Y-73058500D01*
X122210638Y-73058500D01*
X122210645Y-73058499D01*
X122210649Y-73058499D01*
X122271196Y-73051990D01*
X122271199Y-73051989D01*
X122271201Y-73051989D01*
X122408204Y-73000889D01*
X122416539Y-72994650D01*
X122525261Y-72913261D01*
X122565887Y-72858991D01*
X122622722Y-72816444D01*
X122666755Y-72808500D01*
X124470826Y-72808500D01*
X124538947Y-72828502D01*
X124578066Y-72868352D01*
X124655968Y-72994650D01*
X124655975Y-72994658D01*
X124781341Y-73120024D01*
X124781347Y-73120029D01*
X124781348Y-73120030D01*
X124932262Y-73213115D01*
X125100574Y-73268887D01*
X125204455Y-73279500D01*
X126255544Y-73279499D01*
X126359426Y-73268887D01*
X126527738Y-73213115D01*
X126678652Y-73120030D01*
X126804030Y-72994652D01*
X126804033Y-72994645D01*
X126807826Y-72989851D01*
X126865766Y-72948822D01*
X126906663Y-72942000D01*
X127226794Y-72942000D01*
X127226795Y-72942000D01*
X127376205Y-72942000D01*
X127776501Y-72942000D01*
X127844622Y-72962002D01*
X127891115Y-73015658D01*
X127902501Y-73068000D01*
X127902501Y-73146544D01*
X127913112Y-73250425D01*
X127968885Y-73418738D01*
X128061970Y-73569652D01*
X128061975Y-73569658D01*
X128187341Y-73695024D01*
X128187347Y-73695029D01*
X128187348Y-73695030D01*
X128338262Y-73788115D01*
X128506574Y-73843887D01*
X128610455Y-73854500D01*
X129961544Y-73854499D01*
X130065426Y-73843887D01*
X130233738Y-73788115D01*
X130384652Y-73695030D01*
X130510030Y-73569652D01*
X130603115Y-73418738D01*
X130658887Y-73250426D01*
X130669500Y-73146545D01*
X130669499Y-72245456D01*
X130658887Y-72141574D01*
X130603115Y-71973262D01*
X130510030Y-71822348D01*
X130510029Y-71822347D01*
X130510024Y-71822341D01*
X130384658Y-71696975D01*
X130384652Y-71696970D01*
X130377180Y-71692361D01*
X130233738Y-71603885D01*
X130149582Y-71575999D01*
X130065427Y-71548113D01*
X130065420Y-71548112D01*
X129961553Y-71537500D01*
X129961545Y-71537500D01*
X129210178Y-71537500D01*
X129142057Y-71517498D01*
X129140176Y-71516265D01*
X129132786Y-71511327D01*
X129108729Y-71501362D01*
X128994747Y-71454149D01*
X128921476Y-71439574D01*
X128921475Y-71439573D01*
X128848211Y-71425000D01*
X128848206Y-71425000D01*
X128288500Y-71425000D01*
X128220379Y-71404998D01*
X128173886Y-71351342D01*
X128162500Y-71299000D01*
X128162500Y-71284522D01*
X128162499Y-71284518D01*
X128160188Y-71272899D01*
X128127587Y-71109000D01*
X128059102Y-70943664D01*
X127959678Y-70794865D01*
X127833135Y-70668322D01*
X127684336Y-70568898D01*
X127567429Y-70520473D01*
X127519003Y-70500414D01*
X127519001Y-70500413D01*
X127519000Y-70500413D01*
X127418890Y-70480500D01*
X127343481Y-70465500D01*
X127343479Y-70465500D01*
X127164521Y-70465500D01*
X127164515Y-70465500D01*
X127113581Y-70475632D01*
X127042867Y-70469304D01*
X126986800Y-70425749D01*
X126965297Y-70364796D01*
X126963001Y-70362500D01*
X124497000Y-70362500D01*
X124497000Y-70496516D01*
X124507605Y-70600318D01*
X124507606Y-70600321D01*
X124563342Y-70768525D01*
X124656365Y-70919339D01*
X124656370Y-70919345D01*
X124781657Y-71044632D01*
X124784446Y-71046837D01*
X124785863Y-71048838D01*
X124786850Y-71049825D01*
X124786681Y-71049993D01*
X124795565Y-71062537D01*
X124810441Y-71074746D01*
X124815661Y-71090913D01*
X124825479Y-71104775D01*
X124826344Y-71123996D01*
X124832258Y-71142308D01*
X124827909Y-71158730D01*
X124828674Y-71175700D01*
X124819010Y-71192338D01*
X124814085Y-71210939D01*
X124796892Y-71230419D01*
X124793017Y-71237093D01*
X124791333Y-71238661D01*
X124784109Y-71245266D01*
X124781348Y-71246970D01*
X124771738Y-71256579D01*
X124769657Y-71258483D01*
X124740200Y-71272899D01*
X124711410Y-71288621D01*
X124707140Y-71289079D01*
X124705888Y-71289693D01*
X124703752Y-71289444D01*
X124684627Y-71291500D01*
X122796000Y-71291500D01*
X122727879Y-71271498D01*
X122681386Y-71217842D01*
X122670000Y-71165500D01*
X122670000Y-71004000D01*
X120154000Y-71004000D01*
X120154000Y-71298597D01*
X120160505Y-71359096D01*
X120162318Y-71366766D01*
X120159938Y-71367328D01*
X120164133Y-71426082D01*
X120160833Y-71437319D01*
X120160009Y-71440804D01*
X120153500Y-71501350D01*
X118675500Y-71501350D01*
X118675500Y-71425370D01*
X118695502Y-71357249D01*
X118712400Y-71336280D01*
X119938906Y-70109774D01*
X120001217Y-70075749D01*
X120072032Y-70080814D01*
X120128868Y-70123361D01*
X120153679Y-70189881D01*
X120154000Y-70198870D01*
X120154000Y-70496000D01*
X121158000Y-70496000D01*
X121666000Y-70496000D01*
X122670000Y-70496000D01*
X122670000Y-70201414D01*
X122669999Y-70201402D01*
X122663494Y-70140906D01*
X122612444Y-70004035D01*
X122612444Y-70004034D01*
X122524904Y-69887095D01*
X122432807Y-69818152D01*
X122407965Y-69799555D01*
X122271093Y-69748505D01*
X122210597Y-69742000D01*
X121666000Y-69742000D01*
X121666000Y-70496000D01*
X121158000Y-70496000D01*
X121158000Y-69742000D01*
X120610871Y-69742000D01*
X120542750Y-69721998D01*
X120541437Y-69720483D01*
X124497000Y-69720483D01*
X124497000Y-69854500D01*
X125476000Y-69854500D01*
X125984000Y-69854500D01*
X126963000Y-69854500D01*
X126963000Y-69720483D01*
X126952394Y-69616681D01*
X126952393Y-69616678D01*
X126896657Y-69448474D01*
X126803634Y-69297660D01*
X126803629Y-69297654D01*
X126678345Y-69172370D01*
X126678339Y-69172365D01*
X126527525Y-69079342D01*
X126359321Y-69023606D01*
X126359318Y-69023605D01*
X126255516Y-69013000D01*
X125984000Y-69013000D01*
X125984000Y-69854500D01*
X125476000Y-69854500D01*
X125476000Y-69013000D01*
X125204483Y-69013000D01*
X125100681Y-69023605D01*
X125100678Y-69023606D01*
X124932474Y-69079342D01*
X124781660Y-69172365D01*
X124781654Y-69172370D01*
X124656370Y-69297654D01*
X124656365Y-69297660D01*
X124563342Y-69448474D01*
X124507606Y-69616678D01*
X124507605Y-69616681D01*
X124497000Y-69720483D01*
X120541437Y-69720483D01*
X120496257Y-69668342D01*
X120486153Y-69598068D01*
X120515647Y-69533488D01*
X120521776Y-69526905D01*
X121476883Y-68571798D01*
X124363545Y-65685134D01*
X124425855Y-65651111D01*
X124472343Y-65649782D01*
X124603149Y-65670500D01*
X124603152Y-65670500D01*
X124824848Y-65670500D01*
X124824851Y-65670500D01*
X125043824Y-65635818D01*
X125254676Y-65567308D01*
X125452215Y-65466657D01*
X125631576Y-65336343D01*
X125788343Y-65179576D01*
X125918657Y-65000215D01*
X126019308Y-64802676D01*
X126087818Y-64591824D01*
X126122500Y-64372851D01*
X126122500Y-64151149D01*
X126087818Y-63932176D01*
X126019308Y-63721324D01*
X125918657Y-63523785D01*
X125820890Y-63389221D01*
X125788341Y-63344421D01*
X125631578Y-63187658D01*
X125452218Y-63057345D01*
X125452217Y-63057344D01*
X125452215Y-63057343D01*
X125254676Y-62956692D01*
X125254673Y-62956691D01*
X125254671Y-62956690D01*
X125043829Y-62888183D01*
X125043825Y-62888182D01*
X125043824Y-62888182D01*
X124824851Y-62853500D01*
X124603149Y-62853500D01*
X124384176Y-62888182D01*
X124384170Y-62888183D01*
X124173328Y-62956690D01*
X124173322Y-62956693D01*
X123975781Y-63057345D01*
X123796421Y-63187658D01*
X123756808Y-63227271D01*
X123694496Y-63261296D01*
X123623680Y-63256230D01*
X123566845Y-63213683D01*
X123549662Y-63182214D01*
X123524889Y-63115796D01*
X123524887Y-63115794D01*
X123524887Y-63115792D01*
X123437261Y-62998738D01*
X123320207Y-62911112D01*
X123320202Y-62911110D01*
X123183204Y-62860011D01*
X123183196Y-62860009D01*
X123122649Y-62853500D01*
X123122638Y-62853500D01*
X121225362Y-62853500D01*
X121225350Y-62853500D01*
X121164803Y-62860009D01*
X121164795Y-62860011D01*
X121027797Y-62911110D01*
X121027792Y-62911112D01*
X120910738Y-62998738D01*
X120823112Y-63115792D01*
X120823110Y-63115797D01*
X120772011Y-63252795D01*
X120772009Y-63252803D01*
X120765500Y-63313350D01*
X120765500Y-65210649D01*
X120772009Y-65271196D01*
X120772011Y-65271204D01*
X120823110Y-65408202D01*
X120823112Y-65408207D01*
X120910738Y-65525261D01*
X121027792Y-65612887D01*
X121027794Y-65612888D01*
X121027796Y-65612889D01*
X121046639Y-65619917D01*
X121164795Y-65663988D01*
X121164803Y-65663990D01*
X121225350Y-65670499D01*
X121225355Y-65670499D01*
X121225362Y-65670500D01*
X121928629Y-65670500D01*
X121996750Y-65690502D01*
X122043243Y-65744158D01*
X122053347Y-65814432D01*
X122023853Y-65879012D01*
X122017724Y-65885595D01*
X117327838Y-70575480D01*
X117327833Y-70575486D01*
X117244828Y-70699712D01*
X117244826Y-70699714D01*
X117244826Y-70699716D01*
X117209569Y-70784835D01*
X117209568Y-70784834D01*
X117187650Y-70837749D01*
X117187649Y-70837754D01*
X117158500Y-70984290D01*
X117158500Y-74019263D01*
X117138498Y-74087384D01*
X117121595Y-74108359D01*
X116244106Y-74985846D01*
X116181794Y-75019871D01*
X116110978Y-75014806D01*
X116054143Y-74972259D01*
X116029332Y-74905739D01*
X116030693Y-74876239D01*
X116134900Y-74245067D01*
X116135213Y-74243271D01*
X116178855Y-74004699D01*
X116179186Y-74002961D01*
X116368301Y-73052213D01*
X116368658Y-73050499D01*
X116420057Y-72813796D01*
X116420428Y-72812150D01*
X116640635Y-71867735D01*
X116641128Y-71865706D01*
X116643927Y-71854595D01*
X116700065Y-71631692D01*
X116700501Y-71630012D01*
X116951674Y-70692619D01*
X116952212Y-70690685D01*
X117018709Y-70459102D01*
X117019097Y-70457785D01*
X117301028Y-69528384D01*
X117301634Y-69526449D01*
X117375463Y-69297948D01*
X117375961Y-69296445D01*
X117688347Y-68376186D01*
X117689038Y-68374210D01*
X117770083Y-68148980D01*
X117770581Y-68147629D01*
X118113208Y-67237289D01*
X118114018Y-67235198D01*
X118116983Y-67227738D01*
X118202087Y-67013611D01*
X118202593Y-67012364D01*
X118575187Y-66112843D01*
X118576074Y-66110758D01*
X118670968Y-65893140D01*
X118671541Y-65891850D01*
X119073835Y-65003970D01*
X119074645Y-65002225D01*
X119176317Y-64788538D01*
X119176881Y-64787375D01*
X119608414Y-63912312D01*
X119609424Y-63910311D01*
X119717471Y-63701241D01*
X119718101Y-63700043D01*
X120178584Y-62838540D01*
X120179642Y-62836604D01*
X120293924Y-62632242D01*
X120294535Y-62631168D01*
X120783638Y-61784016D01*
X120784777Y-61782086D01*
X120904980Y-61582820D01*
X120905644Y-61581735D01*
X121422975Y-60749801D01*
X121424123Y-60747994D01*
X121550072Y-60553933D01*
X121550697Y-60552984D01*
X122095793Y-59737191D01*
X122097005Y-59735414D01*
X122228361Y-59546902D01*
X122229164Y-59545767D01*
X122801494Y-58747081D01*
X122802759Y-58745352D01*
X122880995Y-58640597D01*
X130794000Y-58640597D01*
X130800505Y-58701093D01*
X130851555Y-58837964D01*
X130851555Y-58837965D01*
X130939095Y-58954904D01*
X131056034Y-59042444D01*
X131192906Y-59093494D01*
X131253402Y-59099999D01*
X131253415Y-59100000D01*
X131698000Y-59100000D01*
X131698000Y-58396000D01*
X130794000Y-58396000D01*
X130794000Y-58640597D01*
X122880995Y-58640597D01*
X122939329Y-58562489D01*
X122939968Y-58561644D01*
X123539285Y-57780599D01*
X123540582Y-57778943D01*
X123682065Y-57601957D01*
X123682643Y-57601244D01*
X124308220Y-56838975D01*
X124309742Y-56837157D01*
X124455667Y-56666443D01*
X124456413Y-56665581D01*
X125107828Y-55922786D01*
X125109307Y-55921133D01*
X125259465Y-55756738D01*
X125260152Y-55755995D01*
X125936917Y-55033419D01*
X125938531Y-55031732D01*
X126092545Y-54873870D01*
X126093295Y-54873111D01*
X126794735Y-54171672D01*
X126796383Y-54170056D01*
X126954012Y-54018779D01*
X126954651Y-54018172D01*
X127680410Y-53338425D01*
X127682099Y-53336877D01*
X127842804Y-53192495D01*
X127843593Y-53191795D01*
X128592921Y-52534651D01*
X128594604Y-52533207D01*
X128758208Y-52395671D01*
X128758990Y-52395022D01*
X129531239Y-51761254D01*
X129533020Y-51759823D01*
X129699037Y-51629333D01*
X129699819Y-51628725D01*
X130494427Y-51019001D01*
X130496340Y-51017566D01*
X130664369Y-50894215D01*
X130665152Y-50893646D01*
X131326071Y-50420038D01*
X133781500Y-50420038D01*
X133781500Y-50420505D01*
X133781500Y-50671962D01*
X133820690Y-50919396D01*
X133820911Y-50920790D01*
X133898019Y-51158102D01*
X133898759Y-51160379D01*
X134013130Y-51384845D01*
X134161207Y-51588656D01*
X134161209Y-51588658D01*
X134161211Y-51588661D01*
X134339338Y-51766788D01*
X134339341Y-51766790D01*
X134339344Y-51766793D01*
X134543155Y-51914870D01*
X134767621Y-52029241D01*
X135007215Y-52107090D01*
X135199661Y-52137570D01*
X135263813Y-52167983D01*
X135301340Y-52228251D01*
X135300326Y-52299240D01*
X135261093Y-52358412D01*
X135258102Y-52360852D01*
X135253662Y-52364362D01*
X135128370Y-52489654D01*
X135128365Y-52489660D01*
X135035342Y-52640474D01*
X134979606Y-52808678D01*
X134979605Y-52808681D01*
X134969000Y-52912483D01*
X134969000Y-53584000D01*
X136398000Y-53584000D01*
X136906000Y-53584000D01*
X138335000Y-53584000D01*
X138335000Y-52912483D01*
X138324394Y-52808681D01*
X138324393Y-52808678D01*
X138268657Y-52640474D01*
X138175634Y-52489660D01*
X138175629Y-52489654D01*
X138050345Y-52364370D01*
X138050339Y-52364365D01*
X137899525Y-52271342D01*
X137800834Y-52238640D01*
X137731321Y-52215606D01*
X137731318Y-52215605D01*
X137627516Y-52205000D01*
X136906000Y-52205000D01*
X136906000Y-53584000D01*
X136398000Y-53584000D01*
X136398000Y-52205000D01*
X136176260Y-52205000D01*
X136108139Y-52184998D01*
X136061646Y-52131342D01*
X136060361Y-52122402D01*
X142392000Y-52122402D01*
X142392000Y-52367000D01*
X143646000Y-52367000D01*
X144154000Y-52367000D01*
X145408000Y-52367000D01*
X145408000Y-52122414D01*
X145407999Y-52122402D01*
X159392000Y-52122402D01*
X159392000Y-52367000D01*
X160646000Y-52367000D01*
X161154000Y-52367000D01*
X162408000Y-52367000D01*
X162408000Y-52122414D01*
X162407999Y-52122402D01*
X162401494Y-52061906D01*
X162350444Y-51925035D01*
X162350444Y-51925034D01*
X162262904Y-51808095D01*
X162145965Y-51720555D01*
X162009093Y-51669505D01*
X161948597Y-51663000D01*
X161154000Y-51663000D01*
X161154000Y-52367000D01*
X160646000Y-52367000D01*
X160646000Y-51663000D01*
X159851402Y-51663000D01*
X159790906Y-51669505D01*
X159654035Y-51720555D01*
X159654034Y-51720555D01*
X159537095Y-51808095D01*
X159449555Y-51925034D01*
X159449555Y-51925035D01*
X159398505Y-52061906D01*
X159392000Y-52122402D01*
X145407999Y-52122402D01*
X145401494Y-52061906D01*
X145350444Y-51925035D01*
X145350444Y-51925034D01*
X145262904Y-51808095D01*
X145145965Y-51720555D01*
X145009093Y-51669505D01*
X144948597Y-51663000D01*
X144154000Y-51663000D01*
X144154000Y-52367000D01*
X143646000Y-52367000D01*
X143646000Y-51663000D01*
X142851402Y-51663000D01*
X142790906Y-51669505D01*
X142654035Y-51720555D01*
X142654034Y-51720555D01*
X142537095Y-51808095D01*
X142449555Y-51925034D01*
X142449555Y-51925035D01*
X142398505Y-52061906D01*
X142392000Y-52122402D01*
X136060361Y-52122402D01*
X136051542Y-52061068D01*
X136081036Y-51996488D01*
X136119055Y-51966734D01*
X136220845Y-51914870D01*
X136424656Y-51766793D01*
X136602793Y-51588656D01*
X136750870Y-51384845D01*
X136865241Y-51160379D01*
X136943090Y-50920785D01*
X136982500Y-50671962D01*
X136982500Y-50420038D01*
X136943090Y-50171215D01*
X136865241Y-49931621D01*
X136750870Y-49707155D01*
X136602793Y-49503344D01*
X136602790Y-49503341D01*
X136602788Y-49503338D01*
X136424661Y-49325211D01*
X136424658Y-49325209D01*
X136424656Y-49325207D01*
X136220845Y-49177130D01*
X135996379Y-49062759D01*
X135996376Y-49062758D01*
X135996374Y-49062757D01*
X135756790Y-48984911D01*
X135756786Y-48984910D01*
X135756785Y-48984910D01*
X135507962Y-48945500D01*
X135256038Y-48945500D01*
X135007215Y-48984910D01*
X135007209Y-48984911D01*
X134767625Y-49062757D01*
X134767619Y-49062760D01*
X134543151Y-49177132D01*
X134339341Y-49325209D01*
X134339338Y-49325211D01*
X134161211Y-49503338D01*
X134161209Y-49503341D01*
X134013132Y-49707151D01*
X133898760Y-49931619D01*
X133898757Y-49931625D01*
X133820911Y-50171209D01*
X133820910Y-50171214D01*
X133820910Y-50171215D01*
X133781500Y-50420038D01*
X131326071Y-50420038D01*
X131481354Y-50308764D01*
X131483449Y-50307296D01*
X131653241Y-50191046D01*
X131653853Y-50190632D01*
X132491182Y-49631147D01*
X132493261Y-49629790D01*
X132664220Y-49520822D01*
X132665121Y-49520255D01*
X133522705Y-48986975D01*
X133524710Y-48985758D01*
X133696677Y-48883942D01*
X133697491Y-48883466D01*
X134574655Y-48377035D01*
X134576873Y-48375787D01*
X134749369Y-48281177D01*
X134749768Y-48280961D01*
X135646131Y-47801845D01*
X135648451Y-47800637D01*
X135820751Y-47713381D01*
X135821584Y-47712965D01*
X136735987Y-47262031D01*
X136738216Y-47260963D01*
X136910261Y-47180833D01*
X136910850Y-47180562D01*
X137842825Y-46758289D01*
X137845228Y-46757233D01*
X138016328Y-46684291D01*
X138016919Y-46684043D01*
X138225783Y-46597528D01*
X138296372Y-46589940D01*
X138359859Y-46621720D01*
X138396086Y-46682778D01*
X138400000Y-46713938D01*
X138400000Y-50906000D01*
X166400000Y-50906000D01*
X166400000Y-50420038D01*
X168325500Y-50420038D01*
X168325500Y-50420505D01*
X168325500Y-50671962D01*
X168364690Y-50919396D01*
X168364911Y-50920790D01*
X168442019Y-51158102D01*
X168442759Y-51160379D01*
X168557130Y-51384845D01*
X168705207Y-51588656D01*
X168705209Y-51588658D01*
X168705211Y-51588661D01*
X168883338Y-51766788D01*
X168883341Y-51766790D01*
X168883344Y-51766793D01*
X169087155Y-51914870D01*
X169311621Y-52029241D01*
X169551215Y-52107090D01*
X169800038Y-52146500D01*
X169800041Y-52146500D01*
X170051959Y-52146500D01*
X170051962Y-52146500D01*
X170300785Y-52107090D01*
X170540379Y-52029241D01*
X170764845Y-51914870D01*
X170968656Y-51766793D01*
X171146793Y-51588656D01*
X171294870Y-51384845D01*
X171409241Y-51160379D01*
X171487090Y-50920785D01*
X171526500Y-50671962D01*
X171526500Y-50420038D01*
X171487090Y-50171215D01*
X171409241Y-49931621D01*
X171294870Y-49707155D01*
X171146793Y-49503344D01*
X171146790Y-49503341D01*
X171146788Y-49503338D01*
X170968661Y-49325211D01*
X170968658Y-49325209D01*
X170968656Y-49325207D01*
X170764845Y-49177130D01*
X170540379Y-49062759D01*
X170540376Y-49062758D01*
X170540374Y-49062757D01*
X170300790Y-48984911D01*
X170300786Y-48984910D01*
X170300785Y-48984910D01*
X170051962Y-48945500D01*
X169800038Y-48945500D01*
X169551215Y-48984910D01*
X169551209Y-48984911D01*
X169311625Y-49062757D01*
X169311619Y-49062760D01*
X169087151Y-49177132D01*
X168883341Y-49325209D01*
X168883338Y-49325211D01*
X168705211Y-49503338D01*
X168705209Y-49503341D01*
X168557132Y-49707151D01*
X168442760Y-49931619D01*
X168442757Y-49931625D01*
X168364911Y-50171209D01*
X168364910Y-50171214D01*
X168364910Y-50171215D01*
X168325500Y-50420038D01*
X166400000Y-50420038D01*
X166400000Y-46503517D01*
X166420002Y-46435396D01*
X166473658Y-46388903D01*
X166543932Y-46378799D01*
X166574214Y-46387106D01*
G37*
G04 #@! TD.AperFunction*
G04 #@! TD*
M02*
