G04 #@! TF.GenerationSoftware,KiCad,Pcbnew,9.0.5*
G04 #@! TF.CreationDate,2025-11-22T16:47:00-05:00*
G04 #@! TF.ProjectId,esp_now_button_v2,6573705f-6e6f-4775-9f62-7574746f6e5f,rev?*
G04 #@! TF.SameCoordinates,Original*
G04 #@! TF.FileFunction,Paste,Top*
G04 #@! TF.FilePolarity,Positive*
%FSLAX46Y46*%
G04 Gerber Fmt 4.6, Leading zero omitted, Abs format (unit mm)*
G04 Created by KiCad (PCBNEW 9.0.5) date 2025-11-22 16:47:00*
%MOMM*%
%LPD*%
G01*
G04 APERTURE LIST*
G04 Aperture macros list*
%AMRoundRect*
0 Rectangle with rounded corners*
0 $1 Rounding radius*
0 $2 $3 $4 $5 $6 $7 $8 $9 X,Y pos of 4 corners*
0 Add a 4 corners polygon primitive as box body*
4,1,4,$2,$3,$4,$5,$6,$7,$8,$9,$2,$3,0*
0 Add four circle primitives for the rounded corners*
1,1,$1+$1,$2,$3*
1,1,$1+$1,$4,$5*
1,1,$1+$1,$6,$7*
1,1,$1+$1,$8,$9*
0 Add four rect primitives between the rounded corners*
20,1,$1+$1,$2,$3,$4,$5,0*
20,1,$1+$1,$4,$5,$6,$7,0*
20,1,$1+$1,$6,$7,$8,$9,0*
20,1,$1+$1,$8,$9,$2,$3,0*%
%AMFreePoly0*
4,1,9,3.862500,-0.866500,0.737500,-0.866500,0.737500,-0.450000,-0.737500,-0.450000,-0.737500,0.450000,0.737500,0.450000,0.737500,0.866500,3.862500,0.866500,3.862500,-0.866500,3.862500,-0.866500,$1*%
G04 Aperture macros list end*
%ADD10RoundRect,0.250000X0.625000X-0.400000X0.625000X0.400000X-0.625000X0.400000X-0.625000X-0.400000X0*%
%ADD11RoundRect,0.250000X-0.625000X0.400000X-0.625000X-0.400000X0.625000X-0.400000X0.625000X0.400000X0*%
%ADD12RoundRect,0.250000X-0.925000X0.875000X-0.925000X-0.875000X0.925000X-0.875000X0.925000X0.875000X0*%
%ADD13RoundRect,0.250000X0.475000X-0.337500X0.475000X0.337500X-0.475000X0.337500X-0.475000X-0.337500X0*%
%ADD14RoundRect,0.250000X0.925000X-0.875000X0.925000X0.875000X-0.925000X0.875000X-0.925000X-0.875000X0*%
%ADD15R,1.300000X0.900000*%
%ADD16FreePoly0,180.000000*%
%ADD17RoundRect,0.200000X-0.250000X-0.200000X0.250000X-0.200000X0.250000X0.200000X-0.250000X0.200000X0*%
%ADD18R,2.000000X0.900000*%
%ADD19R,0.900000X2.000000*%
%ADD20R,5.000000X5.000000*%
G04 APERTURE END LIST*
D10*
G04 #@! TO.C,R11*
X185600000Y-93790000D03*
X185600000Y-90690000D03*
G04 #@! TD*
D11*
G04 #@! TO.C,R3*
X133430000Y-97730000D03*
X133430000Y-100830000D03*
G04 #@! TD*
D10*
G04 #@! TO.C,R12*
X136570000Y-111550000D03*
X136570000Y-108450000D03*
G04 #@! TD*
D12*
G04 #@! TO.C,C5*
X136652000Y-66030000D03*
X136652000Y-71130000D03*
G04 #@! TD*
D11*
G04 #@! TO.C,R10*
X185440000Y-67660000D03*
X185440000Y-70760000D03*
G04 #@! TD*
D10*
G04 #@! TO.C,R9*
X129540000Y-86894000D03*
X129540000Y-83794000D03*
G04 #@! TD*
D13*
G04 #@! TO.C,C1*
X140462000Y-57171500D03*
X140462000Y-55096500D03*
G04 #@! TD*
D10*
G04 #@! TO.C,R4*
X129540000Y-80036000D03*
X129540000Y-76936000D03*
G04 #@! TD*
G04 #@! TO.C,R6*
X138938000Y-92762000D03*
X138938000Y-89662000D03*
G04 #@! TD*
D13*
G04 #@! TO.C,C3*
X125730000Y-72183500D03*
X125730000Y-70108500D03*
G04 #@! TD*
D14*
G04 #@! TO.C,C2*
X136652000Y-58938000D03*
X136652000Y-53838000D03*
G04 #@! TD*
D10*
G04 #@! TO.C,R5*
X133858000Y-80036000D03*
X133858000Y-76936000D03*
G04 #@! TD*
G04 #@! TO.C,R7*
X138938000Y-86386000D03*
X138938000Y-83286000D03*
G04 #@! TD*
D15*
G04 #@! TO.C,U2*
X131952000Y-58142000D03*
D16*
X131864500Y-56642000D03*
D15*
X131952000Y-55142000D03*
G04 #@! TD*
D17*
G04 #@! TO.C,Q1*
X131370000Y-103630000D03*
X131370000Y-105530000D03*
X133370000Y-104580000D03*
G04 #@! TD*
D10*
G04 #@! TO.C,R2*
X129286000Y-72696000D03*
X129286000Y-69596000D03*
G04 #@! TD*
D18*
G04 #@! TO.C,U1*
X143900000Y-52621000D03*
X143900000Y-53891000D03*
X143900000Y-55161000D03*
X143900000Y-56431000D03*
X143900000Y-57701000D03*
X143900000Y-58971000D03*
X143900000Y-60241000D03*
X143900000Y-61511000D03*
X143900000Y-62781000D03*
X143900000Y-64051000D03*
X143900000Y-65321000D03*
X143900000Y-66591000D03*
X143900000Y-67861000D03*
X143900000Y-69131000D03*
D19*
X146685000Y-70131000D03*
X147955000Y-70131000D03*
X149225000Y-70131000D03*
X150495000Y-70131000D03*
X151765000Y-70131000D03*
X153035000Y-70131000D03*
X154305000Y-70131000D03*
X155575000Y-70131000D03*
X156845000Y-70131000D03*
X158115000Y-70131000D03*
D18*
X160900000Y-69131000D03*
X160900000Y-67861000D03*
X160900000Y-66591000D03*
X160900000Y-65321000D03*
X160900000Y-64051000D03*
X160900000Y-62781000D03*
X160900000Y-61511000D03*
X160900000Y-60241000D03*
X160900000Y-58971000D03*
X160900000Y-57701000D03*
X160900000Y-56431000D03*
X160900000Y-55161000D03*
X160900000Y-53891000D03*
X160900000Y-52621000D03*
D20*
X151400000Y-60121000D03*
G04 #@! TD*
D11*
G04 #@! TO.C,R8*
X136540000Y-97670000D03*
X136540000Y-100770000D03*
G04 #@! TD*
G04 #@! TO.C,R1*
X136520000Y-103200000D03*
X136520000Y-106300000D03*
G04 #@! TD*
M02*
