M48
; DRILL file {KiCad 9.0.5} date 2025-11-22T16:47:00-0500
; FORMAT={-:-/ absolute / metric / decimal}
; #@! TF.CreationDate,2025-11-22T16:47:00-05:00
; #@! TF.GenerationSoftware,Kicad,Pcbnew,9.0.5
; #@! TF.FileFunction,Plated,1,2,PTH
FMAT,2
METRIC
; #@! TA.AperFunction,Plated,PTH,ViaDrill
T1C0.400
; #@! TA.AperFunction,Plated,PTH,ComponentDrill
T2C0.750
; #@! TA.AperFunction,Plated,PTH,ComponentDrill
T3C0.900
; #@! TA.AperFunction,Plated,PTH,ComponentDrill
T4C1.000
; #@! TA.AperFunction,Plated,PTH,ComponentDrill
T5C1.100
; #@! TA.AperFunction,Plated,PTH,ComponentDrill
T6C1.300
; #@! TA.AperFunction,Plated,PTH,ComponentDrill
T7C1.540
%
G90
G05
T1
X127.254Y-71.374
X127.381Y-75.565
X133.55Y-96.28
X136.652Y-80.01
X136.652Y-85.81
X136.77Y-96.08
X137.414Y-75.184
X139.612Y-66.04
X141.732Y-69.85
X144.272Y-88.9
X146.05Y-64.77
X147.828Y-72.39
X147.828Y-75.184
X158.496Y-63.5
X163.576Y-69.088
X164.846Y-65.278
T2
X131.572Y-61.214
X131.572Y-62.484
X131.572Y-63.754
T3
X122.174Y-64.262
X122.174Y-97.2
X124.714Y-64.262
X124.714Y-97.2
X139.24Y-99.03
X141.78Y-99.03
X180.665Y-64.262
X180.665Y-97.2
X183.205Y-64.262
X183.205Y-97.2
T4
X129.54Y-91.943
X129.54Y-94.483
X133.858Y-84.592
X133.858Y-87.132
X133.858Y-89.672
X133.858Y-92.212
X165.862Y-109.474
X168.362Y-109.474
T5
X118.924Y-78.522
X118.924Y-83.022
X125.424Y-78.522
X125.424Y-83.022
T6
X146.75Y-78.272
X146.75Y-83.272
X159.25Y-78.272
X159.25Y-83.272
T7
X145.287Y-91.874
X145.287Y-114.774
X148.787Y-91.874
X156.387Y-91.874
X159.487Y-114.774
X159.787Y-91.874
M30
